G04 #@! TF.GenerationSoftware,KiCad,Pcbnew,6.0.11+dfsg-1*
G04 #@! TF.CreationDate,2024-10-29T09:23:30+01:00*
G04 #@! TF.ProjectId,kaarten_shieter,6b616172-7465-46e5-9f73-686965746572,rev?*
G04 #@! TF.SameCoordinates,Original*
G04 #@! TF.FileFunction,Soldermask,Top*
G04 #@! TF.FilePolarity,Negative*
%FSLAX46Y46*%
G04 Gerber Fmt 4.6, Leading zero omitted, Abs format (unit mm)*
G04 Created by KiCad (PCBNEW 6.0.11+dfsg-1) date 2024-10-29 09:23:30*
%MOMM*%
%LPD*%
G01*
G04 APERTURE LIST*
G04 Aperture macros list*
%AMRoundRect*
0 Rectangle with rounded corners*
0 $1 Rounding radius*
0 $2 $3 $4 $5 $6 $7 $8 $9 X,Y pos of 4 corners*
0 Add a 4 corners polygon primitive as box body*
4,1,4,$2,$3,$4,$5,$6,$7,$8,$9,$2,$3,0*
0 Add four circle primitives for the rounded corners*
1,1,$1+$1,$2,$3*
1,1,$1+$1,$4,$5*
1,1,$1+$1,$6,$7*
1,1,$1+$1,$8,$9*
0 Add four rect primitives between the rounded corners*
20,1,$1+$1,$2,$3,$4,$5,0*
20,1,$1+$1,$4,$5,$6,$7,0*
20,1,$1+$1,$6,$7,$8,$9,0*
20,1,$1+$1,$8,$9,$2,$3,0*%
%AMFreePoly0*
4,1,6,1.000000,0.000000,0.500000,-0.750000,-0.500000,-0.750000,-0.500000,0.750000,0.500000,0.750000,1.000000,0.000000,1.000000,0.000000,$1*%
G04 Aperture macros list end*
%ADD10R,2.000000X2.000000*%
%ADD11C,2.000000*%
%ADD12R,1.700000X1.700000*%
%ADD13O,1.700000X1.700000*%
%ADD14RoundRect,0.250000X-0.250000X-0.475000X0.250000X-0.475000X0.250000X0.475000X-0.250000X0.475000X0*%
%ADD15C,0.500000*%
%ADD16C,2.704000*%
%ADD17RoundRect,0.250000X0.725000X-0.600000X0.725000X0.600000X-0.725000X0.600000X-0.725000X-0.600000X0*%
%ADD18O,1.950000X1.700000*%
%ADD19R,1.600000X1.600000*%
%ADD20C,1.600000*%
%ADD21RoundRect,0.250000X0.475000X-0.250000X0.475000X0.250000X-0.475000X0.250000X-0.475000X-0.250000X0*%
%ADD22RoundRect,0.250000X0.262500X0.450000X-0.262500X0.450000X-0.262500X-0.450000X0.262500X-0.450000X0*%
%ADD23RoundRect,0.250000X0.450000X-0.262500X0.450000X0.262500X-0.450000X0.262500X-0.450000X-0.262500X0*%
%ADD24R,1.750000X0.450000*%
%ADD25RoundRect,0.250000X0.750000X-0.600000X0.750000X0.600000X-0.750000X0.600000X-0.750000X-0.600000X0*%
%ADD26O,2.000000X1.700000*%
%ADD27RoundRect,0.243750X0.243750X0.456250X-0.243750X0.456250X-0.243750X-0.456250X0.243750X-0.456250X0*%
%ADD28R,1.050000X0.600000*%
%ADD29C,1.854000*%
%ADD30C,1.734000*%
%ADD31RoundRect,0.250000X-0.600000X-0.750000X0.600000X-0.750000X0.600000X0.750000X-0.600000X0.750000X0*%
%ADD32O,1.700000X2.000000*%
%ADD33R,1.500000X1.500000*%
%ADD34FreePoly0,180.000000*%
%ADD35FreePoly0,0.000000*%
%ADD36RoundRect,0.102000X-0.754000X-0.754000X0.754000X-0.754000X0.754000X0.754000X-0.754000X0.754000X0*%
%ADD37C,1.712000*%
%ADD38C,3.204000*%
%ADD39R,1.500000X0.900000*%
%ADD40R,0.900000X1.500000*%
%ADD41C,0.475000*%
%ADD42R,4.200000X4.200000*%
%ADD43RoundRect,0.250000X-1.550000X0.750000X-1.550000X-0.750000X1.550000X-0.750000X1.550000X0.750000X0*%
%ADD44O,3.600000X2.000000*%
%ADD45RoundRect,0.250000X-0.600000X-0.725000X0.600000X-0.725000X0.600000X0.725000X-0.600000X0.725000X0*%
%ADD46O,1.700000X1.950000*%
%ADD47RoundRect,0.250000X1.550000X-0.750000X1.550000X0.750000X-1.550000X0.750000X-1.550000X-0.750000X0*%
G04 APERTURE END LIST*
D10*
X113942500Y-100500000D03*
D11*
X113942500Y-104200000D03*
X113942500Y-107000000D03*
X124242500Y-107000000D03*
X124242500Y-104100000D03*
X124242500Y-100500000D03*
D12*
X177500000Y-136950000D03*
D13*
X177500000Y-134410000D03*
X177500000Y-131870000D03*
X177500000Y-129330000D03*
X177500000Y-126790000D03*
D14*
X172550000Y-129950000D03*
X174450000Y-129950000D03*
D15*
X136500000Y-92238000D03*
X139500000Y-94524000D03*
X136500000Y-93000000D03*
X139500000Y-93000000D03*
X139500000Y-91488000D03*
X136500000Y-93750000D03*
X136500000Y-91488000D03*
X139500000Y-93750000D03*
X139500000Y-92250000D03*
X136500000Y-94524000D03*
D16*
X147900000Y-80000000D03*
D17*
X142400000Y-85100000D03*
D18*
X142400000Y-82600000D03*
X142400000Y-80100000D03*
D19*
X150674440Y-99100000D03*
D20*
X153174440Y-99100000D03*
D21*
X156000000Y-132850000D03*
X156000000Y-130950000D03*
D22*
X171000000Y-129950000D03*
X169175000Y-129950000D03*
D23*
X156000000Y-128362500D03*
X156000000Y-126537500D03*
D24*
X159900000Y-127725000D03*
X159900000Y-128375000D03*
X159900000Y-129025000D03*
X159900000Y-129675000D03*
X159900000Y-130325000D03*
X159900000Y-130975000D03*
X159900000Y-131625000D03*
X159900000Y-132275000D03*
X159900000Y-132925000D03*
X159900000Y-133575000D03*
X159900000Y-134225000D03*
X159900000Y-134875000D03*
X159900000Y-135525000D03*
X159900000Y-136175000D03*
X167100000Y-136175000D03*
X167100000Y-135525000D03*
X167100000Y-134875000D03*
X167100000Y-134225000D03*
X167100000Y-133575000D03*
X167100000Y-132925000D03*
X167100000Y-132275000D03*
X167100000Y-131625000D03*
X167100000Y-130975000D03*
X167100000Y-130325000D03*
X167100000Y-129675000D03*
X167100000Y-129025000D03*
X167100000Y-128375000D03*
X167100000Y-127725000D03*
D25*
X168905000Y-111050000D03*
D26*
X168905000Y-108550000D03*
D27*
X171025000Y-126950000D03*
X169150000Y-126950000D03*
D15*
X141500000Y-128500000D03*
X136500000Y-133750000D03*
X141500000Y-127750000D03*
X141500000Y-131500000D03*
X136500000Y-128500000D03*
X136500000Y-133000000D03*
X141500000Y-135250000D03*
X136500000Y-131500000D03*
X141500000Y-130750000D03*
X136500000Y-130000000D03*
X136500000Y-129250000D03*
X136500000Y-128500000D03*
X136500000Y-132250000D03*
X141500000Y-129250000D03*
X136500000Y-127750000D03*
X141500000Y-133750000D03*
X141500000Y-128500000D03*
X141500000Y-132250000D03*
X141500000Y-130000000D03*
X141500000Y-134500000D03*
X136500000Y-134500000D03*
X141500000Y-133000000D03*
X136500000Y-135250000D03*
X136500000Y-130750000D03*
X139500000Y-113988000D03*
X136500000Y-116250000D03*
X136500000Y-117024000D03*
X139500000Y-117024000D03*
X136500000Y-113988000D03*
X139500000Y-114750000D03*
X139500000Y-116250000D03*
X136500000Y-114738000D03*
X136500000Y-115500000D03*
X139500000Y-115500000D03*
D28*
X152600000Y-137400000D03*
X152600000Y-135500000D03*
X150400000Y-136450000D03*
D29*
X179170000Y-116075000D03*
X176630000Y-116075000D03*
X179170000Y-113535000D03*
X176630000Y-113535000D03*
X179170000Y-110995000D03*
X176630000Y-110995000D03*
D15*
X158988000Y-125000000D03*
X159750000Y-122000000D03*
X161250000Y-125000000D03*
X162024000Y-122000000D03*
X162024000Y-125000000D03*
X160500000Y-122000000D03*
X158988000Y-122000000D03*
X159738000Y-125000000D03*
X161250000Y-122000000D03*
X160500000Y-125000000D03*
D14*
X172600000Y-126950000D03*
X174500000Y-126950000D03*
D15*
X148762000Y-122000000D03*
X146476000Y-122000000D03*
X148000000Y-125000000D03*
X147250000Y-125000000D03*
X146476000Y-125000000D03*
X147250000Y-122000000D03*
X148000000Y-122000000D03*
X149512000Y-122000000D03*
X149512000Y-125000000D03*
X148750000Y-125000000D03*
X173000000Y-122000000D03*
X171488000Y-122000000D03*
X173750000Y-122000000D03*
X174524000Y-122000000D03*
X172250000Y-122000000D03*
X173750000Y-125000000D03*
X172238000Y-125000000D03*
X174524000Y-125000000D03*
X171488000Y-125000000D03*
X173000000Y-125000000D03*
D19*
X176004169Y-81335000D03*
D20*
X179804169Y-81335000D03*
D16*
X131500000Y-137000000D03*
D15*
X139500000Y-105524000D03*
X136500000Y-103238000D03*
X136500000Y-104750000D03*
X136500000Y-104000000D03*
X139500000Y-103250000D03*
X139500000Y-104750000D03*
X139500000Y-102488000D03*
X139500000Y-104000000D03*
X136500000Y-105524000D03*
X136500000Y-102488000D03*
D19*
X172500000Y-136950000D03*
D20*
X172500000Y-134950000D03*
D12*
X171580000Y-79525000D03*
D13*
X171580000Y-82065000D03*
X169040000Y-79525000D03*
X169040000Y-82065000D03*
X166500000Y-79525000D03*
X166500000Y-82065000D03*
X163960000Y-79525000D03*
X163960000Y-82065000D03*
X161420000Y-79525000D03*
X161420000Y-82065000D03*
X158880000Y-79525000D03*
X158880000Y-82065000D03*
X156340000Y-79525000D03*
X156340000Y-82065000D03*
X153800000Y-79525000D03*
X153800000Y-82065000D03*
X151260000Y-79525000D03*
X151260000Y-82065000D03*
D19*
X105000000Y-83202651D03*
D20*
X105000000Y-79402651D03*
D30*
X145770000Y-134490000D03*
X143230000Y-134490000D03*
X145770000Y-131950000D03*
X143230000Y-131950000D03*
X145770000Y-129410000D03*
X143230000Y-129410000D03*
D31*
X152200000Y-104825000D03*
D32*
X154700000Y-104825000D03*
D16*
X110000000Y-109500000D03*
D12*
X131160000Y-78500000D03*
D13*
X133700000Y-78500000D03*
X131160000Y-81040000D03*
X133700000Y-81040000D03*
X131160000Y-83580000D03*
X133700000Y-83580000D03*
X131160000Y-86120000D03*
X133700000Y-86120000D03*
X131160000Y-88660000D03*
X133700000Y-88660000D03*
X131160000Y-91200000D03*
X133700000Y-91200000D03*
X131160000Y-93740000D03*
X133700000Y-93740000D03*
X131160000Y-96280000D03*
X133700000Y-96280000D03*
X131160000Y-98820000D03*
X133700000Y-98820000D03*
D28*
X152590000Y-128450000D03*
X152590000Y-126550000D03*
X150390000Y-127500000D03*
D16*
X147700000Y-116200000D03*
D33*
X150300000Y-130600000D03*
X152700000Y-130600000D03*
D34*
X153500000Y-130600000D03*
D35*
X149500000Y-130600000D03*
D12*
X171140000Y-117475000D03*
D13*
X171140000Y-120015000D03*
X168600000Y-117475000D03*
X168600000Y-120015000D03*
X166060000Y-117475000D03*
X166060000Y-120015000D03*
X163520000Y-117475000D03*
X163520000Y-120015000D03*
X160980000Y-117475000D03*
X160980000Y-120015000D03*
X158440000Y-117475000D03*
X158440000Y-120015000D03*
X155900000Y-117475000D03*
X155900000Y-120015000D03*
X153360000Y-117475000D03*
X153360000Y-120015000D03*
X150820000Y-117475000D03*
X150820000Y-120015000D03*
D23*
X156000000Y-137362500D03*
X156000000Y-135537500D03*
D36*
X109690000Y-114500000D03*
D37*
X112230000Y-114500000D03*
X114770000Y-114500000D03*
X117310000Y-114500000D03*
D38*
X102500000Y-115000000D03*
X124500000Y-115000000D03*
X124500000Y-137000000D03*
X102500000Y-137000000D03*
D39*
X110340000Y-77750000D03*
X110340000Y-79020000D03*
X110340000Y-80290000D03*
X110340000Y-81560000D03*
X110340000Y-82830000D03*
X110340000Y-84100000D03*
X110340000Y-85370000D03*
X110340000Y-86640000D03*
X110340000Y-87910000D03*
X110340000Y-89180000D03*
X110340000Y-90450000D03*
X110340000Y-91720000D03*
X110340000Y-92990000D03*
X110340000Y-94260000D03*
D40*
X113380000Y-95510000D03*
X114650000Y-95510000D03*
X115920000Y-95510000D03*
X117190000Y-95510000D03*
X118460000Y-95510000D03*
X119730000Y-95510000D03*
X121000000Y-95510000D03*
X122270000Y-95510000D03*
X123540000Y-95510000D03*
X124810000Y-95510000D03*
D39*
X127840000Y-94260000D03*
X127840000Y-92990000D03*
X127840000Y-91720000D03*
X127840000Y-90450000D03*
X127840000Y-89180000D03*
X127840000Y-87910000D03*
X127840000Y-86640000D03*
X127840000Y-85370000D03*
X127840000Y-84100000D03*
X127840000Y-82830000D03*
X127840000Y-81560000D03*
X127840000Y-80290000D03*
X127840000Y-79020000D03*
X127840000Y-77750000D03*
D41*
X119172500Y-83565000D03*
X119172500Y-86615000D03*
X119172500Y-85090000D03*
X117647500Y-85090000D03*
X118410000Y-85852500D03*
X118410000Y-84327500D03*
X117647500Y-86615000D03*
X116885000Y-84327500D03*
X117647500Y-83565000D03*
X119935000Y-85852500D03*
X116885000Y-85852500D03*
D42*
X118410000Y-85090000D03*
D41*
X119935000Y-84327500D03*
D43*
X131077500Y-121300000D03*
D44*
X131077500Y-126300000D03*
X131077500Y-131300000D03*
D29*
X132970000Y-111540000D03*
X130430000Y-111540000D03*
X132970000Y-109000000D03*
X130430000Y-109000000D03*
X132970000Y-106460000D03*
X130430000Y-106460000D03*
D40*
X181350000Y-86785000D03*
X180080000Y-86785000D03*
X178810000Y-86785000D03*
X177540000Y-86785000D03*
X176270000Y-86785000D03*
X175000000Y-86785000D03*
X173730000Y-86785000D03*
X172460000Y-86785000D03*
X171190000Y-86785000D03*
X169920000Y-86785000D03*
X168650000Y-86785000D03*
X167380000Y-86785000D03*
X166110000Y-86785000D03*
X164840000Y-86785000D03*
D39*
X163590000Y-89825000D03*
X163590000Y-91095000D03*
X163590000Y-92365000D03*
X163590000Y-93635000D03*
X163590000Y-94905000D03*
X163590000Y-96175000D03*
X163590000Y-97445000D03*
X163590000Y-98715000D03*
X163590000Y-99985000D03*
X163590000Y-101255000D03*
D40*
X164840000Y-104285000D03*
X166110000Y-104285000D03*
X167380000Y-104285000D03*
X168650000Y-104285000D03*
X169920000Y-104285000D03*
X171190000Y-104285000D03*
X172460000Y-104285000D03*
X173730000Y-104285000D03*
X175000000Y-104285000D03*
X176270000Y-104285000D03*
X177540000Y-104285000D03*
X178810000Y-104285000D03*
X180080000Y-104285000D03*
X181350000Y-104285000D03*
D41*
X175535000Y-94092500D03*
X172485000Y-95617500D03*
X173247500Y-93330000D03*
X173247500Y-94855000D03*
X174010000Y-94092500D03*
X174010000Y-95617500D03*
X174772500Y-96380000D03*
D42*
X174010000Y-94855000D03*
D41*
X175535000Y-95617500D03*
X173247500Y-96380000D03*
X174772500Y-94855000D03*
X174772500Y-93330000D03*
X172485000Y-94092500D03*
D31*
X152200000Y-111675000D03*
D32*
X154700000Y-111675000D03*
D45*
X152100000Y-86775000D03*
D46*
X154600000Y-86775000D03*
X157100000Y-86775000D03*
X159600000Y-86775000D03*
D12*
X103140000Y-87497953D03*
D13*
X105680000Y-87497953D03*
X103140000Y-90037953D03*
X105680000Y-90037953D03*
X103140000Y-92577953D03*
X105680000Y-92577953D03*
X103140000Y-95117953D03*
X105680000Y-95117953D03*
X103140000Y-97657953D03*
X105680000Y-97657953D03*
X103140000Y-100197953D03*
X105680000Y-100197953D03*
X103140000Y-102737953D03*
X105680000Y-102737953D03*
X103140000Y-105277953D03*
X105680000Y-105277953D03*
X103140000Y-107817953D03*
X105680000Y-107817953D03*
D17*
X142375000Y-119100000D03*
D18*
X142375000Y-116600000D03*
X142375000Y-114100000D03*
D33*
X152700000Y-133300000D03*
X150300000Y-133300000D03*
D34*
X153500000Y-133300000D03*
D35*
X149500000Y-133300000D03*
D19*
X150694888Y-93500000D03*
D20*
X153194888Y-93500000D03*
D47*
X144800000Y-107100000D03*
D44*
X144800000Y-102100000D03*
X144800000Y-97100000D03*
X144800000Y-92100000D03*
D15*
X136500000Y-81738000D03*
X139500000Y-81750000D03*
X139500000Y-80988000D03*
X136500000Y-82500000D03*
X139500000Y-84024000D03*
X139500000Y-82500000D03*
X136500000Y-84024000D03*
X136500000Y-80988000D03*
X136500000Y-83250000D03*
X139500000Y-83250000D03*
M02*
