G04 #@! TF.GenerationSoftware,KiCad,Pcbnew,6.0.11+dfsg-1*
G04 #@! TF.CreationDate,2024-10-29T09:23:30+01:00*
G04 #@! TF.ProjectId,kaarten_shieter,6b616172-7465-46e5-9f73-686965746572,rev?*
G04 #@! TF.SameCoordinates,Original*
G04 #@! TF.FileFunction,Soldermask,Bot*
G04 #@! TF.FilePolarity,Negative*
%FSLAX46Y46*%
G04 Gerber Fmt 4.6, Leading zero omitted, Abs format (unit mm)*
G04 Created by KiCad (PCBNEW 6.0.11+dfsg-1) date 2024-10-29 09:23:30*
%MOMM*%
%LPD*%
G01*
G04 APERTURE LIST*
G04 Aperture macros list*
%AMRoundRect*
0 Rectangle with rounded corners*
0 $1 Rounding radius*
0 $2 $3 $4 $5 $6 $7 $8 $9 X,Y pos of 4 corners*
0 Add a 4 corners polygon primitive as box body*
4,1,4,$2,$3,$4,$5,$6,$7,$8,$9,$2,$3,0*
0 Add four circle primitives for the rounded corners*
1,1,$1+$1,$2,$3*
1,1,$1+$1,$4,$5*
1,1,$1+$1,$6,$7*
1,1,$1+$1,$8,$9*
0 Add four rect primitives between the rounded corners*
20,1,$1+$1,$2,$3,$4,$5,0*
20,1,$1+$1,$4,$5,$6,$7,0*
20,1,$1+$1,$6,$7,$8,$9,0*
20,1,$1+$1,$8,$9,$2,$3,0*%
G04 Aperture macros list end*
%ADD10R,2.000000X2.000000*%
%ADD11C,2.000000*%
%ADD12R,1.700000X1.700000*%
%ADD13O,1.700000X1.700000*%
%ADD14C,0.500000*%
%ADD15C,2.704000*%
%ADD16RoundRect,0.250000X0.725000X-0.600000X0.725000X0.600000X-0.725000X0.600000X-0.725000X-0.600000X0*%
%ADD17O,1.950000X1.700000*%
%ADD18R,1.600000X1.600000*%
%ADD19C,1.600000*%
%ADD20RoundRect,0.250000X0.750000X-0.600000X0.750000X0.600000X-0.750000X0.600000X-0.750000X-0.600000X0*%
%ADD21O,2.000000X1.700000*%
%ADD22C,1.854000*%
%ADD23C,1.734000*%
%ADD24RoundRect,0.250000X-0.600000X-0.750000X0.600000X-0.750000X0.600000X0.750000X-0.600000X0.750000X0*%
%ADD25O,1.700000X2.000000*%
%ADD26RoundRect,0.102000X-0.754000X-0.754000X0.754000X-0.754000X0.754000X0.754000X-0.754000X0.754000X0*%
%ADD27C,1.712000*%
%ADD28C,3.204000*%
%ADD29RoundRect,0.250000X-1.550000X0.750000X-1.550000X-0.750000X1.550000X-0.750000X1.550000X0.750000X0*%
%ADD30O,3.600000X2.000000*%
%ADD31RoundRect,0.250000X-0.600000X-0.725000X0.600000X-0.725000X0.600000X0.725000X-0.600000X0.725000X0*%
%ADD32O,1.700000X1.950000*%
%ADD33RoundRect,0.250000X1.550000X-0.750000X1.550000X0.750000X-1.550000X0.750000X-1.550000X-0.750000X0*%
%ADD34RoundRect,0.250000X0.250000X0.475000X-0.250000X0.475000X-0.250000X-0.475000X0.250000X-0.475000X0*%
%ADD35RoundRect,0.250000X-0.475000X0.250000X-0.475000X-0.250000X0.475000X-0.250000X0.475000X0.250000X0*%
%ADD36RoundRect,0.250000X0.450000X-0.262500X0.450000X0.262500X-0.450000X0.262500X-0.450000X-0.262500X0*%
%ADD37RoundRect,0.250000X-0.250000X-0.475000X0.250000X-0.475000X0.250000X0.475000X-0.250000X0.475000X0*%
%ADD38RoundRect,0.250000X0.262500X0.450000X-0.262500X0.450000X-0.262500X-0.450000X0.262500X-0.450000X0*%
%ADD39RoundRect,0.250000X-0.450000X0.262500X-0.450000X-0.262500X0.450000X-0.262500X0.450000X0.262500X0*%
%ADD40R,1.400000X1.600000*%
%ADD41R,1.600000X1.400000*%
%ADD42RoundRect,0.250000X-0.262500X-0.450000X0.262500X-0.450000X0.262500X0.450000X-0.262500X0.450000X0*%
%ADD43RoundRect,0.243750X0.456250X-0.243750X0.456250X0.243750X-0.456250X0.243750X-0.456250X-0.243750X0*%
%ADD44RoundRect,0.150000X-0.587500X-0.150000X0.587500X-0.150000X0.587500X0.150000X-0.587500X0.150000X0*%
%ADD45RoundRect,0.243750X0.243750X0.456250X-0.243750X0.456250X-0.243750X-0.456250X0.243750X-0.456250X0*%
%ADD46RoundRect,0.100000X-0.100000X0.637500X-0.100000X-0.637500X0.100000X-0.637500X0.100000X0.637500X0*%
%ADD47RoundRect,0.250000X0.475000X-0.250000X0.475000X0.250000X-0.475000X0.250000X-0.475000X-0.250000X0*%
%ADD48RoundRect,0.243750X-0.243750X-0.456250X0.243750X-0.456250X0.243750X0.456250X-0.243750X0.456250X0*%
G04 APERTURE END LIST*
D10*
X113942500Y-100500000D03*
D11*
X113942500Y-104200000D03*
X113942500Y-107000000D03*
X124242500Y-107000000D03*
X124242500Y-104100000D03*
X124242500Y-100500000D03*
D12*
X177500000Y-136950000D03*
D13*
X177500000Y-134410000D03*
X177500000Y-131870000D03*
X177500000Y-129330000D03*
X177500000Y-126790000D03*
D14*
X136500000Y-92238000D03*
X139500000Y-94524000D03*
X136500000Y-93000000D03*
X139500000Y-93000000D03*
X139500000Y-91488000D03*
X136500000Y-93750000D03*
X136500000Y-91488000D03*
X139500000Y-93750000D03*
X139500000Y-92250000D03*
X136500000Y-94524000D03*
D15*
X147900000Y-80000000D03*
D16*
X142400000Y-85100000D03*
D17*
X142400000Y-82600000D03*
X142400000Y-80100000D03*
D18*
X150674440Y-99100000D03*
D19*
X153174440Y-99100000D03*
D20*
X168905000Y-111050000D03*
D21*
X168905000Y-108550000D03*
D14*
X141500000Y-128500000D03*
X136500000Y-133750000D03*
X141500000Y-127750000D03*
X141500000Y-131500000D03*
X136500000Y-128500000D03*
X136500000Y-133000000D03*
X141500000Y-135250000D03*
X136500000Y-131500000D03*
X141500000Y-130750000D03*
X136500000Y-130000000D03*
X136500000Y-129250000D03*
X136500000Y-128500000D03*
X136500000Y-132250000D03*
X141500000Y-129250000D03*
X136500000Y-127750000D03*
X141500000Y-133750000D03*
X141500000Y-128500000D03*
X141500000Y-132250000D03*
X141500000Y-130000000D03*
X141500000Y-134500000D03*
X136500000Y-134500000D03*
X141500000Y-133000000D03*
X136500000Y-135250000D03*
X136500000Y-130750000D03*
X139500000Y-113988000D03*
X136500000Y-116250000D03*
X136500000Y-117024000D03*
X139500000Y-117024000D03*
X136500000Y-113988000D03*
X139500000Y-114750000D03*
X139500000Y-116250000D03*
X136500000Y-114738000D03*
X136500000Y-115500000D03*
X139500000Y-115500000D03*
D22*
X179170000Y-116075000D03*
X176630000Y-116075000D03*
X179170000Y-113535000D03*
X176630000Y-113535000D03*
X179170000Y-110995000D03*
X176630000Y-110995000D03*
D14*
X158988000Y-125000000D03*
X159750000Y-122000000D03*
X161250000Y-125000000D03*
X162024000Y-122000000D03*
X162024000Y-125000000D03*
X160500000Y-122000000D03*
X158988000Y-122000000D03*
X159738000Y-125000000D03*
X161250000Y-122000000D03*
X160500000Y-125000000D03*
X148762000Y-122000000D03*
X146476000Y-122000000D03*
X148000000Y-125000000D03*
X147250000Y-125000000D03*
X146476000Y-125000000D03*
X147250000Y-122000000D03*
X148000000Y-122000000D03*
X149512000Y-122000000D03*
X149512000Y-125000000D03*
X148750000Y-125000000D03*
X173000000Y-122000000D03*
X171488000Y-122000000D03*
X173750000Y-122000000D03*
X174524000Y-122000000D03*
X172250000Y-122000000D03*
X173750000Y-125000000D03*
X172238000Y-125000000D03*
X174524000Y-125000000D03*
X171488000Y-125000000D03*
X173000000Y-125000000D03*
D18*
X176004169Y-81335000D03*
D19*
X179804169Y-81335000D03*
D15*
X131500000Y-137000000D03*
D14*
X139500000Y-105524000D03*
X136500000Y-103238000D03*
X136500000Y-104750000D03*
X136500000Y-104000000D03*
X139500000Y-103250000D03*
X139500000Y-104750000D03*
X139500000Y-102488000D03*
X139500000Y-104000000D03*
X136500000Y-105524000D03*
X136500000Y-102488000D03*
D18*
X172500000Y-136950000D03*
D19*
X172500000Y-134950000D03*
D12*
X171580000Y-79525000D03*
D13*
X171580000Y-82065000D03*
X169040000Y-79525000D03*
X169040000Y-82065000D03*
X166500000Y-79525000D03*
X166500000Y-82065000D03*
X163960000Y-79525000D03*
X163960000Y-82065000D03*
X161420000Y-79525000D03*
X161420000Y-82065000D03*
X158880000Y-79525000D03*
X158880000Y-82065000D03*
X156340000Y-79525000D03*
X156340000Y-82065000D03*
X153800000Y-79525000D03*
X153800000Y-82065000D03*
X151260000Y-79525000D03*
X151260000Y-82065000D03*
D18*
X105000000Y-83202651D03*
D19*
X105000000Y-79402651D03*
D23*
X145770000Y-134490000D03*
X143230000Y-134490000D03*
X145770000Y-131950000D03*
X143230000Y-131950000D03*
X145770000Y-129410000D03*
X143230000Y-129410000D03*
D24*
X152200000Y-104825000D03*
D25*
X154700000Y-104825000D03*
D15*
X110000000Y-109500000D03*
D12*
X131160000Y-78500000D03*
D13*
X133700000Y-78500000D03*
X131160000Y-81040000D03*
X133700000Y-81040000D03*
X131160000Y-83580000D03*
X133700000Y-83580000D03*
X131160000Y-86120000D03*
X133700000Y-86120000D03*
X131160000Y-88660000D03*
X133700000Y-88660000D03*
X131160000Y-91200000D03*
X133700000Y-91200000D03*
X131160000Y-93740000D03*
X133700000Y-93740000D03*
X131160000Y-96280000D03*
X133700000Y-96280000D03*
X131160000Y-98820000D03*
X133700000Y-98820000D03*
D15*
X147700000Y-116200000D03*
D12*
X171140000Y-117475000D03*
D13*
X171140000Y-120015000D03*
X168600000Y-117475000D03*
X168600000Y-120015000D03*
X166060000Y-117475000D03*
X166060000Y-120015000D03*
X163520000Y-117475000D03*
X163520000Y-120015000D03*
X160980000Y-117475000D03*
X160980000Y-120015000D03*
X158440000Y-117475000D03*
X158440000Y-120015000D03*
X155900000Y-117475000D03*
X155900000Y-120015000D03*
X153360000Y-117475000D03*
X153360000Y-120015000D03*
X150820000Y-117475000D03*
X150820000Y-120015000D03*
D26*
X109690000Y-114500000D03*
D27*
X112230000Y-114500000D03*
X114770000Y-114500000D03*
X117310000Y-114500000D03*
D28*
X102500000Y-115000000D03*
X124500000Y-115000000D03*
X124500000Y-137000000D03*
X102500000Y-137000000D03*
D29*
X131077500Y-121300000D03*
D30*
X131077500Y-126300000D03*
X131077500Y-131300000D03*
D22*
X132970000Y-111540000D03*
X130430000Y-111540000D03*
X132970000Y-109000000D03*
X130430000Y-109000000D03*
X132970000Y-106460000D03*
X130430000Y-106460000D03*
D24*
X152200000Y-111675000D03*
D25*
X154700000Y-111675000D03*
D31*
X152100000Y-86775000D03*
D32*
X154600000Y-86775000D03*
X157100000Y-86775000D03*
X159600000Y-86775000D03*
D12*
X103140000Y-87497953D03*
D13*
X105680000Y-87497953D03*
X103140000Y-90037953D03*
X105680000Y-90037953D03*
X103140000Y-92577953D03*
X105680000Y-92577953D03*
X103140000Y-95117953D03*
X105680000Y-95117953D03*
X103140000Y-97657953D03*
X105680000Y-97657953D03*
X103140000Y-100197953D03*
X105680000Y-100197953D03*
X103140000Y-102737953D03*
X105680000Y-102737953D03*
X103140000Y-105277953D03*
X105680000Y-105277953D03*
X103140000Y-107817953D03*
X105680000Y-107817953D03*
D16*
X142375000Y-119100000D03*
D17*
X142375000Y-116600000D03*
X142375000Y-114100000D03*
D18*
X150694888Y-93500000D03*
D19*
X153194888Y-93500000D03*
D33*
X144800000Y-107100000D03*
D30*
X144800000Y-102100000D03*
X144800000Y-97100000D03*
X144800000Y-92100000D03*
D14*
X136500000Y-81738000D03*
X139500000Y-81750000D03*
X139500000Y-80988000D03*
X136500000Y-82500000D03*
X139500000Y-84024000D03*
X139500000Y-82500000D03*
X136500000Y-84024000D03*
X136500000Y-80988000D03*
X136500000Y-83250000D03*
X139500000Y-83250000D03*
D34*
X127800000Y-96100000D03*
X125900000Y-96100000D03*
D35*
X116500000Y-79000000D03*
X116500000Y-80900000D03*
D36*
X141400000Y-107100000D03*
X141400000Y-105275000D03*
X123765000Y-111825000D03*
X123765000Y-110000000D03*
D37*
X112500000Y-83900000D03*
X114400000Y-83900000D03*
D36*
X144800000Y-83012500D03*
X144800000Y-81187500D03*
D38*
X148422500Y-112035000D03*
X146597500Y-112035000D03*
D36*
X159300000Y-103997500D03*
X159300000Y-102172500D03*
D39*
X141400000Y-97100000D03*
X141400000Y-98925000D03*
D36*
X144800000Y-86425000D03*
X144800000Y-84600000D03*
D39*
X118500000Y-79000000D03*
X118500000Y-80825000D03*
D34*
X179990000Y-92785000D03*
X178090000Y-92785000D03*
D37*
X162950000Y-114500000D03*
X164850000Y-114500000D03*
D40*
X127750000Y-86000000D03*
X127750000Y-94000000D03*
X123250000Y-94000000D03*
X123250000Y-86000000D03*
D41*
X165430000Y-104050000D03*
X173430000Y-104050000D03*
X173430000Y-99550000D03*
X165430000Y-99550000D03*
D35*
X121500000Y-110000000D03*
X121500000Y-111900000D03*
D34*
X157900000Y-100250000D03*
X156000000Y-100250000D03*
D35*
X174990000Y-89135000D03*
X174990000Y-91035000D03*
D42*
X152517500Y-109035000D03*
X154342500Y-109035000D03*
D43*
X121500000Y-82812500D03*
X121500000Y-80937500D03*
D34*
X161380000Y-114500000D03*
X159480000Y-114500000D03*
D39*
X112500000Y-79000000D03*
X112500000Y-80825000D03*
D38*
X152912500Y-91200000D03*
X151087500Y-91200000D03*
D34*
X179990000Y-90785000D03*
X178090000Y-90785000D03*
D44*
X148492500Y-109985000D03*
X148492500Y-108085000D03*
X150367500Y-109035000D03*
D36*
X161300000Y-103997500D03*
X161300000Y-102172500D03*
D45*
X145100000Y-99800000D03*
X143225000Y-99800000D03*
D36*
X144800000Y-89825000D03*
X144800000Y-88000000D03*
D35*
X114500000Y-79000000D03*
X114500000Y-80900000D03*
D46*
X160155000Y-106437500D03*
X160805000Y-106437500D03*
X161455000Y-106437500D03*
X162105000Y-106437500D03*
X162755000Y-106437500D03*
X163405000Y-106437500D03*
X164055000Y-106437500D03*
X164705000Y-106437500D03*
X164705000Y-112162500D03*
X164055000Y-112162500D03*
X163405000Y-112162500D03*
X162755000Y-112162500D03*
X162105000Y-112162500D03*
X161455000Y-112162500D03*
X160805000Y-112162500D03*
X160155000Y-112162500D03*
D37*
X159450000Y-100250000D03*
X161350000Y-100250000D03*
D36*
X142400000Y-88900000D03*
X142400000Y-87075000D03*
D46*
X156655000Y-92172500D03*
X157305000Y-92172500D03*
X157955000Y-92172500D03*
X158605000Y-92172500D03*
X159255000Y-92172500D03*
X159905000Y-92172500D03*
X160555000Y-92172500D03*
X161205000Y-92172500D03*
X161205000Y-97897500D03*
X160555000Y-97897500D03*
X159905000Y-97897500D03*
X159255000Y-97897500D03*
X158605000Y-97897500D03*
X157955000Y-97897500D03*
X157305000Y-97897500D03*
X156655000Y-97897500D03*
D40*
X114750000Y-94000000D03*
X114750000Y-86000000D03*
X110250000Y-86000000D03*
X110250000Y-94000000D03*
D45*
X145100000Y-104400000D03*
X143225000Y-104400000D03*
D38*
X179990000Y-88800000D03*
X178165000Y-88800000D03*
D47*
X163300000Y-104050000D03*
X163300000Y-102150000D03*
D41*
X172930000Y-91550000D03*
X164930000Y-91550000D03*
X172930000Y-87050000D03*
X164930000Y-87050000D03*
D38*
X155012500Y-96300000D03*
X153187500Y-96300000D03*
D48*
X175930000Y-98035000D03*
X177805000Y-98035000D03*
D38*
X179990000Y-94800000D03*
X178165000Y-94800000D03*
M02*
