G04 #@! TF.GenerationSoftware,KiCad,Pcbnew,6.0.11+dfsg-1*
G04 #@! TF.CreationDate,2024-10-29T09:23:30+01:00*
G04 #@! TF.ProjectId,kaarten_shieter,6b616172-7465-46e5-9f73-686965746572,rev?*
G04 #@! TF.SameCoordinates,Original*
G04 #@! TF.FileFunction,Legend,Top*
G04 #@! TF.FilePolarity,Positive*
%FSLAX46Y46*%
G04 Gerber Fmt 4.6, Leading zero omitted, Abs format (unit mm)*
G04 Created by KiCad (PCBNEW 6.0.11+dfsg-1) date 2024-10-29 09:23:30*
%MOMM*%
%LPD*%
G01*
G04 APERTURE LIST*
G04 Aperture macros list*
%AMRoundRect*
0 Rectangle with rounded corners*
0 $1 Rounding radius*
0 $2 $3 $4 $5 $6 $7 $8 $9 X,Y pos of 4 corners*
0 Add a 4 corners polygon primitive as box body*
4,1,4,$2,$3,$4,$5,$6,$7,$8,$9,$2,$3,0*
0 Add four circle primitives for the rounded corners*
1,1,$1+$1,$2,$3*
1,1,$1+$1,$4,$5*
1,1,$1+$1,$6,$7*
1,1,$1+$1,$8,$9*
0 Add four rect primitives between the rounded corners*
20,1,$1+$1,$2,$3,$4,$5,0*
20,1,$1+$1,$4,$5,$6,$7,0*
20,1,$1+$1,$6,$7,$8,$9,0*
20,1,$1+$1,$8,$9,$2,$3,0*%
%AMFreePoly0*
4,1,6,1.000000,0.000000,0.500000,-0.750000,-0.500000,-0.750000,-0.500000,0.750000,0.500000,0.750000,1.000000,0.000000,1.000000,0.000000,$1*%
G04 Aperture macros list end*
%ADD10C,0.100000*%
%ADD11C,0.150000*%
%ADD12C,0.120000*%
%ADD13C,0.200000*%
%ADD14C,0.010000*%
%ADD15C,0.127000*%
%ADD16R,2.000000X2.000000*%
%ADD17C,2.000000*%
%ADD18R,1.700000X1.700000*%
%ADD19O,1.700000X1.700000*%
%ADD20RoundRect,0.250000X-0.250000X-0.475000X0.250000X-0.475000X0.250000X0.475000X-0.250000X0.475000X0*%
%ADD21C,0.500000*%
%ADD22C,2.704000*%
%ADD23RoundRect,0.250000X0.725000X-0.600000X0.725000X0.600000X-0.725000X0.600000X-0.725000X-0.600000X0*%
%ADD24O,1.950000X1.700000*%
%ADD25R,1.600000X1.600000*%
%ADD26C,1.600000*%
%ADD27RoundRect,0.250000X0.475000X-0.250000X0.475000X0.250000X-0.475000X0.250000X-0.475000X-0.250000X0*%
%ADD28RoundRect,0.250000X0.262500X0.450000X-0.262500X0.450000X-0.262500X-0.450000X0.262500X-0.450000X0*%
%ADD29RoundRect,0.250000X0.450000X-0.262500X0.450000X0.262500X-0.450000X0.262500X-0.450000X-0.262500X0*%
%ADD30R,1.750000X0.450000*%
%ADD31RoundRect,0.250000X0.750000X-0.600000X0.750000X0.600000X-0.750000X0.600000X-0.750000X-0.600000X0*%
%ADD32O,2.000000X1.700000*%
%ADD33RoundRect,0.243750X0.243750X0.456250X-0.243750X0.456250X-0.243750X-0.456250X0.243750X-0.456250X0*%
%ADD34R,1.050000X0.600000*%
%ADD35C,1.854000*%
%ADD36C,1.734000*%
%ADD37RoundRect,0.250000X-0.600000X-0.750000X0.600000X-0.750000X0.600000X0.750000X-0.600000X0.750000X0*%
%ADD38O,1.700000X2.000000*%
%ADD39R,1.500000X1.500000*%
%ADD40FreePoly0,180.000000*%
%ADD41FreePoly0,0.000000*%
%ADD42RoundRect,0.102000X-0.754000X-0.754000X0.754000X-0.754000X0.754000X0.754000X-0.754000X0.754000X0*%
%ADD43C,1.712000*%
%ADD44C,3.204000*%
%ADD45R,1.500000X0.900000*%
%ADD46R,0.900000X1.500000*%
%ADD47C,0.475000*%
%ADD48R,4.200000X4.200000*%
%ADD49RoundRect,0.250000X-1.550000X0.750000X-1.550000X-0.750000X1.550000X-0.750000X1.550000X0.750000X0*%
%ADD50O,3.600000X2.000000*%
%ADD51RoundRect,0.250000X-0.600000X-0.725000X0.600000X-0.725000X0.600000X0.725000X-0.600000X0.725000X0*%
%ADD52O,1.700000X1.950000*%
%ADD53RoundRect,0.250000X1.550000X-0.750000X1.550000X0.750000X-1.550000X0.750000X-1.550000X-0.750000X0*%
G04 APERTURE END LIST*
D10*
X157773809Y-111057142D02*
X157773809Y-110819047D01*
X158273809Y-110819047D01*
X157773809Y-111438095D02*
X158035714Y-111438095D01*
X158083333Y-111414285D01*
X158107142Y-111366666D01*
X158107142Y-111271428D01*
X158083333Y-111223809D01*
X157797619Y-111438095D02*
X157773809Y-111390476D01*
X157773809Y-111271428D01*
X157797619Y-111223809D01*
X157845238Y-111200000D01*
X157892857Y-111200000D01*
X157940476Y-111223809D01*
X157964285Y-111271428D01*
X157964285Y-111390476D01*
X157988095Y-111438095D01*
X157797619Y-111652380D02*
X157773809Y-111700000D01*
X157773809Y-111795238D01*
X157797619Y-111842857D01*
X157845238Y-111866666D01*
X157869047Y-111866666D01*
X157916666Y-111842857D01*
X157940476Y-111795238D01*
X157940476Y-111723809D01*
X157964285Y-111676190D01*
X158011904Y-111652380D01*
X158035714Y-111652380D01*
X158083333Y-111676190D01*
X158107142Y-111723809D01*
X158107142Y-111795238D01*
X158083333Y-111842857D01*
X157797619Y-112271428D02*
X157773809Y-112223809D01*
X157773809Y-112128571D01*
X157797619Y-112080952D01*
X157845238Y-112057142D01*
X158035714Y-112057142D01*
X158083333Y-112080952D01*
X158107142Y-112128571D01*
X158107142Y-112223809D01*
X158083333Y-112271428D01*
X158035714Y-112295238D01*
X157988095Y-112295238D01*
X157940476Y-112057142D01*
X157773809Y-112509523D02*
X158107142Y-112509523D01*
X158011904Y-112509523D02*
X158059523Y-112533333D01*
X158083333Y-112557142D01*
X158107142Y-112604761D01*
X158107142Y-112652380D01*
X157821428Y-104847619D02*
X157797619Y-104823809D01*
X157773809Y-104752380D01*
X157773809Y-104704761D01*
X157797619Y-104633333D01*
X157845238Y-104585714D01*
X157892857Y-104561904D01*
X157988095Y-104538095D01*
X158059523Y-104538095D01*
X158154761Y-104561904D01*
X158202380Y-104585714D01*
X158250000Y-104633333D01*
X158273809Y-104704761D01*
X158273809Y-104752380D01*
X158250000Y-104823809D01*
X158226190Y-104847619D01*
X157773809Y-105276190D02*
X158035714Y-105276190D01*
X158083333Y-105252380D01*
X158107142Y-105204761D01*
X158107142Y-105109523D01*
X158083333Y-105061904D01*
X157797619Y-105276190D02*
X157773809Y-105228571D01*
X157773809Y-105109523D01*
X157797619Y-105061904D01*
X157845238Y-105038095D01*
X157892857Y-105038095D01*
X157940476Y-105061904D01*
X157964285Y-105109523D01*
X157964285Y-105228571D01*
X157988095Y-105276190D01*
X157773809Y-105514285D02*
X158107142Y-105514285D01*
X158011904Y-105514285D02*
X158059523Y-105538095D01*
X158083333Y-105561904D01*
X158107142Y-105609523D01*
X158107142Y-105657142D01*
X157773809Y-106038095D02*
X158273809Y-106038095D01*
X157797619Y-106038095D02*
X157773809Y-105990476D01*
X157773809Y-105895238D01*
X157797619Y-105847619D01*
X157821428Y-105823809D01*
X157869047Y-105800000D01*
X158011904Y-105800000D01*
X158059523Y-105823809D01*
X158083333Y-105847619D01*
X158107142Y-105895238D01*
X158107142Y-105990476D01*
X158083333Y-106038095D01*
X154983333Y-90926190D02*
X154983333Y-90426190D01*
X155150000Y-90783333D01*
X155316666Y-90426190D01*
X155316666Y-90926190D01*
X155626190Y-90926190D02*
X155578571Y-90902380D01*
X155554761Y-90878571D01*
X155530952Y-90830952D01*
X155530952Y-90688095D01*
X155554761Y-90640476D01*
X155578571Y-90616666D01*
X155626190Y-90592857D01*
X155697619Y-90592857D01*
X155745238Y-90616666D01*
X155769047Y-90640476D01*
X155792857Y-90688095D01*
X155792857Y-90830952D01*
X155769047Y-90878571D01*
X155745238Y-90902380D01*
X155697619Y-90926190D01*
X155626190Y-90926190D01*
X155935714Y-90592857D02*
X156126190Y-90592857D01*
X156007142Y-90426190D02*
X156007142Y-90854761D01*
X156030952Y-90902380D01*
X156078571Y-90926190D01*
X156126190Y-90926190D01*
X156364285Y-90926190D02*
X156316666Y-90902380D01*
X156292857Y-90878571D01*
X156269047Y-90830952D01*
X156269047Y-90688095D01*
X156292857Y-90640476D01*
X156316666Y-90616666D01*
X156364285Y-90592857D01*
X156435714Y-90592857D01*
X156483333Y-90616666D01*
X156507142Y-90640476D01*
X156530952Y-90688095D01*
X156530952Y-90830952D01*
X156507142Y-90878571D01*
X156483333Y-90902380D01*
X156435714Y-90926190D01*
X156364285Y-90926190D01*
X156745238Y-90926190D02*
X156745238Y-90592857D01*
X156745238Y-90688095D02*
X156769047Y-90640476D01*
X156792857Y-90616666D01*
X156840476Y-90592857D01*
X156888095Y-90592857D01*
X146197619Y-117571428D02*
X146173809Y-117642857D01*
X146173809Y-117761904D01*
X146197619Y-117809523D01*
X146221428Y-117833333D01*
X146269047Y-117857142D01*
X146316666Y-117857142D01*
X146364285Y-117833333D01*
X146388095Y-117809523D01*
X146411904Y-117761904D01*
X146435714Y-117666666D01*
X146459523Y-117619047D01*
X146483333Y-117595238D01*
X146530952Y-117571428D01*
X146578571Y-117571428D01*
X146626190Y-117595238D01*
X146650000Y-117619047D01*
X146673809Y-117666666D01*
X146673809Y-117785714D01*
X146650000Y-117857142D01*
X146197619Y-118261904D02*
X146173809Y-118214285D01*
X146173809Y-118119047D01*
X146197619Y-118071428D01*
X146245238Y-118047619D01*
X146435714Y-118047619D01*
X146483333Y-118071428D01*
X146507142Y-118119047D01*
X146507142Y-118214285D01*
X146483333Y-118261904D01*
X146435714Y-118285714D01*
X146388095Y-118285714D01*
X146340476Y-118047619D01*
X146173809Y-118500000D02*
X146507142Y-118500000D01*
X146411904Y-118500000D02*
X146459523Y-118523809D01*
X146483333Y-118547619D01*
X146507142Y-118595238D01*
X146507142Y-118642857D01*
X146507142Y-118761904D02*
X146173809Y-118880952D01*
X146507142Y-119000000D01*
X146173809Y-119261904D02*
X146197619Y-119214285D01*
X146221428Y-119190476D01*
X146269047Y-119166666D01*
X146411904Y-119166666D01*
X146459523Y-119190476D01*
X146483333Y-119214285D01*
X146507142Y-119261904D01*
X146507142Y-119333333D01*
X146483333Y-119380952D01*
X146459523Y-119404761D01*
X146411904Y-119428571D01*
X146269047Y-119428571D01*
X146221428Y-119404761D01*
X146197619Y-119380952D01*
X146173809Y-119333333D01*
X146173809Y-119261904D01*
X146473809Y-81507142D02*
X146973809Y-81507142D01*
X146973809Y-81697619D01*
X146950000Y-81745238D01*
X146926190Y-81769047D01*
X146878571Y-81792857D01*
X146807142Y-81792857D01*
X146759523Y-81769047D01*
X146735714Y-81745238D01*
X146711904Y-81697619D01*
X146711904Y-81507142D01*
X146473809Y-82078571D02*
X146497619Y-82030952D01*
X146521428Y-82007142D01*
X146569047Y-81983333D01*
X146711904Y-81983333D01*
X146759523Y-82007142D01*
X146783333Y-82030952D01*
X146807142Y-82078571D01*
X146807142Y-82150000D01*
X146783333Y-82197619D01*
X146759523Y-82221428D01*
X146711904Y-82245238D01*
X146569047Y-82245238D01*
X146521428Y-82221428D01*
X146497619Y-82197619D01*
X146473809Y-82150000D01*
X146473809Y-82078571D01*
X146807142Y-82388095D02*
X146807142Y-82578571D01*
X146973809Y-82459523D02*
X146545238Y-82459523D01*
X146497619Y-82483333D01*
X146473809Y-82530952D01*
X146473809Y-82578571D01*
X146426190Y-82626190D02*
X146426190Y-83007142D01*
X146616666Y-83102380D02*
X146616666Y-83340476D01*
X146473809Y-83054761D02*
X146973809Y-83221428D01*
X146473809Y-83388095D01*
X146473809Y-83554761D02*
X146807142Y-83554761D01*
X146711904Y-83554761D02*
X146759523Y-83578571D01*
X146783333Y-83602380D01*
X146807142Y-83650000D01*
X146807142Y-83697619D01*
X146473809Y-83864285D02*
X146807142Y-83864285D01*
X146759523Y-83864285D02*
X146783333Y-83888095D01*
X146807142Y-83935714D01*
X146807142Y-84007142D01*
X146783333Y-84054761D01*
X146735714Y-84078571D01*
X146473809Y-84078571D01*
X146735714Y-84078571D02*
X146783333Y-84102380D01*
X146807142Y-84150000D01*
X146807142Y-84221428D01*
X146783333Y-84269047D01*
X146735714Y-84292857D01*
X146473809Y-84292857D01*
X168380952Y-114602380D02*
X168452380Y-114626190D01*
X168571428Y-114626190D01*
X168619047Y-114602380D01*
X168642857Y-114578571D01*
X168666666Y-114530952D01*
X168666666Y-114483333D01*
X168642857Y-114435714D01*
X168619047Y-114411904D01*
X168571428Y-114388095D01*
X168476190Y-114364285D01*
X168428571Y-114340476D01*
X168404761Y-114316666D01*
X168380952Y-114269047D01*
X168380952Y-114221428D01*
X168404761Y-114173809D01*
X168428571Y-114150000D01*
X168476190Y-114126190D01*
X168595238Y-114126190D01*
X168666666Y-114150000D01*
X168952380Y-114626190D02*
X168904761Y-114602380D01*
X168880952Y-114578571D01*
X168857142Y-114530952D01*
X168857142Y-114388095D01*
X168880952Y-114340476D01*
X168904761Y-114316666D01*
X168952380Y-114292857D01*
X169023809Y-114292857D01*
X169071428Y-114316666D01*
X169095238Y-114340476D01*
X169119047Y-114388095D01*
X169119047Y-114530952D01*
X169095238Y-114578571D01*
X169071428Y-114602380D01*
X169023809Y-114626190D01*
X168952380Y-114626190D01*
X169404761Y-114626190D02*
X169357142Y-114602380D01*
X169333333Y-114554761D01*
X169333333Y-114126190D01*
X169595238Y-114626190D02*
X169595238Y-114292857D01*
X169595238Y-114126190D02*
X169571428Y-114150000D01*
X169595238Y-114173809D01*
X169619047Y-114150000D01*
X169595238Y-114126190D01*
X169595238Y-114173809D01*
X118116309Y-107726190D02*
X118116309Y-108083333D01*
X118092500Y-108154761D01*
X118044880Y-108202380D01*
X117973452Y-108226190D01*
X117925833Y-108226190D01*
X118235357Y-108273809D02*
X118616309Y-108273809D01*
X118878214Y-107726190D02*
X118878214Y-108083333D01*
X118854404Y-108154761D01*
X118806785Y-108202380D01*
X118735357Y-108226190D01*
X118687738Y-108226190D01*
X119092500Y-108202380D02*
X119163928Y-108226190D01*
X119282976Y-108226190D01*
X119330595Y-108202380D01*
X119354404Y-108178571D01*
X119378214Y-108130952D01*
X119378214Y-108083333D01*
X119354404Y-108035714D01*
X119330595Y-108011904D01*
X119282976Y-107988095D01*
X119187738Y-107964285D01*
X119140119Y-107940476D01*
X119116309Y-107916666D01*
X119092500Y-107869047D01*
X119092500Y-107821428D01*
X119116309Y-107773809D01*
X119140119Y-107750000D01*
X119187738Y-107726190D01*
X119306785Y-107726190D01*
X119378214Y-107750000D01*
X119473452Y-108273809D02*
X119854404Y-108273809D01*
X120235357Y-108226190D02*
X119949642Y-108226190D01*
X120092500Y-108226190D02*
X120092500Y-107726190D01*
X120044880Y-107797619D01*
X119997261Y-107845238D01*
X119949642Y-107869047D01*
X175476190Y-133207142D02*
X175833333Y-133207142D01*
X175904761Y-133230952D01*
X175952380Y-133278571D01*
X175976190Y-133350000D01*
X175976190Y-133397619D01*
X176023809Y-133088095D02*
X176023809Y-132707142D01*
X175476190Y-132588095D02*
X175880952Y-132588095D01*
X175928571Y-132564285D01*
X175952380Y-132540476D01*
X175976190Y-132492857D01*
X175976190Y-132397619D01*
X175952380Y-132350000D01*
X175928571Y-132326190D01*
X175880952Y-132302380D01*
X175476190Y-132302380D01*
X175952380Y-132088095D02*
X175976190Y-132016666D01*
X175976190Y-131897619D01*
X175952380Y-131850000D01*
X175928571Y-131826190D01*
X175880952Y-131802380D01*
X175833333Y-131802380D01*
X175785714Y-131826190D01*
X175761904Y-131850000D01*
X175738095Y-131897619D01*
X175714285Y-131992857D01*
X175690476Y-132040476D01*
X175666666Y-132064285D01*
X175619047Y-132088095D01*
X175571428Y-132088095D01*
X175523809Y-132064285D01*
X175500000Y-132040476D01*
X175476190Y-131992857D01*
X175476190Y-131873809D01*
X175500000Y-131802380D01*
X175714285Y-131421428D02*
X175738095Y-131350000D01*
X175761904Y-131326190D01*
X175809523Y-131302380D01*
X175880952Y-131302380D01*
X175928571Y-131326190D01*
X175952380Y-131350000D01*
X175976190Y-131397619D01*
X175976190Y-131588095D01*
X175476190Y-131588095D01*
X175476190Y-131421428D01*
X175500000Y-131373809D01*
X175523809Y-131350000D01*
X175571428Y-131326190D01*
X175619047Y-131326190D01*
X175666666Y-131350000D01*
X175690476Y-131373809D01*
X175714285Y-131421428D01*
X175714285Y-131588095D01*
X175976190Y-130826190D02*
X175976190Y-131111904D01*
X175976190Y-130969047D02*
X175476190Y-130969047D01*
X175547619Y-131016666D01*
X175595238Y-131064285D01*
X175619047Y-131111904D01*
X173678571Y-130271428D02*
X173702380Y-130295238D01*
X173726190Y-130366666D01*
X173726190Y-130414285D01*
X173702380Y-130485714D01*
X173654761Y-130533333D01*
X173607142Y-130557142D01*
X173511904Y-130580952D01*
X173440476Y-130580952D01*
X173345238Y-130557142D01*
X173297619Y-130533333D01*
X173250000Y-130485714D01*
X173226190Y-130414285D01*
X173226190Y-130366666D01*
X173250000Y-130295238D01*
X173273809Y-130271428D01*
X173726190Y-129795238D02*
X173726190Y-130080952D01*
X173726190Y-129938095D02*
X173226190Y-129938095D01*
X173297619Y-129985714D01*
X173345238Y-130033333D01*
X173369047Y-130080952D01*
X173226190Y-129628571D02*
X173226190Y-129295238D01*
X173726190Y-129509523D01*
D11*
D10*
X143901190Y-84004761D02*
X144258333Y-84004761D01*
X144329761Y-84028571D01*
X144377380Y-84076190D01*
X144401190Y-84147619D01*
X144401190Y-84195238D01*
X144448809Y-83885714D02*
X144448809Y-83504761D01*
X143901190Y-83242857D02*
X144258333Y-83242857D01*
X144329761Y-83266666D01*
X144377380Y-83314285D01*
X144401190Y-83385714D01*
X144401190Y-83433333D01*
X144377380Y-83028571D02*
X144401190Y-82957142D01*
X144401190Y-82838095D01*
X144377380Y-82790476D01*
X144353571Y-82766666D01*
X144305952Y-82742857D01*
X144258333Y-82742857D01*
X144210714Y-82766666D01*
X144186904Y-82790476D01*
X144163095Y-82838095D01*
X144139285Y-82933333D01*
X144115476Y-82980952D01*
X144091666Y-83004761D01*
X144044047Y-83028571D01*
X143996428Y-83028571D01*
X143948809Y-83004761D01*
X143925000Y-82980952D01*
X143901190Y-82933333D01*
X143901190Y-82814285D01*
X143925000Y-82742857D01*
X143901190Y-82600000D02*
X143901190Y-82314285D01*
X144401190Y-82457142D02*
X143901190Y-82457142D01*
X143901190Y-82195238D02*
X143901190Y-81885714D01*
X144091666Y-82052380D01*
X144091666Y-81980952D01*
X144115476Y-81933333D01*
X144139285Y-81909523D01*
X144186904Y-81885714D01*
X144305952Y-81885714D01*
X144353571Y-81909523D01*
X144377380Y-81933333D01*
X144401190Y-81980952D01*
X144401190Y-82123809D01*
X144377380Y-82171428D01*
X144353571Y-82195238D01*
X144448809Y-81790476D02*
X144448809Y-81409523D01*
X143948809Y-81314285D02*
X143925000Y-81290476D01*
X143901190Y-81242857D01*
X143901190Y-81123809D01*
X143925000Y-81076190D01*
X143948809Y-81052380D01*
X143996428Y-81028571D01*
X144044047Y-81028571D01*
X144115476Y-81052380D01*
X144401190Y-81338095D01*
X144401190Y-81028571D01*
X150440476Y-97828571D02*
X150416666Y-97852380D01*
X150345238Y-97876190D01*
X150297619Y-97876190D01*
X150226190Y-97852380D01*
X150178571Y-97804761D01*
X150154761Y-97757142D01*
X150130952Y-97661904D01*
X150130952Y-97590476D01*
X150154761Y-97495238D01*
X150178571Y-97447619D01*
X150226190Y-97400000D01*
X150297619Y-97376190D01*
X150345238Y-97376190D01*
X150416666Y-97400000D01*
X150440476Y-97423809D01*
X150654761Y-97614285D02*
X150821428Y-97614285D01*
X150892857Y-97876190D02*
X150654761Y-97876190D01*
X150654761Y-97376190D01*
X150892857Y-97376190D01*
X151083333Y-97423809D02*
X151107142Y-97400000D01*
X151154761Y-97376190D01*
X151273809Y-97376190D01*
X151321428Y-97400000D01*
X151345238Y-97423809D01*
X151369047Y-97471428D01*
X151369047Y-97519047D01*
X151345238Y-97590476D01*
X151059523Y-97876190D01*
X151369047Y-97876190D01*
X155678571Y-132078571D02*
X155654761Y-132102380D01*
X155583333Y-132126190D01*
X155535714Y-132126190D01*
X155464285Y-132102380D01*
X155416666Y-132054761D01*
X155392857Y-132007142D01*
X155369047Y-131911904D01*
X155369047Y-131840476D01*
X155392857Y-131745238D01*
X155416666Y-131697619D01*
X155464285Y-131650000D01*
X155535714Y-131626190D01*
X155583333Y-131626190D01*
X155654761Y-131650000D01*
X155678571Y-131673809D01*
X156154761Y-132126190D02*
X155869047Y-132126190D01*
X156011904Y-132126190D02*
X156011904Y-131626190D01*
X155964285Y-131697619D01*
X155916666Y-131745238D01*
X155869047Y-131769047D01*
X156440476Y-131840476D02*
X156392857Y-131816666D01*
X156369047Y-131792857D01*
X156345238Y-131745238D01*
X156345238Y-131721428D01*
X156369047Y-131673809D01*
X156392857Y-131650000D01*
X156440476Y-131626190D01*
X156535714Y-131626190D01*
X156583333Y-131650000D01*
X156607142Y-131673809D01*
X156630952Y-131721428D01*
X156630952Y-131745238D01*
X156607142Y-131792857D01*
X156583333Y-131816666D01*
X156535714Y-131840476D01*
X156440476Y-131840476D01*
X156392857Y-131864285D01*
X156369047Y-131888095D01*
X156345238Y-131935714D01*
X156345238Y-132030952D01*
X156369047Y-132078571D01*
X156392857Y-132102380D01*
X156440476Y-132126190D01*
X156535714Y-132126190D01*
X156583333Y-132102380D01*
X156607142Y-132078571D01*
X156630952Y-132030952D01*
X156630952Y-131935714D01*
X156607142Y-131888095D01*
X156583333Y-131864285D01*
X156535714Y-131840476D01*
X170313690Y-130033333D02*
X170075595Y-130200000D01*
X170313690Y-130319047D02*
X169813690Y-130319047D01*
X169813690Y-130128571D01*
X169837500Y-130080952D01*
X169861309Y-130057142D01*
X169908928Y-130033333D01*
X169980357Y-130033333D01*
X170027976Y-130057142D01*
X170051785Y-130080952D01*
X170075595Y-130128571D01*
X170075595Y-130319047D01*
X169813690Y-129866666D02*
X169813690Y-129533333D01*
X170313690Y-129747619D01*
X155678571Y-127676190D02*
X155511904Y-127438095D01*
X155392857Y-127676190D02*
X155392857Y-127176190D01*
X155583333Y-127176190D01*
X155630952Y-127200000D01*
X155654761Y-127223809D01*
X155678571Y-127271428D01*
X155678571Y-127342857D01*
X155654761Y-127390476D01*
X155630952Y-127414285D01*
X155583333Y-127438095D01*
X155392857Y-127438095D01*
X156154761Y-127676190D02*
X155869047Y-127676190D01*
X156011904Y-127676190D02*
X156011904Y-127176190D01*
X155964285Y-127247619D01*
X155916666Y-127295238D01*
X155869047Y-127319047D01*
X156607142Y-127176190D02*
X156369047Y-127176190D01*
X156345238Y-127414285D01*
X156369047Y-127390476D01*
X156416666Y-127366666D01*
X156535714Y-127366666D01*
X156583333Y-127390476D01*
X156607142Y-127414285D01*
X156630952Y-127461904D01*
X156630952Y-127580952D01*
X156607142Y-127628571D01*
X156583333Y-127652380D01*
X156535714Y-127676190D01*
X156416666Y-127676190D01*
X156369047Y-127652380D01*
X156345238Y-127628571D01*
D11*
X162738095Y-131402380D02*
X162738095Y-132211904D01*
X162785714Y-132307142D01*
X162833333Y-132354761D01*
X162928571Y-132402380D01*
X163119047Y-132402380D01*
X163214285Y-132354761D01*
X163261904Y-132307142D01*
X163309523Y-132211904D01*
X163309523Y-131402380D01*
X163928571Y-131830952D02*
X163833333Y-131783333D01*
X163785714Y-131735714D01*
X163738095Y-131640476D01*
X163738095Y-131592857D01*
X163785714Y-131497619D01*
X163833333Y-131450000D01*
X163928571Y-131402380D01*
X164119047Y-131402380D01*
X164214285Y-131450000D01*
X164261904Y-131497619D01*
X164309523Y-131592857D01*
X164309523Y-131640476D01*
X164261904Y-131735714D01*
X164214285Y-131783333D01*
X164119047Y-131830952D01*
X163928571Y-131830952D01*
X163833333Y-131878571D01*
X163785714Y-131926190D01*
X163738095Y-132021428D01*
X163738095Y-132211904D01*
X163785714Y-132307142D01*
X163833333Y-132354761D01*
X163928571Y-132402380D01*
X164119047Y-132402380D01*
X164214285Y-132354761D01*
X164261904Y-132307142D01*
X164309523Y-132211904D01*
X164309523Y-132021428D01*
X164261904Y-131926190D01*
X164214285Y-131878571D01*
X164119047Y-131830952D01*
D10*
X170656190Y-111204761D02*
X171013333Y-111204761D01*
X171084761Y-111228571D01*
X171132380Y-111276190D01*
X171156190Y-111347619D01*
X171156190Y-111395238D01*
X171203809Y-111085714D02*
X171203809Y-110704761D01*
X170656190Y-110442857D02*
X171013333Y-110442857D01*
X171084761Y-110466666D01*
X171132380Y-110514285D01*
X171156190Y-110585714D01*
X171156190Y-110633333D01*
X171132380Y-110228571D02*
X171156190Y-110157142D01*
X171156190Y-110038095D01*
X171132380Y-109990476D01*
X171108571Y-109966666D01*
X171060952Y-109942857D01*
X171013333Y-109942857D01*
X170965714Y-109966666D01*
X170941904Y-109990476D01*
X170918095Y-110038095D01*
X170894285Y-110133333D01*
X170870476Y-110180952D01*
X170846666Y-110204761D01*
X170799047Y-110228571D01*
X170751428Y-110228571D01*
X170703809Y-110204761D01*
X170680000Y-110180952D01*
X170656190Y-110133333D01*
X170656190Y-110014285D01*
X170680000Y-109942857D01*
X170656190Y-109800000D02*
X170656190Y-109514285D01*
X171156190Y-109657142D02*
X170656190Y-109657142D01*
X170703809Y-109371428D02*
X170680000Y-109347619D01*
X170656190Y-109300000D01*
X170656190Y-109180952D01*
X170680000Y-109133333D01*
X170703809Y-109109523D01*
X170751428Y-109085714D01*
X170799047Y-109085714D01*
X170870476Y-109109523D01*
X171156190Y-109395238D01*
X171156190Y-109085714D01*
X171203809Y-108990476D02*
X171203809Y-108609523D01*
X170656190Y-108538095D02*
X170656190Y-108228571D01*
X170846666Y-108395238D01*
X170846666Y-108323809D01*
X170870476Y-108276190D01*
X170894285Y-108252380D01*
X170941904Y-108228571D01*
X171060952Y-108228571D01*
X171108571Y-108252380D01*
X171132380Y-108276190D01*
X171156190Y-108323809D01*
X171156190Y-108466666D01*
X171132380Y-108514285D01*
X171108571Y-108538095D01*
X170313690Y-127319047D02*
X169813690Y-127319047D01*
X169813690Y-127200000D01*
X169837500Y-127128571D01*
X169885119Y-127080952D01*
X169932738Y-127057142D01*
X170027976Y-127033333D01*
X170099404Y-127033333D01*
X170194642Y-127057142D01*
X170242261Y-127080952D01*
X170289880Y-127128571D01*
X170313690Y-127200000D01*
X170313690Y-127319047D01*
X169813690Y-126580952D02*
X169813690Y-126819047D01*
X170051785Y-126842857D01*
X170027976Y-126819047D01*
X170004166Y-126771428D01*
X170004166Y-126652380D01*
X170027976Y-126604761D01*
X170051785Y-126580952D01*
X170099404Y-126557142D01*
X170218452Y-126557142D01*
X170266071Y-126580952D01*
X170289880Y-126604761D01*
X170313690Y-126652380D01*
X170313690Y-126771428D01*
X170289880Y-126819047D01*
X170266071Y-126842857D01*
X152219047Y-136226190D02*
X152219047Y-136630952D01*
X152242857Y-136678571D01*
X152266666Y-136702380D01*
X152314285Y-136726190D01*
X152409523Y-136726190D01*
X152457142Y-136702380D01*
X152480952Y-136678571D01*
X152504761Y-136630952D01*
X152504761Y-136226190D01*
X152766666Y-136726190D02*
X152861904Y-136726190D01*
X152909523Y-136702380D01*
X152933333Y-136678571D01*
X152980952Y-136607142D01*
X153004761Y-136511904D01*
X153004761Y-136321428D01*
X152980952Y-136273809D01*
X152957142Y-136250000D01*
X152909523Y-136226190D01*
X152814285Y-136226190D01*
X152766666Y-136250000D01*
X152742857Y-136273809D01*
X152719047Y-136321428D01*
X152719047Y-136440476D01*
X152742857Y-136488095D01*
X152766666Y-136511904D01*
X152814285Y-136535714D01*
X152909523Y-136535714D01*
X152957142Y-136511904D01*
X152980952Y-136488095D01*
X153004761Y-136440476D01*
D11*
X174461904Y-115401666D02*
X175033333Y-115401666D01*
X175147619Y-115439761D01*
X175223809Y-115515952D01*
X175261904Y-115630238D01*
X175261904Y-115706428D01*
X175338095Y-115211190D02*
X175338095Y-114601666D01*
X174461904Y-114182619D02*
X175033333Y-114182619D01*
X175147619Y-114220714D01*
X175223809Y-114296904D01*
X175261904Y-114411190D01*
X175261904Y-114487380D01*
X175223809Y-113839761D02*
X175261904Y-113725476D01*
X175261904Y-113535000D01*
X175223809Y-113458809D01*
X175185714Y-113420714D01*
X175109523Y-113382619D01*
X175033333Y-113382619D01*
X174957142Y-113420714D01*
X174919047Y-113458809D01*
X174880952Y-113535000D01*
X174842857Y-113687380D01*
X174804761Y-113763571D01*
X174766666Y-113801666D01*
X174690476Y-113839761D01*
X174614285Y-113839761D01*
X174538095Y-113801666D01*
X174500000Y-113763571D01*
X174461904Y-113687380D01*
X174461904Y-113496904D01*
X174500000Y-113382619D01*
X174461904Y-113154047D02*
X174461904Y-112696904D01*
X175261904Y-112925476D02*
X174461904Y-112925476D01*
X175338095Y-112620714D02*
X175338095Y-112011190D01*
X175261904Y-111401666D02*
X175261904Y-111858809D01*
X175261904Y-111630238D02*
X174461904Y-111630238D01*
X174576190Y-111706428D01*
X174652380Y-111782619D01*
X174690476Y-111858809D01*
D10*
X173728571Y-127259523D02*
X173752380Y-127283333D01*
X173776190Y-127354761D01*
X173776190Y-127402380D01*
X173752380Y-127473809D01*
X173704761Y-127521428D01*
X173657142Y-127545238D01*
X173561904Y-127569047D01*
X173490476Y-127569047D01*
X173395238Y-127545238D01*
X173347619Y-127521428D01*
X173300000Y-127473809D01*
X173276190Y-127402380D01*
X173276190Y-127354761D01*
X173300000Y-127283333D01*
X173323809Y-127259523D01*
X173514285Y-127045238D02*
X173514285Y-126878571D01*
X173776190Y-126807142D02*
X173776190Y-127045238D01*
X173276190Y-127045238D01*
X173276190Y-126807142D01*
X173276190Y-126640476D02*
X173276190Y-126330952D01*
X173466666Y-126497619D01*
X173466666Y-126426190D01*
X173490476Y-126378571D01*
X173514285Y-126354761D01*
X173561904Y-126330952D01*
X173680952Y-126330952D01*
X173728571Y-126354761D01*
X173752380Y-126378571D01*
X173776190Y-126426190D01*
X173776190Y-126569047D01*
X173752380Y-126616666D01*
X173728571Y-126640476D01*
X175802598Y-79813571D02*
X175778788Y-79837380D01*
X175707360Y-79861190D01*
X175659741Y-79861190D01*
X175588312Y-79837380D01*
X175540693Y-79789761D01*
X175516883Y-79742142D01*
X175493074Y-79646904D01*
X175493074Y-79575476D01*
X175516883Y-79480238D01*
X175540693Y-79432619D01*
X175588312Y-79385000D01*
X175659741Y-79361190D01*
X175707360Y-79361190D01*
X175778788Y-79385000D01*
X175802598Y-79408809D01*
X176016883Y-79599285D02*
X176183550Y-79599285D01*
X176254979Y-79861190D02*
X176016883Y-79861190D01*
X176016883Y-79361190D01*
X176254979Y-79361190D01*
X176707360Y-79361190D02*
X176469264Y-79361190D01*
X176445455Y-79599285D01*
X176469264Y-79575476D01*
X176516883Y-79551666D01*
X176635931Y-79551666D01*
X176683550Y-79575476D01*
X176707360Y-79599285D01*
X176731169Y-79646904D01*
X176731169Y-79765952D01*
X176707360Y-79813571D01*
X176683550Y-79837380D01*
X176635931Y-79861190D01*
X176516883Y-79861190D01*
X176469264Y-79837380D01*
X176445455Y-79813571D01*
D11*
D10*
X171178571Y-137259523D02*
X171202380Y-137283333D01*
X171226190Y-137354761D01*
X171226190Y-137402380D01*
X171202380Y-137473809D01*
X171154761Y-137521428D01*
X171107142Y-137545238D01*
X171011904Y-137569047D01*
X170940476Y-137569047D01*
X170845238Y-137545238D01*
X170797619Y-137521428D01*
X170750000Y-137473809D01*
X170726190Y-137402380D01*
X170726190Y-137354761D01*
X170750000Y-137283333D01*
X170773809Y-137259523D01*
X170964285Y-137045238D02*
X170964285Y-136878571D01*
X171226190Y-136807142D02*
X171226190Y-137045238D01*
X170726190Y-137045238D01*
X170726190Y-136807142D01*
X170892857Y-136378571D02*
X171226190Y-136378571D01*
X170702380Y-136497619D02*
X171059523Y-136616666D01*
X171059523Y-136307142D01*
X159894285Y-80526190D02*
X159894285Y-80883333D01*
X159870476Y-80954761D01*
X159822857Y-81002380D01*
X159751428Y-81026190D01*
X159703809Y-81026190D01*
X160013333Y-81073809D02*
X160394285Y-81073809D01*
X160513333Y-81026190D02*
X160513333Y-80526190D01*
X160703809Y-80526190D01*
X160751428Y-80550000D01*
X160775238Y-80573809D01*
X160799047Y-80621428D01*
X160799047Y-80692857D01*
X160775238Y-80740476D01*
X160751428Y-80764285D01*
X160703809Y-80788095D01*
X160513333Y-80788095D01*
X161013333Y-81026190D02*
X161013333Y-80526190D01*
X161013333Y-80764285D02*
X161299047Y-80764285D01*
X161299047Y-81026190D02*
X161299047Y-80526190D01*
X161799047Y-81026190D02*
X161513333Y-81026190D01*
X161656190Y-81026190D02*
X161656190Y-80526190D01*
X161608571Y-80597619D01*
X161560952Y-80645238D01*
X161513333Y-80669047D01*
X162084761Y-80740476D02*
X162037142Y-80716666D01*
X162013333Y-80692857D01*
X161989523Y-80645238D01*
X161989523Y-80621428D01*
X162013333Y-80573809D01*
X162037142Y-80550000D01*
X162084761Y-80526190D01*
X162180000Y-80526190D01*
X162227619Y-80550000D01*
X162251428Y-80573809D01*
X162275238Y-80621428D01*
X162275238Y-80645238D01*
X162251428Y-80692857D01*
X162227619Y-80716666D01*
X162180000Y-80740476D01*
X162084761Y-80740476D01*
X162037142Y-80764285D01*
X162013333Y-80788095D01*
X161989523Y-80835714D01*
X161989523Y-80930952D01*
X162013333Y-80978571D01*
X162037142Y-81002380D01*
X162084761Y-81026190D01*
X162180000Y-81026190D01*
X162227619Y-81002380D01*
X162251428Y-80978571D01*
X162275238Y-80930952D01*
X162275238Y-80835714D01*
X162251428Y-80788095D01*
X162227619Y-80764285D01*
X162180000Y-80740476D01*
X162370476Y-81073809D02*
X162751428Y-81073809D01*
X163132380Y-81026190D02*
X162846666Y-81026190D01*
X162989523Y-81026190D02*
X162989523Y-80526190D01*
X162941904Y-80597619D01*
X162894285Y-80645238D01*
X162846666Y-80669047D01*
X103378571Y-83406872D02*
X103402380Y-83430682D01*
X103426190Y-83502110D01*
X103426190Y-83549729D01*
X103402380Y-83621158D01*
X103354761Y-83668777D01*
X103307142Y-83692587D01*
X103211904Y-83716396D01*
X103140476Y-83716396D01*
X103045238Y-83692587D01*
X102997619Y-83668777D01*
X102950000Y-83621158D01*
X102926190Y-83549729D01*
X102926190Y-83502110D01*
X102950000Y-83430682D01*
X102973809Y-83406872D01*
X103164285Y-83192587D02*
X103164285Y-83025920D01*
X103426190Y-82954491D02*
X103426190Y-83192587D01*
X102926190Y-83192587D01*
X102926190Y-82954491D01*
X102926190Y-82525920D02*
X102926190Y-82621158D01*
X102950000Y-82668777D01*
X102973809Y-82692587D01*
X103045238Y-82740206D01*
X103140476Y-82764015D01*
X103330952Y-82764015D01*
X103378571Y-82740206D01*
X103402380Y-82716396D01*
X103426190Y-82668777D01*
X103426190Y-82573539D01*
X103402380Y-82525920D01*
X103378571Y-82502110D01*
X103330952Y-82478301D01*
X103211904Y-82478301D01*
X103164285Y-82502110D01*
X103140476Y-82525920D01*
X103116666Y-82573539D01*
X103116666Y-82668777D01*
X103140476Y-82716396D01*
X103164285Y-82740206D01*
X103211904Y-82764015D01*
D11*
X144149523Y-133443333D02*
X144606666Y-133443333D01*
X144698095Y-133473809D01*
X144759047Y-133534761D01*
X144789523Y-133626190D01*
X144789523Y-133687142D01*
X144850476Y-133290952D02*
X144850476Y-132803333D01*
X144149523Y-132468095D02*
X144606666Y-132468095D01*
X144698095Y-132498571D01*
X144759047Y-132559523D01*
X144789523Y-132650952D01*
X144789523Y-132711904D01*
X144759047Y-132193809D02*
X144789523Y-132102380D01*
X144789523Y-131950000D01*
X144759047Y-131889047D01*
X144728571Y-131858571D01*
X144667619Y-131828095D01*
X144606666Y-131828095D01*
X144545714Y-131858571D01*
X144515238Y-131889047D01*
X144484761Y-131950000D01*
X144454285Y-132071904D01*
X144423809Y-132132857D01*
X144393333Y-132163333D01*
X144332380Y-132193809D01*
X144271428Y-132193809D01*
X144210476Y-132163333D01*
X144180000Y-132132857D01*
X144149523Y-132071904D01*
X144149523Y-131919523D01*
X144180000Y-131828095D01*
X144149523Y-131645238D02*
X144149523Y-131279523D01*
X144789523Y-131462380D02*
X144149523Y-131462380D01*
X144850476Y-131218571D02*
X144850476Y-130730952D01*
X144210476Y-130609047D02*
X144180000Y-130578571D01*
X144149523Y-130517619D01*
X144149523Y-130365238D01*
X144180000Y-130304285D01*
X144210476Y-130273809D01*
X144271428Y-130243333D01*
X144332380Y-130243333D01*
X144423809Y-130273809D01*
X144789523Y-130639523D01*
X144789523Y-130243333D01*
D10*
X152045238Y-106576190D02*
X152045238Y-106933333D01*
X152021428Y-107004761D01*
X151973809Y-107052380D01*
X151902380Y-107076190D01*
X151854761Y-107076190D01*
X152164285Y-107123809D02*
X152545238Y-107123809D01*
X152807142Y-106576190D02*
X152807142Y-106933333D01*
X152783333Y-107004761D01*
X152735714Y-107052380D01*
X152664285Y-107076190D01*
X152616666Y-107076190D01*
X153021428Y-107052380D02*
X153092857Y-107076190D01*
X153211904Y-107076190D01*
X153259523Y-107052380D01*
X153283333Y-107028571D01*
X153307142Y-106980952D01*
X153307142Y-106933333D01*
X153283333Y-106885714D01*
X153259523Y-106861904D01*
X153211904Y-106838095D01*
X153116666Y-106814285D01*
X153069047Y-106790476D01*
X153045238Y-106766666D01*
X153021428Y-106719047D01*
X153021428Y-106671428D01*
X153045238Y-106623809D01*
X153069047Y-106600000D01*
X153116666Y-106576190D01*
X153235714Y-106576190D01*
X153307142Y-106600000D01*
X153450000Y-106576190D02*
X153735714Y-106576190D01*
X153592857Y-107076190D02*
X153592857Y-106576190D01*
X153878571Y-106623809D02*
X153902380Y-106600000D01*
X153950000Y-106576190D01*
X154069047Y-106576190D01*
X154116666Y-106600000D01*
X154140476Y-106623809D01*
X154164285Y-106671428D01*
X154164285Y-106719047D01*
X154140476Y-106790476D01*
X153854761Y-107076190D01*
X154164285Y-107076190D01*
X154259523Y-107123809D02*
X154640476Y-107123809D01*
X154735714Y-106623809D02*
X154759523Y-106600000D01*
X154807142Y-106576190D01*
X154926190Y-106576190D01*
X154973809Y-106600000D01*
X154997619Y-106623809D01*
X155021428Y-106671428D01*
X155021428Y-106719047D01*
X154997619Y-106790476D01*
X154711904Y-107076190D01*
X155021428Y-107076190D01*
D11*
D10*
X132161190Y-90835714D02*
X132518333Y-90835714D01*
X132589761Y-90859523D01*
X132637380Y-90907142D01*
X132661190Y-90978571D01*
X132661190Y-91026190D01*
X132708809Y-90716666D02*
X132708809Y-90335714D01*
X132661190Y-90216666D02*
X132161190Y-90216666D01*
X132161190Y-90026190D01*
X132185000Y-89978571D01*
X132208809Y-89954761D01*
X132256428Y-89930952D01*
X132327857Y-89930952D01*
X132375476Y-89954761D01*
X132399285Y-89978571D01*
X132423095Y-90026190D01*
X132423095Y-90216666D01*
X132661190Y-89716666D02*
X132161190Y-89716666D01*
X132399285Y-89716666D02*
X132399285Y-89430952D01*
X132661190Y-89430952D02*
X132161190Y-89430952D01*
X132661190Y-88930952D02*
X132661190Y-89216666D01*
X132661190Y-89073809D02*
X132161190Y-89073809D01*
X132232619Y-89121428D01*
X132280238Y-89169047D01*
X132304047Y-89216666D01*
X132375476Y-88645238D02*
X132351666Y-88692857D01*
X132327857Y-88716666D01*
X132280238Y-88740476D01*
X132256428Y-88740476D01*
X132208809Y-88716666D01*
X132185000Y-88692857D01*
X132161190Y-88645238D01*
X132161190Y-88550000D01*
X132185000Y-88502380D01*
X132208809Y-88478571D01*
X132256428Y-88454761D01*
X132280238Y-88454761D01*
X132327857Y-88478571D01*
X132351666Y-88502380D01*
X132375476Y-88550000D01*
X132375476Y-88645238D01*
X132399285Y-88692857D01*
X132423095Y-88716666D01*
X132470714Y-88740476D01*
X132565952Y-88740476D01*
X132613571Y-88716666D01*
X132637380Y-88692857D01*
X132661190Y-88645238D01*
X132661190Y-88550000D01*
X132637380Y-88502380D01*
X132613571Y-88478571D01*
X132565952Y-88454761D01*
X132470714Y-88454761D01*
X132423095Y-88478571D01*
X132399285Y-88502380D01*
X132375476Y-88550000D01*
X132708809Y-88359523D02*
X132708809Y-87978571D01*
X132327857Y-87645238D02*
X132661190Y-87645238D01*
X132137380Y-87764285D02*
X132494523Y-87883333D01*
X132494523Y-87573809D01*
X152219047Y-127226190D02*
X152219047Y-127630952D01*
X152242857Y-127678571D01*
X152266666Y-127702380D01*
X152314285Y-127726190D01*
X152409523Y-127726190D01*
X152457142Y-127702380D01*
X152480952Y-127678571D01*
X152504761Y-127630952D01*
X152504761Y-127226190D01*
X152695238Y-127226190D02*
X153028571Y-127226190D01*
X152814285Y-127726190D01*
D11*
D10*
X148038095Y-128926190D02*
X148038095Y-129283333D01*
X148014285Y-129354761D01*
X147966666Y-129402380D01*
X147895238Y-129426190D01*
X147847619Y-129426190D01*
X148157142Y-129473809D02*
X148538095Y-129473809D01*
X148657142Y-129426190D02*
X148657142Y-128926190D01*
X148847619Y-128926190D01*
X148895238Y-128950000D01*
X148919047Y-128973809D01*
X148942857Y-129021428D01*
X148942857Y-129092857D01*
X148919047Y-129140476D01*
X148895238Y-129164285D01*
X148847619Y-129188095D01*
X148657142Y-129188095D01*
X149133333Y-129283333D02*
X149371428Y-129283333D01*
X149085714Y-129426190D02*
X149252380Y-128926190D01*
X149419047Y-129426190D01*
X149585714Y-129426190D02*
X149585714Y-128926190D01*
X149704761Y-128926190D01*
X149776190Y-128950000D01*
X149823809Y-128997619D01*
X149847619Y-129045238D01*
X149871428Y-129140476D01*
X149871428Y-129211904D01*
X149847619Y-129307142D01*
X149823809Y-129354761D01*
X149776190Y-129402380D01*
X149704761Y-129426190D01*
X149585714Y-129426190D01*
X149966666Y-129473809D02*
X150347619Y-129473809D01*
X150728571Y-129426190D02*
X150442857Y-129426190D01*
X150585714Y-129426190D02*
X150585714Y-128926190D01*
X150538095Y-128997619D01*
X150490476Y-129045238D01*
X150442857Y-129069047D01*
D11*
X155135714Y-131052380D02*
X154564285Y-131052380D01*
X154850000Y-131052380D02*
X154850000Y-130052380D01*
X154754761Y-130195238D01*
X154659523Y-130290476D01*
X154564285Y-130338095D01*
X147766666Y-130052380D02*
X148385714Y-130052380D01*
X148052380Y-130433333D01*
X148195238Y-130433333D01*
X148290476Y-130480952D01*
X148338095Y-130528571D01*
X148385714Y-130623809D01*
X148385714Y-130861904D01*
X148338095Y-130957142D01*
X148290476Y-131004761D01*
X148195238Y-131052380D01*
X147909523Y-131052380D01*
X147814285Y-131004761D01*
X147766666Y-130957142D01*
D10*
X159454285Y-118476190D02*
X159454285Y-118833333D01*
X159430476Y-118904761D01*
X159382857Y-118952380D01*
X159311428Y-118976190D01*
X159263809Y-118976190D01*
X159573333Y-119023809D02*
X159954285Y-119023809D01*
X160073333Y-118976190D02*
X160073333Y-118476190D01*
X160263809Y-118476190D01*
X160311428Y-118500000D01*
X160335238Y-118523809D01*
X160359047Y-118571428D01*
X160359047Y-118642857D01*
X160335238Y-118690476D01*
X160311428Y-118714285D01*
X160263809Y-118738095D01*
X160073333Y-118738095D01*
X160573333Y-118976190D02*
X160573333Y-118476190D01*
X160573333Y-118714285D02*
X160859047Y-118714285D01*
X160859047Y-118976190D02*
X160859047Y-118476190D01*
X161359047Y-118976190D02*
X161073333Y-118976190D01*
X161216190Y-118976190D02*
X161216190Y-118476190D01*
X161168571Y-118547619D01*
X161120952Y-118595238D01*
X161073333Y-118619047D01*
X161644761Y-118690476D02*
X161597142Y-118666666D01*
X161573333Y-118642857D01*
X161549523Y-118595238D01*
X161549523Y-118571428D01*
X161573333Y-118523809D01*
X161597142Y-118500000D01*
X161644761Y-118476190D01*
X161740000Y-118476190D01*
X161787619Y-118500000D01*
X161811428Y-118523809D01*
X161835238Y-118571428D01*
X161835238Y-118595238D01*
X161811428Y-118642857D01*
X161787619Y-118666666D01*
X161740000Y-118690476D01*
X161644761Y-118690476D01*
X161597142Y-118714285D01*
X161573333Y-118738095D01*
X161549523Y-118785714D01*
X161549523Y-118880952D01*
X161573333Y-118928571D01*
X161597142Y-118952380D01*
X161644761Y-118976190D01*
X161740000Y-118976190D01*
X161787619Y-118952380D01*
X161811428Y-118928571D01*
X161835238Y-118880952D01*
X161835238Y-118785714D01*
X161811428Y-118738095D01*
X161787619Y-118714285D01*
X161740000Y-118690476D01*
X161930476Y-119023809D02*
X162311428Y-119023809D01*
X162406666Y-118523809D02*
X162430476Y-118500000D01*
X162478095Y-118476190D01*
X162597142Y-118476190D01*
X162644761Y-118500000D01*
X162668571Y-118523809D01*
X162692380Y-118571428D01*
X162692380Y-118619047D01*
X162668571Y-118690476D01*
X162382857Y-118976190D01*
X162692380Y-118976190D01*
X155678571Y-136676190D02*
X155511904Y-136438095D01*
X155392857Y-136676190D02*
X155392857Y-136176190D01*
X155583333Y-136176190D01*
X155630952Y-136200000D01*
X155654761Y-136223809D01*
X155678571Y-136271428D01*
X155678571Y-136342857D01*
X155654761Y-136390476D01*
X155630952Y-136414285D01*
X155583333Y-136438095D01*
X155392857Y-136438095D01*
X156154761Y-136676190D02*
X155869047Y-136676190D01*
X156011904Y-136676190D02*
X156011904Y-136176190D01*
X155964285Y-136247619D01*
X155916666Y-136295238D01*
X155869047Y-136319047D01*
X156583333Y-136342857D02*
X156583333Y-136676190D01*
X156464285Y-136152380D02*
X156345238Y-136509523D01*
X156654761Y-136509523D01*
D11*
X103213095Y-111482380D02*
X103213095Y-112291904D01*
X103260714Y-112387142D01*
X103308333Y-112434761D01*
X103403571Y-112482380D01*
X103594047Y-112482380D01*
X103689285Y-112434761D01*
X103736904Y-112387142D01*
X103784523Y-112291904D01*
X103784523Y-111482380D01*
X104784523Y-112482380D02*
X104213095Y-112482380D01*
X104498809Y-112482380D02*
X104498809Y-111482380D01*
X104403571Y-111625238D01*
X104308333Y-111720476D01*
X104213095Y-111768095D01*
X117738095Y-87452380D02*
X117738095Y-88261904D01*
X117785714Y-88357142D01*
X117833333Y-88404761D01*
X117928571Y-88452380D01*
X118119047Y-88452380D01*
X118214285Y-88404761D01*
X118261904Y-88357142D01*
X118309523Y-88261904D01*
X118309523Y-87452380D01*
X118690476Y-87452380D02*
X119309523Y-87452380D01*
X118976190Y-87833333D01*
X119119047Y-87833333D01*
X119214285Y-87880952D01*
X119261904Y-87928571D01*
X119309523Y-88023809D01*
X119309523Y-88261904D01*
X119261904Y-88357142D01*
X119214285Y-88404761D01*
X119119047Y-88452380D01*
X118833333Y-88452380D01*
X118738095Y-88404761D01*
X118690476Y-88357142D01*
D10*
X133326190Y-127276190D02*
X133683333Y-127276190D01*
X133754761Y-127300000D01*
X133802380Y-127347619D01*
X133826190Y-127419047D01*
X133826190Y-127466666D01*
X133873809Y-127157142D02*
X133873809Y-126776190D01*
X133802380Y-126680952D02*
X133826190Y-126609523D01*
X133826190Y-126490476D01*
X133802380Y-126442857D01*
X133778571Y-126419047D01*
X133730952Y-126395238D01*
X133683333Y-126395238D01*
X133635714Y-126419047D01*
X133611904Y-126442857D01*
X133588095Y-126490476D01*
X133564285Y-126585714D01*
X133540476Y-126633333D01*
X133516666Y-126657142D01*
X133469047Y-126680952D01*
X133421428Y-126680952D01*
X133373809Y-126657142D01*
X133350000Y-126633333D01*
X133326190Y-126585714D01*
X133326190Y-126466666D01*
X133350000Y-126395238D01*
X133326190Y-126252380D02*
X133326190Y-125966666D01*
X133826190Y-126109523D02*
X133326190Y-126109523D01*
X133873809Y-125919047D02*
X133873809Y-125538095D01*
X133373809Y-125442857D02*
X133350000Y-125419047D01*
X133326190Y-125371428D01*
X133326190Y-125252380D01*
X133350000Y-125204761D01*
X133373809Y-125180952D01*
X133421428Y-125157142D01*
X133469047Y-125157142D01*
X133540476Y-125180952D01*
X133826190Y-125466666D01*
X133826190Y-125157142D01*
D11*
X128261904Y-110866666D02*
X128833333Y-110866666D01*
X128947619Y-110904761D01*
X129023809Y-110980952D01*
X129061904Y-111095238D01*
X129061904Y-111171428D01*
X129138095Y-110676190D02*
X129138095Y-110066666D01*
X128261904Y-109647619D02*
X128833333Y-109647619D01*
X128947619Y-109685714D01*
X129023809Y-109761904D01*
X129061904Y-109876190D01*
X129061904Y-109952380D01*
X129023809Y-109304761D02*
X129061904Y-109190476D01*
X129061904Y-109000000D01*
X129023809Y-108923809D01*
X128985714Y-108885714D01*
X128909523Y-108847619D01*
X128833333Y-108847619D01*
X128757142Y-108885714D01*
X128719047Y-108923809D01*
X128680952Y-109000000D01*
X128642857Y-109152380D01*
X128604761Y-109228571D01*
X128566666Y-109266666D01*
X128490476Y-109304761D01*
X128414285Y-109304761D01*
X128338095Y-109266666D01*
X128300000Y-109228571D01*
X128261904Y-109152380D01*
X128261904Y-108961904D01*
X128300000Y-108847619D01*
X128261904Y-108619047D02*
X128261904Y-108161904D01*
X129061904Y-108390476D02*
X128261904Y-108390476D01*
X129138095Y-108085714D02*
X129138095Y-107476190D01*
X128261904Y-107361904D02*
X128261904Y-106866666D01*
X128566666Y-107133333D01*
X128566666Y-107019047D01*
X128604761Y-106942857D01*
X128642857Y-106904761D01*
X128719047Y-106866666D01*
X128909523Y-106866666D01*
X128985714Y-106904761D01*
X129023809Y-106942857D01*
X129061904Y-107019047D01*
X129061904Y-107247619D01*
X129023809Y-107323809D01*
X128985714Y-107361904D01*
X170462380Y-95296904D02*
X171271904Y-95296904D01*
X171367142Y-95249285D01*
X171414761Y-95201666D01*
X171462380Y-95106428D01*
X171462380Y-94915952D01*
X171414761Y-94820714D01*
X171367142Y-94773095D01*
X171271904Y-94725476D01*
X170462380Y-94725476D01*
X170557619Y-94296904D02*
X170510000Y-94249285D01*
X170462380Y-94154047D01*
X170462380Y-93915952D01*
X170510000Y-93820714D01*
X170557619Y-93773095D01*
X170652857Y-93725476D01*
X170748095Y-93725476D01*
X170890952Y-93773095D01*
X171462380Y-94344523D01*
X171462380Y-93725476D01*
D10*
X152045238Y-113626190D02*
X152045238Y-113983333D01*
X152021428Y-114054761D01*
X151973809Y-114102380D01*
X151902380Y-114126190D01*
X151854761Y-114126190D01*
X152164285Y-114173809D02*
X152545238Y-114173809D01*
X152807142Y-113626190D02*
X152807142Y-113983333D01*
X152783333Y-114054761D01*
X152735714Y-114102380D01*
X152664285Y-114126190D01*
X152616666Y-114126190D01*
X153021428Y-114102380D02*
X153092857Y-114126190D01*
X153211904Y-114126190D01*
X153259523Y-114102380D01*
X153283333Y-114078571D01*
X153307142Y-114030952D01*
X153307142Y-113983333D01*
X153283333Y-113935714D01*
X153259523Y-113911904D01*
X153211904Y-113888095D01*
X153116666Y-113864285D01*
X153069047Y-113840476D01*
X153045238Y-113816666D01*
X153021428Y-113769047D01*
X153021428Y-113721428D01*
X153045238Y-113673809D01*
X153069047Y-113650000D01*
X153116666Y-113626190D01*
X153235714Y-113626190D01*
X153307142Y-113650000D01*
X153450000Y-113626190D02*
X153735714Y-113626190D01*
X153592857Y-114126190D02*
X153592857Y-113626190D01*
X153878571Y-113673809D02*
X153902380Y-113650000D01*
X153950000Y-113626190D01*
X154069047Y-113626190D01*
X154116666Y-113650000D01*
X154140476Y-113673809D01*
X154164285Y-113721428D01*
X154164285Y-113769047D01*
X154140476Y-113840476D01*
X153854761Y-114126190D01*
X154164285Y-114126190D01*
X154259523Y-114173809D02*
X154640476Y-114173809D01*
X155021428Y-114126190D02*
X154735714Y-114126190D01*
X154878571Y-114126190D02*
X154878571Y-113626190D01*
X154830952Y-113697619D01*
X154783333Y-113745238D01*
X154735714Y-113769047D01*
X154445238Y-88526190D02*
X154445238Y-88883333D01*
X154421428Y-88954761D01*
X154373809Y-89002380D01*
X154302380Y-89026190D01*
X154254761Y-89026190D01*
X154564285Y-89073809D02*
X154945238Y-89073809D01*
X155207142Y-88526190D02*
X155207142Y-88883333D01*
X155183333Y-88954761D01*
X155135714Y-89002380D01*
X155064285Y-89026190D01*
X155016666Y-89026190D01*
X155421428Y-89002380D02*
X155492857Y-89026190D01*
X155611904Y-89026190D01*
X155659523Y-89002380D01*
X155683333Y-88978571D01*
X155707142Y-88930952D01*
X155707142Y-88883333D01*
X155683333Y-88835714D01*
X155659523Y-88811904D01*
X155611904Y-88788095D01*
X155516666Y-88764285D01*
X155469047Y-88740476D01*
X155445238Y-88716666D01*
X155421428Y-88669047D01*
X155421428Y-88621428D01*
X155445238Y-88573809D01*
X155469047Y-88550000D01*
X155516666Y-88526190D01*
X155635714Y-88526190D01*
X155707142Y-88550000D01*
X155850000Y-88526190D02*
X156135714Y-88526190D01*
X155992857Y-89026190D02*
X155992857Y-88526190D01*
X156516666Y-88692857D02*
X156516666Y-89026190D01*
X156397619Y-88502380D02*
X156278571Y-88859523D01*
X156588095Y-88859523D01*
X156659523Y-89073809D02*
X157040476Y-89073809D01*
X157111904Y-88526190D02*
X157421428Y-88526190D01*
X157254761Y-88716666D01*
X157326190Y-88716666D01*
X157373809Y-88740476D01*
X157397619Y-88764285D01*
X157421428Y-88811904D01*
X157421428Y-88930952D01*
X157397619Y-88978571D01*
X157373809Y-89002380D01*
X157326190Y-89026190D01*
X157183333Y-89026190D01*
X157135714Y-89002380D01*
X157111904Y-88978571D01*
X104141190Y-99183667D02*
X104498333Y-99183667D01*
X104569761Y-99207476D01*
X104617380Y-99255095D01*
X104641190Y-99326524D01*
X104641190Y-99374143D01*
X104688809Y-99064619D02*
X104688809Y-98683667D01*
X104641190Y-98564619D02*
X104141190Y-98564619D01*
X104141190Y-98374143D01*
X104165000Y-98326524D01*
X104188809Y-98302714D01*
X104236428Y-98278905D01*
X104307857Y-98278905D01*
X104355476Y-98302714D01*
X104379285Y-98326524D01*
X104403095Y-98374143D01*
X104403095Y-98564619D01*
X104641190Y-98064619D02*
X104141190Y-98064619D01*
X104379285Y-98064619D02*
X104379285Y-97778905D01*
X104641190Y-97778905D02*
X104141190Y-97778905D01*
X104641190Y-97278905D02*
X104641190Y-97564619D01*
X104641190Y-97421762D02*
X104141190Y-97421762D01*
X104212619Y-97469381D01*
X104260238Y-97517000D01*
X104284047Y-97564619D01*
X104355476Y-96993191D02*
X104331666Y-97040810D01*
X104307857Y-97064619D01*
X104260238Y-97088429D01*
X104236428Y-97088429D01*
X104188809Y-97064619D01*
X104165000Y-97040810D01*
X104141190Y-96993191D01*
X104141190Y-96897953D01*
X104165000Y-96850333D01*
X104188809Y-96826524D01*
X104236428Y-96802714D01*
X104260238Y-96802714D01*
X104307857Y-96826524D01*
X104331666Y-96850333D01*
X104355476Y-96897953D01*
X104355476Y-96993191D01*
X104379285Y-97040810D01*
X104403095Y-97064619D01*
X104450714Y-97088429D01*
X104545952Y-97088429D01*
X104593571Y-97064619D01*
X104617380Y-97040810D01*
X104641190Y-96993191D01*
X104641190Y-96897953D01*
X104617380Y-96850333D01*
X104593571Y-96826524D01*
X104545952Y-96802714D01*
X104450714Y-96802714D01*
X104403095Y-96826524D01*
X104379285Y-96850333D01*
X104355476Y-96897953D01*
X104688809Y-96707476D02*
X104688809Y-96326524D01*
X104141190Y-96255095D02*
X104141190Y-95945572D01*
X104331666Y-96112238D01*
X104331666Y-96040810D01*
X104355476Y-95993191D01*
X104379285Y-95969381D01*
X104426904Y-95945572D01*
X104545952Y-95945572D01*
X104593571Y-95969381D01*
X104617380Y-95993191D01*
X104641190Y-96040810D01*
X104641190Y-96183667D01*
X104617380Y-96231286D01*
X104593571Y-96255095D01*
X144126190Y-118004761D02*
X144483333Y-118004761D01*
X144554761Y-118028571D01*
X144602380Y-118076190D01*
X144626190Y-118147619D01*
X144626190Y-118195238D01*
X144673809Y-117885714D02*
X144673809Y-117504761D01*
X144126190Y-117242857D02*
X144483333Y-117242857D01*
X144554761Y-117266666D01*
X144602380Y-117314285D01*
X144626190Y-117385714D01*
X144626190Y-117433333D01*
X144602380Y-117028571D02*
X144626190Y-116957142D01*
X144626190Y-116838095D01*
X144602380Y-116790476D01*
X144578571Y-116766666D01*
X144530952Y-116742857D01*
X144483333Y-116742857D01*
X144435714Y-116766666D01*
X144411904Y-116790476D01*
X144388095Y-116838095D01*
X144364285Y-116933333D01*
X144340476Y-116980952D01*
X144316666Y-117004761D01*
X144269047Y-117028571D01*
X144221428Y-117028571D01*
X144173809Y-117004761D01*
X144150000Y-116980952D01*
X144126190Y-116933333D01*
X144126190Y-116814285D01*
X144150000Y-116742857D01*
X144126190Y-116600000D02*
X144126190Y-116314285D01*
X144626190Y-116457142D02*
X144126190Y-116457142D01*
X144126190Y-116195238D02*
X144126190Y-115885714D01*
X144316666Y-116052380D01*
X144316666Y-115980952D01*
X144340476Y-115933333D01*
X144364285Y-115909523D01*
X144411904Y-115885714D01*
X144530952Y-115885714D01*
X144578571Y-115909523D01*
X144602380Y-115933333D01*
X144626190Y-115980952D01*
X144626190Y-116123809D01*
X144602380Y-116171428D01*
X144578571Y-116195238D01*
X144673809Y-115790476D02*
X144673809Y-115409523D01*
X144626190Y-115028571D02*
X144626190Y-115314285D01*
X144626190Y-115171428D02*
X144126190Y-115171428D01*
X144197619Y-115219047D01*
X144245238Y-115266666D01*
X144269047Y-115314285D01*
X148038095Y-134526190D02*
X148038095Y-134883333D01*
X148014285Y-134954761D01*
X147966666Y-135002380D01*
X147895238Y-135026190D01*
X147847619Y-135026190D01*
X148157142Y-135073809D02*
X148538095Y-135073809D01*
X148657142Y-135026190D02*
X148657142Y-134526190D01*
X148847619Y-134526190D01*
X148895238Y-134550000D01*
X148919047Y-134573809D01*
X148942857Y-134621428D01*
X148942857Y-134692857D01*
X148919047Y-134740476D01*
X148895238Y-134764285D01*
X148847619Y-134788095D01*
X148657142Y-134788095D01*
X149133333Y-134883333D02*
X149371428Y-134883333D01*
X149085714Y-135026190D02*
X149252380Y-134526190D01*
X149419047Y-135026190D01*
X149585714Y-135026190D02*
X149585714Y-134526190D01*
X149704761Y-134526190D01*
X149776190Y-134550000D01*
X149823809Y-134597619D01*
X149847619Y-134645238D01*
X149871428Y-134740476D01*
X149871428Y-134811904D01*
X149847619Y-134907142D01*
X149823809Y-134954761D01*
X149776190Y-135002380D01*
X149704761Y-135026190D01*
X149585714Y-135026190D01*
X149966666Y-135073809D02*
X150347619Y-135073809D01*
X150442857Y-134573809D02*
X150466666Y-134550000D01*
X150514285Y-134526190D01*
X150633333Y-134526190D01*
X150680952Y-134550000D01*
X150704761Y-134573809D01*
X150728571Y-134621428D01*
X150728571Y-134669047D01*
X150704761Y-134740476D01*
X150419047Y-135026190D01*
X150728571Y-135026190D01*
D11*
X147766666Y-132752380D02*
X148385714Y-132752380D01*
X148052380Y-133133333D01*
X148195238Y-133133333D01*
X148290476Y-133180952D01*
X148338095Y-133228571D01*
X148385714Y-133323809D01*
X148385714Y-133561904D01*
X148338095Y-133657142D01*
X148290476Y-133704761D01*
X148195238Y-133752380D01*
X147909523Y-133752380D01*
X147814285Y-133704761D01*
X147766666Y-133657142D01*
X155135714Y-133752380D02*
X154564285Y-133752380D01*
X154850000Y-133752380D02*
X154850000Y-132752380D01*
X154754761Y-132895238D01*
X154659523Y-132990476D01*
X154564285Y-133038095D01*
D10*
X150490476Y-92228571D02*
X150466666Y-92252380D01*
X150395238Y-92276190D01*
X150347619Y-92276190D01*
X150276190Y-92252380D01*
X150228571Y-92204761D01*
X150204761Y-92157142D01*
X150180952Y-92061904D01*
X150180952Y-91990476D01*
X150204761Y-91895238D01*
X150228571Y-91847619D01*
X150276190Y-91800000D01*
X150347619Y-91776190D01*
X150395238Y-91776190D01*
X150466666Y-91800000D01*
X150490476Y-91823809D01*
X150704761Y-92014285D02*
X150871428Y-92014285D01*
X150942857Y-92276190D02*
X150704761Y-92276190D01*
X150704761Y-91776190D01*
X150942857Y-91776190D01*
X151419047Y-92276190D02*
X151133333Y-92276190D01*
X151276190Y-92276190D02*
X151276190Y-91776190D01*
X151228571Y-91847619D01*
X151180952Y-91895238D01*
X151133333Y-91919047D01*
X142526190Y-100576190D02*
X142883333Y-100576190D01*
X142954761Y-100600000D01*
X143002380Y-100647619D01*
X143026190Y-100719047D01*
X143026190Y-100766666D01*
X143073809Y-100457142D02*
X143073809Y-100076190D01*
X143002380Y-99980952D02*
X143026190Y-99909523D01*
X143026190Y-99790476D01*
X143002380Y-99742857D01*
X142978571Y-99719047D01*
X142930952Y-99695238D01*
X142883333Y-99695238D01*
X142835714Y-99719047D01*
X142811904Y-99742857D01*
X142788095Y-99790476D01*
X142764285Y-99885714D01*
X142740476Y-99933333D01*
X142716666Y-99957142D01*
X142669047Y-99980952D01*
X142621428Y-99980952D01*
X142573809Y-99957142D01*
X142550000Y-99933333D01*
X142526190Y-99885714D01*
X142526190Y-99766666D01*
X142550000Y-99695238D01*
X142526190Y-99552380D02*
X142526190Y-99266666D01*
X143026190Y-99409523D02*
X142526190Y-99409523D01*
X143073809Y-99219047D02*
X143073809Y-98838095D01*
X143026190Y-98457142D02*
X143026190Y-98742857D01*
X143026190Y-98600000D02*
X142526190Y-98600000D01*
X142597619Y-98647619D01*
X142645238Y-98695238D01*
X142669047Y-98742857D01*
D12*
X119092500Y-106750000D02*
X119092500Y-107000000D01*
X114092500Y-107000000D02*
X119092500Y-107000000D01*
X114092500Y-100500000D02*
X119092500Y-100500000D01*
X121592500Y-102000000D02*
X122592500Y-101750000D01*
X124092500Y-107000000D02*
X121842500Y-107000000D01*
X117092500Y-102250000D02*
X118842500Y-104000000D01*
X121592500Y-104250000D02*
X124092500Y-104250000D01*
X119092500Y-101750000D02*
X119092500Y-100500000D01*
X119342500Y-104500000D02*
X121842500Y-107000000D01*
X116592500Y-104250000D02*
X114092500Y-104250000D01*
X122342500Y-101000000D02*
X122842500Y-100500000D01*
X119342500Y-104000000D02*
X121092500Y-102250000D01*
X124092500Y-100500000D02*
X122842500Y-100500000D01*
D11*
X124092500Y-99000000D02*
X114092500Y-99000000D01*
X114092500Y-99000000D02*
X114092500Y-109000000D01*
X114092500Y-109000000D02*
X124092500Y-109000000D01*
X124092500Y-109000000D02*
X124092500Y-99000000D01*
D12*
X119342500Y-102000000D02*
G75*
G03*
X119342500Y-102000000I-250000J0D01*
G01*
X119446053Y-104250000D02*
G75*
G03*
X119446053Y-104250000I-353553J0D01*
G01*
X121592500Y-104250000D02*
G75*
G03*
X121592500Y-104250000I-250000J0D01*
G01*
X117092500Y-104250000D02*
G75*
G03*
X117092500Y-104250000I-250000J0D01*
G01*
X119342500Y-106500000D02*
G75*
G03*
X119342500Y-106500000I-250000J0D01*
G01*
X122342500Y-101250000D02*
G75*
G03*
X122342500Y-101250000I-250000J0D01*
G01*
X121592500Y-102000000D02*
G75*
G03*
X121592500Y-102000000I-250000J0D01*
G01*
X178830000Y-136950000D02*
X178830000Y-138280000D01*
X178830000Y-135680000D02*
X178830000Y-125460000D01*
X176170000Y-135680000D02*
X176170000Y-125460000D01*
X178830000Y-135680000D02*
X176170000Y-135680000D01*
X178830000Y-125460000D02*
X176170000Y-125460000D01*
X178830000Y-138280000D02*
X177500000Y-138280000D01*
X173238748Y-130685000D02*
X173761252Y-130685000D01*
X173238748Y-129215000D02*
X173761252Y-129215000D01*
D10*
X139500000Y-96000000D02*
G75*
G03*
X136500000Y-96000000I-1500000J0D01*
G01*
X136500000Y-90000000D02*
G75*
G03*
X139500000Y-90000000I1500000J0D01*
G01*
D12*
X139950000Y-77550000D02*
X139950000Y-79350000D01*
X145910000Y-77540000D02*
X139940000Y-77540000D01*
X142200000Y-86900000D02*
X145150000Y-86900000D01*
X145150000Y-86900000D02*
X145150000Y-82600000D01*
X140700000Y-80850000D02*
X139950000Y-80850000D01*
X145910000Y-87660000D02*
X145910000Y-77540000D01*
X139950000Y-87650000D02*
X140700000Y-87650000D01*
X140700000Y-87650000D02*
X140700000Y-85850000D01*
X139950000Y-80850000D02*
X139950000Y-84350000D01*
X139940000Y-77540000D02*
X139940000Y-87660000D01*
X139950000Y-79350000D02*
X140700000Y-79350000D01*
X142200000Y-77550000D02*
X142200000Y-78300000D01*
X139650000Y-86700000D02*
X139650000Y-87950000D01*
X145150000Y-78300000D02*
X145150000Y-82600000D01*
X139950000Y-85850000D02*
X139950000Y-87650000D01*
X142200000Y-78300000D02*
X145150000Y-78300000D01*
X140700000Y-85850000D02*
X139950000Y-85850000D01*
X140700000Y-79350000D02*
X140700000Y-77550000D01*
X140700000Y-77550000D02*
X139950000Y-77550000D01*
X142200000Y-87650000D02*
X142200000Y-86900000D01*
X139650000Y-87950000D02*
X140900000Y-87950000D01*
X139940000Y-87660000D02*
X145910000Y-87660000D01*
X140700000Y-84350000D02*
X140700000Y-80850000D01*
X139950000Y-84350000D02*
X140700000Y-84350000D01*
X153205440Y-100140000D02*
X153205440Y-101347000D01*
X152805440Y-100140000D02*
X152805440Y-101528000D01*
X153045440Y-96771000D02*
X153045440Y-98060000D01*
X153005440Y-100140000D02*
X153005440Y-101448000D01*
X153445440Y-100140000D02*
X153445440Y-101195000D01*
X152444440Y-100140000D02*
X152444440Y-101628000D01*
X153325440Y-96925000D02*
X153325440Y-98060000D01*
X152685440Y-100140000D02*
X152685440Y-101568000D01*
X154005440Y-97546000D02*
X154005440Y-98060000D01*
X152965440Y-100140000D02*
X152965440Y-101465000D01*
X154005440Y-100140000D02*
X154005440Y-100654000D01*
X153525440Y-97065000D02*
X153525440Y-98060000D01*
X152564440Y-100140000D02*
X152564440Y-101601000D01*
X154045440Y-100140000D02*
X154045440Y-100600000D01*
X153125440Y-100140000D02*
X153125440Y-101390000D01*
X153245440Y-100140000D02*
X153245440Y-101324000D01*
X152925440Y-96718000D02*
X152925440Y-98060000D01*
X153165440Y-96832000D02*
X153165440Y-98060000D01*
X152484440Y-96580000D02*
X152484440Y-98060000D01*
X153525440Y-100140000D02*
X153525440Y-101135000D01*
X154485440Y-98582000D02*
X154485440Y-99618000D01*
X153965440Y-100140000D02*
X153965440Y-100705000D01*
X151964440Y-96520000D02*
X151964440Y-101680000D01*
X152685440Y-96632000D02*
X152685440Y-98060000D01*
X152524440Y-100140000D02*
X152524440Y-101611000D01*
X154245440Y-97922000D02*
X154245440Y-100278000D01*
X153485440Y-100140000D02*
X153485440Y-101165000D01*
X153845440Y-100140000D02*
X153845440Y-100843000D01*
X153365440Y-100140000D02*
X153365440Y-101249000D01*
X153325440Y-100140000D02*
X153325440Y-101275000D01*
X153925440Y-97447000D02*
X153925440Y-98060000D01*
X152564440Y-96599000D02*
X152564440Y-98060000D01*
X153765440Y-97274000D02*
X153765440Y-98060000D01*
X153085440Y-96790000D02*
X153085440Y-98060000D01*
X152284440Y-96544000D02*
X152284440Y-98060000D01*
X153605440Y-100140000D02*
X153605440Y-101071000D01*
X153405440Y-100140000D02*
X153405440Y-101222000D01*
X153925440Y-100140000D02*
X153925440Y-100753000D01*
X152885440Y-96702000D02*
X152885440Y-98060000D01*
X153565440Y-97096000D02*
X153565440Y-98060000D01*
X152765440Y-100140000D02*
X152765440Y-101542000D01*
X153965440Y-97495000D02*
X153965440Y-98060000D01*
X152725440Y-100140000D02*
X152725440Y-101555000D01*
X154045440Y-97600000D02*
X154045440Y-98060000D01*
X152404440Y-100140000D02*
X152404440Y-101636000D01*
X153445440Y-97005000D02*
X153445440Y-98060000D01*
X154445440Y-98423000D02*
X154445440Y-99777000D01*
X153885440Y-100140000D02*
X153885440Y-100799000D01*
X153165440Y-100140000D02*
X153165440Y-101368000D01*
X149369665Y-97375000D02*
X149369665Y-97875000D01*
X152164440Y-96531000D02*
X152164440Y-98060000D01*
X149119665Y-97625000D02*
X149619665Y-97625000D01*
X152885440Y-100140000D02*
X152885440Y-101498000D01*
X153645440Y-100140000D02*
X153645440Y-101037000D01*
X153085440Y-100140000D02*
X153085440Y-101410000D01*
X153205440Y-96853000D02*
X153205440Y-98060000D01*
X152364440Y-100140000D02*
X152364440Y-101643000D01*
X154525440Y-98816000D02*
X154525440Y-99384000D01*
X152204440Y-96535000D02*
X152204440Y-98060000D01*
X152324440Y-96550000D02*
X152324440Y-98060000D01*
X152284440Y-100140000D02*
X152284440Y-101656000D01*
X153125440Y-96810000D02*
X153125440Y-98060000D01*
X153805440Y-100140000D02*
X153805440Y-100885000D01*
X153045440Y-100140000D02*
X153045440Y-101429000D01*
X152645440Y-100140000D02*
X152645440Y-101580000D01*
X153285440Y-100140000D02*
X153285440Y-101300000D01*
X152805440Y-96672000D02*
X152805440Y-98060000D01*
X152604440Y-96609000D02*
X152604440Y-98060000D01*
X153845440Y-97357000D02*
X153845440Y-98060000D01*
X152845440Y-96686000D02*
X152845440Y-98060000D01*
X152244440Y-100140000D02*
X152244440Y-101661000D01*
X152604440Y-100140000D02*
X152604440Y-101591000D01*
X152524440Y-96589000D02*
X152524440Y-98060000D01*
X154205440Y-100140000D02*
X154205440Y-100351000D01*
X153285440Y-96900000D02*
X153285440Y-98060000D01*
X154405440Y-98295000D02*
X154405440Y-99905000D01*
X153005440Y-96752000D02*
X153005440Y-98060000D01*
X154165440Y-100140000D02*
X154165440Y-100419000D01*
X152484440Y-100140000D02*
X152484440Y-101620000D01*
X154085440Y-97657000D02*
X154085440Y-98060000D01*
X154125440Y-97717000D02*
X154125440Y-98060000D01*
X153725440Y-97236000D02*
X153725440Y-98060000D01*
X154285440Y-98002000D02*
X154285440Y-100198000D01*
X152164440Y-100140000D02*
X152164440Y-101669000D01*
X152645440Y-96620000D02*
X152645440Y-98060000D01*
X153805440Y-97315000D02*
X153805440Y-98060000D01*
X154205440Y-97849000D02*
X154205440Y-98060000D01*
X152324440Y-100140000D02*
X152324440Y-101650000D01*
X154325440Y-98089000D02*
X154325440Y-100111000D01*
X153685440Y-97199000D02*
X153685440Y-98060000D01*
X152965440Y-96735000D02*
X152965440Y-98060000D01*
X152084440Y-96524000D02*
X152084440Y-101676000D01*
X152364440Y-96557000D02*
X152364440Y-98060000D01*
X151924440Y-96520000D02*
X151924440Y-101680000D01*
X152004440Y-96521000D02*
X152004440Y-101679000D01*
X153485440Y-97035000D02*
X153485440Y-98060000D01*
X153685440Y-100140000D02*
X153685440Y-101001000D01*
X152845440Y-100140000D02*
X152845440Y-101514000D01*
X153365440Y-96951000D02*
X153365440Y-98060000D01*
X153245440Y-96876000D02*
X153245440Y-98060000D01*
X154085440Y-100140000D02*
X154085440Y-100543000D01*
X152444440Y-96572000D02*
X152444440Y-98060000D01*
X153765440Y-100140000D02*
X153765440Y-100926000D01*
X153405440Y-96978000D02*
X153405440Y-98060000D01*
X152925440Y-100140000D02*
X152925440Y-101482000D01*
X154125440Y-100140000D02*
X154125440Y-100483000D01*
X153645440Y-97163000D02*
X153645440Y-98060000D01*
X154165440Y-97781000D02*
X154165440Y-98060000D01*
X153885440Y-97401000D02*
X153885440Y-98060000D01*
X153565440Y-100140000D02*
X153565440Y-101104000D01*
X152044440Y-96522000D02*
X152044440Y-101678000D01*
X152124440Y-96527000D02*
X152124440Y-101673000D01*
X154365440Y-98185000D02*
X154365440Y-100015000D01*
X152244440Y-96539000D02*
X152244440Y-98060000D01*
X152204440Y-100140000D02*
X152204440Y-101665000D01*
X153725440Y-100140000D02*
X153725440Y-100964000D01*
X153605440Y-97129000D02*
X153605440Y-98060000D01*
X152725440Y-96645000D02*
X152725440Y-98060000D01*
X152765440Y-96658000D02*
X152765440Y-98060000D01*
X152404440Y-96564000D02*
X152404440Y-98060000D01*
X154544440Y-99100000D02*
G75*
G03*
X154544440Y-99100000I-2620000J0D01*
G01*
X156735000Y-132161252D02*
X156735000Y-131638748D01*
X155265000Y-132161252D02*
X155265000Y-131638748D01*
X170314564Y-130685000D02*
X169860436Y-130685000D01*
X170314564Y-129215000D02*
X169860436Y-129215000D01*
X156735000Y-127677064D02*
X156735000Y-127222936D01*
X155265000Y-127677064D02*
X155265000Y-127222936D01*
D11*
X160625000Y-127200000D02*
X159025000Y-127200000D01*
X160625000Y-126625000D02*
X160625000Y-127200000D01*
X160625000Y-137275000D02*
X166375000Y-137275000D01*
X160625000Y-137275000D02*
X160625000Y-136625000D01*
X160625000Y-126625000D02*
X166375000Y-126625000D01*
X166375000Y-137275000D02*
X166375000Y-136625000D01*
X166375000Y-126625000D02*
X166375000Y-127275000D01*
D12*
X166445000Y-113610000D02*
X172415000Y-113610000D01*
X167205000Y-107800000D02*
X167205000Y-106000000D01*
X168705000Y-113600000D02*
X168705000Y-112850000D01*
X171655000Y-106750000D02*
X171655000Y-109800000D01*
X168705000Y-106750000D02*
X171655000Y-106750000D01*
X166455000Y-107800000D02*
X167205000Y-107800000D01*
X166455000Y-111800000D02*
X166455000Y-113600000D01*
X166155000Y-112650000D02*
X166155000Y-113900000D01*
X171655000Y-112850000D02*
X171655000Y-109800000D01*
X167205000Y-111800000D02*
X166455000Y-111800000D01*
X166455000Y-110300000D02*
X167205000Y-110300000D01*
X167205000Y-113600000D02*
X167205000Y-111800000D01*
X167205000Y-109300000D02*
X166455000Y-109300000D01*
X166455000Y-106000000D02*
X166455000Y-107800000D01*
X166455000Y-109300000D02*
X166455000Y-110300000D01*
X166155000Y-113900000D02*
X167405000Y-113900000D01*
X168705000Y-106000000D02*
X168705000Y-106750000D01*
X167205000Y-110300000D02*
X167205000Y-109300000D01*
X172415000Y-113610000D02*
X172415000Y-105990000D01*
X168705000Y-112850000D02*
X171655000Y-112850000D01*
X166455000Y-113600000D02*
X167205000Y-113600000D01*
X172415000Y-105990000D02*
X166445000Y-105990000D01*
X166445000Y-105990000D02*
X166445000Y-113610000D01*
X167205000Y-106000000D02*
X166455000Y-106000000D01*
X171772500Y-125990000D02*
X169087500Y-125990000D01*
X171772500Y-127910000D02*
X171772500Y-125990000D01*
X169087500Y-127910000D02*
X171772500Y-127910000D01*
D10*
X136500000Y-126500000D02*
G75*
G03*
X141500000Y-126500000I2500000J0D01*
G01*
X141500000Y-136500000D02*
G75*
G03*
X136500000Y-136500000I-2500000J0D01*
G01*
X136500000Y-112500000D02*
G75*
G03*
X139500000Y-112500000I1500000J0D01*
G01*
X139500000Y-118500000D02*
G75*
G03*
X136500000Y-118500000I-1500000J0D01*
G01*
D13*
X151725000Y-137900000D02*
X151275000Y-137900000D01*
X151275000Y-137900000D02*
X151275000Y-135000000D01*
X151725000Y-135000000D02*
X151725000Y-137900000D01*
X153125000Y-137950000D02*
X152075000Y-137950000D01*
X151275000Y-135000000D02*
X151725000Y-135000000D01*
X173375000Y-113865000D02*
X173375000Y-118385000D01*
X182425000Y-121275000D02*
X182425000Y-105795000D01*
X173375000Y-108705000D02*
X173375000Y-113225000D01*
X173375000Y-119025000D02*
X173375000Y-121275000D01*
X173375000Y-108065000D02*
X173375000Y-105795000D01*
X182425000Y-105795000D02*
X173375000Y-105795000D01*
X173375000Y-121275000D02*
X182425000Y-121275000D01*
X173375000Y-113225000D02*
G75*
G03*
X173375000Y-113865000I125001J-320000D01*
G01*
X173375000Y-118385000D02*
G75*
G03*
X173375000Y-119025000I125001J-320000D01*
G01*
X173375000Y-108065000D02*
G75*
G03*
X173375000Y-108705000I125001J-320000D01*
G01*
X179870000Y-117435000D02*
G75*
G03*
X179870000Y-117435000I-100000J0D01*
G01*
G36*
X182325000Y-115785000D02*
G01*
X181075000Y-115785000D01*
X181075000Y-111285000D01*
X182325000Y-111285000D01*
X182325000Y-115785000D01*
G37*
D14*
X182325000Y-115785000D02*
X181075000Y-115785000D01*
X181075000Y-111285000D01*
X182325000Y-111285000D01*
X182325000Y-115785000D01*
D10*
X163500000Y-122000000D02*
G75*
G03*
X163500000Y-125000000I0J-1500000D01*
G01*
X157500000Y-125000000D02*
G75*
G03*
X157500000Y-122000000I0J1500000D01*
G01*
D12*
X173288748Y-127685000D02*
X173811252Y-127685000D01*
X173288748Y-126215000D02*
X173811252Y-126215000D01*
D10*
X151000000Y-122000000D02*
G75*
G03*
X151000000Y-125000000I0J-1500000D01*
G01*
X145000000Y-125000000D02*
G75*
G03*
X145000000Y-122000000I0J1500000D01*
G01*
X176000000Y-122000000D02*
G75*
G03*
X176000000Y-125000000I0J-1500000D01*
G01*
X170000000Y-125000000D02*
G75*
G03*
X170000000Y-122000000I0J1500000D01*
G01*
D12*
X180945169Y-78594000D02*
X180945169Y-84076000D01*
X181945169Y-80567000D02*
X181945169Y-82103000D01*
X180625169Y-78280000D02*
X180625169Y-80295000D01*
X181025169Y-78684000D02*
X181025169Y-83986000D01*
X179145169Y-77446000D02*
X179145169Y-80295000D01*
X179425169Y-82375000D02*
X179425169Y-85125000D01*
X179025169Y-82375000D02*
X179025169Y-85260000D01*
X181545169Y-79445000D02*
X181545169Y-83225000D01*
X179225169Y-82375000D02*
X179225169Y-85198000D01*
X179625169Y-77631000D02*
X179625169Y-80295000D01*
X180265169Y-77997000D02*
X180265169Y-80295000D01*
X179185169Y-82375000D02*
X179185169Y-85212000D01*
X178905169Y-82375000D02*
X178905169Y-85292000D01*
X180785169Y-78428000D02*
X180785169Y-80295000D01*
X180425169Y-78115000D02*
X180425169Y-80295000D01*
X178504169Y-77298000D02*
X178504169Y-85372000D01*
X179705169Y-77669000D02*
X179705169Y-80295000D01*
X178224169Y-77267000D02*
X178224169Y-85403000D01*
X181865169Y-80237000D02*
X181865169Y-82433000D01*
X180145169Y-77917000D02*
X180145169Y-80295000D01*
X180465169Y-82375000D02*
X180465169Y-84524000D01*
X178464169Y-77293000D02*
X178464169Y-85377000D01*
X180665169Y-82375000D02*
X180665169Y-84354000D01*
X178945169Y-82375000D02*
X178945169Y-85282000D01*
X178865169Y-77368000D02*
X178865169Y-80295000D01*
X179065169Y-82375000D02*
X179065169Y-85249000D01*
X181905169Y-80387000D02*
X181905169Y-82283000D01*
X179985169Y-77818000D02*
X179985169Y-80295000D01*
X178745169Y-77341000D02*
X178745169Y-85329000D01*
X179665169Y-77649000D02*
X179665169Y-80295000D01*
X179105169Y-77433000D02*
X179105169Y-80295000D01*
X178264169Y-77270000D02*
X178264169Y-85400000D01*
X181585169Y-79522000D02*
X181585169Y-83148000D01*
X179665169Y-82375000D02*
X179665169Y-85021000D01*
X178905169Y-77378000D02*
X178905169Y-80295000D01*
X181625169Y-79604000D02*
X181625169Y-83066000D01*
X180545169Y-82375000D02*
X180545169Y-84459000D01*
X178985169Y-77399000D02*
X178985169Y-80295000D01*
X181105169Y-78779000D02*
X181105169Y-83891000D01*
X178024169Y-77256000D02*
X178024169Y-85414000D01*
X180665169Y-78316000D02*
X180665169Y-80295000D01*
X179265169Y-82375000D02*
X179265169Y-85185000D01*
X180425169Y-82375000D02*
X180425169Y-84555000D01*
X179545169Y-82375000D02*
X179545169Y-85075000D01*
X173894471Y-78620000D02*
X173894471Y-79420000D01*
X177904169Y-77255000D02*
X177904169Y-85415000D01*
X179625169Y-82375000D02*
X179625169Y-85039000D01*
X180065169Y-77866000D02*
X180065169Y-80295000D01*
X179905169Y-77773000D02*
X179905169Y-80295000D01*
X178064169Y-77258000D02*
X178064169Y-85412000D01*
X178584169Y-77311000D02*
X178584169Y-85359000D01*
X178785169Y-82375000D02*
X178785169Y-85320000D01*
X180705169Y-78352000D02*
X180705169Y-80295000D01*
X180745169Y-82375000D02*
X180745169Y-84280000D01*
X181185169Y-78881000D02*
X181185169Y-83789000D01*
X180505169Y-78179000D02*
X180505169Y-80295000D01*
X180505169Y-82375000D02*
X180505169Y-84491000D01*
X178665169Y-77325000D02*
X178665169Y-85345000D01*
X178785169Y-77350000D02*
X178785169Y-80295000D01*
X180465169Y-78146000D02*
X180465169Y-80295000D01*
X178104169Y-77259000D02*
X178104169Y-85411000D01*
X179825169Y-77729000D02*
X179825169Y-80295000D01*
X179505169Y-82375000D02*
X179505169Y-85092000D01*
X179865169Y-77751000D02*
X179865169Y-80295000D01*
X179345169Y-77514000D02*
X179345169Y-80295000D01*
X180185169Y-77943000D02*
X180185169Y-80295000D01*
X179705169Y-82375000D02*
X179705169Y-85001000D01*
X179585169Y-82375000D02*
X179585169Y-85057000D01*
X179305169Y-77500000D02*
X179305169Y-80295000D01*
X180025169Y-82375000D02*
X180025169Y-84828000D01*
X181785169Y-79989000D02*
X181785169Y-82681000D01*
X181385169Y-79169000D02*
X181385169Y-83501000D01*
X173494471Y-79020000D02*
X174294471Y-79020000D01*
X181465169Y-79301000D02*
X181465169Y-83369000D01*
X179985169Y-82375000D02*
X179985169Y-84852000D01*
X178825169Y-77359000D02*
X178825169Y-80295000D01*
X178945169Y-77388000D02*
X178945169Y-80295000D01*
X180025169Y-77842000D02*
X180025169Y-80295000D01*
X178304169Y-77274000D02*
X178304169Y-85396000D01*
X178825169Y-82375000D02*
X178825169Y-85311000D01*
X179385169Y-82375000D02*
X179385169Y-85140000D01*
X180865169Y-78509000D02*
X180865169Y-84161000D01*
X181225169Y-78935000D02*
X181225169Y-83735000D01*
X180225169Y-82375000D02*
X180225169Y-84700000D01*
X179305169Y-82375000D02*
X179305169Y-85170000D01*
X180825169Y-78468000D02*
X180825169Y-80295000D01*
X181825169Y-80106000D02*
X181825169Y-82564000D01*
X181665169Y-79690000D02*
X181665169Y-82980000D01*
X178865169Y-82375000D02*
X178865169Y-85302000D01*
X179065169Y-77421000D02*
X179065169Y-80295000D01*
X181425169Y-79233000D02*
X181425169Y-83437000D01*
X181705169Y-79783000D02*
X181705169Y-82887000D01*
X178705169Y-77333000D02*
X178705169Y-85337000D01*
X180265169Y-82375000D02*
X180265169Y-84673000D01*
X178424169Y-77287000D02*
X178424169Y-85383000D01*
X179265169Y-77485000D02*
X179265169Y-80295000D01*
X177944169Y-77255000D02*
X177944169Y-85415000D01*
X180105169Y-77891000D02*
X180105169Y-80295000D01*
X178184169Y-77264000D02*
X178184169Y-85406000D01*
X178625169Y-77318000D02*
X178625169Y-85352000D01*
X181745169Y-79882000D02*
X181745169Y-82788000D01*
X179465169Y-77561000D02*
X179465169Y-80295000D01*
X179585169Y-77613000D02*
X179585169Y-80295000D01*
X180585169Y-82375000D02*
X180585169Y-84425000D01*
X181305169Y-79048000D02*
X181305169Y-83622000D01*
X180825169Y-82375000D02*
X180825169Y-84202000D01*
X179225169Y-77472000D02*
X179225169Y-80295000D01*
X179865169Y-82375000D02*
X179865169Y-84919000D01*
X180305169Y-78026000D02*
X180305169Y-80295000D01*
X180385169Y-82375000D02*
X180385169Y-84585000D01*
X181145169Y-78830000D02*
X181145169Y-83840000D01*
X179745169Y-77688000D02*
X179745169Y-80295000D01*
X179545169Y-77595000D02*
X179545169Y-80295000D01*
X181265169Y-78990000D02*
X181265169Y-83680000D01*
X180625169Y-82375000D02*
X180625169Y-84390000D01*
X179145169Y-82375000D02*
X179145169Y-85224000D01*
X181345169Y-79107000D02*
X181345169Y-83563000D01*
X180585169Y-78245000D02*
X180585169Y-80295000D01*
X179945169Y-82375000D02*
X179945169Y-84875000D01*
X178144169Y-77261000D02*
X178144169Y-85409000D01*
X180145169Y-82375000D02*
X180145169Y-84753000D01*
X180785169Y-82375000D02*
X180785169Y-84242000D01*
X179905169Y-82375000D02*
X179905169Y-84897000D01*
X180985169Y-78638000D02*
X180985169Y-84032000D01*
X179105169Y-82375000D02*
X179105169Y-85237000D01*
X180345169Y-78055000D02*
X180345169Y-80295000D01*
X179785169Y-82375000D02*
X179785169Y-84962000D01*
X179745169Y-82375000D02*
X179745169Y-84982000D01*
X179025169Y-77410000D02*
X179025169Y-80295000D01*
X179345169Y-82375000D02*
X179345169Y-85156000D01*
X181985169Y-80802000D02*
X181985169Y-81868000D01*
X181065169Y-78731000D02*
X181065169Y-83939000D01*
X179385169Y-77530000D02*
X179385169Y-80295000D01*
X179465169Y-82375000D02*
X179465169Y-85109000D01*
X177984169Y-77255000D02*
X177984169Y-85415000D01*
X180545169Y-78211000D02*
X180545169Y-80295000D01*
X180305169Y-82375000D02*
X180305169Y-84644000D01*
X180705169Y-82375000D02*
X180705169Y-84318000D01*
X180105169Y-82375000D02*
X180105169Y-84779000D01*
X179425169Y-77545000D02*
X179425169Y-80295000D01*
X178344169Y-77278000D02*
X178344169Y-85392000D01*
X179825169Y-82375000D02*
X179825169Y-84941000D01*
X179785169Y-77708000D02*
X179785169Y-80295000D01*
X180225169Y-77970000D02*
X180225169Y-80295000D01*
X181505169Y-79371000D02*
X181505169Y-83299000D01*
X179945169Y-77795000D02*
X179945169Y-80295000D01*
X178985169Y-82375000D02*
X178985169Y-85271000D01*
X180065169Y-82375000D02*
X180065169Y-84804000D01*
X180345169Y-82375000D02*
X180345169Y-84615000D01*
X179505169Y-77578000D02*
X179505169Y-80295000D01*
X178544169Y-77305000D02*
X178544169Y-85365000D01*
X180905169Y-78551000D02*
X180905169Y-84119000D01*
X180185169Y-82375000D02*
X180185169Y-84727000D01*
X179185169Y-77458000D02*
X179185169Y-80295000D01*
X180745169Y-78390000D02*
X180745169Y-80295000D01*
X180385169Y-78085000D02*
X180385169Y-80295000D01*
X178384169Y-77283000D02*
X178384169Y-85387000D01*
X182024169Y-81335000D02*
G75*
G03*
X182024169Y-81335000I-4120000J0D01*
G01*
D10*
X136500000Y-101000000D02*
G75*
G03*
X139500000Y-101000000I1500000J0D01*
G01*
X139500000Y-107000000D02*
G75*
G03*
X136500000Y-107000000I-1500000J0D01*
G01*
D12*
X169980000Y-135390000D02*
X171460000Y-135390000D01*
X173540000Y-135310000D02*
X175001000Y-135310000D01*
X169957000Y-135510000D02*
X171460000Y-135510000D01*
X169921000Y-135870000D02*
X171460000Y-135870000D01*
X171249000Y-133669000D02*
X173751000Y-133669000D01*
X173540000Y-134829000D02*
X174829000Y-134829000D01*
X170190000Y-134789000D02*
X171460000Y-134789000D01*
X173540000Y-134509000D02*
X174649000Y-134509000D01*
X170405000Y-134429000D02*
X171460000Y-134429000D01*
X170496000Y-134309000D02*
X171460000Y-134309000D01*
X170086000Y-135029000D02*
X171460000Y-135029000D01*
X173540000Y-134269000D02*
X174471000Y-134269000D01*
X173540000Y-135189000D02*
X174968000Y-135189000D01*
X171025000Y-138754775D02*
X171025000Y-138254775D01*
X173540000Y-134149000D02*
X174364000Y-134149000D01*
X173540000Y-135390000D02*
X175020000Y-135390000D01*
X170946000Y-133869000D02*
X174054000Y-133869000D01*
X173540000Y-135670000D02*
X175065000Y-135670000D01*
X173540000Y-134069000D02*
X174285000Y-134069000D01*
X173540000Y-135590000D02*
X175056000Y-135590000D01*
X173540000Y-134589000D02*
X174700000Y-134589000D01*
X170674000Y-134109000D02*
X171460000Y-134109000D01*
X173540000Y-134869000D02*
X174848000Y-134869000D01*
X170435000Y-134389000D02*
X171460000Y-134389000D01*
X170152000Y-134869000D02*
X171460000Y-134869000D01*
X173540000Y-135069000D02*
X174928000Y-135069000D01*
X173540000Y-134549000D02*
X174675000Y-134549000D01*
X173540000Y-135910000D02*
X175080000Y-135910000D01*
X170058000Y-135109000D02*
X171460000Y-135109000D01*
X169927000Y-135750000D02*
X171460000Y-135750000D01*
X171181000Y-133709000D02*
X173819000Y-133709000D01*
X173540000Y-133949000D02*
X174153000Y-133949000D01*
X171585000Y-133509000D02*
X173415000Y-133509000D01*
X170300000Y-134589000D02*
X171460000Y-134589000D01*
X169920000Y-135910000D02*
X171460000Y-135910000D01*
X170465000Y-134349000D02*
X171460000Y-134349000D01*
X170775000Y-138504775D02*
X171275000Y-138504775D01*
X169944000Y-135590000D02*
X171460000Y-135590000D01*
X173540000Y-135710000D02*
X175069000Y-135710000D01*
X173540000Y-133989000D02*
X174199000Y-133989000D01*
X171982000Y-133389000D02*
X173018000Y-133389000D01*
X173540000Y-135870000D02*
X175079000Y-135870000D01*
X173540000Y-135830000D02*
X175078000Y-135830000D01*
X171000000Y-133829000D02*
X174000000Y-133829000D01*
X173540000Y-134349000D02*
X174535000Y-134349000D01*
X173540000Y-134389000D02*
X174565000Y-134389000D01*
X170325000Y-134549000D02*
X171460000Y-134549000D01*
X170102000Y-134989000D02*
X171460000Y-134989000D01*
X170599000Y-134189000D02*
X171460000Y-134189000D01*
X170232000Y-134709000D02*
X171460000Y-134709000D01*
X173540000Y-135510000D02*
X175043000Y-135510000D01*
X173540000Y-135470000D02*
X175036000Y-135470000D01*
X173540000Y-134109000D02*
X174326000Y-134109000D01*
X170020000Y-135229000D02*
X171460000Y-135229000D01*
X170045000Y-135149000D02*
X171460000Y-135149000D01*
X170351000Y-134509000D02*
X171460000Y-134509000D01*
X169922000Y-135830000D02*
X171460000Y-135830000D01*
X173540000Y-135270000D02*
X174991000Y-135270000D01*
X173540000Y-134629000D02*
X174724000Y-134629000D01*
X170118000Y-134949000D02*
X171460000Y-134949000D01*
X169999000Y-135310000D02*
X171460000Y-135310000D01*
X171823000Y-133429000D02*
X173177000Y-133429000D01*
X171695000Y-133469000D02*
X173305000Y-133469000D01*
X169939000Y-135630000D02*
X171460000Y-135630000D01*
X173540000Y-134749000D02*
X174790000Y-134749000D01*
X173540000Y-135550000D02*
X175050000Y-135550000D01*
X172216000Y-133349000D02*
X172784000Y-133349000D01*
X170171000Y-134829000D02*
X171460000Y-134829000D01*
X169931000Y-135710000D02*
X171460000Y-135710000D01*
X170636000Y-134149000D02*
X171460000Y-134149000D01*
X173540000Y-134469000D02*
X174622000Y-134469000D01*
X170529000Y-134269000D02*
X171460000Y-134269000D01*
X173540000Y-134669000D02*
X174747000Y-134669000D01*
X173540000Y-134949000D02*
X174882000Y-134949000D01*
X169972000Y-135430000D02*
X171460000Y-135430000D01*
X169950000Y-135550000D02*
X171460000Y-135550000D01*
X170757000Y-134029000D02*
X171460000Y-134029000D01*
X169920000Y-135950000D02*
X171460000Y-135950000D01*
X170072000Y-135069000D02*
X171460000Y-135069000D01*
X173540000Y-135029000D02*
X174914000Y-135029000D01*
X173540000Y-135109000D02*
X174942000Y-135109000D01*
X170801000Y-133989000D02*
X171460000Y-133989000D01*
X170715000Y-134069000D02*
X171460000Y-134069000D01*
X171322000Y-133629000D02*
X173678000Y-133629000D01*
X171057000Y-133789000D02*
X173943000Y-133789000D01*
X173540000Y-135630000D02*
X175061000Y-135630000D01*
X171117000Y-133749000D02*
X173883000Y-133749000D01*
X170032000Y-135189000D02*
X171460000Y-135189000D01*
X170895000Y-133909000D02*
X174105000Y-133909000D01*
X170378000Y-134469000D02*
X171460000Y-134469000D01*
X170135000Y-134909000D02*
X171460000Y-134909000D01*
X170563000Y-134229000D02*
X171460000Y-134229000D01*
X169989000Y-135350000D02*
X171460000Y-135350000D01*
X173540000Y-134229000D02*
X174437000Y-134229000D01*
X173540000Y-135430000D02*
X175028000Y-135430000D01*
X173540000Y-134709000D02*
X174768000Y-134709000D01*
X173540000Y-135790000D02*
X175076000Y-135790000D01*
X171402000Y-133589000D02*
X173598000Y-133589000D01*
X173540000Y-134909000D02*
X174865000Y-134909000D01*
X173540000Y-135950000D02*
X175080000Y-135950000D01*
X170009000Y-135270000D02*
X171460000Y-135270000D01*
X173540000Y-135229000D02*
X174980000Y-135229000D01*
X173540000Y-134989000D02*
X174898000Y-134989000D01*
X170210000Y-134749000D02*
X171460000Y-134749000D01*
X170276000Y-134629000D02*
X171460000Y-134629000D01*
X173540000Y-135350000D02*
X175011000Y-135350000D01*
X170847000Y-133949000D02*
X171460000Y-133949000D01*
X170253000Y-134669000D02*
X171460000Y-134669000D01*
X169935000Y-135670000D02*
X171460000Y-135670000D01*
X173540000Y-134189000D02*
X174401000Y-134189000D01*
X173540000Y-135750000D02*
X175073000Y-135750000D01*
X173540000Y-135149000D02*
X174955000Y-135149000D01*
X169924000Y-135790000D02*
X171460000Y-135790000D01*
X173540000Y-134429000D02*
X174595000Y-134429000D01*
X173540000Y-134789000D02*
X174810000Y-134789000D01*
X173540000Y-134309000D02*
X174504000Y-134309000D01*
X169964000Y-135470000D02*
X171460000Y-135470000D01*
X171489000Y-133549000D02*
X173511000Y-133549000D01*
X173540000Y-134029000D02*
X174243000Y-134029000D01*
X175120000Y-135950000D02*
G75*
G03*
X175120000Y-135950000I-2620000J0D01*
G01*
X170310000Y-78195000D02*
X170310000Y-80795000D01*
X171580000Y-78195000D02*
X172910000Y-78195000D01*
X170310000Y-78195000D02*
X149930000Y-78195000D01*
X149930000Y-78195000D02*
X149930000Y-83395000D01*
X172910000Y-83395000D02*
X149930000Y-83395000D01*
X172910000Y-78195000D02*
X172910000Y-79525000D01*
X172910000Y-80795000D02*
X172910000Y-83395000D01*
X170310000Y-80795000D02*
X172910000Y-80795000D01*
X102133000Y-78381651D02*
X103960000Y-78381651D01*
X106040000Y-79941651D02*
X108850000Y-79941651D01*
X106040000Y-78541651D02*
X108019000Y-78541651D01*
X101910000Y-78621651D02*
X103960000Y-78621651D01*
X106040000Y-79181651D02*
X108493000Y-79181651D01*
X102093000Y-78421651D02*
X103960000Y-78421651D01*
X106040000Y-79061651D02*
X108418000Y-79061651D01*
X106040000Y-79621651D02*
X108722000Y-79621651D01*
X102600000Y-77981651D02*
X107400000Y-77981651D01*
X106040000Y-79101651D02*
X108444000Y-79101651D01*
X103187000Y-77621651D02*
X106813000Y-77621651D01*
X103654000Y-77421651D02*
X106346000Y-77421651D01*
X102546000Y-78021651D02*
X107454000Y-78021651D01*
X102655000Y-77941651D02*
X107345000Y-77941651D01*
X106040000Y-80421651D02*
X108985000Y-80421651D01*
X100929000Y-81022651D02*
X109071000Y-81022651D01*
X101075000Y-80181651D02*
X103960000Y-80181651D01*
X103902000Y-77341651D02*
X106098000Y-77341651D01*
X101179000Y-79861651D02*
X103960000Y-79861651D01*
X106040000Y-79741651D02*
X108774000Y-79741651D01*
X101296000Y-79581651D02*
X103960000Y-79581651D01*
X106040000Y-79901651D02*
X108835000Y-79901651D01*
X102303000Y-78221651D02*
X107697000Y-78221651D01*
X101438000Y-79301651D02*
X103960000Y-79301651D01*
X106040000Y-78981651D02*
X108365000Y-78981651D01*
X106040000Y-79341651D02*
X108584000Y-79341651D01*
X106040000Y-79781651D02*
X108790000Y-79781651D01*
X101945000Y-78581651D02*
X103960000Y-78581651D01*
X101662000Y-78941651D02*
X103960000Y-78941651D01*
X102349000Y-78181651D02*
X107651000Y-78181651D01*
X101111000Y-80061651D02*
X103960000Y-80061651D01*
X101006000Y-80461651D02*
X108994000Y-80461651D01*
X101582000Y-79061651D02*
X103960000Y-79061651D01*
X101210000Y-79781651D02*
X103960000Y-79781651D01*
X102966000Y-77741651D02*
X107034000Y-77741651D01*
X101531000Y-79141651D02*
X103960000Y-79141651D01*
X106040000Y-78741651D02*
X108189000Y-78741651D01*
X106040000Y-79861651D02*
X108821000Y-79861651D01*
X101981000Y-78541651D02*
X103960000Y-78541651D01*
X100998000Y-80501651D02*
X109002000Y-80501651D01*
X101780000Y-78781651D02*
X103960000Y-78781651D01*
X101394000Y-79381651D02*
X103960000Y-79381651D01*
X104232000Y-77261651D02*
X105768000Y-77261651D01*
X106040000Y-79381651D02*
X108606000Y-79381651D01*
X103448000Y-77501651D02*
X106552000Y-77501651D01*
X101556000Y-79101651D02*
X103960000Y-79101651D01*
X100958000Y-80742651D02*
X109042000Y-80742651D01*
X102772000Y-77861651D02*
X107228000Y-77861651D01*
X101150000Y-79941651D02*
X103960000Y-79941651D01*
X106040000Y-80301651D02*
X108957000Y-80301651D01*
X101243000Y-79701651D02*
X103960000Y-79701651D01*
X106040000Y-78501651D02*
X107983000Y-78501651D01*
X101033000Y-80341651D02*
X103960000Y-80341651D01*
X101416000Y-79341651D02*
X103960000Y-79341651D01*
X101278000Y-79621651D02*
X103960000Y-79621651D01*
X100935000Y-80942651D02*
X109065000Y-80942651D01*
X106040000Y-78941651D02*
X108338000Y-78941651D01*
X106040000Y-79301651D02*
X108562000Y-79301651D01*
X100920000Y-81302651D02*
X109080000Y-81302651D01*
X106040000Y-78661651D02*
X108124000Y-78661651D01*
X101373000Y-79421651D02*
X103960000Y-79421651D01*
X100943000Y-80862651D02*
X109057000Y-80862651D01*
X100952000Y-80782651D02*
X109048000Y-80782651D01*
X101608000Y-79021651D02*
X103960000Y-79021651D01*
X100970000Y-80662651D02*
X109030000Y-80662651D01*
X102713000Y-77901651D02*
X107287000Y-77901651D01*
X102055000Y-78461651D02*
X103960000Y-78461651D01*
X106040000Y-79501651D02*
X108666000Y-79501651D01*
X100976000Y-80622651D02*
X109024000Y-80622651D01*
X101635000Y-78981651D02*
X103960000Y-78981651D01*
X101460000Y-79261651D02*
X103960000Y-79261651D01*
X106040000Y-79461651D02*
X108647000Y-79461651D01*
X106040000Y-80261651D02*
X108947000Y-80261651D01*
X100923000Y-81142651D02*
X109077000Y-81142651D01*
X106040000Y-78461651D02*
X107945000Y-78461651D01*
X101353000Y-79461651D02*
X103960000Y-79461651D01*
X102216000Y-78301651D02*
X107784000Y-78301651D01*
X101691000Y-78901651D02*
X103960000Y-78901651D01*
X100920000Y-81262651D02*
X109080000Y-81262651D01*
X102174000Y-78341651D02*
X107826000Y-78341651D01*
X101720000Y-78861651D02*
X103960000Y-78861651D01*
X100924000Y-81102651D02*
X109076000Y-81102651D01*
X106040000Y-80181651D02*
X108925000Y-80181651D01*
X106040000Y-79581651D02*
X108704000Y-79581651D01*
X103110000Y-77661651D02*
X106890000Y-77661651D01*
X102017000Y-78501651D02*
X103960000Y-78501651D01*
X101064000Y-80221651D02*
X103960000Y-80221651D01*
X101226000Y-79741651D02*
X103960000Y-79741651D01*
X100983000Y-80581651D02*
X109017000Y-80581651D01*
X101260000Y-79661651D02*
X103960000Y-79661651D01*
X101053000Y-80261651D02*
X103960000Y-80261651D01*
X106040000Y-78381651D02*
X107867000Y-78381651D01*
X102396000Y-78141651D02*
X107604000Y-78141651D01*
X101314000Y-79541651D02*
X103960000Y-79541651D01*
X103355000Y-77541651D02*
X106645000Y-77541651D01*
X100920000Y-81222651D02*
X109080000Y-81222651D01*
X101043000Y-80301651D02*
X103960000Y-80301651D01*
X103771000Y-77381651D02*
X106229000Y-77381651D01*
X106040000Y-78701651D02*
X108156000Y-78701651D01*
X106040000Y-80061651D02*
X108889000Y-80061651D01*
X102834000Y-77821651D02*
X107166000Y-77821651D01*
X106040000Y-78421651D02*
X107907000Y-78421651D01*
X106040000Y-78581651D02*
X108055000Y-78581651D01*
X101195000Y-79821651D02*
X103960000Y-79821651D01*
X106040000Y-80341651D02*
X108967000Y-80341651D01*
X101015000Y-80421651D02*
X103960000Y-80421651D01*
X100926000Y-81062651D02*
X109074000Y-81062651D01*
X106040000Y-80221651D02*
X108936000Y-80221651D01*
X106040000Y-79701651D02*
X108757000Y-79701651D01*
X101137000Y-79981651D02*
X103960000Y-79981651D01*
X101098000Y-80101651D02*
X103960000Y-80101651D01*
X106040000Y-79981651D02*
X108863000Y-79981651D01*
X100990000Y-80541651D02*
X109010000Y-80541651D01*
X106040000Y-80021651D02*
X108877000Y-80021651D01*
X101811000Y-78741651D02*
X103960000Y-78741651D01*
X106040000Y-79261651D02*
X108540000Y-79261651D01*
X106040000Y-78821651D02*
X108250000Y-78821651D01*
X106040000Y-79421651D02*
X108627000Y-79421651D01*
X102898000Y-77781651D02*
X107102000Y-77781651D01*
X102285000Y-85312349D02*
X103085000Y-85312349D01*
X101123000Y-80021651D02*
X103960000Y-80021651D01*
X106040000Y-78781651D02*
X108220000Y-78781651D01*
X103547000Y-77461651D02*
X106453000Y-77461651D01*
X106040000Y-80381651D02*
X108976000Y-80381651D01*
X100963000Y-80702651D02*
X109037000Y-80702651D01*
X106040000Y-79021651D02*
X108392000Y-79021651D01*
X104467000Y-77221651D02*
X105533000Y-77221651D01*
X106040000Y-80141651D02*
X108914000Y-80141651D01*
X104052000Y-77301651D02*
X105948000Y-77301651D01*
X101876000Y-78661651D02*
X103960000Y-78661651D01*
X106040000Y-79221651D02*
X108517000Y-79221651D01*
X106040000Y-80101651D02*
X108902000Y-80101651D01*
X101024000Y-80381651D02*
X103960000Y-80381651D01*
X106040000Y-78621651D02*
X108090000Y-78621651D01*
X106040000Y-78901651D02*
X108309000Y-78901651D01*
X100932000Y-80982651D02*
X109068000Y-80982651D01*
X106040000Y-79541651D02*
X108686000Y-79541651D01*
X106040000Y-79661651D02*
X108740000Y-79661651D01*
X103036000Y-77701651D02*
X106964000Y-77701651D01*
X100921000Y-81182651D02*
X109079000Y-81182651D01*
X101086000Y-80141651D02*
X103960000Y-80141651D01*
X101165000Y-79901651D02*
X103960000Y-79901651D01*
X101334000Y-79501651D02*
X103960000Y-79501651D01*
X102495000Y-78061651D02*
X107505000Y-78061651D01*
X100948000Y-80822651D02*
X109052000Y-80822651D01*
X101507000Y-79181651D02*
X103960000Y-79181651D01*
X101844000Y-78701651D02*
X103960000Y-78701651D01*
X103269000Y-77581651D02*
X106731000Y-77581651D01*
X106040000Y-79821651D02*
X108805000Y-79821651D01*
X106040000Y-78861651D02*
X108280000Y-78861651D01*
X102685000Y-85712349D02*
X102685000Y-84912349D01*
X102444000Y-78101651D02*
X107556000Y-78101651D01*
X101750000Y-78821651D02*
X103960000Y-78821651D01*
X101483000Y-79221651D02*
X103960000Y-79221651D01*
X106040000Y-79141651D02*
X108469000Y-79141651D01*
X100939000Y-80902651D02*
X109061000Y-80902651D01*
X102259000Y-78261651D02*
X107741000Y-78261651D01*
X109120000Y-81302651D02*
G75*
G03*
X109120000Y-81302651I-4120000J0D01*
G01*
D13*
X147140000Y-136110000D02*
X141860000Y-136110000D01*
X141860000Y-136110000D02*
X141860000Y-127790000D01*
X147140000Y-127790000D02*
X147140000Y-136110000D01*
X141860000Y-127790000D02*
X147140000Y-127790000D01*
X146600000Y-135620000D02*
G75*
G03*
X146600000Y-135620000I-100000J0D01*
G01*
D12*
X157260000Y-108335000D02*
X157260000Y-102365000D01*
X151450000Y-102375000D02*
X149650000Y-102375000D01*
X152950000Y-102375000D02*
X152950000Y-103125000D01*
X157250000Y-103125000D02*
X157250000Y-102375000D01*
X149650000Y-103125000D02*
X151450000Y-103125000D01*
X157260000Y-102365000D02*
X149640000Y-102365000D01*
X150400000Y-107575000D02*
X153450000Y-107575000D01*
X151450000Y-103125000D02*
X151450000Y-102375000D01*
X152950000Y-103125000D02*
X153950000Y-103125000D01*
X150400000Y-104625000D02*
X150400000Y-107575000D01*
X149640000Y-108335000D02*
X157260000Y-108335000D01*
X149650000Y-104625000D02*
X150400000Y-104625000D01*
X155450000Y-102375000D02*
X155450000Y-103125000D01*
X149650000Y-102375000D02*
X149650000Y-103125000D01*
X155450000Y-103125000D02*
X157250000Y-103125000D01*
X153950000Y-102375000D02*
X152950000Y-102375000D01*
X153950000Y-103125000D02*
X153950000Y-102375000D01*
X157250000Y-104625000D02*
X156500000Y-104625000D01*
X156500000Y-107575000D02*
X153450000Y-107575000D01*
X156500000Y-104625000D02*
X156500000Y-107575000D01*
X149640000Y-102365000D02*
X149640000Y-108335000D01*
X157250000Y-102375000D02*
X155450000Y-102375000D01*
X149350000Y-102075000D02*
X149350000Y-103325000D01*
X150600000Y-102075000D02*
X149350000Y-102075000D01*
X129830000Y-100150000D02*
X135030000Y-100150000D01*
X132430000Y-79770000D02*
X132430000Y-77170000D01*
X129830000Y-77170000D02*
X131160000Y-77170000D01*
X135030000Y-77170000D02*
X135030000Y-100150000D01*
X129830000Y-79770000D02*
X132430000Y-79770000D01*
X129830000Y-78500000D02*
X129830000Y-77170000D01*
X132430000Y-77170000D02*
X135030000Y-77170000D01*
X129830000Y-79770000D02*
X129830000Y-100150000D01*
D13*
X151715000Y-126050000D02*
X151715000Y-128950000D01*
X153115000Y-129000000D02*
X152065000Y-129000000D01*
X151265000Y-126050000D02*
X151715000Y-126050000D01*
X151715000Y-128950000D02*
X151265000Y-128950000D01*
X151265000Y-128950000D02*
X151265000Y-126050000D01*
D12*
X148750000Y-129650000D02*
X154250000Y-129650000D01*
X148750000Y-131600000D02*
X148750000Y-129650000D01*
X154250000Y-131600000D02*
X148750000Y-131600000D01*
X154250000Y-129650000D02*
X154250000Y-131600000D01*
X171140000Y-116145000D02*
X172470000Y-116145000D01*
X172470000Y-121345000D02*
X149490000Y-121345000D01*
X169870000Y-116145000D02*
X149490000Y-116145000D01*
X172470000Y-118745000D02*
X172470000Y-121345000D01*
X149490000Y-116145000D02*
X149490000Y-121345000D01*
X172470000Y-116145000D02*
X172470000Y-117475000D01*
X169870000Y-118745000D02*
X172470000Y-118745000D01*
X169870000Y-116145000D02*
X169870000Y-118745000D01*
X155265000Y-136677064D02*
X155265000Y-136222936D01*
X156735000Y-136677064D02*
X156735000Y-136222936D01*
D15*
X120500000Y-137000000D02*
X106500000Y-137000000D01*
X126500000Y-139000000D02*
X120500000Y-139000000D01*
X100500000Y-113000000D02*
X126500000Y-113000000D01*
X126500000Y-113000000D02*
X126500000Y-139000000D01*
X106500000Y-137000000D02*
X106500000Y-139000000D01*
X100500000Y-139000000D02*
X100500000Y-113000000D01*
X120500000Y-139000000D02*
X120500000Y-137000000D01*
X106500000Y-139000000D02*
X100500000Y-139000000D01*
D13*
X109600000Y-112500000D02*
G75*
G03*
X109600000Y-112500000I-100000J0D01*
G01*
D12*
X128210000Y-95880000D02*
X127210000Y-95880000D01*
X128210000Y-95100000D02*
X128210000Y-95880000D01*
X109970000Y-70140000D02*
X109970000Y-76555000D01*
X109970000Y-70140000D02*
X128210000Y-70140000D01*
X128210000Y-70140000D02*
X128210000Y-76555000D01*
X109970000Y-95880000D02*
X110970000Y-95880000D01*
X109970000Y-95100000D02*
X109970000Y-95880000D01*
X109970000Y-76555000D02*
X109590000Y-76555000D01*
X127167500Y-134910000D02*
X135987500Y-134910000D01*
X135987500Y-132300000D02*
X134177500Y-132300000D01*
X135987500Y-117690000D02*
X127167500Y-117690000D01*
X128877500Y-118600000D02*
X134177500Y-118600000D01*
X134177500Y-130300000D02*
X135987500Y-130300000D01*
X134177500Y-132300000D02*
X134177500Y-130300000D01*
X134177500Y-122300000D02*
X134177500Y-120300000D01*
X136787500Y-121600000D02*
X136187500Y-121300000D01*
X134177500Y-125300000D02*
X135987500Y-125300000D01*
X128877500Y-119300000D02*
X128877500Y-118600000D01*
X134177500Y-120300000D02*
X135987500Y-120300000D01*
X128877500Y-123300000D02*
X128877500Y-124300000D01*
X135987500Y-127300000D02*
X134177500Y-127300000D01*
X135987500Y-134910000D02*
X135987500Y-117690000D01*
X135177500Y-134910000D02*
X135177500Y-132410000D01*
X134177500Y-134000000D02*
X128877500Y-134000000D01*
X128877500Y-128300000D02*
X128877500Y-129300000D01*
X135987500Y-130300000D02*
X135987500Y-132300000D01*
X135987500Y-122300000D02*
X134177500Y-122300000D01*
X128877500Y-134000000D02*
X128877500Y-133300000D01*
X134177500Y-118600000D02*
X134177500Y-134000000D01*
X135177500Y-122300000D02*
X135177500Y-125300000D01*
X136787500Y-121000000D02*
X136787500Y-121600000D01*
X135987500Y-120300000D02*
X135987500Y-122300000D01*
X135177500Y-117690000D02*
X135177500Y-120190000D01*
X136187500Y-121300000D02*
X136787500Y-121000000D01*
X127167500Y-117690000D02*
X127167500Y-134910000D01*
X134177500Y-127300000D02*
X134177500Y-125300000D01*
X135987500Y-125300000D02*
X135987500Y-127300000D01*
X135177500Y-127300000D02*
X135177500Y-130300000D01*
X128877500Y-124300000D02*
G75*
G03*
X128861679Y-128286842I1650000J-2000000D01*
G01*
X128877500Y-119300000D02*
G75*
G03*
X128861679Y-123286842I1650000J-2000000D01*
G01*
X128877500Y-129300000D02*
G75*
G03*
X128861679Y-133286842I1650000J-2000000D01*
G01*
D13*
X127175000Y-114490000D02*
X127175000Y-116740000D01*
X127175000Y-116740000D02*
X136225000Y-116740000D01*
X127175000Y-109330000D02*
X127175000Y-113850000D01*
X127175000Y-103530000D02*
X127175000Y-101260000D01*
X136225000Y-101260000D02*
X127175000Y-101260000D01*
X127175000Y-104170000D02*
X127175000Y-108690000D01*
X136225000Y-116740000D02*
X136225000Y-101260000D01*
X127175000Y-113850000D02*
G75*
G03*
X127175000Y-114490000I125001J-320000D01*
G01*
X127175000Y-103530000D02*
G75*
G03*
X127175000Y-104170000I125001J-320000D01*
G01*
X127175000Y-108690000D02*
G75*
G03*
X127175000Y-109330000I125001J-320000D01*
G01*
X133670000Y-112900000D02*
G75*
G03*
X133670000Y-112900000I-100000J0D01*
G01*
G36*
X136125000Y-111250000D02*
G01*
X134875000Y-111250000D01*
X134875000Y-106750000D01*
X136125000Y-106750000D01*
X136125000Y-111250000D01*
G37*
D14*
X136125000Y-111250000D02*
X134875000Y-111250000D01*
X134875000Y-106750000D01*
X136125000Y-106750000D01*
X136125000Y-111250000D01*
D12*
X188960000Y-86415000D02*
X182545000Y-86415000D01*
X163220000Y-86415000D02*
X163220000Y-87415000D01*
X164000000Y-86415000D02*
X163220000Y-86415000D01*
X163220000Y-104655000D02*
X163220000Y-103655000D01*
X188960000Y-86415000D02*
X188960000Y-104655000D01*
X182545000Y-86415000D02*
X182545000Y-86035000D01*
X188960000Y-104655000D02*
X182545000Y-104655000D01*
X164000000Y-104655000D02*
X163220000Y-104655000D01*
X157260000Y-115185000D02*
X157260000Y-109215000D01*
X157250000Y-109975000D02*
X157250000Y-109225000D01*
X150400000Y-111475000D02*
X150400000Y-114425000D01*
X149350000Y-108925000D02*
X149350000Y-110175000D01*
X151450000Y-109975000D02*
X151450000Y-109225000D01*
X152950000Y-109975000D02*
X153950000Y-109975000D01*
X153950000Y-109225000D02*
X152950000Y-109225000D01*
X152950000Y-109225000D02*
X152950000Y-109975000D01*
X149650000Y-109225000D02*
X149650000Y-109975000D01*
X149640000Y-115185000D02*
X157260000Y-115185000D01*
X153950000Y-109975000D02*
X153950000Y-109225000D01*
X150400000Y-114425000D02*
X153450000Y-114425000D01*
X157250000Y-111475000D02*
X156500000Y-111475000D01*
X157260000Y-109215000D02*
X149640000Y-109215000D01*
X151450000Y-109225000D02*
X149650000Y-109225000D01*
X156500000Y-111475000D02*
X156500000Y-114425000D01*
X157250000Y-109225000D02*
X155450000Y-109225000D01*
X155450000Y-109225000D02*
X155450000Y-109975000D01*
X149650000Y-111475000D02*
X150400000Y-111475000D01*
X149640000Y-109215000D02*
X149640000Y-115185000D01*
X150600000Y-108925000D02*
X149350000Y-108925000D01*
X155450000Y-109975000D02*
X157250000Y-109975000D01*
X149650000Y-109975000D02*
X151450000Y-109975000D01*
X156500000Y-114425000D02*
X153450000Y-114425000D01*
X152850000Y-85075000D02*
X158850000Y-85075000D01*
X151350000Y-84325000D02*
X149550000Y-84325000D01*
X150500000Y-84025000D02*
X149250000Y-84025000D01*
X158850000Y-85075000D02*
X158850000Y-84325000D01*
X161400000Y-89525000D02*
X155850000Y-89525000D01*
X149540000Y-90285000D02*
X162160000Y-90285000D01*
X162150000Y-85075000D02*
X162150000Y-84325000D01*
X160350000Y-84325000D02*
X160350000Y-85075000D01*
X150300000Y-86575000D02*
X150300000Y-89525000D01*
X162160000Y-90285000D02*
X162160000Y-84315000D01*
X149550000Y-85075000D02*
X151350000Y-85075000D01*
X162160000Y-84315000D02*
X149540000Y-84315000D01*
X152850000Y-84325000D02*
X152850000Y-85075000D01*
X149550000Y-84325000D02*
X149550000Y-85075000D01*
X151350000Y-85075000D02*
X151350000Y-84325000D01*
X149550000Y-86575000D02*
X150300000Y-86575000D01*
X149540000Y-84315000D02*
X149540000Y-90285000D01*
X158850000Y-84325000D02*
X152850000Y-84325000D01*
X161400000Y-86575000D02*
X161400000Y-89525000D01*
X160350000Y-85075000D02*
X162150000Y-85075000D01*
X162150000Y-86575000D02*
X161400000Y-86575000D01*
X149250000Y-84025000D02*
X149250000Y-85275000D01*
X162150000Y-84325000D02*
X160350000Y-84325000D01*
X150300000Y-89525000D02*
X155850000Y-89525000D01*
X101810000Y-86167953D02*
X103140000Y-86167953D01*
X107010000Y-86167953D02*
X107010000Y-109147953D01*
X101810000Y-87497953D02*
X101810000Y-86167953D01*
X101810000Y-109147953D02*
X107010000Y-109147953D01*
X101810000Y-88767953D02*
X101810000Y-109147953D01*
X104410000Y-88767953D02*
X104410000Y-86167953D01*
X104410000Y-86167953D02*
X107010000Y-86167953D01*
X101810000Y-88767953D02*
X104410000Y-88767953D01*
X145885000Y-121660000D02*
X145885000Y-111540000D01*
X140675000Y-119850000D02*
X139925000Y-119850000D01*
X139915000Y-121660000D02*
X145885000Y-121660000D01*
X139625000Y-120700000D02*
X139625000Y-121950000D01*
X139915000Y-111540000D02*
X139915000Y-121660000D01*
X139925000Y-113350000D02*
X140675000Y-113350000D01*
X140675000Y-118350000D02*
X140675000Y-114850000D01*
X139625000Y-121950000D02*
X140875000Y-121950000D01*
X140675000Y-113350000D02*
X140675000Y-111550000D01*
X145125000Y-120900000D02*
X145125000Y-116600000D01*
X140675000Y-114850000D02*
X139925000Y-114850000D01*
X142175000Y-111550000D02*
X142175000Y-112300000D01*
X139925000Y-119850000D02*
X139925000Y-121650000D01*
X139925000Y-111550000D02*
X139925000Y-113350000D01*
X142175000Y-121650000D02*
X142175000Y-120900000D01*
X140675000Y-111550000D02*
X139925000Y-111550000D01*
X142175000Y-120900000D02*
X145125000Y-120900000D01*
X139925000Y-118350000D02*
X140675000Y-118350000D01*
X140675000Y-121650000D02*
X140675000Y-119850000D01*
X139925000Y-121650000D02*
X140675000Y-121650000D01*
X142175000Y-112300000D02*
X145125000Y-112300000D01*
X145125000Y-112300000D02*
X145125000Y-116600000D01*
X145885000Y-111540000D02*
X139915000Y-111540000D01*
X139925000Y-114850000D02*
X139925000Y-118350000D01*
X154250000Y-132350000D02*
X154250000Y-134300000D01*
X154250000Y-134300000D02*
X148750000Y-134300000D01*
X148750000Y-134300000D02*
X148750000Y-132350000D01*
X148750000Y-132350000D02*
X154250000Y-132350000D01*
X152624888Y-94540000D02*
X152624888Y-95991000D01*
X153665888Y-91563000D02*
X153665888Y-92460000D01*
X153825888Y-94540000D02*
X153825888Y-95285000D01*
X152584888Y-94540000D02*
X152584888Y-96001000D01*
X153585888Y-94540000D02*
X153585888Y-95504000D01*
X154065888Y-94540000D02*
X154065888Y-95000000D01*
X154305888Y-92402000D02*
X154305888Y-94598000D01*
X152825888Y-94540000D02*
X152825888Y-95928000D01*
X153865888Y-91757000D02*
X153865888Y-92460000D01*
X153665888Y-94540000D02*
X153665888Y-95437000D01*
X153345888Y-94540000D02*
X153345888Y-95675000D01*
X153225888Y-94540000D02*
X153225888Y-95747000D01*
X153865888Y-94540000D02*
X153865888Y-95243000D01*
X154545888Y-93216000D02*
X154545888Y-93784000D01*
X153025888Y-91152000D02*
X153025888Y-92460000D01*
X153425888Y-91378000D02*
X153425888Y-92460000D01*
X153185888Y-94540000D02*
X153185888Y-95768000D01*
X152745888Y-94540000D02*
X152745888Y-95955000D01*
X152184888Y-90931000D02*
X152184888Y-92460000D01*
X151944888Y-90920000D02*
X151944888Y-96080000D01*
X153625888Y-91529000D02*
X153625888Y-92460000D01*
X154225888Y-92249000D02*
X154225888Y-92460000D01*
X153385888Y-94540000D02*
X153385888Y-95649000D01*
X149140113Y-92025000D02*
X149640113Y-92025000D01*
X154505888Y-92982000D02*
X154505888Y-94018000D01*
X153545888Y-94540000D02*
X153545888Y-95535000D01*
X152424888Y-90964000D02*
X152424888Y-92460000D01*
X153265888Y-94540000D02*
X153265888Y-95724000D01*
X153825888Y-91715000D02*
X153825888Y-92460000D01*
X152304888Y-90944000D02*
X152304888Y-92460000D01*
X152464888Y-94540000D02*
X152464888Y-96028000D01*
X152104888Y-90924000D02*
X152104888Y-96076000D01*
X153305888Y-91300000D02*
X153305888Y-92460000D01*
X154145888Y-92117000D02*
X154145888Y-92460000D01*
X152344888Y-90950000D02*
X152344888Y-92460000D01*
X152985888Y-94540000D02*
X152985888Y-95865000D01*
X152624888Y-91009000D02*
X152624888Y-92460000D01*
X149390113Y-91775000D02*
X149390113Y-92275000D01*
X153945888Y-91847000D02*
X153945888Y-92460000D01*
X154265888Y-92322000D02*
X154265888Y-94678000D01*
X153465888Y-94540000D02*
X153465888Y-95595000D01*
X153505888Y-94540000D02*
X153505888Y-95565000D01*
X152865888Y-91086000D02*
X152865888Y-92460000D01*
X152745888Y-91045000D02*
X152745888Y-92460000D01*
X153145888Y-94540000D02*
X153145888Y-95790000D01*
X152825888Y-91072000D02*
X152825888Y-92460000D01*
X154105888Y-92057000D02*
X154105888Y-92460000D01*
X152584888Y-90999000D02*
X152584888Y-92460000D01*
X153305888Y-94540000D02*
X153305888Y-95700000D01*
X152785888Y-94540000D02*
X152785888Y-95942000D01*
X152905888Y-94540000D02*
X152905888Y-95898000D01*
X153705888Y-91599000D02*
X153705888Y-92460000D01*
X152264888Y-90939000D02*
X152264888Y-92460000D01*
X153745888Y-91636000D02*
X153745888Y-92460000D01*
X153105888Y-94540000D02*
X153105888Y-95810000D01*
X152544888Y-94540000D02*
X152544888Y-96011000D01*
X153905888Y-94540000D02*
X153905888Y-95199000D01*
X152464888Y-90972000D02*
X152464888Y-92460000D01*
X153345888Y-91325000D02*
X153345888Y-92460000D01*
X152665888Y-94540000D02*
X152665888Y-95980000D01*
X152224888Y-94540000D02*
X152224888Y-96065000D01*
X154225888Y-94540000D02*
X154225888Y-94751000D01*
X152304888Y-94540000D02*
X152304888Y-96056000D01*
X152945888Y-94540000D02*
X152945888Y-95882000D01*
X153985888Y-91895000D02*
X153985888Y-92460000D01*
X153185888Y-91232000D02*
X153185888Y-92460000D01*
X152264888Y-94540000D02*
X152264888Y-96061000D01*
X153505888Y-91435000D02*
X153505888Y-92460000D01*
X152384888Y-90957000D02*
X152384888Y-92460000D01*
X153105888Y-91190000D02*
X153105888Y-92460000D01*
X153625888Y-94540000D02*
X153625888Y-95471000D01*
X153545888Y-91465000D02*
X153545888Y-92460000D01*
X153145888Y-91210000D02*
X153145888Y-92460000D01*
X153265888Y-91276000D02*
X153265888Y-92460000D01*
X154465888Y-92823000D02*
X154465888Y-94177000D01*
X152705888Y-94540000D02*
X152705888Y-95968000D01*
X153225888Y-91253000D02*
X153225888Y-92460000D01*
X152504888Y-90980000D02*
X152504888Y-92460000D01*
X154425888Y-92695000D02*
X154425888Y-94305000D01*
X154385888Y-92585000D02*
X154385888Y-94415000D01*
X154025888Y-94540000D02*
X154025888Y-95054000D01*
X154025888Y-91946000D02*
X154025888Y-92460000D01*
X152985888Y-91135000D02*
X152985888Y-92460000D01*
X153985888Y-94540000D02*
X153985888Y-95105000D01*
X153785888Y-91674000D02*
X153785888Y-92460000D01*
X152024888Y-90921000D02*
X152024888Y-96079000D01*
X152504888Y-94540000D02*
X152504888Y-96020000D01*
X153385888Y-91351000D02*
X153385888Y-92460000D01*
X153705888Y-94540000D02*
X153705888Y-95401000D01*
X153025888Y-94540000D02*
X153025888Y-95848000D01*
X152785888Y-91058000D02*
X152785888Y-92460000D01*
X152144888Y-90927000D02*
X152144888Y-96073000D01*
X152544888Y-90989000D02*
X152544888Y-92460000D01*
X153065888Y-94540000D02*
X153065888Y-95829000D01*
X152344888Y-94540000D02*
X152344888Y-96050000D01*
X152424888Y-94540000D02*
X152424888Y-96036000D01*
X154345888Y-92489000D02*
X154345888Y-94511000D01*
X152705888Y-91032000D02*
X152705888Y-92460000D01*
X152184888Y-94540000D02*
X152184888Y-96069000D01*
X152665888Y-91020000D02*
X152665888Y-92460000D01*
X152224888Y-90935000D02*
X152224888Y-92460000D01*
X154065888Y-92000000D02*
X154065888Y-92460000D01*
X153065888Y-91171000D02*
X153065888Y-92460000D01*
X152384888Y-94540000D02*
X152384888Y-96043000D01*
X153785888Y-94540000D02*
X153785888Y-95326000D01*
X152945888Y-91118000D02*
X152945888Y-92460000D01*
X152064888Y-90922000D02*
X152064888Y-96078000D01*
X151984888Y-90920000D02*
X151984888Y-96080000D01*
X154105888Y-94540000D02*
X154105888Y-94943000D01*
X153905888Y-91801000D02*
X153905888Y-92460000D01*
X154145888Y-94540000D02*
X154145888Y-94883000D01*
X153585888Y-91496000D02*
X153585888Y-92460000D01*
X154185888Y-92181000D02*
X154185888Y-92460000D01*
X152905888Y-91102000D02*
X152905888Y-92460000D01*
X153945888Y-94540000D02*
X153945888Y-95153000D01*
X153465888Y-91405000D02*
X153465888Y-92460000D01*
X153745888Y-94540000D02*
X153745888Y-95364000D01*
X153425888Y-94540000D02*
X153425888Y-95622000D01*
X154185888Y-94540000D02*
X154185888Y-94819000D01*
X152865888Y-94540000D02*
X152865888Y-95914000D01*
X154564888Y-93500000D02*
G75*
G03*
X154564888Y-93500000I-2620000J0D01*
G01*
X148710000Y-110710000D02*
X148710000Y-88490000D01*
X139690000Y-107100000D02*
X139090000Y-107400000D01*
X139890000Y-108100000D02*
X139890000Y-106100000D01*
X140700000Y-110710000D02*
X140700000Y-108210000D01*
X139890000Y-101100000D02*
X141700000Y-101100000D01*
X147000000Y-95100000D02*
X147000000Y-94100000D01*
X141700000Y-109800000D02*
X141700000Y-89400000D01*
X140700000Y-96100000D02*
X140700000Y-93100000D01*
X139890000Y-103100000D02*
X139890000Y-101100000D01*
X147000000Y-100100000D02*
X147000000Y-99100000D01*
X147000000Y-89400000D02*
X147000000Y-90100000D01*
X141700000Y-96100000D02*
X141700000Y-98100000D01*
X147000000Y-109100000D02*
X147000000Y-109800000D01*
X147000000Y-105100000D02*
X147000000Y-104100000D01*
X141700000Y-101100000D02*
X141700000Y-103100000D01*
X139890000Y-93100000D02*
X139890000Y-91100000D01*
X139890000Y-110710000D02*
X148710000Y-110710000D01*
X141700000Y-89400000D02*
X147000000Y-89400000D01*
X139090000Y-106800000D02*
X139690000Y-107100000D01*
X140700000Y-88490000D02*
X140700000Y-90990000D01*
X148710000Y-88490000D02*
X139890000Y-88490000D01*
X139890000Y-91100000D02*
X141700000Y-91100000D01*
X141700000Y-108100000D02*
X139890000Y-108100000D01*
X141700000Y-103100000D02*
X139890000Y-103100000D01*
X141700000Y-98100000D02*
X139890000Y-98100000D01*
X139890000Y-106100000D02*
X141700000Y-106100000D01*
X141700000Y-106100000D02*
X141700000Y-108100000D01*
X140700000Y-101100000D02*
X140700000Y-98100000D01*
X141700000Y-93100000D02*
X139890000Y-93100000D01*
X141700000Y-91100000D02*
X141700000Y-93100000D01*
X139890000Y-88490000D02*
X139890000Y-110710000D01*
X139890000Y-98100000D02*
X139890000Y-96100000D01*
X147000000Y-109800000D02*
X141700000Y-109800000D01*
X140700000Y-106100000D02*
X140700000Y-103100000D01*
X139090000Y-107400000D02*
X139090000Y-106800000D01*
X139890000Y-96100000D02*
X141700000Y-96100000D01*
X147000000Y-109100000D02*
G75*
G03*
X147015821Y-105113158I-1650000J2000000D01*
G01*
X147000000Y-104100000D02*
G75*
G03*
X147015821Y-100113158I-1650000J2000000D01*
G01*
X147000000Y-94100000D02*
G75*
G03*
X147015821Y-90113158I-1650000J2000000D01*
G01*
X147000000Y-99100000D02*
G75*
G03*
X147015821Y-95113158I-1650000J2000000D01*
G01*
D10*
X139500000Y-85500000D02*
G75*
G03*
X136500000Y-85500000I-1500000J0D01*
G01*
X136500000Y-79500000D02*
G75*
G03*
X139500000Y-79500000I1500000J0D01*
G01*
%LPC*%
D16*
X113942500Y-100500000D03*
D17*
X113942500Y-104200000D03*
X113942500Y-107000000D03*
X124242500Y-107000000D03*
X124242500Y-104100000D03*
X124242500Y-100500000D03*
D18*
X177500000Y-136950000D03*
D19*
X177500000Y-134410000D03*
X177500000Y-131870000D03*
X177500000Y-129330000D03*
X177500000Y-126790000D03*
D20*
X172550000Y-129950000D03*
X174450000Y-129950000D03*
D21*
X136500000Y-92238000D03*
X139500000Y-94524000D03*
X136500000Y-93000000D03*
X139500000Y-93000000D03*
X139500000Y-91488000D03*
X136500000Y-93750000D03*
X136500000Y-91488000D03*
X139500000Y-93750000D03*
X139500000Y-92250000D03*
X136500000Y-94524000D03*
D22*
X147900000Y-80000000D03*
D23*
X142400000Y-85100000D03*
D24*
X142400000Y-82600000D03*
X142400000Y-80100000D03*
D25*
X150674440Y-99100000D03*
D26*
X153174440Y-99100000D03*
D27*
X156000000Y-132850000D03*
X156000000Y-130950000D03*
D28*
X171000000Y-129950000D03*
X169175000Y-129950000D03*
D29*
X156000000Y-128362500D03*
X156000000Y-126537500D03*
D30*
X159900000Y-127725000D03*
X159900000Y-128375000D03*
X159900000Y-129025000D03*
X159900000Y-129675000D03*
X159900000Y-130325000D03*
X159900000Y-130975000D03*
X159900000Y-131625000D03*
X159900000Y-132275000D03*
X159900000Y-132925000D03*
X159900000Y-133575000D03*
X159900000Y-134225000D03*
X159900000Y-134875000D03*
X159900000Y-135525000D03*
X159900000Y-136175000D03*
X167100000Y-136175000D03*
X167100000Y-135525000D03*
X167100000Y-134875000D03*
X167100000Y-134225000D03*
X167100000Y-133575000D03*
X167100000Y-132925000D03*
X167100000Y-132275000D03*
X167100000Y-131625000D03*
X167100000Y-130975000D03*
X167100000Y-130325000D03*
X167100000Y-129675000D03*
X167100000Y-129025000D03*
X167100000Y-128375000D03*
X167100000Y-127725000D03*
D31*
X168905000Y-111050000D03*
D32*
X168905000Y-108550000D03*
D33*
X171025000Y-126950000D03*
X169150000Y-126950000D03*
D21*
X141500000Y-128500000D03*
X136500000Y-133750000D03*
X141500000Y-127750000D03*
X141500000Y-131500000D03*
X136500000Y-128500000D03*
X136500000Y-133000000D03*
X141500000Y-135250000D03*
X136500000Y-131500000D03*
X141500000Y-130750000D03*
X136500000Y-130000000D03*
X136500000Y-129250000D03*
X136500000Y-128500000D03*
X136500000Y-132250000D03*
X141500000Y-129250000D03*
X136500000Y-127750000D03*
X141500000Y-133750000D03*
X141500000Y-128500000D03*
X141500000Y-132250000D03*
X141500000Y-130000000D03*
X141500000Y-134500000D03*
X136500000Y-134500000D03*
X141500000Y-133000000D03*
X136500000Y-135250000D03*
X136500000Y-130750000D03*
X139500000Y-113988000D03*
X136500000Y-116250000D03*
X136500000Y-117024000D03*
X139500000Y-117024000D03*
X136500000Y-113988000D03*
X139500000Y-114750000D03*
X139500000Y-116250000D03*
X136500000Y-114738000D03*
X136500000Y-115500000D03*
X139500000Y-115500000D03*
D34*
X152600000Y-137400000D03*
X152600000Y-135500000D03*
X150400000Y-136450000D03*
D35*
X179170000Y-116075000D03*
X176630000Y-116075000D03*
X179170000Y-113535000D03*
X176630000Y-113535000D03*
X179170000Y-110995000D03*
X176630000Y-110995000D03*
D21*
X158988000Y-125000000D03*
X159750000Y-122000000D03*
X161250000Y-125000000D03*
X162024000Y-122000000D03*
X162024000Y-125000000D03*
X160500000Y-122000000D03*
X158988000Y-122000000D03*
X159738000Y-125000000D03*
X161250000Y-122000000D03*
X160500000Y-125000000D03*
D20*
X172600000Y-126950000D03*
X174500000Y-126950000D03*
D21*
X148762000Y-122000000D03*
X146476000Y-122000000D03*
X148000000Y-125000000D03*
X147250000Y-125000000D03*
X146476000Y-125000000D03*
X147250000Y-122000000D03*
X148000000Y-122000000D03*
X149512000Y-122000000D03*
X149512000Y-125000000D03*
X148750000Y-125000000D03*
X173000000Y-122000000D03*
X171488000Y-122000000D03*
X173750000Y-122000000D03*
X174524000Y-122000000D03*
X172250000Y-122000000D03*
X173750000Y-125000000D03*
X172238000Y-125000000D03*
X174524000Y-125000000D03*
X171488000Y-125000000D03*
X173000000Y-125000000D03*
D25*
X176004169Y-81335000D03*
D26*
X179804169Y-81335000D03*
D22*
X131500000Y-137000000D03*
D21*
X139500000Y-105524000D03*
X136500000Y-103238000D03*
X136500000Y-104750000D03*
X136500000Y-104000000D03*
X139500000Y-103250000D03*
X139500000Y-104750000D03*
X139500000Y-102488000D03*
X139500000Y-104000000D03*
X136500000Y-105524000D03*
X136500000Y-102488000D03*
D25*
X172500000Y-136950000D03*
D26*
X172500000Y-134950000D03*
D18*
X171580000Y-79525000D03*
D19*
X171580000Y-82065000D03*
X169040000Y-79525000D03*
X169040000Y-82065000D03*
X166500000Y-79525000D03*
X166500000Y-82065000D03*
X163960000Y-79525000D03*
X163960000Y-82065000D03*
X161420000Y-79525000D03*
X161420000Y-82065000D03*
X158880000Y-79525000D03*
X158880000Y-82065000D03*
X156340000Y-79525000D03*
X156340000Y-82065000D03*
X153800000Y-79525000D03*
X153800000Y-82065000D03*
X151260000Y-79525000D03*
X151260000Y-82065000D03*
D25*
X105000000Y-83202651D03*
D26*
X105000000Y-79402651D03*
D36*
X145770000Y-134490000D03*
X143230000Y-134490000D03*
X145770000Y-131950000D03*
X143230000Y-131950000D03*
X145770000Y-129410000D03*
X143230000Y-129410000D03*
D37*
X152200000Y-104825000D03*
D38*
X154700000Y-104825000D03*
D22*
X110000000Y-109500000D03*
D18*
X131160000Y-78500000D03*
D19*
X133700000Y-78500000D03*
X131160000Y-81040000D03*
X133700000Y-81040000D03*
X131160000Y-83580000D03*
X133700000Y-83580000D03*
X131160000Y-86120000D03*
X133700000Y-86120000D03*
X131160000Y-88660000D03*
X133700000Y-88660000D03*
X131160000Y-91200000D03*
X133700000Y-91200000D03*
X131160000Y-93740000D03*
X133700000Y-93740000D03*
X131160000Y-96280000D03*
X133700000Y-96280000D03*
X131160000Y-98820000D03*
X133700000Y-98820000D03*
D34*
X152590000Y-128450000D03*
X152590000Y-126550000D03*
X150390000Y-127500000D03*
D22*
X147700000Y-116200000D03*
D39*
X150300000Y-130600000D03*
X152700000Y-130600000D03*
D40*
X153500000Y-130600000D03*
D41*
X149500000Y-130600000D03*
D18*
X171140000Y-117475000D03*
D19*
X171140000Y-120015000D03*
X168600000Y-117475000D03*
X168600000Y-120015000D03*
X166060000Y-117475000D03*
X166060000Y-120015000D03*
X163520000Y-117475000D03*
X163520000Y-120015000D03*
X160980000Y-117475000D03*
X160980000Y-120015000D03*
X158440000Y-117475000D03*
X158440000Y-120015000D03*
X155900000Y-117475000D03*
X155900000Y-120015000D03*
X153360000Y-117475000D03*
X153360000Y-120015000D03*
X150820000Y-117475000D03*
X150820000Y-120015000D03*
D29*
X156000000Y-137362500D03*
X156000000Y-135537500D03*
D42*
X109690000Y-114500000D03*
D43*
X112230000Y-114500000D03*
X114770000Y-114500000D03*
X117310000Y-114500000D03*
D44*
X102500000Y-115000000D03*
X124500000Y-115000000D03*
X124500000Y-137000000D03*
X102500000Y-137000000D03*
D45*
X110340000Y-77750000D03*
X110340000Y-79020000D03*
X110340000Y-80290000D03*
X110340000Y-81560000D03*
X110340000Y-82830000D03*
X110340000Y-84100000D03*
X110340000Y-85370000D03*
X110340000Y-86640000D03*
X110340000Y-87910000D03*
X110340000Y-89180000D03*
X110340000Y-90450000D03*
X110340000Y-91720000D03*
X110340000Y-92990000D03*
X110340000Y-94260000D03*
D46*
X113380000Y-95510000D03*
X114650000Y-95510000D03*
X115920000Y-95510000D03*
X117190000Y-95510000D03*
X118460000Y-95510000D03*
X119730000Y-95510000D03*
X121000000Y-95510000D03*
X122270000Y-95510000D03*
X123540000Y-95510000D03*
X124810000Y-95510000D03*
D45*
X127840000Y-94260000D03*
X127840000Y-92990000D03*
X127840000Y-91720000D03*
X127840000Y-90450000D03*
X127840000Y-89180000D03*
X127840000Y-87910000D03*
X127840000Y-86640000D03*
X127840000Y-85370000D03*
X127840000Y-84100000D03*
X127840000Y-82830000D03*
X127840000Y-81560000D03*
X127840000Y-80290000D03*
X127840000Y-79020000D03*
X127840000Y-77750000D03*
D47*
X119172500Y-83565000D03*
X119172500Y-86615000D03*
X119172500Y-85090000D03*
X117647500Y-85090000D03*
X118410000Y-85852500D03*
X118410000Y-84327500D03*
X117647500Y-86615000D03*
X116885000Y-84327500D03*
X117647500Y-83565000D03*
X119935000Y-85852500D03*
X116885000Y-85852500D03*
D48*
X118410000Y-85090000D03*
D47*
X119935000Y-84327500D03*
D49*
X131077500Y-121300000D03*
D50*
X131077500Y-126300000D03*
X131077500Y-131300000D03*
D35*
X132970000Y-111540000D03*
X130430000Y-111540000D03*
X132970000Y-109000000D03*
X130430000Y-109000000D03*
X132970000Y-106460000D03*
X130430000Y-106460000D03*
D46*
X181350000Y-86785000D03*
X180080000Y-86785000D03*
X178810000Y-86785000D03*
X177540000Y-86785000D03*
X176270000Y-86785000D03*
X175000000Y-86785000D03*
X173730000Y-86785000D03*
X172460000Y-86785000D03*
X171190000Y-86785000D03*
X169920000Y-86785000D03*
X168650000Y-86785000D03*
X167380000Y-86785000D03*
X166110000Y-86785000D03*
X164840000Y-86785000D03*
D45*
X163590000Y-89825000D03*
X163590000Y-91095000D03*
X163590000Y-92365000D03*
X163590000Y-93635000D03*
X163590000Y-94905000D03*
X163590000Y-96175000D03*
X163590000Y-97445000D03*
X163590000Y-98715000D03*
X163590000Y-99985000D03*
X163590000Y-101255000D03*
D46*
X164840000Y-104285000D03*
X166110000Y-104285000D03*
X167380000Y-104285000D03*
X168650000Y-104285000D03*
X169920000Y-104285000D03*
X171190000Y-104285000D03*
X172460000Y-104285000D03*
X173730000Y-104285000D03*
X175000000Y-104285000D03*
X176270000Y-104285000D03*
X177540000Y-104285000D03*
X178810000Y-104285000D03*
X180080000Y-104285000D03*
X181350000Y-104285000D03*
D47*
X175535000Y-94092500D03*
X172485000Y-95617500D03*
X173247500Y-93330000D03*
X173247500Y-94855000D03*
X174010000Y-94092500D03*
X174010000Y-95617500D03*
X174772500Y-96380000D03*
D48*
X174010000Y-94855000D03*
D47*
X175535000Y-95617500D03*
X173247500Y-96380000D03*
X174772500Y-94855000D03*
X174772500Y-93330000D03*
X172485000Y-94092500D03*
D37*
X152200000Y-111675000D03*
D38*
X154700000Y-111675000D03*
D51*
X152100000Y-86775000D03*
D52*
X154600000Y-86775000D03*
X157100000Y-86775000D03*
X159600000Y-86775000D03*
D18*
X103140000Y-87497953D03*
D19*
X105680000Y-87497953D03*
X103140000Y-90037953D03*
X105680000Y-90037953D03*
X103140000Y-92577953D03*
X105680000Y-92577953D03*
X103140000Y-95117953D03*
X105680000Y-95117953D03*
X103140000Y-97657953D03*
X105680000Y-97657953D03*
X103140000Y-100197953D03*
X105680000Y-100197953D03*
X103140000Y-102737953D03*
X105680000Y-102737953D03*
X103140000Y-105277953D03*
X105680000Y-105277953D03*
X103140000Y-107817953D03*
X105680000Y-107817953D03*
D23*
X142375000Y-119100000D03*
D24*
X142375000Y-116600000D03*
X142375000Y-114100000D03*
D39*
X152700000Y-133300000D03*
X150300000Y-133300000D03*
D40*
X153500000Y-133300000D03*
D41*
X149500000Y-133300000D03*
D25*
X150694888Y-93500000D03*
D26*
X153194888Y-93500000D03*
D53*
X144800000Y-107100000D03*
D50*
X144800000Y-102100000D03*
X144800000Y-97100000D03*
X144800000Y-92100000D03*
D21*
X136500000Y-81738000D03*
X139500000Y-81750000D03*
X139500000Y-80988000D03*
X136500000Y-82500000D03*
X139500000Y-84024000D03*
X139500000Y-82500000D03*
X136500000Y-84024000D03*
X136500000Y-80988000D03*
X136500000Y-83250000D03*
X139500000Y-83250000D03*
M02*
