M48
; DRILL file {KiCad 6.0.11+dfsg-1} date Tue 29 Oct 2024 09:17:38 AM CET
; FORMAT={-:-/ absolute / metric / decimal}
; #@! TF.CreationDate,2024-10-29T09:17:38+01:00
; #@! TF.GenerationSoftware,Kicad,Pcbnew,6.0.11+dfsg-1
; #@! TF.FileFunction,NonPlated,1,2,NPTH
FMAT,2
METRIC
; #@! TA.AperFunction,NonPlated,NPTH,ComponentDrill
T1C0.500
%
G90
G05
T1
X136.5Y-80.988
X136.5Y-81.738
X136.5Y-82.5
X136.5Y-83.25
X136.5Y-84.024
X136.5Y-91.488
X136.5Y-92.238
X136.5Y-93.0
X136.5Y-93.75
X136.5Y-94.524
X136.5Y-102.488
X136.5Y-103.238
X136.5Y-104.0
X136.5Y-104.75
X136.5Y-105.524
X136.5Y-113.988
X136.5Y-114.738
X136.5Y-115.5
X136.5Y-116.25
X136.5Y-117.024
X136.5Y-127.75
X136.5Y-128.5
X136.5Y-128.5
X136.5Y-129.25
X136.5Y-130.0
X136.5Y-130.75
X136.5Y-131.5
X136.5Y-132.25
X136.5Y-133.0
X136.5Y-133.75
X136.5Y-134.5
X136.5Y-135.25
X139.5Y-80.988
X139.5Y-81.75
X139.5Y-82.5
X139.5Y-83.25
X139.5Y-84.024
X139.5Y-91.488
X139.5Y-92.25
X139.5Y-93.0
X139.5Y-93.75
X139.5Y-94.524
X139.5Y-102.488
X139.5Y-103.25
X139.5Y-104.0
X139.5Y-104.75
X139.5Y-105.524
X139.5Y-113.988
X139.5Y-114.75
X139.5Y-115.5
X139.5Y-116.25
X139.5Y-117.024
X141.5Y-127.75
X141.5Y-128.5
X141.5Y-128.5
X141.5Y-129.25
X141.5Y-130.0
X141.5Y-130.75
X141.5Y-131.5
X141.5Y-132.25
X141.5Y-133.0
X141.5Y-133.75
X141.5Y-134.5
X141.5Y-135.25
X146.476Y-122.0
X146.476Y-125.0
X147.25Y-122.0
X147.25Y-125.0
X148.0Y-122.0
X148.0Y-125.0
X148.75Y-125.0
X148.762Y-122.0
X149.512Y-122.0
X149.512Y-125.0
X158.988Y-122.0
X158.988Y-125.0
X159.738Y-125.0
X159.75Y-122.0
X160.5Y-122.0
X160.5Y-125.0
X161.25Y-122.0
X161.25Y-125.0
X162.024Y-122.0
X162.024Y-125.0
X171.488Y-122.0
X171.488Y-125.0
X172.238Y-125.0
X172.25Y-122.0
X173.0Y-122.0
X173.0Y-125.0
X173.75Y-122.0
X173.75Y-125.0
X174.524Y-122.0
X174.524Y-125.0
T0
M30
