G04 #@! TF.GenerationSoftware,KiCad,Pcbnew,6.0.11+dfsg-1*
G04 #@! TF.CreationDate,2024-10-29T09:23:30+01:00*
G04 #@! TF.ProjectId,kaarten_shieter,6b616172-7465-46e5-9f73-686965746572,rev?*
G04 #@! TF.SameCoordinates,Original*
G04 #@! TF.FileFunction,Paste,Top*
G04 #@! TF.FilePolarity,Positive*
%FSLAX46Y46*%
G04 Gerber Fmt 4.6, Leading zero omitted, Abs format (unit mm)*
G04 Created by KiCad (PCBNEW 6.0.11+dfsg-1) date 2024-10-29 09:23:30*
%MOMM*%
%LPD*%
G01*
G04 APERTURE LIST*
G04 Aperture macros list*
%AMRoundRect*
0 Rectangle with rounded corners*
0 $1 Rounding radius*
0 $2 $3 $4 $5 $6 $7 $8 $9 X,Y pos of 4 corners*
0 Add a 4 corners polygon primitive as box body*
4,1,4,$2,$3,$4,$5,$6,$7,$8,$9,$2,$3,0*
0 Add four circle primitives for the rounded corners*
1,1,$1+$1,$2,$3*
1,1,$1+$1,$4,$5*
1,1,$1+$1,$6,$7*
1,1,$1+$1,$8,$9*
0 Add four rect primitives between the rounded corners*
20,1,$1+$1,$2,$3,$4,$5,0*
20,1,$1+$1,$4,$5,$6,$7,0*
20,1,$1+$1,$6,$7,$8,$9,0*
20,1,$1+$1,$8,$9,$2,$3,0*%
G04 Aperture macros list end*
%ADD10RoundRect,0.250000X-0.250000X-0.475000X0.250000X-0.475000X0.250000X0.475000X-0.250000X0.475000X0*%
%ADD11RoundRect,0.250000X0.475000X-0.250000X0.475000X0.250000X-0.475000X0.250000X-0.475000X-0.250000X0*%
%ADD12RoundRect,0.250000X0.262500X0.450000X-0.262500X0.450000X-0.262500X-0.450000X0.262500X-0.450000X0*%
%ADD13RoundRect,0.250000X0.450000X-0.262500X0.450000X0.262500X-0.450000X0.262500X-0.450000X-0.262500X0*%
%ADD14R,1.750000X0.450000*%
%ADD15RoundRect,0.243750X0.243750X0.456250X-0.243750X0.456250X-0.243750X-0.456250X0.243750X-0.456250X0*%
%ADD16R,1.050000X0.600000*%
%ADD17R,1.500000X0.900000*%
%ADD18R,0.900000X1.500000*%
%ADD19R,1.050000X1.050000*%
G04 APERTURE END LIST*
D10*
X172550000Y-129950000D03*
X174450000Y-129950000D03*
D11*
X156000000Y-132850000D03*
X156000000Y-130950000D03*
D12*
X171000000Y-129950000D03*
X169175000Y-129950000D03*
D13*
X156000000Y-128362500D03*
X156000000Y-126537500D03*
D14*
X159900000Y-127725000D03*
X159900000Y-128375000D03*
X159900000Y-129025000D03*
X159900000Y-129675000D03*
X159900000Y-130325000D03*
X159900000Y-130975000D03*
X159900000Y-131625000D03*
X159900000Y-132275000D03*
X159900000Y-132925000D03*
X159900000Y-133575000D03*
X159900000Y-134225000D03*
X159900000Y-134875000D03*
X159900000Y-135525000D03*
X159900000Y-136175000D03*
X167100000Y-136175000D03*
X167100000Y-135525000D03*
X167100000Y-134875000D03*
X167100000Y-134225000D03*
X167100000Y-133575000D03*
X167100000Y-132925000D03*
X167100000Y-132275000D03*
X167100000Y-131625000D03*
X167100000Y-130975000D03*
X167100000Y-130325000D03*
X167100000Y-129675000D03*
X167100000Y-129025000D03*
X167100000Y-128375000D03*
X167100000Y-127725000D03*
D15*
X171025000Y-126950000D03*
X169150000Y-126950000D03*
D16*
X152600000Y-137400000D03*
X152600000Y-135500000D03*
X150400000Y-136450000D03*
D10*
X172600000Y-126950000D03*
X174500000Y-126950000D03*
D16*
X152590000Y-128450000D03*
X152590000Y-126550000D03*
X150390000Y-127500000D03*
D13*
X156000000Y-137362500D03*
X156000000Y-135537500D03*
D17*
X110340000Y-77750000D03*
X110340000Y-79020000D03*
X110340000Y-80290000D03*
X110340000Y-81560000D03*
X110340000Y-82830000D03*
X110340000Y-84100000D03*
X110340000Y-85370000D03*
X110340000Y-86640000D03*
X110340000Y-87910000D03*
X110340000Y-89180000D03*
X110340000Y-90450000D03*
X110340000Y-91720000D03*
X110340000Y-92990000D03*
X110340000Y-94260000D03*
D18*
X113380000Y-95510000D03*
X114650000Y-95510000D03*
X115920000Y-95510000D03*
X117190000Y-95510000D03*
X118460000Y-95510000D03*
X119730000Y-95510000D03*
X121000000Y-95510000D03*
X122270000Y-95510000D03*
X123540000Y-95510000D03*
X124810000Y-95510000D03*
D17*
X127840000Y-94260000D03*
X127840000Y-92990000D03*
X127840000Y-91720000D03*
X127840000Y-90450000D03*
X127840000Y-89180000D03*
X127840000Y-87910000D03*
X127840000Y-86640000D03*
X127840000Y-85370000D03*
X127840000Y-84100000D03*
X127840000Y-82830000D03*
X127840000Y-81560000D03*
X127840000Y-80290000D03*
X127840000Y-79020000D03*
X127840000Y-77750000D03*
D19*
X118410000Y-83565000D03*
X119935000Y-83565000D03*
X116885000Y-86615000D03*
X116885000Y-83565000D03*
X119935000Y-85090000D03*
X116885000Y-85090000D03*
X118410000Y-86615000D03*
X118410000Y-85090000D03*
X119935000Y-86615000D03*
D18*
X181350000Y-86785000D03*
X180080000Y-86785000D03*
X178810000Y-86785000D03*
X177540000Y-86785000D03*
X176270000Y-86785000D03*
X175000000Y-86785000D03*
X173730000Y-86785000D03*
X172460000Y-86785000D03*
X171190000Y-86785000D03*
X169920000Y-86785000D03*
X168650000Y-86785000D03*
X167380000Y-86785000D03*
X166110000Y-86785000D03*
X164840000Y-86785000D03*
D17*
X163590000Y-89825000D03*
X163590000Y-91095000D03*
X163590000Y-92365000D03*
X163590000Y-93635000D03*
X163590000Y-94905000D03*
X163590000Y-96175000D03*
X163590000Y-97445000D03*
X163590000Y-98715000D03*
X163590000Y-99985000D03*
X163590000Y-101255000D03*
D18*
X164840000Y-104285000D03*
X166110000Y-104285000D03*
X167380000Y-104285000D03*
X168650000Y-104285000D03*
X169920000Y-104285000D03*
X171190000Y-104285000D03*
X172460000Y-104285000D03*
X173730000Y-104285000D03*
X175000000Y-104285000D03*
X176270000Y-104285000D03*
X177540000Y-104285000D03*
X178810000Y-104285000D03*
X180080000Y-104285000D03*
X181350000Y-104285000D03*
D19*
X175535000Y-94855000D03*
X174010000Y-96380000D03*
X172485000Y-96380000D03*
X174010000Y-94855000D03*
X175535000Y-93330000D03*
X174010000Y-93330000D03*
X172485000Y-93330000D03*
X175535000Y-96380000D03*
X172485000Y-94855000D03*
M02*
