G04 #@! TF.GenerationSoftware,KiCad,Pcbnew,6.0.11+dfsg-1*
G04 #@! TF.CreationDate,2024-10-29T09:23:30+01:00*
G04 #@! TF.ProjectId,kaarten_shieter,6b616172-7465-46e5-9f73-686965746572,rev?*
G04 #@! TF.SameCoordinates,Original*
G04 #@! TF.FileFunction,Paste,Bot*
G04 #@! TF.FilePolarity,Positive*
%FSLAX46Y46*%
G04 Gerber Fmt 4.6, Leading zero omitted, Abs format (unit mm)*
G04 Created by KiCad (PCBNEW 6.0.11+dfsg-1) date 2024-10-29 09:23:30*
%MOMM*%
%LPD*%
G01*
G04 APERTURE LIST*
G04 Aperture macros list*
%AMRoundRect*
0 Rectangle with rounded corners*
0 $1 Rounding radius*
0 $2 $3 $4 $5 $6 $7 $8 $9 X,Y pos of 4 corners*
0 Add a 4 corners polygon primitive as box body*
4,1,4,$2,$3,$4,$5,$6,$7,$8,$9,$2,$3,0*
0 Add four circle primitives for the rounded corners*
1,1,$1+$1,$2,$3*
1,1,$1+$1,$4,$5*
1,1,$1+$1,$6,$7*
1,1,$1+$1,$8,$9*
0 Add four rect primitives between the rounded corners*
20,1,$1+$1,$2,$3,$4,$5,0*
20,1,$1+$1,$4,$5,$6,$7,0*
20,1,$1+$1,$6,$7,$8,$9,0*
20,1,$1+$1,$8,$9,$2,$3,0*%
G04 Aperture macros list end*
%ADD10RoundRect,0.250000X0.250000X0.475000X-0.250000X0.475000X-0.250000X-0.475000X0.250000X-0.475000X0*%
%ADD11RoundRect,0.250000X-0.475000X0.250000X-0.475000X-0.250000X0.475000X-0.250000X0.475000X0.250000X0*%
%ADD12RoundRect,0.250000X0.450000X-0.262500X0.450000X0.262500X-0.450000X0.262500X-0.450000X-0.262500X0*%
%ADD13RoundRect,0.250000X-0.250000X-0.475000X0.250000X-0.475000X0.250000X0.475000X-0.250000X0.475000X0*%
%ADD14RoundRect,0.250000X0.262500X0.450000X-0.262500X0.450000X-0.262500X-0.450000X0.262500X-0.450000X0*%
%ADD15RoundRect,0.250000X-0.450000X0.262500X-0.450000X-0.262500X0.450000X-0.262500X0.450000X0.262500X0*%
%ADD16R,1.400000X1.600000*%
%ADD17R,1.600000X1.400000*%
%ADD18RoundRect,0.250000X-0.262500X-0.450000X0.262500X-0.450000X0.262500X0.450000X-0.262500X0.450000X0*%
%ADD19RoundRect,0.243750X0.456250X-0.243750X0.456250X0.243750X-0.456250X0.243750X-0.456250X-0.243750X0*%
%ADD20RoundRect,0.150000X-0.587500X-0.150000X0.587500X-0.150000X0.587500X0.150000X-0.587500X0.150000X0*%
%ADD21RoundRect,0.243750X0.243750X0.456250X-0.243750X0.456250X-0.243750X-0.456250X0.243750X-0.456250X0*%
%ADD22RoundRect,0.100000X-0.100000X0.637500X-0.100000X-0.637500X0.100000X-0.637500X0.100000X0.637500X0*%
%ADD23RoundRect,0.250000X0.475000X-0.250000X0.475000X0.250000X-0.475000X0.250000X-0.475000X-0.250000X0*%
%ADD24RoundRect,0.243750X-0.243750X-0.456250X0.243750X-0.456250X0.243750X0.456250X-0.243750X0.456250X0*%
G04 APERTURE END LIST*
D10*
X127800000Y-96100000D03*
X125900000Y-96100000D03*
D11*
X116500000Y-79000000D03*
X116500000Y-80900000D03*
D12*
X141400000Y-107100000D03*
X141400000Y-105275000D03*
X123765000Y-111825000D03*
X123765000Y-110000000D03*
D13*
X112500000Y-83900000D03*
X114400000Y-83900000D03*
D12*
X144800000Y-83012500D03*
X144800000Y-81187500D03*
D14*
X148422500Y-112035000D03*
X146597500Y-112035000D03*
D12*
X159300000Y-103997500D03*
X159300000Y-102172500D03*
D15*
X141400000Y-97100000D03*
X141400000Y-98925000D03*
D12*
X144800000Y-86425000D03*
X144800000Y-84600000D03*
D15*
X118500000Y-79000000D03*
X118500000Y-80825000D03*
D10*
X179990000Y-92785000D03*
X178090000Y-92785000D03*
D13*
X162950000Y-114500000D03*
X164850000Y-114500000D03*
D16*
X127750000Y-86000000D03*
X127750000Y-94000000D03*
X123250000Y-94000000D03*
X123250000Y-86000000D03*
D17*
X165430000Y-104050000D03*
X173430000Y-104050000D03*
X173430000Y-99550000D03*
X165430000Y-99550000D03*
D11*
X121500000Y-110000000D03*
X121500000Y-111900000D03*
D10*
X157900000Y-100250000D03*
X156000000Y-100250000D03*
D11*
X174990000Y-89135000D03*
X174990000Y-91035000D03*
D18*
X152517500Y-109035000D03*
X154342500Y-109035000D03*
D19*
X121500000Y-82812500D03*
X121500000Y-80937500D03*
D10*
X161380000Y-114500000D03*
X159480000Y-114500000D03*
D15*
X112500000Y-79000000D03*
X112500000Y-80825000D03*
D14*
X152912500Y-91200000D03*
X151087500Y-91200000D03*
D10*
X179990000Y-90785000D03*
X178090000Y-90785000D03*
D20*
X148492500Y-109985000D03*
X148492500Y-108085000D03*
X150367500Y-109035000D03*
D12*
X161300000Y-103997500D03*
X161300000Y-102172500D03*
D21*
X145100000Y-99800000D03*
X143225000Y-99800000D03*
D12*
X144800000Y-89825000D03*
X144800000Y-88000000D03*
D11*
X114500000Y-79000000D03*
X114500000Y-80900000D03*
D22*
X160155000Y-106437500D03*
X160805000Y-106437500D03*
X161455000Y-106437500D03*
X162105000Y-106437500D03*
X162755000Y-106437500D03*
X163405000Y-106437500D03*
X164055000Y-106437500D03*
X164705000Y-106437500D03*
X164705000Y-112162500D03*
X164055000Y-112162500D03*
X163405000Y-112162500D03*
X162755000Y-112162500D03*
X162105000Y-112162500D03*
X161455000Y-112162500D03*
X160805000Y-112162500D03*
X160155000Y-112162500D03*
D13*
X159450000Y-100250000D03*
X161350000Y-100250000D03*
D12*
X142400000Y-88900000D03*
X142400000Y-87075000D03*
D22*
X156655000Y-92172500D03*
X157305000Y-92172500D03*
X157955000Y-92172500D03*
X158605000Y-92172500D03*
X159255000Y-92172500D03*
X159905000Y-92172500D03*
X160555000Y-92172500D03*
X161205000Y-92172500D03*
X161205000Y-97897500D03*
X160555000Y-97897500D03*
X159905000Y-97897500D03*
X159255000Y-97897500D03*
X158605000Y-97897500D03*
X157955000Y-97897500D03*
X157305000Y-97897500D03*
X156655000Y-97897500D03*
D16*
X114750000Y-94000000D03*
X114750000Y-86000000D03*
X110250000Y-86000000D03*
X110250000Y-94000000D03*
D21*
X145100000Y-104400000D03*
X143225000Y-104400000D03*
D14*
X179990000Y-88800000D03*
X178165000Y-88800000D03*
D23*
X163300000Y-104050000D03*
X163300000Y-102150000D03*
D17*
X172930000Y-91550000D03*
X164930000Y-91550000D03*
X172930000Y-87050000D03*
X164930000Y-87050000D03*
D14*
X155012500Y-96300000D03*
X153187500Y-96300000D03*
D24*
X175930000Y-98035000D03*
X177805000Y-98035000D03*
D14*
X179990000Y-94800000D03*
X178165000Y-94800000D03*
M02*
