M48
; DRILL file {KiCad 6.0.11+dfsg-1} date Tue 29 Oct 2024 09:17:38 AM CET
; FORMAT={-:-/ absolute / metric / decimal}
; #@! TF.CreationDate,2024-10-29T09:17:38+01:00
; #@! TF.GenerationSoftware,Kicad,Pcbnew,6.0.11+dfsg-1
; #@! TF.FileFunction,Plated,1,2,PTH
FMAT,2
METRIC
; #@! TA.AperFunction,Plated,PTH,ViaDrill
T1C0.300
; #@! TA.AperFunction,Plated,PTH,ComponentDrill
T2C0.300
; #@! TA.AperFunction,Plated,PTH,ViaDrill
T3C0.400
; #@! TA.AperFunction,Plated,PTH,ComponentDrill
T4C0.800
; #@! TA.AperFunction,Plated,PTH,ComponentDrill
T5C0.950
; #@! TA.AperFunction,Plated,PTH,ComponentDrill
T6C1.000
; #@! TA.AperFunction,Plated,PTH,ComponentDrill
T7C1.020
; #@! TA.AperFunction,Plated,PTH,ComponentDrill
T8C1.100
; #@! TA.AperFunction,Plated,PTH,ComponentDrill
T9C1.400
; #@! TA.AperFunction,Plated,PTH,ComponentDrill
T10C1.500
; #@! TA.AperFunction,Plated,PTH,ComponentDrill
T11C2.000
%
G90
G05
T1
X110.34Y-87.91
X110.34Y-89.18
X110.34Y-90.45
X112.5Y-80.825
X127.84Y-79.02
X127.84Y-84.1
X127.84Y-94.26
X149.5Y-130.6
X151.5Y-130.6
X151.5Y-133.3
X152.6Y-135.5
X153.5Y-133.3
X156.0Y-126.45
X157.467Y-114.535
X159.029Y-105.535
X159.876Y-127.7
X161.0Y-129.025
X161.0Y-130.325
X162.5Y-129.676
X162.5Y-135.175
X163.48Y-94.905
X163.48Y-96.175
X163.48Y-97.445
X163.48Y-98.715
X164.73Y-104.285
X167.1Y-136.2
X168.54Y-86.785
X169.81Y-86.785
X171.08Y-86.785
X173.412Y-103.085
X176.27Y-104.285
X178.165Y-88.8
T2
X116.885Y-84.328
X116.885Y-85.852
X117.647Y-83.565
X117.647Y-85.09
X117.647Y-86.615
X118.41Y-84.328
X118.41Y-85.852
X119.172Y-83.565
X119.172Y-85.09
X119.172Y-86.615
X119.935Y-84.328
X119.935Y-85.852
X172.485Y-94.093
X172.485Y-95.617
X173.248Y-93.33
X173.248Y-94.855
X173.248Y-96.38
X174.01Y-94.093
X174.01Y-95.617
X174.772Y-93.33
X174.772Y-94.855
X174.772Y-96.38
X175.535Y-94.093
X175.535Y-95.617
T3
X112.5Y-79.0
X113.38Y-95.51
X124.2Y-98.079
X130.5Y-103.0
X145.5Y-126.5
X145.5Y-137.5
X146.4Y-120.2
X148.0Y-130.95
X148.0Y-133.2
X149.0Y-128.45
X149.93Y-112.035
X153.93Y-84.535
X157.5Y-134.95
X159.242Y-96.811
X161.452Y-114.572
X163.48Y-89.825
X165.503Y-135.004
X167.025Y-125.925
X167.43Y-112.785
X179.99Y-88.8
T4
X105.0Y-79.403
X105.0Y-83.203
X150.674Y-99.1
X150.695Y-93.5
X153.174Y-99.1
X153.195Y-93.5
X172.5Y-134.95
X172.5Y-136.95
X176.004Y-81.335
X179.804Y-81.335
T5
X142.375Y-114.1
X142.375Y-116.6
X142.375Y-119.1
X142.4Y-80.1
X142.4Y-82.6
X142.4Y-85.1
X152.1Y-86.775
X154.6Y-86.775
X157.1Y-86.775
X159.6Y-86.775
T6
X103.14Y-87.498
X103.14Y-90.038
X103.14Y-92.578
X103.14Y-95.118
X103.14Y-97.658
X103.14Y-100.198
X103.14Y-102.738
X103.14Y-105.278
X103.14Y-107.818
X105.68Y-87.498
X105.68Y-90.038
X105.68Y-92.578
X105.68Y-95.118
X105.68Y-97.658
X105.68Y-100.198
X105.68Y-102.738
X105.68Y-105.278
X105.68Y-107.818
X109.69Y-114.5
X112.23Y-114.5
X113.942Y-100.5
X113.942Y-104.2
X113.942Y-107.0
X114.77Y-114.5
X117.31Y-114.5
X124.242Y-100.5
X124.242Y-104.1
X124.242Y-107.0
X131.16Y-78.5
X131.16Y-81.04
X131.16Y-83.58
X131.16Y-86.12
X131.16Y-88.66
X131.16Y-91.2
X131.16Y-93.74
X131.16Y-96.28
X131.16Y-98.82
X133.7Y-78.5
X133.7Y-81.04
X133.7Y-83.58
X133.7Y-86.12
X133.7Y-88.66
X133.7Y-91.2
X133.7Y-93.74
X133.7Y-96.28
X133.7Y-98.82
X150.82Y-117.475
X150.82Y-120.015
X151.26Y-79.525
X151.26Y-82.065
X152.2Y-104.825
X152.2Y-111.675
X153.36Y-117.475
X153.36Y-120.015
X153.8Y-79.525
X153.8Y-82.065
X154.7Y-104.825
X154.7Y-111.675
X155.9Y-117.475
X155.9Y-120.015
X156.34Y-79.525
X156.34Y-82.065
X158.44Y-117.475
X158.44Y-120.015
X158.88Y-79.525
X158.88Y-82.065
X160.98Y-117.475
X160.98Y-120.015
X161.42Y-79.525
X161.42Y-82.065
X163.52Y-117.475
X163.52Y-120.015
X163.96Y-79.525
X163.96Y-82.065
X166.06Y-117.475
X166.06Y-120.015
X166.5Y-79.525
X166.5Y-82.065
X168.6Y-117.475
X168.6Y-120.015
X168.905Y-108.55
X168.905Y-111.05
X169.04Y-79.525
X169.04Y-82.065
X171.14Y-117.475
X171.14Y-120.015
X171.58Y-79.525
X171.58Y-82.065
X177.5Y-126.79
X177.5Y-129.33
X177.5Y-131.87
X177.5Y-134.41
X177.5Y-136.95
T7
X143.23Y-129.41
X143.23Y-131.95
X143.23Y-134.49
X145.77Y-129.41
X145.77Y-131.95
X145.77Y-134.49
T8
X130.43Y-106.46
X130.43Y-109.0
X130.43Y-111.54
X132.97Y-106.46
X132.97Y-109.0
X132.97Y-111.54
X176.63Y-110.995
X176.63Y-113.535
X176.63Y-116.075
X179.17Y-110.995
X179.17Y-113.535
X179.17Y-116.075
T9
X131.077Y-121.3
X131.077Y-126.3
X131.077Y-131.3
X144.8Y-92.1
X144.8Y-97.1
X144.8Y-102.1
X144.8Y-107.1
T10
X110.0Y-109.5
X131.5Y-137.0
X147.7Y-116.2
X147.9Y-80.0
T11
X102.5Y-115.0
X102.5Y-137.0
X124.5Y-115.0
X124.5Y-137.0
T0
M30
