G04 #@! TF.GenerationSoftware,KiCad,Pcbnew,6.0.11+dfsg-1*
G04 #@! TF.CreationDate,2024-10-22T12:29:11+02:00*
G04 #@! TF.ProjectId,kaarten_shieter,6b616172-7465-46e5-9f73-686965746572,rev?*
G04 #@! TF.SameCoordinates,Original*
G04 #@! TF.FileFunction,Legend,Bot*
G04 #@! TF.FilePolarity,Positive*
%FSLAX46Y46*%
G04 Gerber Fmt 4.6, Leading zero omitted, Abs format (unit mm)*
G04 Created by KiCad (PCBNEW 6.0.11+dfsg-1) date 2024-10-22 12:29:11*
%MOMM*%
%LPD*%
G01*
G04 APERTURE LIST*
G04 Aperture macros list*
%AMRoundRect*
0 Rectangle with rounded corners*
0 $1 Rounding radius*
0 $2 $3 $4 $5 $6 $7 $8 $9 X,Y pos of 4 corners*
0 Add a 4 corners polygon primitive as box body*
4,1,4,$2,$3,$4,$5,$6,$7,$8,$9,$2,$3,0*
0 Add four circle primitives for the rounded corners*
1,1,$1+$1,$2,$3*
1,1,$1+$1,$4,$5*
1,1,$1+$1,$6,$7*
1,1,$1+$1,$8,$9*
0 Add four rect primitives between the rounded corners*
20,1,$1+$1,$2,$3,$4,$5,0*
20,1,$1+$1,$4,$5,$6,$7,0*
20,1,$1+$1,$6,$7,$8,$9,0*
20,1,$1+$1,$8,$9,$2,$3,0*%
G04 Aperture macros list end*
%ADD10C,0.150000*%
%ADD11C,0.254000*%
%ADD12C,0.120000*%
%ADD13C,0.200000*%
%ADD14C,0.010000*%
%ADD15R,1.700000X1.700000*%
%ADD16O,1.700000X1.700000*%
%ADD17C,0.500000*%
%ADD18R,1.600000X1.600000*%
%ADD19C,1.600000*%
%ADD20RoundRect,0.250000X-0.650000X-1.550000X0.650000X-1.550000X0.650000X1.550000X-0.650000X1.550000X0*%
%ADD21O,1.800000X3.600000*%
%ADD22C,1.982000*%
%ADD23C,2.490000*%
%ADD24C,1.734000*%
%ADD25RoundRect,0.102000X-0.754000X-0.754000X0.754000X-0.754000X0.754000X0.754000X-0.754000X0.754000X0*%
%ADD26C,1.712000*%
%ADD27C,3.204000*%
%ADD28RoundRect,0.250000X-0.600000X-0.725000X0.600000X-0.725000X0.600000X0.725000X-0.600000X0.725000X0*%
%ADD29O,1.700000X1.950000*%
%ADD30RoundRect,0.250000X0.725000X-0.600000X0.725000X0.600000X-0.725000X0.600000X-0.725000X-0.600000X0*%
%ADD31O,1.950000X1.700000*%
%ADD32O,1.404000X2.604000*%
%ADD33O,1.254000X2.304000*%
%ADD34RoundRect,0.250000X-0.600000X-0.750000X0.600000X-0.750000X0.600000X0.750000X-0.600000X0.750000X0*%
%ADD35O,1.700000X2.000000*%
%ADD36RoundRect,0.250000X0.750000X-0.600000X0.750000X0.600000X-0.750000X0.600000X-0.750000X-0.600000X0*%
%ADD37O,2.000000X1.700000*%
%ADD38C,1.854000*%
%ADD39RoundRect,0.250000X0.250000X0.475000X-0.250000X0.475000X-0.250000X-0.475000X0.250000X-0.475000X0*%
%ADD40RoundRect,0.243750X-0.243750X-0.456250X0.243750X-0.456250X0.243750X0.456250X-0.243750X0.456250X0*%
%ADD41RoundRect,0.250000X0.262500X0.450000X-0.262500X0.450000X-0.262500X-0.450000X0.262500X-0.450000X0*%
%ADD42RoundRect,0.250000X-0.250000X-0.475000X0.250000X-0.475000X0.250000X0.475000X-0.250000X0.475000X0*%
%ADD43RoundRect,0.250000X0.475000X-0.250000X0.475000X0.250000X-0.475000X0.250000X-0.475000X-0.250000X0*%
%ADD44R,1.600000X1.400000*%
%ADD45RoundRect,0.250000X-0.450000X0.262500X-0.450000X-0.262500X0.450000X-0.262500X0.450000X0.262500X0*%
%ADD46RoundRect,0.250000X-0.262500X-0.450000X0.262500X-0.450000X0.262500X0.450000X-0.262500X0.450000X0*%
%ADD47R,0.600000X1.050000*%
%ADD48RoundRect,0.250000X-0.475000X0.250000X-0.475000X-0.250000X0.475000X-0.250000X0.475000X0.250000X0*%
%ADD49RoundRect,0.100000X-0.100000X0.637500X-0.100000X-0.637500X0.100000X-0.637500X0.100000X0.637500X0*%
%ADD50RoundRect,0.243750X-0.456250X0.243750X-0.456250X-0.243750X0.456250X-0.243750X0.456250X0.243750X0*%
G04 APERTURE END LIST*
D10*
X99098142Y-49617333D02*
X99145761Y-49569714D01*
X99193380Y-49426857D01*
X99193380Y-49331619D01*
X99145761Y-49188761D01*
X99050523Y-49093523D01*
X98955285Y-49045904D01*
X98764809Y-48998285D01*
X98621952Y-48998285D01*
X98431476Y-49045904D01*
X98336238Y-49093523D01*
X98241000Y-49188761D01*
X98193380Y-49331619D01*
X98193380Y-49426857D01*
X98241000Y-49569714D01*
X98288619Y-49617333D01*
X98288619Y-49998285D02*
X98241000Y-50045904D01*
X98193380Y-50141142D01*
X98193380Y-50379238D01*
X98241000Y-50474476D01*
X98288619Y-50522095D01*
X98383857Y-50569714D01*
X98479095Y-50569714D01*
X98621952Y-50522095D01*
X99193380Y-49950666D01*
X99193380Y-50569714D01*
X109258142Y-61047333D02*
X109305761Y-60999714D01*
X109353380Y-60856857D01*
X109353380Y-60761619D01*
X109305761Y-60618761D01*
X109210523Y-60523523D01*
X109115285Y-60475904D01*
X108924809Y-60428285D01*
X108781952Y-60428285D01*
X108591476Y-60475904D01*
X108496238Y-60523523D01*
X108401000Y-60618761D01*
X108353380Y-60761619D01*
X108353380Y-60856857D01*
X108401000Y-60999714D01*
X108448619Y-61047333D01*
X108353380Y-61952095D02*
X108353380Y-61475904D01*
X108829571Y-61428285D01*
X108781952Y-61475904D01*
X108734333Y-61571142D01*
X108734333Y-61809238D01*
X108781952Y-61904476D01*
X108829571Y-61952095D01*
X108924809Y-61999714D01*
X109162904Y-61999714D01*
X109258142Y-61952095D01*
X109305761Y-61904476D01*
X109353380Y-61809238D01*
X109353380Y-61571142D01*
X109305761Y-61475904D01*
X109258142Y-61428285D01*
X38856666Y-101182904D02*
X38856666Y-101754333D01*
X38894761Y-101868619D01*
X38970952Y-101944809D01*
X39085238Y-101982904D01*
X39161428Y-101982904D01*
X38666190Y-102059095D02*
X38056666Y-102059095D01*
X37637619Y-101182904D02*
X37637619Y-101754333D01*
X37675714Y-101868619D01*
X37751904Y-101944809D01*
X37866190Y-101982904D01*
X37942380Y-101982904D01*
X37294761Y-101944809D02*
X37180476Y-101982904D01*
X36990000Y-101982904D01*
X36913809Y-101944809D01*
X36875714Y-101906714D01*
X36837619Y-101830523D01*
X36837619Y-101754333D01*
X36875714Y-101678142D01*
X36913809Y-101640047D01*
X36990000Y-101601952D01*
X37142380Y-101563857D01*
X37218571Y-101525761D01*
X37256666Y-101487666D01*
X37294761Y-101411476D01*
X37294761Y-101335285D01*
X37256666Y-101259095D01*
X37218571Y-101221000D01*
X37142380Y-101182904D01*
X36951904Y-101182904D01*
X36837619Y-101221000D01*
X36609047Y-101182904D02*
X36151904Y-101182904D01*
X36380476Y-101982904D02*
X36380476Y-101182904D01*
X36075714Y-102059095D02*
X35466190Y-102059095D01*
X35351904Y-101182904D02*
X34856666Y-101182904D01*
X35123333Y-101487666D01*
X35009047Y-101487666D01*
X34932857Y-101525761D01*
X34894761Y-101563857D01*
X34856666Y-101640047D01*
X34856666Y-101830523D01*
X34894761Y-101906714D01*
X34932857Y-101944809D01*
X35009047Y-101982904D01*
X35237619Y-101982904D01*
X35313809Y-101944809D01*
X35351904Y-101906714D01*
X112179095Y-59253591D02*
X112179095Y-58253591D01*
X111941000Y-58253591D01*
X111798142Y-58301211D01*
X111702904Y-58396449D01*
X111655285Y-58491687D01*
X111607666Y-58682163D01*
X111607666Y-58825020D01*
X111655285Y-59015496D01*
X111702904Y-59110734D01*
X111798142Y-59205972D01*
X111941000Y-59253591D01*
X112179095Y-59253591D01*
X110655285Y-59253591D02*
X111226714Y-59253591D01*
X110941000Y-59253591D02*
X110941000Y-58253591D01*
X111036238Y-58396449D01*
X111131476Y-58491687D01*
X111226714Y-58539306D01*
X101988857Y-99512380D02*
X102322190Y-99036190D01*
X102560285Y-99512380D02*
X102560285Y-98512380D01*
X102179333Y-98512380D01*
X102084095Y-98560000D01*
X102036476Y-98607619D01*
X101988857Y-98702857D01*
X101988857Y-98845714D01*
X102036476Y-98940952D01*
X102084095Y-98988571D01*
X102179333Y-99036190D01*
X102560285Y-99036190D01*
X101036476Y-99512380D02*
X101607904Y-99512380D01*
X101322190Y-99512380D02*
X101322190Y-98512380D01*
X101417428Y-98655238D01*
X101512666Y-98750476D01*
X101607904Y-98798095D01*
X100179333Y-98845714D02*
X100179333Y-99512380D01*
X100417428Y-98464761D02*
X100655523Y-99179047D01*
X100036476Y-99179047D01*
X111697666Y-50903353D02*
X111745285Y-50950972D01*
X111888142Y-50998591D01*
X111983380Y-50998591D01*
X112126238Y-50950972D01*
X112221476Y-50855734D01*
X112269095Y-50760496D01*
X112316714Y-50570020D01*
X112316714Y-50427163D01*
X112269095Y-50236687D01*
X112221476Y-50141449D01*
X112126238Y-50046211D01*
X111983380Y-49998591D01*
X111888142Y-49998591D01*
X111745285Y-50046211D01*
X111697666Y-50093830D01*
X110840523Y-50331925D02*
X110840523Y-50998591D01*
X111078619Y-49950972D02*
X111316714Y-50665258D01*
X110697666Y-50665258D01*
X39576666Y-40997142D02*
X39624285Y-41044761D01*
X39767142Y-41092380D01*
X39862380Y-41092380D01*
X40005238Y-41044761D01*
X40100476Y-40949523D01*
X40148095Y-40854285D01*
X40195714Y-40663809D01*
X40195714Y-40520952D01*
X40148095Y-40330476D01*
X40100476Y-40235238D01*
X40005238Y-40140000D01*
X39862380Y-40092380D01*
X39767142Y-40092380D01*
X39624285Y-40140000D01*
X39576666Y-40187619D01*
X39100476Y-41092380D02*
X38910000Y-41092380D01*
X38814761Y-41044761D01*
X38767142Y-40997142D01*
X38671904Y-40854285D01*
X38624285Y-40663809D01*
X38624285Y-40282857D01*
X38671904Y-40187619D01*
X38719523Y-40140000D01*
X38814761Y-40092380D01*
X39005238Y-40092380D01*
X39100476Y-40140000D01*
X39148095Y-40187619D01*
X39195714Y-40282857D01*
X39195714Y-40520952D01*
X39148095Y-40616190D01*
X39100476Y-40663809D01*
X39005238Y-40711428D01*
X38814761Y-40711428D01*
X38719523Y-40663809D01*
X38671904Y-40616190D01*
X38624285Y-40520952D01*
X44513333Y-53744761D02*
X44370476Y-53792380D01*
X44132380Y-53792380D01*
X44037142Y-53744761D01*
X43989523Y-53697142D01*
X43941904Y-53601904D01*
X43941904Y-53506666D01*
X43989523Y-53411428D01*
X44037142Y-53363809D01*
X44132380Y-53316190D01*
X44322857Y-53268571D01*
X44418095Y-53220952D01*
X44465714Y-53173333D01*
X44513333Y-53078095D01*
X44513333Y-52982857D01*
X44465714Y-52887619D01*
X44418095Y-52840000D01*
X44322857Y-52792380D01*
X44084761Y-52792380D01*
X43941904Y-52840000D01*
X43608571Y-52792380D02*
X43370476Y-53792380D01*
X43180000Y-53078095D01*
X42989523Y-53792380D01*
X42751428Y-52792380D01*
X42465714Y-52792380D02*
X41846666Y-52792380D01*
X42180000Y-53173333D01*
X42037142Y-53173333D01*
X41941904Y-53220952D01*
X41894285Y-53268571D01*
X41846666Y-53363809D01*
X41846666Y-53601904D01*
X41894285Y-53697142D01*
X41941904Y-53744761D01*
X42037142Y-53792380D01*
X42322857Y-53792380D01*
X42418095Y-53744761D01*
X42465714Y-53697142D01*
X74683380Y-78892333D02*
X74207190Y-78559000D01*
X74683380Y-78320904D02*
X73683380Y-78320904D01*
X73683380Y-78701857D01*
X73731000Y-78797095D01*
X73778619Y-78844714D01*
X73873857Y-78892333D01*
X74016714Y-78892333D01*
X74111952Y-78844714D01*
X74159571Y-78797095D01*
X74207190Y-78701857D01*
X74207190Y-78320904D01*
X73683380Y-79797095D02*
X73683380Y-79320904D01*
X74159571Y-79273285D01*
X74111952Y-79320904D01*
X74064333Y-79416142D01*
X74064333Y-79654238D01*
X74111952Y-79749476D01*
X74159571Y-79797095D01*
X74254809Y-79844714D01*
X74492904Y-79844714D01*
X74588142Y-79797095D01*
X74635761Y-79749476D01*
X74683380Y-79654238D01*
X74683380Y-79416142D01*
X74635761Y-79320904D01*
X74588142Y-79273285D01*
X70705880Y-60571142D02*
X70229690Y-60237809D01*
X70705880Y-59999714D02*
X69705880Y-59999714D01*
X69705880Y-60380666D01*
X69753500Y-60475904D01*
X69801119Y-60523523D01*
X69896357Y-60571142D01*
X70039214Y-60571142D01*
X70134452Y-60523523D01*
X70182071Y-60475904D01*
X70229690Y-60380666D01*
X70229690Y-59999714D01*
X70705880Y-61523523D02*
X70705880Y-60952095D01*
X70705880Y-61237809D02*
X69705880Y-61237809D01*
X69848738Y-61142571D01*
X69943976Y-61047333D01*
X69991595Y-60952095D01*
X69705880Y-61856857D02*
X69705880Y-62523523D01*
X70705880Y-62094952D01*
X54673333Y-53744761D02*
X54530476Y-53792380D01*
X54292380Y-53792380D01*
X54197142Y-53744761D01*
X54149523Y-53697142D01*
X54101904Y-53601904D01*
X54101904Y-53506666D01*
X54149523Y-53411428D01*
X54197142Y-53363809D01*
X54292380Y-53316190D01*
X54482857Y-53268571D01*
X54578095Y-53220952D01*
X54625714Y-53173333D01*
X54673333Y-53078095D01*
X54673333Y-52982857D01*
X54625714Y-52887619D01*
X54578095Y-52840000D01*
X54482857Y-52792380D01*
X54244761Y-52792380D01*
X54101904Y-52840000D01*
X53768571Y-52792380D02*
X53530476Y-53792380D01*
X53340000Y-53078095D01*
X53149523Y-53792380D01*
X52911428Y-52792380D01*
X52101904Y-53125714D02*
X52101904Y-53792380D01*
X52340000Y-52744761D02*
X52578095Y-53459047D01*
X51959047Y-53459047D01*
X45886666Y-38552380D02*
X46220000Y-38076190D01*
X46458095Y-38552380D02*
X46458095Y-37552380D01*
X46077142Y-37552380D01*
X45981904Y-37600000D01*
X45934285Y-37647619D01*
X45886666Y-37742857D01*
X45886666Y-37885714D01*
X45934285Y-37980952D01*
X45981904Y-38028571D01*
X46077142Y-38076190D01*
X46458095Y-38076190D01*
X45553333Y-37552380D02*
X44934285Y-37552380D01*
X45267619Y-37933333D01*
X45124761Y-37933333D01*
X45029523Y-37980952D01*
X44981904Y-38028571D01*
X44934285Y-38123809D01*
X44934285Y-38361904D01*
X44981904Y-38457142D01*
X45029523Y-38504761D01*
X45124761Y-38552380D01*
X45410476Y-38552380D01*
X45505714Y-38504761D01*
X45553333Y-38457142D01*
X48617142Y-52697142D02*
X48664761Y-52649523D01*
X48712380Y-52506666D01*
X48712380Y-52411428D01*
X48664761Y-52268571D01*
X48569523Y-52173333D01*
X48474285Y-52125714D01*
X48283809Y-52078095D01*
X48140952Y-52078095D01*
X47950476Y-52125714D01*
X47855238Y-52173333D01*
X47760000Y-52268571D01*
X47712380Y-52411428D01*
X47712380Y-52506666D01*
X47760000Y-52649523D01*
X47807619Y-52697142D01*
X48712380Y-53649523D02*
X48712380Y-53078095D01*
X48712380Y-53363809D02*
X47712380Y-53363809D01*
X47855238Y-53268571D01*
X47950476Y-53173333D01*
X47998095Y-53078095D01*
X48712380Y-54601904D02*
X48712380Y-54030476D01*
X48712380Y-54316190D02*
X47712380Y-54316190D01*
X47855238Y-54220952D01*
X47950476Y-54125714D01*
X47998095Y-54030476D01*
X111607666Y-49281142D02*
X111655285Y-49328761D01*
X111798142Y-49376380D01*
X111893380Y-49376380D01*
X112036238Y-49328761D01*
X112131476Y-49233523D01*
X112179095Y-49138285D01*
X112226714Y-48947809D01*
X112226714Y-48804952D01*
X112179095Y-48614476D01*
X112131476Y-48519238D01*
X112036238Y-48424000D01*
X111893380Y-48376380D01*
X111798142Y-48376380D01*
X111655285Y-48424000D01*
X111607666Y-48471619D01*
X111274333Y-48376380D02*
X110655285Y-48376380D01*
X110988619Y-48757333D01*
X110845761Y-48757333D01*
X110750523Y-48804952D01*
X110702904Y-48852571D01*
X110655285Y-48947809D01*
X110655285Y-49185904D01*
X110702904Y-49281142D01*
X110750523Y-49328761D01*
X110845761Y-49376380D01*
X111131476Y-49376380D01*
X111226714Y-49328761D01*
X111274333Y-49281142D01*
D11*
X97094523Y-95552380D02*
X98122619Y-95552380D01*
X98243571Y-95612857D01*
X98304047Y-95673333D01*
X98364523Y-95794285D01*
X98364523Y-96036190D01*
X98304047Y-96157142D01*
X98243571Y-96217619D01*
X98122619Y-96278095D01*
X97094523Y-96278095D01*
X97094523Y-96761904D02*
X97094523Y-97608571D01*
X98364523Y-97064285D01*
D10*
X81033857Y-94437172D02*
X81367190Y-93960982D01*
X81605285Y-94437172D02*
X81605285Y-93437172D01*
X81224333Y-93437172D01*
X81129095Y-93484792D01*
X81081476Y-93532411D01*
X81033857Y-93627649D01*
X81033857Y-93770506D01*
X81081476Y-93865744D01*
X81129095Y-93913363D01*
X81224333Y-93960982D01*
X81605285Y-93960982D01*
X80081476Y-94437172D02*
X80652904Y-94437172D01*
X80367190Y-94437172D02*
X80367190Y-93437172D01*
X80462428Y-93580030D01*
X80557666Y-93675268D01*
X80652904Y-93722887D01*
X79176714Y-93437172D02*
X79652904Y-93437172D01*
X79700523Y-93913363D01*
X79652904Y-93865744D01*
X79557666Y-93818125D01*
X79319571Y-93818125D01*
X79224333Y-93865744D01*
X79176714Y-93913363D01*
X79129095Y-94008601D01*
X79129095Y-94246696D01*
X79176714Y-94341934D01*
X79224333Y-94389553D01*
X79319571Y-94437172D01*
X79557666Y-94437172D01*
X79652904Y-94389553D01*
X79700523Y-94341934D01*
X109443380Y-54824544D02*
X108967190Y-54491211D01*
X109443380Y-54253115D02*
X108443380Y-54253115D01*
X108443380Y-54634068D01*
X108491000Y-54729306D01*
X108538619Y-54776925D01*
X108633857Y-54824544D01*
X108776714Y-54824544D01*
X108871952Y-54776925D01*
X108919571Y-54729306D01*
X108967190Y-54634068D01*
X108967190Y-54253115D01*
X108538619Y-55205496D02*
X108491000Y-55253115D01*
X108443380Y-55348353D01*
X108443380Y-55586449D01*
X108491000Y-55681687D01*
X108538619Y-55729306D01*
X108633857Y-55776925D01*
X108729095Y-55776925D01*
X108871952Y-55729306D01*
X109443380Y-55157877D01*
X109443380Y-55776925D01*
X85562617Y-117476780D02*
X85610236Y-117524399D01*
X85753093Y-117572018D01*
X85848331Y-117572018D01*
X85991188Y-117524399D01*
X86086426Y-117429161D01*
X86134045Y-117333923D01*
X86181664Y-117143447D01*
X86181664Y-117000590D01*
X86134045Y-116810114D01*
X86086426Y-116714876D01*
X85991188Y-116619638D01*
X85848331Y-116572018D01*
X85753093Y-116572018D01*
X85610236Y-116619638D01*
X85562617Y-116667257D01*
X84610236Y-117572018D02*
X85181664Y-117572018D01*
X84895950Y-117572018D02*
X84895950Y-116572018D01*
X84991188Y-116714876D01*
X85086426Y-116810114D01*
X85181664Y-116857733D01*
X84276902Y-116572018D02*
X83610236Y-116572018D01*
X84038807Y-117572018D01*
X39556666Y-46077142D02*
X39604285Y-46124761D01*
X39747142Y-46172380D01*
X39842380Y-46172380D01*
X39985238Y-46124761D01*
X40080476Y-46029523D01*
X40128095Y-45934285D01*
X40175714Y-45743809D01*
X40175714Y-45600952D01*
X40128095Y-45410476D01*
X40080476Y-45315238D01*
X39985238Y-45220000D01*
X39842380Y-45172380D01*
X39747142Y-45172380D01*
X39604285Y-45220000D01*
X39556666Y-45267619D01*
X38985238Y-45600952D02*
X39080476Y-45553333D01*
X39128095Y-45505714D01*
X39175714Y-45410476D01*
X39175714Y-45362857D01*
X39128095Y-45267619D01*
X39080476Y-45220000D01*
X38985238Y-45172380D01*
X38794761Y-45172380D01*
X38699523Y-45220000D01*
X38651904Y-45267619D01*
X38604285Y-45362857D01*
X38604285Y-45410476D01*
X38651904Y-45505714D01*
X38699523Y-45553333D01*
X38794761Y-45600952D01*
X38985238Y-45600952D01*
X39080476Y-45648571D01*
X39128095Y-45696190D01*
X39175714Y-45791428D01*
X39175714Y-45981904D01*
X39128095Y-46077142D01*
X39080476Y-46124761D01*
X38985238Y-46172380D01*
X38794761Y-46172380D01*
X38699523Y-46124761D01*
X38651904Y-46077142D01*
X38604285Y-45981904D01*
X38604285Y-45791428D01*
X38651904Y-45696190D01*
X38699523Y-45648571D01*
X38794761Y-45600952D01*
X86763380Y-50292095D02*
X87572904Y-50292095D01*
X87668142Y-50339714D01*
X87715761Y-50387333D01*
X87763380Y-50482571D01*
X87763380Y-50673047D01*
X87715761Y-50768285D01*
X87668142Y-50815904D01*
X87572904Y-50863523D01*
X86763380Y-50863523D01*
X86763380Y-51815904D02*
X86763380Y-51339714D01*
X87239571Y-51292095D01*
X87191952Y-51339714D01*
X87144333Y-51434952D01*
X87144333Y-51673047D01*
X87191952Y-51768285D01*
X87239571Y-51815904D01*
X87334809Y-51863523D01*
X87572904Y-51863523D01*
X87668142Y-51815904D01*
X87715761Y-51768285D01*
X87763380Y-51673047D01*
X87763380Y-51434952D01*
X87715761Y-51339714D01*
X87668142Y-51292095D01*
X93473142Y-51681142D02*
X93520761Y-51633523D01*
X93568380Y-51490666D01*
X93568380Y-51395428D01*
X93520761Y-51252571D01*
X93425523Y-51157333D01*
X93330285Y-51109714D01*
X93139809Y-51062095D01*
X92996952Y-51062095D01*
X92806476Y-51109714D01*
X92711238Y-51157333D01*
X92616000Y-51252571D01*
X92568380Y-51395428D01*
X92568380Y-51490666D01*
X92616000Y-51633523D01*
X92663619Y-51681142D01*
X93568380Y-52633523D02*
X93568380Y-52062095D01*
X93568380Y-52347809D02*
X92568380Y-52347809D01*
X92711238Y-52252571D01*
X92806476Y-52157333D01*
X92854095Y-52062095D01*
X92901714Y-53490666D02*
X93568380Y-53490666D01*
X92520761Y-53252571D02*
X93235047Y-53014476D01*
X93235047Y-53633523D01*
X106648857Y-117549642D02*
X106696476Y-117597261D01*
X106839333Y-117644880D01*
X106934571Y-117644880D01*
X107077428Y-117597261D01*
X107172666Y-117502023D01*
X107220285Y-117406785D01*
X107267904Y-117216309D01*
X107267904Y-117073452D01*
X107220285Y-116882976D01*
X107172666Y-116787738D01*
X107077428Y-116692500D01*
X106934571Y-116644880D01*
X106839333Y-116644880D01*
X106696476Y-116692500D01*
X106648857Y-116740119D01*
X105696476Y-117644880D02*
X106267904Y-117644880D01*
X105982190Y-117644880D02*
X105982190Y-116644880D01*
X106077428Y-116787738D01*
X106172666Y-116882976D01*
X106267904Y-116930595D01*
X105363142Y-116644880D02*
X104696476Y-116644880D01*
X105125047Y-117644880D01*
X82303380Y-78892333D02*
X81827190Y-78559000D01*
X82303380Y-78320904D02*
X81303380Y-78320904D01*
X81303380Y-78701857D01*
X81351000Y-78797095D01*
X81398619Y-78844714D01*
X81493857Y-78892333D01*
X81636714Y-78892333D01*
X81731952Y-78844714D01*
X81779571Y-78797095D01*
X81827190Y-78701857D01*
X81827190Y-78320904D01*
X81636714Y-79749476D02*
X82303380Y-79749476D01*
X81255761Y-79511380D02*
X81970047Y-79273285D01*
X81970047Y-79892333D01*
X43197857Y-40997142D02*
X43245476Y-41044761D01*
X43388333Y-41092380D01*
X43483571Y-41092380D01*
X43626428Y-41044761D01*
X43721666Y-40949523D01*
X43769285Y-40854285D01*
X43816904Y-40663809D01*
X43816904Y-40520952D01*
X43769285Y-40330476D01*
X43721666Y-40235238D01*
X43626428Y-40140000D01*
X43483571Y-40092380D01*
X43388333Y-40092380D01*
X43245476Y-40140000D01*
X43197857Y-40187619D01*
X42245476Y-41092380D02*
X42816904Y-41092380D01*
X42531190Y-41092380D02*
X42531190Y-40092380D01*
X42626428Y-40235238D01*
X42721666Y-40330476D01*
X42816904Y-40378095D01*
X41626428Y-40092380D02*
X41531190Y-40092380D01*
X41435952Y-40140000D01*
X41388333Y-40187619D01*
X41340714Y-40282857D01*
X41293095Y-40473333D01*
X41293095Y-40711428D01*
X41340714Y-40901904D01*
X41388333Y-40997142D01*
X41435952Y-41044761D01*
X41531190Y-41092380D01*
X41626428Y-41092380D01*
X41721666Y-41044761D01*
X41769285Y-40997142D01*
X41816904Y-40901904D01*
X41864523Y-40711428D01*
X41864523Y-40473333D01*
X41816904Y-40282857D01*
X41769285Y-40187619D01*
X41721666Y-40140000D01*
X41626428Y-40092380D01*
X81033857Y-99512380D02*
X81367190Y-99036190D01*
X81605285Y-99512380D02*
X81605285Y-98512380D01*
X81224333Y-98512380D01*
X81129095Y-98560000D01*
X81081476Y-98607619D01*
X81033857Y-98702857D01*
X81033857Y-98845714D01*
X81081476Y-98940952D01*
X81129095Y-98988571D01*
X81224333Y-99036190D01*
X81605285Y-99036190D01*
X80081476Y-99512380D02*
X80652904Y-99512380D01*
X80367190Y-99512380D02*
X80367190Y-98512380D01*
X80462428Y-98655238D01*
X80557666Y-98750476D01*
X80652904Y-98798095D01*
X79224333Y-98845714D02*
X79224333Y-99512380D01*
X79462428Y-98464761D02*
X79700523Y-99179047D01*
X79081476Y-99179047D01*
X48998095Y-38552380D02*
X48998095Y-37552380D01*
X48760000Y-37552380D01*
X48617142Y-37600000D01*
X48521904Y-37695238D01*
X48474285Y-37790476D01*
X48426666Y-37980952D01*
X48426666Y-38123809D01*
X48474285Y-38314285D01*
X48521904Y-38409523D01*
X48617142Y-38504761D01*
X48760000Y-38552380D01*
X48998095Y-38552380D01*
X48045714Y-37647619D02*
X47998095Y-37600000D01*
X47902857Y-37552380D01*
X47664761Y-37552380D01*
X47569523Y-37600000D01*
X47521904Y-37647619D01*
X47474285Y-37742857D01*
X47474285Y-37838095D01*
X47521904Y-37980952D01*
X48093333Y-38552380D01*
X47474285Y-38552380D01*
X78493380Y-78255904D02*
X77493380Y-78255904D01*
X77493380Y-78494000D01*
X77541000Y-78636857D01*
X77636238Y-78732095D01*
X77731476Y-78779714D01*
X77921952Y-78827333D01*
X78064809Y-78827333D01*
X78255285Y-78779714D01*
X78350523Y-78732095D01*
X78445761Y-78636857D01*
X78493380Y-78494000D01*
X78493380Y-78255904D01*
X77826714Y-79684476D02*
X78493380Y-79684476D01*
X77445761Y-79446380D02*
X78160047Y-79208285D01*
X78160047Y-79827333D01*
X105154333Y-50188761D02*
X105011476Y-50236380D01*
X104773380Y-50236380D01*
X104678142Y-50188761D01*
X104630523Y-50141142D01*
X104582904Y-50045904D01*
X104582904Y-49950666D01*
X104630523Y-49855428D01*
X104678142Y-49807809D01*
X104773380Y-49760190D01*
X104963857Y-49712571D01*
X105059095Y-49664952D01*
X105106714Y-49617333D01*
X105154333Y-49522095D01*
X105154333Y-49426857D01*
X105106714Y-49331619D01*
X105059095Y-49284000D01*
X104963857Y-49236380D01*
X104725761Y-49236380D01*
X104582904Y-49284000D01*
X104249571Y-49236380D02*
X104011476Y-50236380D01*
X103821000Y-49522095D01*
X103630523Y-50236380D01*
X103392428Y-49236380D01*
X102487666Y-50236380D02*
X103059095Y-50236380D01*
X102773380Y-50236380D02*
X102773380Y-49236380D01*
X102868619Y-49379238D01*
X102963857Y-49474476D01*
X103059095Y-49522095D01*
D11*
X104124523Y-95552380D02*
X105152619Y-95552380D01*
X105273571Y-95612857D01*
X105334047Y-95673333D01*
X105394523Y-95794285D01*
X105394523Y-96036190D01*
X105334047Y-96157142D01*
X105273571Y-96217619D01*
X105152619Y-96278095D01*
X104124523Y-96278095D01*
X105394523Y-96943333D02*
X105394523Y-97185238D01*
X105334047Y-97306190D01*
X105273571Y-97366666D01*
X105092142Y-97487619D01*
X104850238Y-97548095D01*
X104366428Y-97548095D01*
X104245476Y-97487619D01*
X104185000Y-97427142D01*
X104124523Y-97306190D01*
X104124523Y-97064285D01*
X104185000Y-96943333D01*
X104245476Y-96882857D01*
X104366428Y-96822380D01*
X104668809Y-96822380D01*
X104789761Y-96882857D01*
X104850238Y-96943333D01*
X104910714Y-97064285D01*
X104910714Y-97306190D01*
X104850238Y-97427142D01*
X104789761Y-97487619D01*
X104668809Y-97548095D01*
D10*
X101988857Y-94477172D02*
X102322190Y-94000982D01*
X102560285Y-94477172D02*
X102560285Y-93477172D01*
X102179333Y-93477172D01*
X102084095Y-93524792D01*
X102036476Y-93572411D01*
X101988857Y-93667649D01*
X101988857Y-93810506D01*
X102036476Y-93905744D01*
X102084095Y-93953363D01*
X102179333Y-94000982D01*
X102560285Y-94000982D01*
X101036476Y-94477172D02*
X101607904Y-94477172D01*
X101322190Y-94477172D02*
X101322190Y-93477172D01*
X101417428Y-93620030D01*
X101512666Y-93715268D01*
X101607904Y-93762887D01*
X100131714Y-93477172D02*
X100607904Y-93477172D01*
X100655523Y-93953363D01*
X100607904Y-93905744D01*
X100512666Y-93858125D01*
X100274571Y-93858125D01*
X100179333Y-93905744D01*
X100131714Y-93953363D01*
X100084095Y-94048601D01*
X100084095Y-94286696D01*
X100131714Y-94381934D01*
X100179333Y-94429553D01*
X100274571Y-94477172D01*
X100512666Y-94477172D01*
X100607904Y-94429553D01*
X100655523Y-94381934D01*
X105154333Y-61388761D02*
X105011476Y-61436380D01*
X104773380Y-61436380D01*
X104678142Y-61388761D01*
X104630523Y-61341142D01*
X104582904Y-61245904D01*
X104582904Y-61150666D01*
X104630523Y-61055428D01*
X104678142Y-61007809D01*
X104773380Y-60960190D01*
X104963857Y-60912571D01*
X105059095Y-60864952D01*
X105106714Y-60817333D01*
X105154333Y-60722095D01*
X105154333Y-60626857D01*
X105106714Y-60531619D01*
X105059095Y-60484000D01*
X104963857Y-60436380D01*
X104725761Y-60436380D01*
X104582904Y-60484000D01*
X104249571Y-60436380D02*
X104011476Y-61436380D01*
X103821000Y-60722095D01*
X103630523Y-61436380D01*
X103392428Y-60436380D01*
X103059095Y-60531619D02*
X103011476Y-60484000D01*
X102916238Y-60436380D01*
X102678142Y-60436380D01*
X102582904Y-60484000D01*
X102535285Y-60531619D01*
X102487666Y-60626857D01*
X102487666Y-60722095D01*
X102535285Y-60864952D01*
X103106714Y-61436380D01*
X102487666Y-61436380D01*
X93568380Y-48211142D02*
X93092190Y-47877809D01*
X93568380Y-47639714D02*
X92568380Y-47639714D01*
X92568380Y-48020666D01*
X92616000Y-48115904D01*
X92663619Y-48163523D01*
X92758857Y-48211142D01*
X92901714Y-48211142D01*
X92996952Y-48163523D01*
X93044571Y-48115904D01*
X93092190Y-48020666D01*
X93092190Y-47639714D01*
X93568380Y-49163523D02*
X93568380Y-48592095D01*
X93568380Y-48877809D02*
X92568380Y-48877809D01*
X92711238Y-48782571D01*
X92806476Y-48687333D01*
X92854095Y-48592095D01*
X93568380Y-50115904D02*
X93568380Y-49544476D01*
X93568380Y-49830190D02*
X92568380Y-49830190D01*
X92711238Y-49734952D01*
X92806476Y-49639714D01*
X92854095Y-49544476D01*
X109353380Y-49617333D02*
X108877190Y-49284000D01*
X109353380Y-49045904D02*
X108353380Y-49045904D01*
X108353380Y-49426857D01*
X108401000Y-49522095D01*
X108448619Y-49569714D01*
X108543857Y-49617333D01*
X108686714Y-49617333D01*
X108781952Y-49569714D01*
X108829571Y-49522095D01*
X108877190Y-49426857D01*
X108877190Y-49045904D01*
X109353380Y-50569714D02*
X109353380Y-49998285D01*
X109353380Y-50284000D02*
X108353380Y-50284000D01*
X108496238Y-50188761D01*
X108591476Y-50093523D01*
X108639095Y-49998285D01*
X81498807Y-117476779D02*
X81546426Y-117524398D01*
X81689283Y-117572017D01*
X81784521Y-117572017D01*
X81927379Y-117524398D01*
X82022617Y-117429160D01*
X82070236Y-117333922D01*
X82117855Y-117143446D01*
X82117855Y-117000589D01*
X82070236Y-116810113D01*
X82022617Y-116714875D01*
X81927379Y-116619637D01*
X81784521Y-116572017D01*
X81689283Y-116572017D01*
X81546426Y-116619637D01*
X81498807Y-116667256D01*
X81070236Y-117048208D02*
X80736902Y-117048208D01*
X80594045Y-117572017D02*
X81070236Y-117572017D01*
X81070236Y-116572017D01*
X80594045Y-116572017D01*
X80260712Y-116572017D02*
X79641664Y-116572017D01*
X79974998Y-116952970D01*
X79832140Y-116952970D01*
X79736902Y-117000589D01*
X79689283Y-117048208D01*
X79641664Y-117143446D01*
X79641664Y-117381541D01*
X79689283Y-117476779D01*
X79736902Y-117524398D01*
X79832140Y-117572017D01*
X80117855Y-117572017D01*
X80213093Y-117524398D01*
X80260712Y-117476779D01*
X86113380Y-78320904D02*
X85113380Y-78320904D01*
X85113380Y-78559000D01*
X85161000Y-78701857D01*
X85256238Y-78797095D01*
X85351476Y-78844714D01*
X85541952Y-78892333D01*
X85684809Y-78892333D01*
X85875285Y-78844714D01*
X85970523Y-78797095D01*
X86065761Y-78701857D01*
X86113380Y-78559000D01*
X86113380Y-78320904D01*
X85113380Y-79225666D02*
X85113380Y-79844714D01*
X85494333Y-79511380D01*
X85494333Y-79654238D01*
X85541952Y-79749476D01*
X85589571Y-79797095D01*
X85684809Y-79844714D01*
X85922904Y-79844714D01*
X86018142Y-79797095D01*
X86065761Y-79749476D01*
X86113380Y-79654238D01*
X86113380Y-79368523D01*
X86065761Y-79273285D01*
X86018142Y-79225666D01*
X82043142Y-51681142D02*
X82090761Y-51633523D01*
X82138380Y-51490666D01*
X82138380Y-51395428D01*
X82090761Y-51252571D01*
X81995523Y-51157333D01*
X81900285Y-51109714D01*
X81709809Y-51062095D01*
X81566952Y-51062095D01*
X81376476Y-51109714D01*
X81281238Y-51157333D01*
X81186000Y-51252571D01*
X81138380Y-51395428D01*
X81138380Y-51490666D01*
X81186000Y-51633523D01*
X81233619Y-51681142D01*
X82138380Y-52633523D02*
X82138380Y-52062095D01*
X82138380Y-52347809D02*
X81138380Y-52347809D01*
X81281238Y-52252571D01*
X81376476Y-52157333D01*
X81424095Y-52062095D01*
X81138380Y-52966857D02*
X81138380Y-53585904D01*
X81519333Y-53252571D01*
X81519333Y-53395428D01*
X81566952Y-53490666D01*
X81614571Y-53538285D01*
X81709809Y-53585904D01*
X81947904Y-53585904D01*
X82043142Y-53538285D01*
X82090761Y-53490666D01*
X82138380Y-53395428D01*
X82138380Y-53109714D01*
X82090761Y-53014476D01*
X82043142Y-52966857D01*
D11*
X83169523Y-95552380D02*
X84197619Y-95552380D01*
X84318571Y-95612857D01*
X84379047Y-95673333D01*
X84439523Y-95794285D01*
X84439523Y-96036190D01*
X84379047Y-96157142D01*
X84318571Y-96217619D01*
X84197619Y-96278095D01*
X83169523Y-96278095D01*
X84439523Y-96943333D02*
X84439523Y-97185238D01*
X84379047Y-97306190D01*
X84318571Y-97366666D01*
X84137142Y-97487619D01*
X83895238Y-97548095D01*
X83411428Y-97548095D01*
X83290476Y-97487619D01*
X83230000Y-97427142D01*
X83169523Y-97306190D01*
X83169523Y-97064285D01*
X83230000Y-96943333D01*
X83290476Y-96882857D01*
X83411428Y-96822380D01*
X83713809Y-96822380D01*
X83834761Y-96882857D01*
X83895238Y-96943333D01*
X83955714Y-97064285D01*
X83955714Y-97306190D01*
X83895238Y-97427142D01*
X83834761Y-97487619D01*
X83713809Y-97548095D01*
D10*
X74150880Y-60571142D02*
X73674690Y-60237809D01*
X74150880Y-59999714D02*
X73150880Y-59999714D01*
X73150880Y-60380666D01*
X73198500Y-60475904D01*
X73246119Y-60523523D01*
X73341357Y-60571142D01*
X73484214Y-60571142D01*
X73579452Y-60523523D01*
X73627071Y-60475904D01*
X73674690Y-60380666D01*
X73674690Y-59999714D01*
X74150880Y-61523523D02*
X74150880Y-60952095D01*
X74150880Y-61237809D02*
X73150880Y-61237809D01*
X73293738Y-61142571D01*
X73388976Y-61047333D01*
X73436595Y-60952095D01*
X73150880Y-61856857D02*
X73150880Y-62475904D01*
X73531833Y-62142571D01*
X73531833Y-62285428D01*
X73579452Y-62380666D01*
X73627071Y-62428285D01*
X73722309Y-62475904D01*
X73960404Y-62475904D01*
X74055642Y-62428285D01*
X74103261Y-62380666D01*
X74150880Y-62285428D01*
X74150880Y-61999714D01*
X74103261Y-61904476D01*
X74055642Y-61856857D01*
D11*
X76139523Y-95552380D02*
X77167619Y-95552380D01*
X77288571Y-95612857D01*
X77349047Y-95673333D01*
X77409523Y-95794285D01*
X77409523Y-96036190D01*
X77349047Y-96157142D01*
X77288571Y-96217619D01*
X77167619Y-96278095D01*
X76139523Y-96278095D01*
X76139523Y-96761904D02*
X76139523Y-97608571D01*
X77409523Y-97064285D01*
D10*
X42721666Y-46172380D02*
X43055000Y-45696190D01*
X43293095Y-46172380D02*
X43293095Y-45172380D01*
X42912142Y-45172380D01*
X42816904Y-45220000D01*
X42769285Y-45267619D01*
X42721666Y-45362857D01*
X42721666Y-45505714D01*
X42769285Y-45600952D01*
X42816904Y-45648571D01*
X42912142Y-45696190D01*
X43293095Y-45696190D01*
X41864523Y-45172380D02*
X42055000Y-45172380D01*
X42150238Y-45220000D01*
X42197857Y-45267619D01*
X42293095Y-45410476D01*
X42340714Y-45600952D01*
X42340714Y-45981904D01*
X42293095Y-46077142D01*
X42245476Y-46124761D01*
X42150238Y-46172380D01*
X41959761Y-46172380D01*
X41864523Y-46124761D01*
X41816904Y-46077142D01*
X41769285Y-45981904D01*
X41769285Y-45743809D01*
X41816904Y-45648571D01*
X41864523Y-45600952D01*
X41959761Y-45553333D01*
X42150238Y-45553333D01*
X42245476Y-45600952D01*
X42293095Y-45648571D01*
X42340714Y-45743809D01*
X102453807Y-117476779D02*
X102501426Y-117524398D01*
X102644283Y-117572017D01*
X102739521Y-117572017D01*
X102882379Y-117524398D01*
X102977617Y-117429160D01*
X103025236Y-117333922D01*
X103072855Y-117143446D01*
X103072855Y-117000589D01*
X103025236Y-116810113D01*
X102977617Y-116714875D01*
X102882379Y-116619637D01*
X102739521Y-116572017D01*
X102644283Y-116572017D01*
X102501426Y-116619637D01*
X102453807Y-116667256D01*
X102025236Y-117048208D02*
X101691902Y-117048208D01*
X101549045Y-117572017D02*
X102025236Y-117572017D01*
X102025236Y-116572017D01*
X101549045Y-116572017D01*
X101215712Y-116572017D02*
X100596664Y-116572017D01*
X100929998Y-116952970D01*
X100787140Y-116952970D01*
X100691902Y-117000589D01*
X100644283Y-117048208D01*
X100596664Y-117143446D01*
X100596664Y-117381541D01*
X100644283Y-117476779D01*
X100691902Y-117524398D01*
X100787140Y-117572017D01*
X101072855Y-117572017D01*
X101168093Y-117524398D01*
X101215712Y-117476779D01*
D12*
X99002252Y-49049000D02*
X98479748Y-49049000D01*
X99002252Y-50519000D02*
X98479748Y-50519000D01*
X109162252Y-61949000D02*
X108639748Y-61949000D01*
X109162252Y-60479000D02*
X108639748Y-60479000D01*
D13*
X42770000Y-103585000D02*
X40520000Y-103585000D01*
X56000000Y-94535000D02*
X56000000Y-103585000D01*
X53090000Y-103585000D02*
X48570000Y-103585000D01*
X53730000Y-103585000D02*
X56000000Y-103585000D01*
X40520000Y-103585000D02*
X40520000Y-94535000D01*
X40520000Y-94535000D02*
X56000000Y-94535000D01*
X47930000Y-103585000D02*
X43410000Y-103585000D01*
X47930000Y-103585000D02*
G75*
G03*
X48570000Y-103585000I320000J125001D01*
G01*
X53090000Y-103585000D02*
G75*
G03*
X53730000Y-103585000I320000J125001D01*
G01*
X42770000Y-103585000D02*
G75*
G03*
X43410000Y-103585000I320000J125001D01*
G01*
X44460000Y-97190000D02*
G75*
G03*
X44460000Y-97190000I-100000J0D01*
G01*
G36*
X50510000Y-95885000D02*
G01*
X46010000Y-95885000D01*
X46010000Y-94635000D01*
X50510000Y-94635000D01*
X50510000Y-95885000D01*
G37*
D14*
X50510000Y-95885000D02*
X46010000Y-95885000D01*
X46010000Y-94635000D01*
X50510000Y-94635000D01*
X50510000Y-95885000D01*
D12*
X109756000Y-57995250D02*
X109756000Y-56075250D01*
X112441000Y-57995250D02*
X109756000Y-57995250D01*
X109756000Y-56075250D02*
X112441000Y-56075250D01*
X101573064Y-98194800D02*
X101118936Y-98194800D01*
X101573064Y-96724800D02*
X101118936Y-96724800D01*
X111179748Y-53059000D02*
X111702252Y-53059000D01*
X111179748Y-51589000D02*
X111702252Y-51589000D01*
X38655000Y-38361252D02*
X38655000Y-37838748D01*
X40125000Y-38361252D02*
X40125000Y-37838748D01*
X40180000Y-56590000D02*
X46180000Y-56590000D01*
X48280000Y-50040000D02*
X47280000Y-50040000D01*
X40280000Y-50090000D02*
X46080000Y-50090000D01*
X48280000Y-51040000D02*
X48280000Y-50040000D01*
X46280000Y-52040000D02*
X46280000Y-54640000D01*
X40080000Y-52040000D02*
X40080000Y-54640000D01*
X75146000Y-78831936D02*
X75146000Y-79286064D01*
X76616000Y-78831936D02*
X76616000Y-79286064D01*
X70026436Y-60479000D02*
X70480564Y-60479000D01*
X70026436Y-61949000D02*
X70480564Y-61949000D01*
X48240000Y-56640000D02*
X49240000Y-56640000D01*
X56240000Y-56590000D02*
X50440000Y-56590000D01*
X56340000Y-50090000D02*
X50340000Y-50090000D01*
X56440000Y-54640000D02*
X56440000Y-52040000D01*
X48240000Y-55640000D02*
X48240000Y-56640000D01*
X50240000Y-54640000D02*
X50240000Y-52040000D01*
X44985000Y-40412936D02*
X44985000Y-40867064D01*
X46455000Y-40412936D02*
X46455000Y-40867064D01*
X48521252Y-52605000D02*
X47998748Y-52605000D01*
X48521252Y-54075000D02*
X47998748Y-54075000D01*
X111179748Y-46509000D02*
X111702252Y-46509000D01*
X111179748Y-47979000D02*
X111702252Y-47979000D01*
D13*
X96340000Y-96295000D02*
X96340000Y-96745000D01*
X99240000Y-96295000D02*
X96340000Y-96295000D01*
X99240000Y-96745000D02*
X99240000Y-96295000D01*
X96340000Y-96745000D02*
X99240000Y-96745000D01*
X99290000Y-98145000D02*
X99290000Y-97095000D01*
D12*
X80163936Y-96289800D02*
X80618064Y-96289800D01*
X80163936Y-94819800D02*
X80618064Y-94819800D01*
X111213936Y-55599000D02*
X111668064Y-55599000D01*
X111213936Y-54129000D02*
X111668064Y-54129000D01*
X84184760Y-116858386D02*
X84184760Y-117380890D01*
X85654760Y-116858386D02*
X85654760Y-117380890D01*
X40125000Y-42918748D02*
X40125000Y-43441252D01*
X38655000Y-42918748D02*
X38655000Y-43441252D01*
X84576000Y-51054000D02*
X84576000Y-53254000D01*
X90046000Y-51054000D02*
X90046000Y-53254000D01*
X84576000Y-51054000D02*
X84576000Y-47454000D01*
X90046000Y-51054000D02*
X90046000Y-48854000D01*
X90386000Y-52062748D02*
X90386000Y-52585252D01*
X91856000Y-52062748D02*
X91856000Y-52585252D01*
X105271000Y-116931248D02*
X105271000Y-117453752D01*
X106741000Y-116931248D02*
X106741000Y-117453752D01*
X84236000Y-78831936D02*
X84236000Y-79286064D01*
X82766000Y-78831936D02*
X82766000Y-79286064D01*
X43290000Y-38361252D02*
X43290000Y-37838748D01*
X41820000Y-38361252D02*
X41820000Y-37838748D01*
X80618064Y-96724800D02*
X80163936Y-96724800D01*
X80618064Y-98194800D02*
X80163936Y-98194800D01*
X47300000Y-38955000D02*
X49220000Y-38955000D01*
X49220000Y-38955000D02*
X49220000Y-41640000D01*
X47300000Y-41640000D02*
X47300000Y-38955000D01*
X78731000Y-77309000D02*
X80651000Y-77309000D01*
X78731000Y-79994000D02*
X78731000Y-77309000D01*
X80651000Y-77309000D02*
X80651000Y-79994000D01*
X100721000Y-51084000D02*
X100721000Y-48484000D01*
X106921000Y-51084000D02*
X106921000Y-48484000D01*
X106721000Y-53034000D02*
X100921000Y-53034000D01*
X98721000Y-52084000D02*
X98721000Y-53084000D01*
X106821000Y-46534000D02*
X100821000Y-46534000D01*
X98721000Y-53084000D02*
X99721000Y-53084000D01*
D13*
X106320000Y-98145000D02*
X106320000Y-97095000D01*
X103370000Y-96745000D02*
X106270000Y-96745000D01*
X106270000Y-96745000D02*
X106270000Y-96295000D01*
X103370000Y-96295000D02*
X103370000Y-96745000D01*
X106270000Y-96295000D02*
X103370000Y-96295000D01*
D12*
X101118936Y-96289800D02*
X101573064Y-96289800D01*
X101118936Y-94819800D02*
X101573064Y-94819800D01*
X106821000Y-57734000D02*
X100821000Y-57734000D01*
X100721000Y-62284000D02*
X100721000Y-59684000D01*
X106721000Y-64234000D02*
X100921000Y-64234000D01*
X98721000Y-63284000D02*
X98721000Y-64284000D01*
X106921000Y-62284000D02*
X106921000Y-59684000D01*
X98721000Y-64284000D02*
X99721000Y-64284000D01*
X91856000Y-48626936D02*
X91856000Y-49081064D01*
X90386000Y-48626936D02*
X90386000Y-49081064D01*
X109128064Y-50519000D02*
X108673936Y-50519000D01*
X109128064Y-49049000D02*
X108673936Y-49049000D01*
X80144760Y-116858385D02*
X80144760Y-117380889D01*
X81614760Y-116858385D02*
X81614760Y-117380889D01*
X86351000Y-80059000D02*
X86351000Y-77374000D01*
X86351000Y-77374000D02*
X88271000Y-77374000D01*
X88271000Y-77374000D02*
X88271000Y-80059000D01*
X84236000Y-52585252D02*
X84236000Y-52062748D01*
X82766000Y-52585252D02*
X82766000Y-52062748D01*
D13*
X85315000Y-96295000D02*
X82415000Y-96295000D01*
X85315000Y-96745000D02*
X85315000Y-96295000D01*
X85365000Y-98145000D02*
X85365000Y-97095000D01*
X82415000Y-96745000D02*
X85315000Y-96745000D01*
X82415000Y-96295000D02*
X82415000Y-96745000D01*
D12*
X73471436Y-61949000D02*
X73925564Y-61949000D01*
X73471436Y-60479000D02*
X73925564Y-60479000D01*
D13*
X78335000Y-98145000D02*
X78335000Y-97095000D01*
X78285000Y-96295000D02*
X75385000Y-96295000D01*
X75385000Y-96745000D02*
X78285000Y-96745000D01*
X75385000Y-96295000D02*
X75385000Y-96745000D01*
X78285000Y-96745000D02*
X78285000Y-96295000D01*
D12*
X41820000Y-42952936D02*
X41820000Y-43407064D01*
X43290000Y-42952936D02*
X43290000Y-43407064D01*
X102569760Y-116858385D02*
X102569760Y-117380889D01*
X101099760Y-116858385D02*
X101099760Y-117380889D01*
%LPC*%
D15*
X111441000Y-41780250D03*
D16*
X111441000Y-44320250D03*
X108901000Y-41780250D03*
X108901000Y-44320250D03*
X106361000Y-41780250D03*
X106361000Y-44320250D03*
X103821000Y-41780250D03*
X103821000Y-44320250D03*
X101281000Y-41780250D03*
X101281000Y-44320250D03*
X98741000Y-41780250D03*
X98741000Y-44320250D03*
X96201000Y-41780250D03*
X96201000Y-44320250D03*
X93661000Y-41780250D03*
X93661000Y-44320250D03*
X91121000Y-41780250D03*
X91121000Y-44320250D03*
D17*
X65575000Y-79502000D03*
X65575000Y-78702000D03*
X67775000Y-78702000D03*
X67775000Y-80302000D03*
X67775000Y-79502000D03*
X65575000Y-80302000D03*
X65445000Y-96980000D03*
X70445000Y-93230000D03*
X70445000Y-91730000D03*
X65445000Y-90230000D03*
X70445000Y-93980000D03*
X65445000Y-96230000D03*
X65445000Y-94730000D03*
X70445000Y-90230000D03*
X70445000Y-94730000D03*
X70445000Y-96980000D03*
X70445000Y-96980000D03*
X70445000Y-92480000D03*
X65445000Y-90980000D03*
X65445000Y-93980000D03*
X70445000Y-97730000D03*
X65445000Y-96980000D03*
X70445000Y-90980000D03*
X65445000Y-97730000D03*
X65445000Y-91730000D03*
X70445000Y-96230000D03*
X65445000Y-95480000D03*
X70445000Y-95480000D03*
X65445000Y-92480000D03*
X65445000Y-93230000D03*
D18*
X83820000Y-89683792D03*
D19*
X83820000Y-93483792D03*
D17*
X65445000Y-114875000D03*
X65445000Y-114125000D03*
X65445000Y-107375000D03*
X65445000Y-114125000D03*
X65445000Y-111875000D03*
X65445000Y-113375000D03*
X65445000Y-108125000D03*
X70445000Y-111125000D03*
X70445000Y-107375000D03*
X70445000Y-110375000D03*
X70445000Y-108125000D03*
X70445000Y-114125000D03*
X65445000Y-112625000D03*
X70445000Y-111875000D03*
X70445000Y-109625000D03*
X65445000Y-108875000D03*
X70445000Y-114875000D03*
X65445000Y-110375000D03*
X70445000Y-113375000D03*
X65445000Y-111125000D03*
X65445000Y-109625000D03*
X70445000Y-108875000D03*
X70445000Y-114125000D03*
X70445000Y-112625000D03*
X91400000Y-96980000D03*
X91400000Y-94730000D03*
X86400000Y-95480000D03*
X86400000Y-92480000D03*
X86400000Y-93980000D03*
X91400000Y-90980000D03*
X86400000Y-90980000D03*
X91400000Y-96230000D03*
X86400000Y-96230000D03*
X86400000Y-94730000D03*
X91400000Y-93230000D03*
X86400000Y-90230000D03*
X91400000Y-97730000D03*
X91400000Y-93980000D03*
X86400000Y-96980000D03*
X91400000Y-95480000D03*
X91400000Y-96980000D03*
X86400000Y-93230000D03*
X91400000Y-92480000D03*
X91400000Y-91730000D03*
X86400000Y-96980000D03*
X91400000Y-90230000D03*
X86400000Y-97730000D03*
X86400000Y-91730000D03*
X65575000Y-42418000D03*
X65575000Y-41618000D03*
X67775000Y-41618000D03*
X67775000Y-43218000D03*
X67775000Y-42418000D03*
X65575000Y-43218000D03*
D15*
X63500000Y-58420000D03*
D16*
X60960000Y-58420000D03*
X63500000Y-55880000D03*
X60960000Y-55880000D03*
X63500000Y-53340000D03*
X60960000Y-53340000D03*
X63500000Y-50800000D03*
X60960000Y-50800000D03*
X63500000Y-48260000D03*
X60960000Y-48260000D03*
X63500000Y-45720000D03*
X60960000Y-45720000D03*
X63500000Y-43180000D03*
X60960000Y-43180000D03*
X63500000Y-40640000D03*
X60960000Y-40640000D03*
X63500000Y-38100000D03*
X60960000Y-38100000D03*
D20*
X44560000Y-115775000D03*
D21*
X48370000Y-115775000D03*
X52180000Y-115775000D03*
D22*
X45085000Y-58438372D03*
X51435000Y-58438372D03*
X45085000Y-63518372D03*
X51435000Y-63518372D03*
X45720000Y-81298372D03*
X48260000Y-81298372D03*
X50800000Y-81298372D03*
D23*
X40640000Y-64470872D03*
X40640000Y-77805872D03*
X55880000Y-77805872D03*
X55880000Y-64470872D03*
D22*
X38100000Y-68598372D03*
X38100000Y-71138372D03*
X38100000Y-73678372D03*
D24*
X98425000Y-89535000D03*
X98425000Y-92075000D03*
X95885000Y-89535000D03*
X95885000Y-92075000D03*
X93345000Y-89535000D03*
X93345000Y-92075000D03*
D17*
X65575000Y-69850000D03*
X65575000Y-69050000D03*
X67775000Y-69050000D03*
X67775000Y-70650000D03*
X67775000Y-69850000D03*
X65575000Y-70650000D03*
D18*
X77191000Y-70104000D03*
D19*
X79691000Y-70104000D03*
D25*
X44450000Y-87560000D03*
D26*
X46990000Y-87560000D03*
X49530000Y-87560000D03*
X52070000Y-87560000D03*
D27*
X37260000Y-88060000D03*
X59260000Y-88060000D03*
X59260000Y-110060000D03*
X37260000Y-110060000D03*
D17*
X101933000Y-83098000D03*
X102683000Y-88098000D03*
X95933000Y-88098000D03*
X97433000Y-88098000D03*
X100433000Y-83098000D03*
X101933000Y-88098000D03*
X101183000Y-88098000D03*
X95933000Y-83098000D03*
X95183000Y-83098000D03*
X95183000Y-88098000D03*
X96683000Y-83098000D03*
X101933000Y-83098000D03*
X99683000Y-88098000D03*
X97433000Y-83098000D03*
X96683000Y-88098000D03*
X98183000Y-83098000D03*
X98183000Y-88098000D03*
X101933000Y-88098000D03*
X99683000Y-83098000D03*
X100433000Y-88098000D03*
X101183000Y-83098000D03*
X98933000Y-83098000D03*
X98933000Y-88098000D03*
X102683000Y-83098000D03*
D24*
X77470000Y-89535000D03*
X77470000Y-92075000D03*
X74930000Y-89535000D03*
X74930000Y-92075000D03*
X72390000Y-89535000D03*
X72390000Y-92075000D03*
D28*
X79116000Y-42909000D03*
D29*
X81616000Y-42909000D03*
X84116000Y-42909000D03*
X86616000Y-42909000D03*
D30*
X77896000Y-62444000D03*
D31*
X77896000Y-59944000D03*
X77896000Y-57444000D03*
D18*
X104775000Y-89803792D03*
D19*
X104775000Y-93603792D03*
D32*
X92385000Y-116959250D03*
D33*
X93660000Y-114859250D03*
D32*
X99385000Y-116959250D03*
D33*
X98110000Y-114859250D03*
D18*
X103875000Y-115702500D03*
D19*
X103875000Y-118202500D03*
D34*
X85406000Y-58039000D03*
D35*
X87906000Y-58039000D03*
D18*
X82920000Y-115702500D03*
D19*
X82920000Y-118202500D03*
D36*
X70911000Y-45319000D03*
D37*
X70911000Y-42819000D03*
D18*
X84771000Y-70104000D03*
D19*
X87271000Y-70104000D03*
D20*
X75881000Y-75184000D03*
D21*
X79691000Y-75184000D03*
X83501000Y-75184000D03*
X87311000Y-75184000D03*
X91121000Y-75184000D03*
D15*
X91181000Y-70995250D03*
D16*
X91181000Y-68455250D03*
X93721000Y-70995250D03*
X93721000Y-68455250D03*
X96261000Y-70995250D03*
X96261000Y-68455250D03*
X98801000Y-70995250D03*
X98801000Y-68455250D03*
X101341000Y-70995250D03*
X101341000Y-68455250D03*
X103881000Y-70995250D03*
X103881000Y-68455250D03*
X106421000Y-70995250D03*
X106421000Y-68455250D03*
X108961000Y-70995250D03*
X108961000Y-68455250D03*
X111501000Y-70995250D03*
X111501000Y-68455250D03*
D15*
X33020000Y-38100000D03*
D16*
X35560000Y-38100000D03*
X33020000Y-40640000D03*
X35560000Y-40640000D03*
X33020000Y-43180000D03*
X35560000Y-43180000D03*
X33020000Y-45720000D03*
X35560000Y-45720000D03*
X33020000Y-48260000D03*
X35560000Y-48260000D03*
X33020000Y-50800000D03*
X35560000Y-50800000D03*
X33020000Y-53340000D03*
X35560000Y-53340000D03*
X33020000Y-55880000D03*
X35560000Y-55880000D03*
X33020000Y-58420000D03*
X35560000Y-58420000D03*
D17*
X91400000Y-110375000D03*
X86400000Y-111125000D03*
X91400000Y-114125000D03*
X91400000Y-113375000D03*
X91400000Y-107375000D03*
X91400000Y-112625000D03*
X91400000Y-111875000D03*
X91400000Y-111125000D03*
X86400000Y-111875000D03*
X86400000Y-114875000D03*
X91400000Y-114125000D03*
X86400000Y-112625000D03*
X91400000Y-108875000D03*
X86400000Y-114125000D03*
X86400000Y-114125000D03*
X86400000Y-113375000D03*
X91400000Y-108125000D03*
X86400000Y-110375000D03*
X91400000Y-114875000D03*
X86400000Y-109625000D03*
X86400000Y-107375000D03*
X86400000Y-108125000D03*
X91400000Y-109625000D03*
X86400000Y-108875000D03*
D32*
X71430000Y-116959250D03*
D33*
X72705000Y-114859250D03*
D32*
X78430000Y-116959250D03*
D33*
X77155000Y-114859250D03*
D30*
X70911000Y-70064000D03*
D31*
X70911000Y-67564000D03*
X70911000Y-65064000D03*
D17*
X75855000Y-88098000D03*
X79605000Y-83098000D03*
X78855000Y-88098000D03*
X80355000Y-88098000D03*
X81105000Y-88098000D03*
X81855000Y-83098000D03*
X75855000Y-83098000D03*
X81105000Y-83098000D03*
X80355000Y-83098000D03*
X75105000Y-88098000D03*
X78855000Y-83098000D03*
X77355000Y-88098000D03*
X76605000Y-88098000D03*
X75105000Y-83098000D03*
X81105000Y-83098000D03*
X77355000Y-83098000D03*
X74355000Y-88098000D03*
X74355000Y-83098000D03*
X78105000Y-88098000D03*
X79605000Y-88098000D03*
X78105000Y-83098000D03*
X81105000Y-88098000D03*
X81855000Y-88098000D03*
X76605000Y-83098000D03*
D36*
X70911000Y-53574000D03*
D37*
X70911000Y-51074000D03*
D17*
X65575000Y-60325000D03*
X65575000Y-59525000D03*
X67775000Y-59525000D03*
X67775000Y-61125000D03*
X67775000Y-60325000D03*
X65575000Y-61125000D03*
X65575000Y-51054000D03*
X65575000Y-50254000D03*
X67775000Y-50254000D03*
X67775000Y-51854000D03*
X67775000Y-51054000D03*
X65575000Y-51854000D03*
D38*
X108901000Y-76454000D03*
X108901000Y-78994000D03*
X106361000Y-76454000D03*
X106361000Y-78994000D03*
X103821000Y-76454000D03*
X103821000Y-78994000D03*
D39*
X99691000Y-49784000D03*
X97791000Y-49784000D03*
X109851000Y-61214000D03*
X107951000Y-61214000D03*
D38*
X45720000Y-97790000D03*
X45720000Y-100330000D03*
X48260000Y-97790000D03*
X48260000Y-100330000D03*
X50800000Y-97790000D03*
X50800000Y-100330000D03*
D40*
X110503500Y-57035250D03*
X112378500Y-57035250D03*
D41*
X102258500Y-97459800D03*
X100433500Y-97459800D03*
D42*
X110491000Y-52324000D03*
X112391000Y-52324000D03*
D43*
X39390000Y-39050000D03*
X39390000Y-37150000D03*
D44*
X47180000Y-51090000D03*
X39180000Y-51090000D03*
X47180000Y-55590000D03*
X39180000Y-55590000D03*
D45*
X75881000Y-78146500D03*
X75881000Y-79971500D03*
D46*
X69341000Y-61214000D03*
X71166000Y-61214000D03*
D44*
X57340000Y-55590000D03*
X49340000Y-55590000D03*
X57340000Y-51090000D03*
X49340000Y-51090000D03*
D45*
X45720000Y-39727500D03*
X45720000Y-41552500D03*
D39*
X49210000Y-53340000D03*
X47310000Y-53340000D03*
D42*
X110491000Y-47244000D03*
X112391000Y-47244000D03*
D47*
X98740000Y-97620000D03*
X96840000Y-97620000D03*
X97790000Y-95420000D03*
D46*
X79478500Y-95554800D03*
X81303500Y-95554800D03*
X110528500Y-54864000D03*
X112353500Y-54864000D03*
D48*
X84919760Y-116169638D03*
X84919760Y-118069638D03*
X39390000Y-42230000D03*
X39390000Y-44130000D03*
D49*
X85036000Y-48191500D03*
X85686000Y-48191500D03*
X86336000Y-48191500D03*
X86986000Y-48191500D03*
X87636000Y-48191500D03*
X88286000Y-48191500D03*
X88936000Y-48191500D03*
X89586000Y-48191500D03*
X89586000Y-53916500D03*
X88936000Y-53916500D03*
X88286000Y-53916500D03*
X87636000Y-53916500D03*
X86986000Y-53916500D03*
X86336000Y-53916500D03*
X85686000Y-53916500D03*
X85036000Y-53916500D03*
D48*
X91121000Y-51374000D03*
X91121000Y-53274000D03*
X106006000Y-116242500D03*
X106006000Y-118142500D03*
D45*
X83501000Y-78146500D03*
X83501000Y-79971500D03*
D43*
X42555000Y-39050000D03*
X42555000Y-37150000D03*
D41*
X81303500Y-97459800D03*
X79478500Y-97459800D03*
D50*
X48260000Y-39702500D03*
X48260000Y-41577500D03*
X79691000Y-78056500D03*
X79691000Y-79931500D03*
D44*
X99821000Y-52034000D03*
X107821000Y-52034000D03*
X99821000Y-47534000D03*
X107821000Y-47534000D03*
D47*
X105770000Y-97620000D03*
X103870000Y-97620000D03*
X104820000Y-95420000D03*
D46*
X100433500Y-95554800D03*
X102258500Y-95554800D03*
D44*
X107821000Y-63234000D03*
X99821000Y-63234000D03*
X99821000Y-58734000D03*
X107821000Y-58734000D03*
D45*
X91121000Y-47941500D03*
X91121000Y-49766500D03*
D41*
X109813500Y-49784000D03*
X107988500Y-49784000D03*
D48*
X80879760Y-116169637D03*
X80879760Y-118069637D03*
D50*
X87311000Y-78121500D03*
X87311000Y-79996500D03*
D43*
X83501000Y-53274000D03*
X83501000Y-51374000D03*
D47*
X84815000Y-97620000D03*
X82915000Y-97620000D03*
X83865000Y-95420000D03*
D46*
X72786000Y-61214000D03*
X74611000Y-61214000D03*
D47*
X77785000Y-97620000D03*
X75885000Y-97620000D03*
X76835000Y-95420000D03*
D45*
X42555000Y-42267500D03*
X42555000Y-44092500D03*
D48*
X101834760Y-116169637D03*
X101834760Y-118069637D03*
M02*
