G04 #@! TF.GenerationSoftware,KiCad,Pcbnew,6.0.11+dfsg-1*
G04 #@! TF.CreationDate,2024-10-22T12:29:11+02:00*
G04 #@! TF.ProjectId,kaarten_shieter,6b616172-7465-46e5-9f73-686965746572,rev?*
G04 #@! TF.SameCoordinates,Original*
G04 #@! TF.FileFunction,Paste,Bot*
G04 #@! TF.FilePolarity,Positive*
%FSLAX46Y46*%
G04 Gerber Fmt 4.6, Leading zero omitted, Abs format (unit mm)*
G04 Created by KiCad (PCBNEW 6.0.11+dfsg-1) date 2024-10-22 12:29:11*
%MOMM*%
%LPD*%
G01*
G04 APERTURE LIST*
G04 Aperture macros list*
%AMRoundRect*
0 Rectangle with rounded corners*
0 $1 Rounding radius*
0 $2 $3 $4 $5 $6 $7 $8 $9 X,Y pos of 4 corners*
0 Add a 4 corners polygon primitive as box body*
4,1,4,$2,$3,$4,$5,$6,$7,$8,$9,$2,$3,0*
0 Add four circle primitives for the rounded corners*
1,1,$1+$1,$2,$3*
1,1,$1+$1,$4,$5*
1,1,$1+$1,$6,$7*
1,1,$1+$1,$8,$9*
0 Add four rect primitives between the rounded corners*
20,1,$1+$1,$2,$3,$4,$5,0*
20,1,$1+$1,$4,$5,$6,$7,0*
20,1,$1+$1,$6,$7,$8,$9,0*
20,1,$1+$1,$8,$9,$2,$3,0*%
G04 Aperture macros list end*
%ADD10RoundRect,0.250000X0.250000X0.475000X-0.250000X0.475000X-0.250000X-0.475000X0.250000X-0.475000X0*%
%ADD11RoundRect,0.243750X-0.243750X-0.456250X0.243750X-0.456250X0.243750X0.456250X-0.243750X0.456250X0*%
%ADD12RoundRect,0.250000X0.262500X0.450000X-0.262500X0.450000X-0.262500X-0.450000X0.262500X-0.450000X0*%
%ADD13RoundRect,0.250000X-0.250000X-0.475000X0.250000X-0.475000X0.250000X0.475000X-0.250000X0.475000X0*%
%ADD14RoundRect,0.250000X0.475000X-0.250000X0.475000X0.250000X-0.475000X0.250000X-0.475000X-0.250000X0*%
%ADD15R,1.600000X1.400000*%
%ADD16RoundRect,0.250000X-0.450000X0.262500X-0.450000X-0.262500X0.450000X-0.262500X0.450000X0.262500X0*%
%ADD17RoundRect,0.250000X-0.262500X-0.450000X0.262500X-0.450000X0.262500X0.450000X-0.262500X0.450000X0*%
%ADD18R,0.600000X1.050000*%
%ADD19RoundRect,0.250000X-0.475000X0.250000X-0.475000X-0.250000X0.475000X-0.250000X0.475000X0.250000X0*%
%ADD20RoundRect,0.100000X-0.100000X0.637500X-0.100000X-0.637500X0.100000X-0.637500X0.100000X0.637500X0*%
%ADD21RoundRect,0.243750X-0.456250X0.243750X-0.456250X-0.243750X0.456250X-0.243750X0.456250X0.243750X0*%
G04 APERTURE END LIST*
D10*
X99691000Y-49784000D03*
X97791000Y-49784000D03*
X109851000Y-61214000D03*
X107951000Y-61214000D03*
D11*
X110503500Y-57035250D03*
X112378500Y-57035250D03*
D12*
X102258500Y-97459800D03*
X100433500Y-97459800D03*
D13*
X110491000Y-52324000D03*
X112391000Y-52324000D03*
D14*
X39390000Y-39050000D03*
X39390000Y-37150000D03*
D15*
X47180000Y-51090000D03*
X39180000Y-51090000D03*
X47180000Y-55590000D03*
X39180000Y-55590000D03*
D16*
X75881000Y-78146500D03*
X75881000Y-79971500D03*
D17*
X69341000Y-61214000D03*
X71166000Y-61214000D03*
D15*
X57340000Y-55590000D03*
X49340000Y-55590000D03*
X57340000Y-51090000D03*
X49340000Y-51090000D03*
D16*
X45720000Y-39727500D03*
X45720000Y-41552500D03*
D10*
X49210000Y-53340000D03*
X47310000Y-53340000D03*
D13*
X110491000Y-47244000D03*
X112391000Y-47244000D03*
D18*
X98740000Y-97620000D03*
X96840000Y-97620000D03*
X97790000Y-95420000D03*
D17*
X79478500Y-95554800D03*
X81303500Y-95554800D03*
X110528500Y-54864000D03*
X112353500Y-54864000D03*
D19*
X84919760Y-116169638D03*
X84919760Y-118069638D03*
X39390000Y-42230000D03*
X39390000Y-44130000D03*
D20*
X85036000Y-48191500D03*
X85686000Y-48191500D03*
X86336000Y-48191500D03*
X86986000Y-48191500D03*
X87636000Y-48191500D03*
X88286000Y-48191500D03*
X88936000Y-48191500D03*
X89586000Y-48191500D03*
X89586000Y-53916500D03*
X88936000Y-53916500D03*
X88286000Y-53916500D03*
X87636000Y-53916500D03*
X86986000Y-53916500D03*
X86336000Y-53916500D03*
X85686000Y-53916500D03*
X85036000Y-53916500D03*
D19*
X91121000Y-51374000D03*
X91121000Y-53274000D03*
X106006000Y-116242500D03*
X106006000Y-118142500D03*
D16*
X83501000Y-78146500D03*
X83501000Y-79971500D03*
D14*
X42555000Y-39050000D03*
X42555000Y-37150000D03*
D12*
X81303500Y-97459800D03*
X79478500Y-97459800D03*
D21*
X48260000Y-39702500D03*
X48260000Y-41577500D03*
X79691000Y-78056500D03*
X79691000Y-79931500D03*
D15*
X99821000Y-52034000D03*
X107821000Y-52034000D03*
X99821000Y-47534000D03*
X107821000Y-47534000D03*
D18*
X105770000Y-97620000D03*
X103870000Y-97620000D03*
X104820000Y-95420000D03*
D17*
X100433500Y-95554800D03*
X102258500Y-95554800D03*
D15*
X107821000Y-63234000D03*
X99821000Y-63234000D03*
X99821000Y-58734000D03*
X107821000Y-58734000D03*
D16*
X91121000Y-47941500D03*
X91121000Y-49766500D03*
D12*
X109813500Y-49784000D03*
X107988500Y-49784000D03*
D19*
X80879760Y-116169637D03*
X80879760Y-118069637D03*
D21*
X87311000Y-78121500D03*
X87311000Y-79996500D03*
D14*
X83501000Y-53274000D03*
X83501000Y-51374000D03*
D18*
X84815000Y-97620000D03*
X82915000Y-97620000D03*
X83865000Y-95420000D03*
D17*
X72786000Y-61214000D03*
X74611000Y-61214000D03*
D18*
X77785000Y-97620000D03*
X75885000Y-97620000D03*
X76835000Y-95420000D03*
D16*
X42555000Y-42267500D03*
X42555000Y-44092500D03*
D19*
X101834760Y-116169637D03*
X101834760Y-118069637D03*
M02*
