G04 #@! TF.GenerationSoftware,KiCad,Pcbnew,6.0.11+dfsg-1*
G04 #@! TF.CreationDate,2024-10-22T12:26:55+02:00*
G04 #@! TF.ProjectId,kaarten_shieter,6b616172-7465-46e5-9f73-686965746572,rev?*
G04 #@! TF.SameCoordinates,Original*
G04 #@! TF.FileFunction,Legend,Top*
G04 #@! TF.FilePolarity,Positive*
%FSLAX46Y46*%
G04 Gerber Fmt 4.6, Leading zero omitted, Abs format (unit mm)*
G04 Created by KiCad (PCBNEW 6.0.11+dfsg-1) date 2024-10-22 12:26:55*
%MOMM*%
%LPD*%
G01*
G04 APERTURE LIST*
G04 Aperture macros list*
%AMRoundRect*
0 Rectangle with rounded corners*
0 $1 Rounding radius*
0 $2 $3 $4 $5 $6 $7 $8 $9 X,Y pos of 4 corners*
0 Add a 4 corners polygon primitive as box body*
4,1,4,$2,$3,$4,$5,$6,$7,$8,$9,$2,$3,0*
0 Add four circle primitives for the rounded corners*
1,1,$1+$1,$2,$3*
1,1,$1+$1,$4,$5*
1,1,$1+$1,$6,$7*
1,1,$1+$1,$8,$9*
0 Add four rect primitives between the rounded corners*
20,1,$1+$1,$2,$3,$4,$5,0*
20,1,$1+$1,$4,$5,$6,$7,0*
20,1,$1+$1,$6,$7,$8,$9,0*
20,1,$1+$1,$8,$9,$2,$3,0*%
%AMFreePoly0*
4,1,6,1.000000,0.000000,0.500000,-0.750000,-0.500000,-0.750000,-0.500000,0.750000,0.500000,0.750000,1.000000,0.000000,1.000000,0.000000,$1*%
G04 Aperture macros list end*
%ADD10C,0.150000*%
%ADD11C,0.120000*%
%ADD12C,0.100000*%
%ADD13C,0.127000*%
%ADD14C,0.200000*%
%ADD15C,0.010000*%
%ADD16R,1.700000X1.700000*%
%ADD17O,1.700000X1.700000*%
%ADD18C,0.500000*%
%ADD19R,1.600000X1.600000*%
%ADD20C,1.600000*%
%ADD21R,0.900000X1.500000*%
%ADD22R,1.500000X0.900000*%
%ADD23C,0.475000*%
%ADD24R,4.200000X4.200000*%
%ADD25RoundRect,0.250000X0.450000X-0.262500X0.450000X0.262500X-0.450000X0.262500X-0.450000X-0.262500X0*%
%ADD26RoundRect,0.250000X-0.650000X-1.550000X0.650000X-1.550000X0.650000X1.550000X-0.650000X1.550000X0*%
%ADD27O,1.800000X3.600000*%
%ADD28C,1.982000*%
%ADD29C,2.490000*%
%ADD30C,1.734000*%
%ADD31RoundRect,0.243750X-0.456250X0.243750X-0.456250X-0.243750X0.456250X-0.243750X0.456250X0.243750X0*%
%ADD32RoundRect,0.102000X-0.754000X-0.754000X0.754000X-0.754000X0.754000X0.754000X-0.754000X0.754000X0*%
%ADD33C,1.712000*%
%ADD34C,3.204000*%
%ADD35RoundRect,0.250000X-0.600000X-0.725000X0.600000X-0.725000X0.600000X0.725000X-0.600000X0.725000X0*%
%ADD36O,1.700000X1.950000*%
%ADD37R,0.450000X1.750000*%
%ADD38RoundRect,0.250000X0.725000X-0.600000X0.725000X0.600000X-0.725000X0.600000X-0.725000X-0.600000X0*%
%ADD39O,1.950000X1.700000*%
%ADD40RoundRect,0.100000X-0.637500X-0.100000X0.637500X-0.100000X0.637500X0.100000X-0.637500X0.100000X0*%
%ADD41RoundRect,0.250000X-0.262500X-0.450000X0.262500X-0.450000X0.262500X0.450000X-0.262500X0.450000X0*%
%ADD42RoundRect,0.102000X0.200000X-0.600000X0.200000X0.600000X-0.200000X0.600000X-0.200000X-0.600000X0*%
%ADD43O,1.404000X2.604000*%
%ADD44O,1.254000X2.304000*%
%ADD45RoundRect,0.102000X1.500000X-0.450000X1.500000X0.450000X-1.500000X0.450000X-1.500000X-0.450000X0*%
%ADD46RoundRect,0.250000X-0.450000X0.262500X-0.450000X-0.262500X0.450000X-0.262500X0.450000X0.262500X0*%
%ADD47RoundRect,0.250000X0.475000X-0.250000X0.475000X0.250000X-0.475000X0.250000X-0.475000X-0.250000X0*%
%ADD48RoundRect,0.250000X-0.250000X-0.475000X0.250000X-0.475000X0.250000X0.475000X-0.250000X0.475000X0*%
%ADD49RoundRect,0.250000X-0.600000X-0.750000X0.600000X-0.750000X0.600000X0.750000X-0.600000X0.750000X0*%
%ADD50O,1.700000X2.000000*%
%ADD51RoundRect,0.150000X-0.587500X-0.150000X0.587500X-0.150000X0.587500X0.150000X-0.587500X0.150000X0*%
%ADD52RoundRect,0.250000X0.750000X-0.600000X0.750000X0.600000X-0.750000X0.600000X-0.750000X-0.600000X0*%
%ADD53O,2.000000X1.700000*%
%ADD54R,1.500000X1.500000*%
%ADD55FreePoly0,270.000000*%
%ADD56FreePoly0,90.000000*%
%ADD57RoundRect,0.250000X-0.475000X0.250000X-0.475000X-0.250000X0.475000X-0.250000X0.475000X0.250000X0*%
%ADD58C,1.854000*%
G04 APERTURE END LIST*
D10*
X98219571Y-42507630D02*
X98219571Y-43221916D01*
X98171952Y-43364773D01*
X98076714Y-43460011D01*
X97933857Y-43507630D01*
X97838619Y-43507630D01*
X98457666Y-43602869D02*
X99219571Y-43602869D01*
X99457666Y-43507630D02*
X99457666Y-42507630D01*
X99838619Y-42507630D01*
X99933857Y-42555250D01*
X99981476Y-42602869D01*
X100029095Y-42698107D01*
X100029095Y-42840964D01*
X99981476Y-42936202D01*
X99933857Y-42983821D01*
X99838619Y-43031440D01*
X99457666Y-43031440D01*
X100457666Y-43507630D02*
X100457666Y-42507630D01*
X100457666Y-42983821D02*
X101029095Y-42983821D01*
X101029095Y-43507630D02*
X101029095Y-42507630D01*
X102029095Y-43507630D02*
X101457666Y-43507630D01*
X101743380Y-43507630D02*
X101743380Y-42507630D01*
X101648142Y-42650488D01*
X101552904Y-42745726D01*
X101457666Y-42793345D01*
X102600523Y-42936202D02*
X102505285Y-42888583D01*
X102457666Y-42840964D01*
X102410047Y-42745726D01*
X102410047Y-42698107D01*
X102457666Y-42602869D01*
X102505285Y-42555250D01*
X102600523Y-42507630D01*
X102791000Y-42507630D01*
X102886238Y-42555250D01*
X102933857Y-42602869D01*
X102981476Y-42698107D01*
X102981476Y-42745726D01*
X102933857Y-42840964D01*
X102886238Y-42888583D01*
X102791000Y-42936202D01*
X102600523Y-42936202D01*
X102505285Y-42983821D01*
X102457666Y-43031440D01*
X102410047Y-43126678D01*
X102410047Y-43317154D01*
X102457666Y-43412392D01*
X102505285Y-43460011D01*
X102600523Y-43507630D01*
X102791000Y-43507630D01*
X102886238Y-43460011D01*
X102933857Y-43412392D01*
X102981476Y-43317154D01*
X102981476Y-43126678D01*
X102933857Y-43031440D01*
X102886238Y-42983821D01*
X102791000Y-42936202D01*
X103171952Y-43602869D02*
X103933857Y-43602869D01*
X104695761Y-43507630D02*
X104124333Y-43507630D01*
X104410047Y-43507630D02*
X104410047Y-42507630D01*
X104314809Y-42650488D01*
X104219571Y-42745726D01*
X104124333Y-42793345D01*
X82272142Y-90738141D02*
X82319761Y-90785760D01*
X82367380Y-90928617D01*
X82367380Y-91023855D01*
X82319761Y-91166713D01*
X82224523Y-91261951D01*
X82129285Y-91309570D01*
X81938809Y-91357189D01*
X81795952Y-91357189D01*
X81605476Y-91309570D01*
X81510238Y-91261951D01*
X81415000Y-91166713D01*
X81367380Y-91023855D01*
X81367380Y-90928617D01*
X81415000Y-90785760D01*
X81462619Y-90738141D01*
X81843571Y-90309570D02*
X81843571Y-89976236D01*
X82367380Y-89833379D02*
X82367380Y-90309570D01*
X81367380Y-90309570D01*
X81367380Y-89833379D01*
X81367380Y-88928617D02*
X81367380Y-89404808D01*
X81843571Y-89452427D01*
X81795952Y-89404808D01*
X81748333Y-89309570D01*
X81748333Y-89071474D01*
X81795952Y-88976236D01*
X81843571Y-88928617D01*
X81938809Y-88880998D01*
X82176904Y-88880998D01*
X82272142Y-88928617D01*
X82319761Y-88976236D01*
X82367380Y-89071474D01*
X82367380Y-89309570D01*
X82319761Y-89404808D01*
X82272142Y-89452427D01*
X107697380Y-56689154D02*
X108506904Y-56689154D01*
X108602142Y-56641535D01*
X108649761Y-56593916D01*
X108697380Y-56498678D01*
X108697380Y-56308202D01*
X108649761Y-56212964D01*
X108602142Y-56165345D01*
X108506904Y-56117726D01*
X107697380Y-56117726D01*
X107792619Y-55689154D02*
X107745000Y-55641535D01*
X107697380Y-55546297D01*
X107697380Y-55308202D01*
X107745000Y-55212964D01*
X107792619Y-55165345D01*
X107887857Y-55117726D01*
X107983095Y-55117726D01*
X108125952Y-55165345D01*
X108697380Y-55736773D01*
X108697380Y-55117726D01*
X82518573Y-109037380D02*
X82185240Y-108561190D01*
X81947144Y-109037380D02*
X81947144Y-108037380D01*
X82328097Y-108037380D01*
X82423335Y-108085000D01*
X82470954Y-108132619D01*
X82518573Y-108227857D01*
X82518573Y-108370714D01*
X82470954Y-108465952D01*
X82423335Y-108513571D01*
X82328097Y-108561190D01*
X81947144Y-108561190D01*
X82851906Y-108037380D02*
X83518573Y-108037380D01*
X83090001Y-109037380D01*
X59158571Y-60412380D02*
X59158571Y-61126666D01*
X59110952Y-61269523D01*
X59015714Y-61364761D01*
X58872857Y-61412380D01*
X58777619Y-61412380D01*
X59396666Y-61507619D02*
X60158571Y-61507619D01*
X60396666Y-61412380D02*
X60396666Y-60412380D01*
X60777619Y-60412380D01*
X60872857Y-60460000D01*
X60920476Y-60507619D01*
X60968095Y-60602857D01*
X60968095Y-60745714D01*
X60920476Y-60840952D01*
X60872857Y-60888571D01*
X60777619Y-60936190D01*
X60396666Y-60936190D01*
X61396666Y-61412380D02*
X61396666Y-60412380D01*
X61396666Y-60888571D02*
X61968095Y-60888571D01*
X61968095Y-61412380D02*
X61968095Y-60412380D01*
X62968095Y-61412380D02*
X62396666Y-61412380D01*
X62682380Y-61412380D02*
X62682380Y-60412380D01*
X62587142Y-60555238D01*
X62491904Y-60650476D01*
X62396666Y-60698095D01*
X63539523Y-60840952D02*
X63444285Y-60793333D01*
X63396666Y-60745714D01*
X63349047Y-60650476D01*
X63349047Y-60602857D01*
X63396666Y-60507619D01*
X63444285Y-60460000D01*
X63539523Y-60412380D01*
X63730000Y-60412380D01*
X63825238Y-60460000D01*
X63872857Y-60507619D01*
X63920476Y-60602857D01*
X63920476Y-60650476D01*
X63872857Y-60745714D01*
X63825238Y-60793333D01*
X63730000Y-60840952D01*
X63539523Y-60840952D01*
X63444285Y-60888571D01*
X63396666Y-60936190D01*
X63349047Y-61031428D01*
X63349047Y-61221904D01*
X63396666Y-61317142D01*
X63444285Y-61364761D01*
X63539523Y-61412380D01*
X63730000Y-61412380D01*
X63825238Y-61364761D01*
X63872857Y-61317142D01*
X63920476Y-61221904D01*
X63920476Y-61031428D01*
X63872857Y-60936190D01*
X63825238Y-60888571D01*
X63730000Y-60840952D01*
X64110952Y-61507619D02*
X64872857Y-61507619D01*
X65539523Y-60745714D02*
X65539523Y-61412380D01*
X65301428Y-60364761D02*
X65063333Y-61079047D01*
X65682380Y-61079047D01*
X46362619Y-118159880D02*
X46362619Y-118874166D01*
X46315000Y-119017023D01*
X46219761Y-119112261D01*
X46076904Y-119159880D01*
X45981666Y-119159880D01*
X46600714Y-119255119D02*
X47362619Y-119255119D01*
X47553095Y-119112261D02*
X47695952Y-119159880D01*
X47934047Y-119159880D01*
X48029285Y-119112261D01*
X48076904Y-119064642D01*
X48124523Y-118969404D01*
X48124523Y-118874166D01*
X48076904Y-118778928D01*
X48029285Y-118731309D01*
X47934047Y-118683690D01*
X47743571Y-118636071D01*
X47648333Y-118588452D01*
X47600714Y-118540833D01*
X47553095Y-118445595D01*
X47553095Y-118350357D01*
X47600714Y-118255119D01*
X47648333Y-118207500D01*
X47743571Y-118159880D01*
X47981666Y-118159880D01*
X48124523Y-118207500D01*
X48410238Y-118159880D02*
X48981666Y-118159880D01*
X48695952Y-119159880D02*
X48695952Y-118159880D01*
X49076904Y-119255119D02*
X49838809Y-119255119D01*
X50029285Y-118255119D02*
X50076904Y-118207500D01*
X50172142Y-118159880D01*
X50410238Y-118159880D01*
X50505476Y-118207500D01*
X50553095Y-118255119D01*
X50600714Y-118350357D01*
X50600714Y-118445595D01*
X50553095Y-118588452D01*
X49981666Y-119159880D01*
X50600714Y-119159880D01*
X47498095Y-70590752D02*
X47498095Y-71400276D01*
X47545714Y-71495514D01*
X47593333Y-71543133D01*
X47688571Y-71590752D01*
X47879047Y-71590752D01*
X47974285Y-71543133D01*
X48021904Y-71495514D01*
X48069523Y-71400276D01*
X48069523Y-70590752D01*
X48974285Y-70924086D02*
X48974285Y-71590752D01*
X48736190Y-70543133D02*
X48498095Y-71257419D01*
X49117142Y-71257419D01*
X94391666Y-90454523D02*
X94391666Y-90911666D01*
X94361190Y-91003095D01*
X94300238Y-91064047D01*
X94208809Y-91094523D01*
X94147857Y-91094523D01*
X94544047Y-91155476D02*
X95031666Y-91155476D01*
X95366904Y-90454523D02*
X95366904Y-90911666D01*
X95336428Y-91003095D01*
X95275476Y-91064047D01*
X95184047Y-91094523D01*
X95123095Y-91094523D01*
X95641190Y-91064047D02*
X95732619Y-91094523D01*
X95885000Y-91094523D01*
X95945952Y-91064047D01*
X95976428Y-91033571D01*
X96006904Y-90972619D01*
X96006904Y-90911666D01*
X95976428Y-90850714D01*
X95945952Y-90820238D01*
X95885000Y-90789761D01*
X95763095Y-90759285D01*
X95702142Y-90728809D01*
X95671666Y-90698333D01*
X95641190Y-90637380D01*
X95641190Y-90576428D01*
X95671666Y-90515476D01*
X95702142Y-90485000D01*
X95763095Y-90454523D01*
X95915476Y-90454523D01*
X96006904Y-90485000D01*
X96189761Y-90454523D02*
X96555476Y-90454523D01*
X96372619Y-91094523D02*
X96372619Y-90454523D01*
X96616428Y-91155476D02*
X97104047Y-91155476D01*
X97225952Y-90515476D02*
X97256428Y-90485000D01*
X97317380Y-90454523D01*
X97469761Y-90454523D01*
X97530714Y-90485000D01*
X97561190Y-90515476D01*
X97591666Y-90576428D01*
X97591666Y-90637380D01*
X97561190Y-90728809D01*
X97195476Y-91094523D01*
X97591666Y-91094523D01*
X81947144Y-105227380D02*
X81947144Y-104227380D01*
X82185240Y-104227380D01*
X82328097Y-104275000D01*
X82423335Y-104370238D01*
X82470954Y-104465476D01*
X82518573Y-104655952D01*
X82518573Y-104798809D01*
X82470954Y-104989285D01*
X82423335Y-105084523D01*
X82328097Y-105179761D01*
X82185240Y-105227380D01*
X81947144Y-105227380D01*
X83423335Y-104227380D02*
X82947144Y-104227380D01*
X82899525Y-104703571D01*
X82947144Y-104655952D01*
X83042382Y-104608333D01*
X83280478Y-104608333D01*
X83375716Y-104655952D01*
X83423335Y-104703571D01*
X83470954Y-104798809D01*
X83470954Y-105036904D01*
X83423335Y-105132142D01*
X83375716Y-105179761D01*
X83280478Y-105227380D01*
X83042382Y-105227380D01*
X82947144Y-105179761D01*
X82899525Y-105132142D01*
X76571952Y-72252642D02*
X76524333Y-72300261D01*
X76381476Y-72347880D01*
X76286238Y-72347880D01*
X76143380Y-72300261D01*
X76048142Y-72205023D01*
X76000523Y-72109785D01*
X75952904Y-71919309D01*
X75952904Y-71776452D01*
X76000523Y-71585976D01*
X76048142Y-71490738D01*
X76143380Y-71395500D01*
X76286238Y-71347880D01*
X76381476Y-71347880D01*
X76524333Y-71395500D01*
X76571952Y-71443119D01*
X77000523Y-71824071D02*
X77333857Y-71824071D01*
X77476714Y-72347880D02*
X77000523Y-72347880D01*
X77000523Y-71347880D01*
X77476714Y-71347880D01*
X77857666Y-71443119D02*
X77905285Y-71395500D01*
X78000523Y-71347880D01*
X78238619Y-71347880D01*
X78333857Y-71395500D01*
X78381476Y-71443119D01*
X78429095Y-71538357D01*
X78429095Y-71633595D01*
X78381476Y-71776452D01*
X77810047Y-72347880D01*
X78429095Y-72347880D01*
X47498095Y-98512380D02*
X47498095Y-99321904D01*
X47545714Y-99417142D01*
X47593333Y-99464761D01*
X47688571Y-99512380D01*
X47879047Y-99512380D01*
X47974285Y-99464761D01*
X48021904Y-99417142D01*
X48069523Y-99321904D01*
X48069523Y-98512380D01*
X49069523Y-99512380D02*
X48498095Y-99512380D01*
X48783809Y-99512380D02*
X48783809Y-98512380D01*
X48688571Y-98655238D01*
X48593333Y-98750476D01*
X48498095Y-98798095D01*
X89208142Y-66746380D02*
X88874809Y-66270190D01*
X88636714Y-66746380D02*
X88636714Y-65746380D01*
X89017666Y-65746380D01*
X89112904Y-65794000D01*
X89160523Y-65841619D01*
X89208142Y-65936857D01*
X89208142Y-66079714D01*
X89160523Y-66174952D01*
X89112904Y-66222571D01*
X89017666Y-66270190D01*
X88636714Y-66270190D01*
X90160523Y-66746380D02*
X89589095Y-66746380D01*
X89874809Y-66746380D02*
X89874809Y-65746380D01*
X89779571Y-65889238D01*
X89684333Y-65984476D01*
X89589095Y-66032095D01*
X90636714Y-66746380D02*
X90827190Y-66746380D01*
X90922428Y-66698761D01*
X90970047Y-66651142D01*
X91065285Y-66508285D01*
X91112904Y-66317809D01*
X91112904Y-65936857D01*
X91065285Y-65841619D01*
X91017666Y-65794000D01*
X90922428Y-65746380D01*
X90731952Y-65746380D01*
X90636714Y-65794000D01*
X90589095Y-65841619D01*
X90541476Y-65936857D01*
X90541476Y-66174952D01*
X90589095Y-66270190D01*
X90636714Y-66317809D01*
X90731952Y-66365428D01*
X90922428Y-66365428D01*
X91017666Y-66317809D01*
X91065285Y-66270190D01*
X91112904Y-66174952D01*
X73436666Y-90454523D02*
X73436666Y-90911666D01*
X73406190Y-91003095D01*
X73345238Y-91064047D01*
X73253809Y-91094523D01*
X73192857Y-91094523D01*
X73589047Y-91155476D02*
X74076666Y-91155476D01*
X74411904Y-90454523D02*
X74411904Y-90911666D01*
X74381428Y-91003095D01*
X74320476Y-91064047D01*
X74229047Y-91094523D01*
X74168095Y-91094523D01*
X74686190Y-91064047D02*
X74777619Y-91094523D01*
X74930000Y-91094523D01*
X74990952Y-91064047D01*
X75021428Y-91033571D01*
X75051904Y-90972619D01*
X75051904Y-90911666D01*
X75021428Y-90850714D01*
X74990952Y-90820238D01*
X74930000Y-90789761D01*
X74808095Y-90759285D01*
X74747142Y-90728809D01*
X74716666Y-90698333D01*
X74686190Y-90637380D01*
X74686190Y-90576428D01*
X74716666Y-90515476D01*
X74747142Y-90485000D01*
X74808095Y-90454523D01*
X74960476Y-90454523D01*
X75051904Y-90485000D01*
X75234761Y-90454523D02*
X75600476Y-90454523D01*
X75417619Y-91094523D02*
X75417619Y-90454523D01*
X75661428Y-91155476D02*
X76149047Y-91155476D01*
X76270952Y-90515476D02*
X76301428Y-90485000D01*
X76362380Y-90454523D01*
X76514761Y-90454523D01*
X76575714Y-90485000D01*
X76606190Y-90515476D01*
X76636666Y-90576428D01*
X76636666Y-90637380D01*
X76606190Y-90728809D01*
X76240476Y-91094523D01*
X76636666Y-91094523D01*
X80056476Y-45111380D02*
X80056476Y-45825666D01*
X80008857Y-45968523D01*
X79913619Y-46063761D01*
X79770761Y-46111380D01*
X79675523Y-46111380D01*
X80294571Y-46206619D02*
X81056476Y-46206619D01*
X81580285Y-45111380D02*
X81580285Y-45825666D01*
X81532666Y-45968523D01*
X81437428Y-46063761D01*
X81294571Y-46111380D01*
X81199333Y-46111380D01*
X82008857Y-46063761D02*
X82151714Y-46111380D01*
X82389809Y-46111380D01*
X82485047Y-46063761D01*
X82532666Y-46016142D01*
X82580285Y-45920904D01*
X82580285Y-45825666D01*
X82532666Y-45730428D01*
X82485047Y-45682809D01*
X82389809Y-45635190D01*
X82199333Y-45587571D01*
X82104095Y-45539952D01*
X82056476Y-45492333D01*
X82008857Y-45397095D01*
X82008857Y-45301857D01*
X82056476Y-45206619D01*
X82104095Y-45159000D01*
X82199333Y-45111380D01*
X82437428Y-45111380D01*
X82580285Y-45159000D01*
X82866000Y-45111380D02*
X83437428Y-45111380D01*
X83151714Y-46111380D02*
X83151714Y-45111380D01*
X84199333Y-45444714D02*
X84199333Y-46111380D01*
X83961238Y-45063761D02*
X83723142Y-45778047D01*
X84342190Y-45778047D01*
X84485047Y-46206619D02*
X85246952Y-46206619D01*
X85389809Y-45111380D02*
X86008857Y-45111380D01*
X85675523Y-45492333D01*
X85818380Y-45492333D01*
X85913619Y-45539952D01*
X85961238Y-45587571D01*
X86008857Y-45682809D01*
X86008857Y-45920904D01*
X85961238Y-46016142D01*
X85913619Y-46063761D01*
X85818380Y-46111380D01*
X85532666Y-46111380D01*
X85437428Y-46063761D01*
X85389809Y-46016142D01*
X96607380Y-107441904D02*
X97416904Y-107441904D01*
X97512142Y-107394285D01*
X97559761Y-107346666D01*
X97607380Y-107251428D01*
X97607380Y-107060952D01*
X97559761Y-106965714D01*
X97512142Y-106918095D01*
X97416904Y-106870476D01*
X96607380Y-106870476D01*
X97035952Y-106251428D02*
X96988333Y-106346666D01*
X96940714Y-106394285D01*
X96845476Y-106441904D01*
X96797857Y-106441904D01*
X96702619Y-106394285D01*
X96655000Y-106346666D01*
X96607380Y-106251428D01*
X96607380Y-106060952D01*
X96655000Y-105965714D01*
X96702619Y-105918095D01*
X96797857Y-105870476D01*
X96845476Y-105870476D01*
X96940714Y-105918095D01*
X96988333Y-105965714D01*
X97035952Y-106060952D01*
X97035952Y-106251428D01*
X97083571Y-106346666D01*
X97131190Y-106394285D01*
X97226428Y-106441904D01*
X97416904Y-106441904D01*
X97512142Y-106394285D01*
X97559761Y-106346666D01*
X97607380Y-106251428D01*
X97607380Y-106060952D01*
X97559761Y-105965714D01*
X97512142Y-105918095D01*
X97416904Y-105870476D01*
X97226428Y-105870476D01*
X97131190Y-105918095D01*
X97083571Y-105965714D01*
X97035952Y-106060952D01*
X79143380Y-62753523D02*
X79857666Y-62753523D01*
X80000523Y-62801142D01*
X80095761Y-62896380D01*
X80143380Y-63039238D01*
X80143380Y-63134476D01*
X80238619Y-62515428D02*
X80238619Y-61753523D01*
X79143380Y-61229714D02*
X79857666Y-61229714D01*
X80000523Y-61277333D01*
X80095761Y-61372571D01*
X80143380Y-61515428D01*
X80143380Y-61610666D01*
X80095761Y-60801142D02*
X80143380Y-60658285D01*
X80143380Y-60420190D01*
X80095761Y-60324952D01*
X80048142Y-60277333D01*
X79952904Y-60229714D01*
X79857666Y-60229714D01*
X79762428Y-60277333D01*
X79714809Y-60324952D01*
X79667190Y-60420190D01*
X79619571Y-60610666D01*
X79571952Y-60705904D01*
X79524333Y-60753523D01*
X79429095Y-60801142D01*
X79333857Y-60801142D01*
X79238619Y-60753523D01*
X79191000Y-60705904D01*
X79143380Y-60610666D01*
X79143380Y-60372571D01*
X79191000Y-60229714D01*
X79143380Y-59944000D02*
X79143380Y-59372571D01*
X80143380Y-59658285D02*
X79143380Y-59658285D01*
X79143380Y-59134476D02*
X79143380Y-58515428D01*
X79524333Y-58848761D01*
X79524333Y-58705904D01*
X79571952Y-58610666D01*
X79619571Y-58563047D01*
X79714809Y-58515428D01*
X79952904Y-58515428D01*
X80048142Y-58563047D01*
X80095761Y-58610666D01*
X80143380Y-58705904D01*
X80143380Y-58991619D01*
X80095761Y-59086857D01*
X80048142Y-59134476D01*
X80238619Y-58324952D02*
X80238619Y-57563047D01*
X79238619Y-57372571D02*
X79191000Y-57324952D01*
X79143380Y-57229714D01*
X79143380Y-56991619D01*
X79191000Y-56896380D01*
X79238619Y-56848761D01*
X79333857Y-56801142D01*
X79429095Y-56801142D01*
X79571952Y-56848761D01*
X80143380Y-57420190D01*
X80143380Y-56801142D01*
X77978095Y-49236380D02*
X77978095Y-50045904D01*
X78025714Y-50141142D01*
X78073333Y-50188761D01*
X78168571Y-50236380D01*
X78359047Y-50236380D01*
X78454285Y-50188761D01*
X78501904Y-50141142D01*
X78549523Y-50045904D01*
X78549523Y-49236380D01*
X79454285Y-49236380D02*
X79263809Y-49236380D01*
X79168571Y-49284000D01*
X79120952Y-49331619D01*
X79025714Y-49474476D01*
X78978095Y-49664952D01*
X78978095Y-50045904D01*
X79025714Y-50141142D01*
X79073333Y-50188761D01*
X79168571Y-50236380D01*
X79359047Y-50236380D01*
X79454285Y-50188761D01*
X79501904Y-50141142D01*
X79549523Y-50045904D01*
X79549523Y-49807809D01*
X79501904Y-49712571D01*
X79454285Y-49664952D01*
X79359047Y-49617333D01*
X79168571Y-49617333D01*
X79073333Y-49664952D01*
X79025714Y-49712571D01*
X78978095Y-49807809D01*
X102902144Y-105227380D02*
X102902144Y-104227380D01*
X103140240Y-104227380D01*
X103283097Y-104275000D01*
X103378335Y-104370238D01*
X103425954Y-104465476D01*
X103473573Y-104655952D01*
X103473573Y-104798809D01*
X103425954Y-104989285D01*
X103378335Y-105084523D01*
X103283097Y-105179761D01*
X103140240Y-105227380D01*
X102902144Y-105227380D01*
X104378335Y-104227380D02*
X103902144Y-104227380D01*
X103854525Y-104703571D01*
X103902144Y-104655952D01*
X103997382Y-104608333D01*
X104235478Y-104608333D01*
X104330716Y-104655952D01*
X104378335Y-104703571D01*
X104425954Y-104798809D01*
X104425954Y-105036904D01*
X104378335Y-105132142D01*
X104330716Y-105179761D01*
X104235478Y-105227380D01*
X103997382Y-105227380D01*
X103902144Y-105179761D01*
X103854525Y-105132142D01*
X73055642Y-58111380D02*
X72722309Y-57635190D01*
X72484214Y-58111380D02*
X72484214Y-57111380D01*
X72865166Y-57111380D01*
X72960404Y-57159000D01*
X73008023Y-57206619D01*
X73055642Y-57301857D01*
X73055642Y-57444714D01*
X73008023Y-57539952D01*
X72960404Y-57587571D01*
X72865166Y-57635190D01*
X72484214Y-57635190D01*
X74008023Y-58111380D02*
X73436595Y-58111380D01*
X73722309Y-58111380D02*
X73722309Y-57111380D01*
X73627071Y-57254238D01*
X73531833Y-57349476D01*
X73436595Y-57397095D01*
X74865166Y-57111380D02*
X74674690Y-57111380D01*
X74579452Y-57159000D01*
X74531833Y-57206619D01*
X74436595Y-57349476D01*
X74388976Y-57539952D01*
X74388976Y-57920904D01*
X74436595Y-58016142D01*
X74484214Y-58063761D01*
X74579452Y-58111380D01*
X74769928Y-58111380D01*
X74865166Y-58063761D01*
X74912785Y-58016142D01*
X74960404Y-57920904D01*
X74960404Y-57682809D01*
X74912785Y-57587571D01*
X74865166Y-57539952D01*
X74769928Y-57492333D01*
X74579452Y-57492333D01*
X74484214Y-57539952D01*
X74436595Y-57587571D01*
X74388976Y-57682809D01*
X103227142Y-90858141D02*
X103274761Y-90905760D01*
X103322380Y-91048617D01*
X103322380Y-91143855D01*
X103274761Y-91286713D01*
X103179523Y-91381951D01*
X103084285Y-91429570D01*
X102893809Y-91477189D01*
X102750952Y-91477189D01*
X102560476Y-91429570D01*
X102465238Y-91381951D01*
X102370000Y-91286713D01*
X102322380Y-91143855D01*
X102322380Y-91048617D01*
X102370000Y-90905760D01*
X102417619Y-90858141D01*
X102798571Y-90429570D02*
X102798571Y-90096236D01*
X103322380Y-89953379D02*
X103322380Y-90429570D01*
X102322380Y-90429570D01*
X102322380Y-89953379D01*
X102322380Y-89048617D02*
X102322380Y-89524808D01*
X102798571Y-89572427D01*
X102750952Y-89524808D01*
X102703333Y-89429570D01*
X102703333Y-89191474D01*
X102750952Y-89096236D01*
X102798571Y-89048617D01*
X102893809Y-89000998D01*
X103131904Y-89000998D01*
X103227142Y-89048617D01*
X103274761Y-89096236D01*
X103322380Y-89191474D01*
X103322380Y-89429570D01*
X103274761Y-89524808D01*
X103227142Y-89572427D01*
X93670052Y-119461467D02*
X93670052Y-120175966D01*
X93622418Y-120318866D01*
X93527152Y-120414132D01*
X93384252Y-120461766D01*
X93288985Y-120461766D01*
X93908218Y-120557032D02*
X94670351Y-120557032D01*
X94908517Y-119461467D02*
X94908517Y-120271233D01*
X94956150Y-120366499D01*
X95003784Y-120414132D01*
X95099050Y-120461766D01*
X95289583Y-120461766D01*
X95384850Y-120414132D01*
X95432483Y-120366499D01*
X95480117Y-120271233D01*
X95480117Y-119461467D01*
X95908816Y-120414132D02*
X96051716Y-120461766D01*
X96289882Y-120461766D01*
X96385149Y-120414132D01*
X96432782Y-120366499D01*
X96480416Y-120271233D01*
X96480416Y-120175966D01*
X96432782Y-120080699D01*
X96385149Y-120033066D01*
X96289882Y-119985433D01*
X96099349Y-119937800D01*
X96004083Y-119890166D01*
X95956449Y-119842533D01*
X95908816Y-119747266D01*
X95908816Y-119652000D01*
X95956449Y-119556733D01*
X96004083Y-119509100D01*
X96099349Y-119461467D01*
X96337516Y-119461467D01*
X96480416Y-119509100D01*
X97242548Y-119937800D02*
X97385448Y-119985433D01*
X97433081Y-120033066D01*
X97480715Y-120128333D01*
X97480715Y-120271233D01*
X97433081Y-120366499D01*
X97385448Y-120414132D01*
X97290181Y-120461766D01*
X96909115Y-120461766D01*
X96909115Y-119461467D01*
X97242548Y-119461467D01*
X97337815Y-119509100D01*
X97385448Y-119556733D01*
X97433081Y-119652000D01*
X97433081Y-119747266D01*
X97385448Y-119842533D01*
X97337815Y-119890166D01*
X97242548Y-119937800D01*
X96909115Y-119937800D01*
X98433380Y-120461766D02*
X97861781Y-120461766D01*
X98147581Y-120461766D02*
X98147581Y-119461467D01*
X98052314Y-119604367D01*
X97957047Y-119699633D01*
X97861781Y-119747266D01*
X82858142Y-66746380D02*
X82524809Y-66270190D01*
X82286714Y-66746380D02*
X82286714Y-65746380D01*
X82667666Y-65746380D01*
X82762904Y-65794000D01*
X82810523Y-65841619D01*
X82858142Y-65936857D01*
X82858142Y-66079714D01*
X82810523Y-66174952D01*
X82762904Y-66222571D01*
X82667666Y-66270190D01*
X82286714Y-66270190D01*
X83239095Y-65841619D02*
X83286714Y-65794000D01*
X83381952Y-65746380D01*
X83620047Y-65746380D01*
X83715285Y-65794000D01*
X83762904Y-65841619D01*
X83810523Y-65936857D01*
X83810523Y-66032095D01*
X83762904Y-66174952D01*
X83191476Y-66746380D01*
X83810523Y-66746380D01*
X84429571Y-65746380D02*
X84524809Y-65746380D01*
X84620047Y-65794000D01*
X84667666Y-65841619D01*
X84715285Y-65936857D01*
X84762904Y-66127333D01*
X84762904Y-66365428D01*
X84715285Y-66555904D01*
X84667666Y-66651142D01*
X84620047Y-66698761D01*
X84524809Y-66746380D01*
X84429571Y-66746380D01*
X84334333Y-66698761D01*
X84286714Y-66651142D01*
X84239095Y-66555904D01*
X84191476Y-66365428D01*
X84191476Y-66127333D01*
X84239095Y-65936857D01*
X84286714Y-65841619D01*
X84334333Y-65794000D01*
X84429571Y-65746380D01*
X81002142Y-97162857D02*
X81049761Y-97210476D01*
X81097380Y-97353333D01*
X81097380Y-97448571D01*
X81049761Y-97591428D01*
X80954523Y-97686666D01*
X80859285Y-97734285D01*
X80668809Y-97781904D01*
X80525952Y-97781904D01*
X80335476Y-97734285D01*
X80240238Y-97686666D01*
X80145000Y-97591428D01*
X80097380Y-97448571D01*
X80097380Y-97353333D01*
X80145000Y-97210476D01*
X80192619Y-97162857D01*
X81097380Y-96210476D02*
X81097380Y-96781904D01*
X81097380Y-96496190D02*
X80097380Y-96496190D01*
X80240238Y-96591428D01*
X80335476Y-96686666D01*
X80383095Y-96781904D01*
X80525952Y-95639047D02*
X80478333Y-95734285D01*
X80430714Y-95781904D01*
X80335476Y-95829523D01*
X80287857Y-95829523D01*
X80192619Y-95781904D01*
X80145000Y-95734285D01*
X80097380Y-95639047D01*
X80097380Y-95448571D01*
X80145000Y-95353333D01*
X80192619Y-95305714D01*
X80287857Y-95258095D01*
X80335476Y-95258095D01*
X80430714Y-95305714D01*
X80478333Y-95353333D01*
X80525952Y-95448571D01*
X80525952Y-95639047D01*
X80573571Y-95734285D01*
X80621190Y-95781904D01*
X80716428Y-95829523D01*
X80906904Y-95829523D01*
X81002142Y-95781904D01*
X81049761Y-95734285D01*
X81097380Y-95639047D01*
X81097380Y-95448571D01*
X81049761Y-95353333D01*
X81002142Y-95305714D01*
X80906904Y-95258095D01*
X80716428Y-95258095D01*
X80621190Y-95305714D01*
X80573571Y-95353333D01*
X80525952Y-95448571D01*
X76992380Y-54236857D02*
X76516190Y-54570190D01*
X76992380Y-54808285D02*
X75992380Y-54808285D01*
X75992380Y-54427333D01*
X76040000Y-54332095D01*
X76087619Y-54284476D01*
X76182857Y-54236857D01*
X76325714Y-54236857D01*
X76420952Y-54284476D01*
X76468571Y-54332095D01*
X76516190Y-54427333D01*
X76516190Y-54808285D01*
X76992380Y-53284476D02*
X76992380Y-53855904D01*
X76992380Y-53570190D02*
X75992380Y-53570190D01*
X76135238Y-53665428D01*
X76230476Y-53760666D01*
X76278095Y-53855904D01*
X76087619Y-52903523D02*
X76040000Y-52855904D01*
X75992380Y-52760666D01*
X75992380Y-52522571D01*
X76040000Y-52427333D01*
X76087619Y-52379714D01*
X76182857Y-52332095D01*
X76278095Y-52332095D01*
X76420952Y-52379714D01*
X76992380Y-52951142D01*
X76992380Y-52332095D01*
X103120712Y-113432022D02*
X103073093Y-113479641D01*
X102930236Y-113527260D01*
X102834998Y-113527260D01*
X102692140Y-113479641D01*
X102596902Y-113384403D01*
X102549283Y-113289165D01*
X102501664Y-113098689D01*
X102501664Y-112955832D01*
X102549283Y-112765356D01*
X102596902Y-112670118D01*
X102692140Y-112574880D01*
X102834998Y-112527260D01*
X102930236Y-112527260D01*
X103073093Y-112574880D01*
X103120712Y-112622499D01*
X103549283Y-113003451D02*
X103882617Y-113003451D01*
X104025474Y-113527260D02*
X103549283Y-113527260D01*
X103549283Y-112527260D01*
X104025474Y-112527260D01*
X104882617Y-112860594D02*
X104882617Y-113527260D01*
X104644521Y-112479641D02*
X104406426Y-113193927D01*
X105025474Y-113193927D01*
X80363142Y-54236857D02*
X80410761Y-54284476D01*
X80458380Y-54427333D01*
X80458380Y-54522571D01*
X80410761Y-54665428D01*
X80315523Y-54760666D01*
X80220285Y-54808285D01*
X80029809Y-54855904D01*
X79886952Y-54855904D01*
X79696476Y-54808285D01*
X79601238Y-54760666D01*
X79506000Y-54665428D01*
X79458380Y-54522571D01*
X79458380Y-54427333D01*
X79506000Y-54284476D01*
X79553619Y-54236857D01*
X80458380Y-53284476D02*
X80458380Y-53855904D01*
X80458380Y-53570190D02*
X79458380Y-53570190D01*
X79601238Y-53665428D01*
X79696476Y-53760666D01*
X79744095Y-53855904D01*
X79458380Y-52427333D02*
X79458380Y-52617809D01*
X79506000Y-52713047D01*
X79553619Y-52760666D01*
X79696476Y-52855904D01*
X79886952Y-52903523D01*
X80267904Y-52903523D01*
X80363142Y-52855904D01*
X80410761Y-52808285D01*
X80458380Y-52713047D01*
X80458380Y-52522571D01*
X80410761Y-52427333D01*
X80363142Y-52379714D01*
X80267904Y-52332095D01*
X80029809Y-52332095D01*
X79934571Y-52379714D01*
X79886952Y-52427333D01*
X79839333Y-52522571D01*
X79839333Y-52713047D01*
X79886952Y-52808285D01*
X79934571Y-52855904D01*
X80029809Y-52903523D01*
X83846476Y-60031380D02*
X83846476Y-60745666D01*
X83798857Y-60888523D01*
X83703619Y-60983761D01*
X83560761Y-61031380D01*
X83465523Y-61031380D01*
X84084571Y-61126619D02*
X84846476Y-61126619D01*
X85370285Y-60031380D02*
X85370285Y-60745666D01*
X85322666Y-60888523D01*
X85227428Y-60983761D01*
X85084571Y-61031380D01*
X84989333Y-61031380D01*
X85798857Y-60983761D02*
X85941714Y-61031380D01*
X86179809Y-61031380D01*
X86275047Y-60983761D01*
X86322666Y-60936142D01*
X86370285Y-60840904D01*
X86370285Y-60745666D01*
X86322666Y-60650428D01*
X86275047Y-60602809D01*
X86179809Y-60555190D01*
X85989333Y-60507571D01*
X85894095Y-60459952D01*
X85846476Y-60412333D01*
X85798857Y-60317095D01*
X85798857Y-60221857D01*
X85846476Y-60126619D01*
X85894095Y-60079000D01*
X85989333Y-60031380D01*
X86227428Y-60031380D01*
X86370285Y-60079000D01*
X86656000Y-60031380D02*
X87227428Y-60031380D01*
X86941714Y-61031380D02*
X86941714Y-60031380D01*
X87513142Y-60126619D02*
X87560761Y-60079000D01*
X87656000Y-60031380D01*
X87894095Y-60031380D01*
X87989333Y-60079000D01*
X88036952Y-60126619D01*
X88084571Y-60221857D01*
X88084571Y-60317095D01*
X88036952Y-60459952D01*
X87465523Y-61031380D01*
X88084571Y-61031380D01*
X88275047Y-61126619D02*
X89036952Y-61126619D01*
X89798857Y-61031380D02*
X89227428Y-61031380D01*
X89513142Y-61031380D02*
X89513142Y-60031380D01*
X89417904Y-60174238D01*
X89322666Y-60269476D01*
X89227428Y-60317095D01*
X86500761Y-66841619D02*
X86405523Y-66794000D01*
X86310285Y-66698761D01*
X86167428Y-66555904D01*
X86072190Y-66508285D01*
X85976952Y-66508285D01*
X86024571Y-66746380D02*
X85929333Y-66698761D01*
X85834095Y-66603523D01*
X85786476Y-66413047D01*
X85786476Y-66079714D01*
X85834095Y-65889238D01*
X85929333Y-65794000D01*
X86024571Y-65746380D01*
X86215047Y-65746380D01*
X86310285Y-65794000D01*
X86405523Y-65889238D01*
X86453142Y-66079714D01*
X86453142Y-66413047D01*
X86405523Y-66603523D01*
X86310285Y-66698761D01*
X86215047Y-66746380D01*
X86024571Y-66746380D01*
X87405523Y-66746380D02*
X86834095Y-66746380D01*
X87119809Y-66746380D02*
X87119809Y-65746380D01*
X87024571Y-65889238D01*
X86929333Y-65984476D01*
X86834095Y-66032095D01*
X82165712Y-113432022D02*
X82118093Y-113479641D01*
X81975236Y-113527260D01*
X81879998Y-113527260D01*
X81737140Y-113479641D01*
X81641902Y-113384403D01*
X81594283Y-113289165D01*
X81546664Y-113098689D01*
X81546664Y-112955832D01*
X81594283Y-112765356D01*
X81641902Y-112670118D01*
X81737140Y-112574880D01*
X81879998Y-112527260D01*
X81975236Y-112527260D01*
X82118093Y-112574880D01*
X82165712Y-112622499D01*
X82594283Y-113003451D02*
X82927617Y-113003451D01*
X83070474Y-113527260D02*
X82594283Y-113527260D01*
X82594283Y-112527260D01*
X83070474Y-112527260D01*
X83927617Y-112860594D02*
X83927617Y-113527260D01*
X83689521Y-112479641D02*
X83451426Y-113193927D01*
X84070474Y-113193927D01*
X73113380Y-46878523D02*
X73827666Y-46878523D01*
X73970523Y-46926142D01*
X74065761Y-47021380D01*
X74113380Y-47164238D01*
X74113380Y-47259476D01*
X74208619Y-46640428D02*
X74208619Y-45878523D01*
X73113380Y-45354714D02*
X73827666Y-45354714D01*
X73970523Y-45402333D01*
X74065761Y-45497571D01*
X74113380Y-45640428D01*
X74113380Y-45735666D01*
X74065761Y-44926142D02*
X74113380Y-44783285D01*
X74113380Y-44545190D01*
X74065761Y-44449952D01*
X74018142Y-44402333D01*
X73922904Y-44354714D01*
X73827666Y-44354714D01*
X73732428Y-44402333D01*
X73684809Y-44449952D01*
X73637190Y-44545190D01*
X73589571Y-44735666D01*
X73541952Y-44830904D01*
X73494333Y-44878523D01*
X73399095Y-44926142D01*
X73303857Y-44926142D01*
X73208619Y-44878523D01*
X73161000Y-44830904D01*
X73113380Y-44735666D01*
X73113380Y-44497571D01*
X73161000Y-44354714D01*
X73113380Y-44069000D02*
X73113380Y-43497571D01*
X74113380Y-43783285D02*
X73113380Y-43783285D01*
X73208619Y-43211857D02*
X73161000Y-43164238D01*
X73113380Y-43069000D01*
X73113380Y-42830904D01*
X73161000Y-42735666D01*
X73208619Y-42688047D01*
X73303857Y-42640428D01*
X73399095Y-42640428D01*
X73541952Y-42688047D01*
X74113380Y-43259476D01*
X74113380Y-42640428D01*
X74208619Y-42449952D02*
X74208619Y-41688047D01*
X73208619Y-41497571D02*
X73161000Y-41449952D01*
X73113380Y-41354714D01*
X73113380Y-41116619D01*
X73161000Y-41021380D01*
X73208619Y-40973761D01*
X73303857Y-40926142D01*
X73399095Y-40926142D01*
X73541952Y-40973761D01*
X74113380Y-41545190D01*
X74113380Y-40926142D01*
X84291952Y-72160142D02*
X84244333Y-72207761D01*
X84101476Y-72255380D01*
X84006238Y-72255380D01*
X83863380Y-72207761D01*
X83768142Y-72112523D01*
X83720523Y-72017285D01*
X83672904Y-71826809D01*
X83672904Y-71683952D01*
X83720523Y-71493476D01*
X83768142Y-71398238D01*
X83863380Y-71303000D01*
X84006238Y-71255380D01*
X84101476Y-71255380D01*
X84244333Y-71303000D01*
X84291952Y-71350619D01*
X84720523Y-71731571D02*
X85053857Y-71731571D01*
X85196714Y-72255380D02*
X84720523Y-72255380D01*
X84720523Y-71255380D01*
X85196714Y-71255380D01*
X86149095Y-72255380D02*
X85577666Y-72255380D01*
X85863380Y-72255380D02*
X85863380Y-71255380D01*
X85768142Y-71398238D01*
X85672904Y-71493476D01*
X85577666Y-71541095D01*
X81493619Y-80108880D02*
X81493619Y-80823166D01*
X81446000Y-80966023D01*
X81350761Y-81061261D01*
X81207904Y-81108880D01*
X81112666Y-81108880D01*
X81731714Y-81204119D02*
X82493619Y-81204119D01*
X82684095Y-81061261D02*
X82826952Y-81108880D01*
X83065047Y-81108880D01*
X83160285Y-81061261D01*
X83207904Y-81013642D01*
X83255523Y-80918404D01*
X83255523Y-80823166D01*
X83207904Y-80727928D01*
X83160285Y-80680309D01*
X83065047Y-80632690D01*
X82874571Y-80585071D01*
X82779333Y-80537452D01*
X82731714Y-80489833D01*
X82684095Y-80394595D01*
X82684095Y-80299357D01*
X82731714Y-80204119D01*
X82779333Y-80156500D01*
X82874571Y-80108880D01*
X83112666Y-80108880D01*
X83255523Y-80156500D01*
X83541238Y-80108880D02*
X84112666Y-80108880D01*
X83826952Y-81108880D02*
X83826952Y-80108880D01*
X84207904Y-81204119D02*
X84969809Y-81204119D01*
X85731714Y-81108880D02*
X85160285Y-81108880D01*
X85446000Y-81108880D02*
X85446000Y-80108880D01*
X85350761Y-80251738D01*
X85255523Y-80346976D01*
X85160285Y-80394595D01*
X98259571Y-69172630D02*
X98259571Y-69886916D01*
X98211952Y-70029773D01*
X98116714Y-70125011D01*
X97973857Y-70172630D01*
X97878619Y-70172630D01*
X98497666Y-70267869D02*
X99259571Y-70267869D01*
X99497666Y-70172630D02*
X99497666Y-69172630D01*
X99878619Y-69172630D01*
X99973857Y-69220250D01*
X100021476Y-69267869D01*
X100069095Y-69363107D01*
X100069095Y-69505964D01*
X100021476Y-69601202D01*
X99973857Y-69648821D01*
X99878619Y-69696440D01*
X99497666Y-69696440D01*
X100497666Y-70172630D02*
X100497666Y-69172630D01*
X100497666Y-69648821D02*
X101069095Y-69648821D01*
X101069095Y-70172630D02*
X101069095Y-69172630D01*
X102069095Y-70172630D02*
X101497666Y-70172630D01*
X101783380Y-70172630D02*
X101783380Y-69172630D01*
X101688142Y-69315488D01*
X101592904Y-69410726D01*
X101497666Y-69458345D01*
X102640523Y-69601202D02*
X102545285Y-69553583D01*
X102497666Y-69505964D01*
X102450047Y-69410726D01*
X102450047Y-69363107D01*
X102497666Y-69267869D01*
X102545285Y-69220250D01*
X102640523Y-69172630D01*
X102831000Y-69172630D01*
X102926238Y-69220250D01*
X102973857Y-69267869D01*
X103021476Y-69363107D01*
X103021476Y-69410726D01*
X102973857Y-69505964D01*
X102926238Y-69553583D01*
X102831000Y-69601202D01*
X102640523Y-69601202D01*
X102545285Y-69648821D01*
X102497666Y-69696440D01*
X102450047Y-69791678D01*
X102450047Y-69982154D01*
X102497666Y-70077392D01*
X102545285Y-70125011D01*
X102640523Y-70172630D01*
X102831000Y-70172630D01*
X102926238Y-70125011D01*
X102973857Y-70077392D01*
X103021476Y-69982154D01*
X103021476Y-69791678D01*
X102973857Y-69696440D01*
X102926238Y-69648821D01*
X102831000Y-69601202D01*
X103211952Y-70267869D02*
X103973857Y-70267869D01*
X104164333Y-69267869D02*
X104211952Y-69220250D01*
X104307190Y-69172630D01*
X104545285Y-69172630D01*
X104640523Y-69220250D01*
X104688142Y-69267869D01*
X104735761Y-69363107D01*
X104735761Y-69458345D01*
X104688142Y-69601202D01*
X104116714Y-70172630D01*
X104735761Y-70172630D01*
X76792380Y-99678809D02*
X77506666Y-99678809D01*
X77649523Y-99726428D01*
X77744761Y-99821666D01*
X77792380Y-99964523D01*
X77792380Y-100059761D01*
X77887619Y-99440714D02*
X77887619Y-98678809D01*
X77792380Y-98440714D02*
X76792380Y-98440714D01*
X76792380Y-98059761D01*
X76840000Y-97964523D01*
X76887619Y-97916904D01*
X76982857Y-97869285D01*
X77125714Y-97869285D01*
X77220952Y-97916904D01*
X77268571Y-97964523D01*
X77316190Y-98059761D01*
X77316190Y-98440714D01*
X77506666Y-97488333D02*
X77506666Y-97012142D01*
X77792380Y-97583571D02*
X76792380Y-97250238D01*
X77792380Y-96916904D01*
X77792380Y-96583571D02*
X76792380Y-96583571D01*
X76792380Y-96345476D01*
X76840000Y-96202619D01*
X76935238Y-96107380D01*
X77030476Y-96059761D01*
X77220952Y-96012142D01*
X77363809Y-96012142D01*
X77554285Y-96059761D01*
X77649523Y-96107380D01*
X77744761Y-96202619D01*
X77792380Y-96345476D01*
X77792380Y-96583571D01*
X77887619Y-95821666D02*
X77887619Y-95059761D01*
X76887619Y-94869285D02*
X76840000Y-94821666D01*
X76792380Y-94726428D01*
X76792380Y-94488333D01*
X76840000Y-94393095D01*
X76887619Y-94345476D01*
X76982857Y-94297857D01*
X77078095Y-94297857D01*
X77220952Y-94345476D01*
X77792380Y-94916904D01*
X77792380Y-94297857D01*
X75017380Y-100888333D02*
X75017380Y-100269285D01*
X75398333Y-100602619D01*
X75398333Y-100459761D01*
X75445952Y-100364523D01*
X75493571Y-100316904D01*
X75588809Y-100269285D01*
X75826904Y-100269285D01*
X75922142Y-100316904D01*
X75969761Y-100364523D01*
X76017380Y-100459761D01*
X76017380Y-100745476D01*
X75969761Y-100840714D01*
X75922142Y-100888333D01*
X76017380Y-93519285D02*
X76017380Y-94090714D01*
X76017380Y-93805000D02*
X75017380Y-93805000D01*
X75160238Y-93900238D01*
X75255476Y-93995476D01*
X75303095Y-94090714D01*
X70572380Y-99678809D02*
X71286666Y-99678809D01*
X71429523Y-99726428D01*
X71524761Y-99821666D01*
X71572380Y-99964523D01*
X71572380Y-100059761D01*
X71667619Y-99440714D02*
X71667619Y-98678809D01*
X71572380Y-98440714D02*
X70572380Y-98440714D01*
X70572380Y-98059761D01*
X70620000Y-97964523D01*
X70667619Y-97916904D01*
X70762857Y-97869285D01*
X70905714Y-97869285D01*
X71000952Y-97916904D01*
X71048571Y-97964523D01*
X71096190Y-98059761D01*
X71096190Y-98440714D01*
X71286666Y-97488333D02*
X71286666Y-97012142D01*
X71572380Y-97583571D02*
X70572380Y-97250238D01*
X71572380Y-96916904D01*
X71572380Y-96583571D02*
X70572380Y-96583571D01*
X70572380Y-96345476D01*
X70620000Y-96202619D01*
X70715238Y-96107380D01*
X70810476Y-96059761D01*
X71000952Y-96012142D01*
X71143809Y-96012142D01*
X71334285Y-96059761D01*
X71429523Y-96107380D01*
X71524761Y-96202619D01*
X71572380Y-96345476D01*
X71572380Y-96583571D01*
X71667619Y-95821666D02*
X71667619Y-95059761D01*
X71572380Y-94297857D02*
X71572380Y-94869285D01*
X71572380Y-94583571D02*
X70572380Y-94583571D01*
X70715238Y-94678809D01*
X70810476Y-94774047D01*
X70858095Y-94869285D01*
X72477380Y-100888333D02*
X72477380Y-100269285D01*
X72858333Y-100602619D01*
X72858333Y-100459761D01*
X72905952Y-100364523D01*
X72953571Y-100316904D01*
X73048809Y-100269285D01*
X73286904Y-100269285D01*
X73382142Y-100316904D01*
X73429761Y-100364523D01*
X73477380Y-100459761D01*
X73477380Y-100745476D01*
X73429761Y-100840714D01*
X73382142Y-100888333D01*
X73477380Y-93519285D02*
X73477380Y-94090714D01*
X73477380Y-93805000D02*
X72477380Y-93805000D01*
X72620238Y-93900238D01*
X72715476Y-93995476D01*
X72763095Y-94090714D01*
X82858142Y-51091142D02*
X82810523Y-51138761D01*
X82667666Y-51186380D01*
X82572428Y-51186380D01*
X82429571Y-51138761D01*
X82334333Y-51043523D01*
X82286714Y-50948285D01*
X82239095Y-50757809D01*
X82239095Y-50614952D01*
X82286714Y-50424476D01*
X82334333Y-50329238D01*
X82429571Y-50234000D01*
X82572428Y-50186380D01*
X82667666Y-50186380D01*
X82810523Y-50234000D01*
X82858142Y-50281619D01*
X83810523Y-51186380D02*
X83239095Y-51186380D01*
X83524809Y-51186380D02*
X83524809Y-50186380D01*
X83429571Y-50329238D01*
X83334333Y-50424476D01*
X83239095Y-50472095D01*
X84715285Y-50186380D02*
X84239095Y-50186380D01*
X84191476Y-50662571D01*
X84239095Y-50614952D01*
X84334333Y-50567333D01*
X84572428Y-50567333D01*
X84667666Y-50614952D01*
X84715285Y-50662571D01*
X84762904Y-50757809D01*
X84762904Y-50995904D01*
X84715285Y-51091142D01*
X84667666Y-51138761D01*
X84572428Y-51186380D01*
X84334333Y-51186380D01*
X84239095Y-51138761D01*
X84191476Y-51091142D01*
X103473573Y-109037380D02*
X103140240Y-108561190D01*
X102902144Y-109037380D02*
X102902144Y-108037380D01*
X103283097Y-108037380D01*
X103378335Y-108085000D01*
X103425954Y-108132619D01*
X103473573Y-108227857D01*
X103473573Y-108370714D01*
X103425954Y-108465952D01*
X103378335Y-108513571D01*
X103283097Y-108561190D01*
X102902144Y-108561190D01*
X103806906Y-108037380D02*
X104473573Y-108037380D01*
X104045001Y-109037380D01*
X46990095Y-41108380D02*
X46990095Y-41917904D01*
X47037714Y-42013142D01*
X47085333Y-42060761D01*
X47180571Y-42108380D01*
X47371047Y-42108380D01*
X47466285Y-42060761D01*
X47513904Y-42013142D01*
X47561523Y-41917904D01*
X47561523Y-41108380D01*
X47942476Y-41108380D02*
X48561523Y-41108380D01*
X48228190Y-41489333D01*
X48371047Y-41489333D01*
X48466285Y-41536952D01*
X48513904Y-41584571D01*
X48561523Y-41679809D01*
X48561523Y-41917904D01*
X48513904Y-42013142D01*
X48466285Y-42060761D01*
X48371047Y-42108380D01*
X48085333Y-42108380D01*
X47990095Y-42060761D01*
X47942476Y-42013142D01*
X69610642Y-58111380D02*
X69277309Y-57635190D01*
X69039214Y-58111380D02*
X69039214Y-57111380D01*
X69420166Y-57111380D01*
X69515404Y-57159000D01*
X69563023Y-57206619D01*
X69610642Y-57301857D01*
X69610642Y-57444714D01*
X69563023Y-57539952D01*
X69515404Y-57587571D01*
X69420166Y-57635190D01*
X69039214Y-57635190D01*
X70563023Y-58111380D02*
X69991595Y-58111380D01*
X70277309Y-58111380D02*
X70277309Y-57111380D01*
X70182071Y-57254238D01*
X70086833Y-57349476D01*
X69991595Y-57397095D01*
X71134452Y-57539952D02*
X71039214Y-57492333D01*
X70991595Y-57444714D01*
X70943976Y-57349476D01*
X70943976Y-57301857D01*
X70991595Y-57206619D01*
X71039214Y-57159000D01*
X71134452Y-57111380D01*
X71324928Y-57111380D01*
X71420166Y-57159000D01*
X71467785Y-57206619D01*
X71515404Y-57301857D01*
X71515404Y-57349476D01*
X71467785Y-57444714D01*
X71420166Y-57492333D01*
X71324928Y-57539952D01*
X71134452Y-57539952D01*
X71039214Y-57587571D01*
X70991595Y-57635190D01*
X70943976Y-57730428D01*
X70943976Y-57920904D01*
X70991595Y-58016142D01*
X71039214Y-58063761D01*
X71134452Y-58111380D01*
X71324928Y-58111380D01*
X71420166Y-58063761D01*
X71467785Y-58016142D01*
X71515404Y-57920904D01*
X71515404Y-57730428D01*
X71467785Y-57635190D01*
X71420166Y-57587571D01*
X71324928Y-57539952D01*
X91527380Y-99678809D02*
X92241666Y-99678809D01*
X92384523Y-99726428D01*
X92479761Y-99821666D01*
X92527380Y-99964523D01*
X92527380Y-100059761D01*
X92622619Y-99440714D02*
X92622619Y-98678809D01*
X92527380Y-98440714D02*
X91527380Y-98440714D01*
X91527380Y-98059761D01*
X91575000Y-97964523D01*
X91622619Y-97916904D01*
X91717857Y-97869285D01*
X91860714Y-97869285D01*
X91955952Y-97916904D01*
X92003571Y-97964523D01*
X92051190Y-98059761D01*
X92051190Y-98440714D01*
X92241666Y-97488333D02*
X92241666Y-97012142D01*
X92527380Y-97583571D02*
X91527380Y-97250238D01*
X92527380Y-96916904D01*
X92527380Y-96583571D02*
X91527380Y-96583571D01*
X91527380Y-96345476D01*
X91575000Y-96202619D01*
X91670238Y-96107380D01*
X91765476Y-96059761D01*
X91955952Y-96012142D01*
X92098809Y-96012142D01*
X92289285Y-96059761D01*
X92384523Y-96107380D01*
X92479761Y-96202619D01*
X92527380Y-96345476D01*
X92527380Y-96583571D01*
X92622619Y-95821666D02*
X92622619Y-95059761D01*
X92527380Y-94297857D02*
X92527380Y-94869285D01*
X92527380Y-94583571D02*
X91527380Y-94583571D01*
X91670238Y-94678809D01*
X91765476Y-94774047D01*
X91813095Y-94869285D01*
X94432380Y-93519285D02*
X94432380Y-94090714D01*
X94432380Y-93805000D02*
X93432380Y-93805000D01*
X93575238Y-93900238D01*
X93670476Y-93995476D01*
X93718095Y-94090714D01*
X93432380Y-100888333D02*
X93432380Y-100269285D01*
X93813333Y-100602619D01*
X93813333Y-100459761D01*
X93860952Y-100364523D01*
X93908571Y-100316904D01*
X94003809Y-100269285D01*
X94241904Y-100269285D01*
X94337142Y-100316904D01*
X94384761Y-100364523D01*
X94432380Y-100459761D01*
X94432380Y-100745476D01*
X94384761Y-100840714D01*
X94337142Y-100888333D01*
X31218571Y-60412380D02*
X31218571Y-61126666D01*
X31170952Y-61269523D01*
X31075714Y-61364761D01*
X30932857Y-61412380D01*
X30837619Y-61412380D01*
X31456666Y-61507619D02*
X32218571Y-61507619D01*
X32456666Y-61412380D02*
X32456666Y-60412380D01*
X32837619Y-60412380D01*
X32932857Y-60460000D01*
X32980476Y-60507619D01*
X33028095Y-60602857D01*
X33028095Y-60745714D01*
X32980476Y-60840952D01*
X32932857Y-60888571D01*
X32837619Y-60936190D01*
X32456666Y-60936190D01*
X33456666Y-61412380D02*
X33456666Y-60412380D01*
X33456666Y-60888571D02*
X34028095Y-60888571D01*
X34028095Y-61412380D02*
X34028095Y-60412380D01*
X35028095Y-61412380D02*
X34456666Y-61412380D01*
X34742380Y-61412380D02*
X34742380Y-60412380D01*
X34647142Y-60555238D01*
X34551904Y-60650476D01*
X34456666Y-60698095D01*
X35599523Y-60840952D02*
X35504285Y-60793333D01*
X35456666Y-60745714D01*
X35409047Y-60650476D01*
X35409047Y-60602857D01*
X35456666Y-60507619D01*
X35504285Y-60460000D01*
X35599523Y-60412380D01*
X35790000Y-60412380D01*
X35885238Y-60460000D01*
X35932857Y-60507619D01*
X35980476Y-60602857D01*
X35980476Y-60650476D01*
X35932857Y-60745714D01*
X35885238Y-60793333D01*
X35790000Y-60840952D01*
X35599523Y-60840952D01*
X35504285Y-60888571D01*
X35456666Y-60936190D01*
X35409047Y-61031428D01*
X35409047Y-61221904D01*
X35456666Y-61317142D01*
X35504285Y-61364761D01*
X35599523Y-61412380D01*
X35790000Y-61412380D01*
X35885238Y-61364761D01*
X35932857Y-61317142D01*
X35980476Y-61221904D01*
X35980476Y-61031428D01*
X35932857Y-60936190D01*
X35885238Y-60888571D01*
X35790000Y-60840952D01*
X36170952Y-61507619D02*
X36932857Y-61507619D01*
X37075714Y-60412380D02*
X37694761Y-60412380D01*
X37361428Y-60793333D01*
X37504285Y-60793333D01*
X37599523Y-60840952D01*
X37647142Y-60888571D01*
X37694761Y-60983809D01*
X37694761Y-61221904D01*
X37647142Y-61317142D01*
X37599523Y-61364761D01*
X37504285Y-61412380D01*
X37218571Y-61412380D01*
X37123333Y-61364761D01*
X37075714Y-61317142D01*
X75652380Y-107441904D02*
X76461904Y-107441904D01*
X76557142Y-107394285D01*
X76604761Y-107346666D01*
X76652380Y-107251428D01*
X76652380Y-107060952D01*
X76604761Y-106965714D01*
X76557142Y-106918095D01*
X76461904Y-106870476D01*
X75652380Y-106870476D01*
X76080952Y-106251428D02*
X76033333Y-106346666D01*
X75985714Y-106394285D01*
X75890476Y-106441904D01*
X75842857Y-106441904D01*
X75747619Y-106394285D01*
X75700000Y-106346666D01*
X75652380Y-106251428D01*
X75652380Y-106060952D01*
X75700000Y-105965714D01*
X75747619Y-105918095D01*
X75842857Y-105870476D01*
X75890476Y-105870476D01*
X75985714Y-105918095D01*
X76033333Y-105965714D01*
X76080952Y-106060952D01*
X76080952Y-106251428D01*
X76128571Y-106346666D01*
X76176190Y-106394285D01*
X76271428Y-106441904D01*
X76461904Y-106441904D01*
X76557142Y-106394285D01*
X76604761Y-106346666D01*
X76652380Y-106251428D01*
X76652380Y-106060952D01*
X76604761Y-105965714D01*
X76557142Y-105918095D01*
X76461904Y-105870476D01*
X76271428Y-105870476D01*
X76176190Y-105918095D01*
X76128571Y-105965714D01*
X76080952Y-106060952D01*
X72715052Y-119461467D02*
X72715052Y-120175966D01*
X72667418Y-120318866D01*
X72572152Y-120414132D01*
X72429252Y-120461766D01*
X72333985Y-120461766D01*
X72953218Y-120557032D02*
X73715351Y-120557032D01*
X73953517Y-119461467D02*
X73953517Y-120271233D01*
X74001150Y-120366499D01*
X74048784Y-120414132D01*
X74144050Y-120461766D01*
X74334583Y-120461766D01*
X74429850Y-120414132D01*
X74477483Y-120366499D01*
X74525117Y-120271233D01*
X74525117Y-119461467D01*
X74953816Y-120414132D02*
X75096716Y-120461766D01*
X75334882Y-120461766D01*
X75430149Y-120414132D01*
X75477782Y-120366499D01*
X75525416Y-120271233D01*
X75525416Y-120175966D01*
X75477782Y-120080699D01*
X75430149Y-120033066D01*
X75334882Y-119985433D01*
X75144349Y-119937800D01*
X75049083Y-119890166D01*
X75001449Y-119842533D01*
X74953816Y-119747266D01*
X74953816Y-119652000D01*
X75001449Y-119556733D01*
X75049083Y-119509100D01*
X75144349Y-119461467D01*
X75382516Y-119461467D01*
X75525416Y-119509100D01*
X76287548Y-119937800D02*
X76430448Y-119985433D01*
X76478081Y-120033066D01*
X76525715Y-120128333D01*
X76525715Y-120271233D01*
X76478081Y-120366499D01*
X76430448Y-120414132D01*
X76335181Y-120461766D01*
X75954115Y-120461766D01*
X75954115Y-119461467D01*
X76287548Y-119461467D01*
X76382815Y-119509100D01*
X76430448Y-119556733D01*
X76478081Y-119652000D01*
X76478081Y-119747266D01*
X76430448Y-119842533D01*
X76382815Y-119890166D01*
X76287548Y-119937800D01*
X75954115Y-119937800D01*
X77478380Y-120461766D02*
X76906781Y-120461766D01*
X77192581Y-120461766D02*
X77192581Y-119461467D01*
X77097314Y-119604367D01*
X77002047Y-119699633D01*
X76906781Y-119747266D01*
X101957142Y-97424109D02*
X102004761Y-97471728D01*
X102052380Y-97614585D01*
X102052380Y-97709823D01*
X102004761Y-97852680D01*
X101909523Y-97947918D01*
X101814285Y-97995537D01*
X101623809Y-98043156D01*
X101480952Y-98043156D01*
X101290476Y-97995537D01*
X101195238Y-97947918D01*
X101100000Y-97852680D01*
X101052380Y-97709823D01*
X101052380Y-97614585D01*
X101100000Y-97471728D01*
X101147619Y-97424109D01*
X102052380Y-96471728D02*
X102052380Y-97043156D01*
X102052380Y-96757442D02*
X101052380Y-96757442D01*
X101195238Y-96852680D01*
X101290476Y-96947918D01*
X101338095Y-97043156D01*
X101480952Y-95900299D02*
X101433333Y-95995537D01*
X101385714Y-96043156D01*
X101290476Y-96090775D01*
X101242857Y-96090775D01*
X101147619Y-96043156D01*
X101100000Y-95995537D01*
X101052380Y-95900299D01*
X101052380Y-95709823D01*
X101100000Y-95614585D01*
X101147619Y-95566966D01*
X101242857Y-95519347D01*
X101290476Y-95519347D01*
X101385714Y-95566966D01*
X101433333Y-95614585D01*
X101480952Y-95709823D01*
X101480952Y-95900299D01*
X101528571Y-95995537D01*
X101576190Y-96043156D01*
X101671428Y-96090775D01*
X101861904Y-96090775D01*
X101957142Y-96043156D01*
X102004761Y-95995537D01*
X102052380Y-95900299D01*
X102052380Y-95709823D01*
X102004761Y-95614585D01*
X101957142Y-95566966D01*
X101861904Y-95519347D01*
X101671428Y-95519347D01*
X101576190Y-95566966D01*
X101528571Y-95614585D01*
X101480952Y-95709823D01*
X97747380Y-99678809D02*
X98461666Y-99678809D01*
X98604523Y-99726428D01*
X98699761Y-99821666D01*
X98747380Y-99964523D01*
X98747380Y-100059761D01*
X98842619Y-99440714D02*
X98842619Y-98678809D01*
X98747380Y-98440714D02*
X97747380Y-98440714D01*
X97747380Y-98059761D01*
X97795000Y-97964523D01*
X97842619Y-97916904D01*
X97937857Y-97869285D01*
X98080714Y-97869285D01*
X98175952Y-97916904D01*
X98223571Y-97964523D01*
X98271190Y-98059761D01*
X98271190Y-98440714D01*
X98461666Y-97488333D02*
X98461666Y-97012142D01*
X98747380Y-97583571D02*
X97747380Y-97250238D01*
X98747380Y-96916904D01*
X98747380Y-96583571D02*
X97747380Y-96583571D01*
X97747380Y-96345476D01*
X97795000Y-96202619D01*
X97890238Y-96107380D01*
X97985476Y-96059761D01*
X98175952Y-96012142D01*
X98318809Y-96012142D01*
X98509285Y-96059761D01*
X98604523Y-96107380D01*
X98699761Y-96202619D01*
X98747380Y-96345476D01*
X98747380Y-96583571D01*
X98842619Y-95821666D02*
X98842619Y-95059761D01*
X97842619Y-94869285D02*
X97795000Y-94821666D01*
X97747380Y-94726428D01*
X97747380Y-94488333D01*
X97795000Y-94393095D01*
X97842619Y-94345476D01*
X97937857Y-94297857D01*
X98033095Y-94297857D01*
X98175952Y-94345476D01*
X98747380Y-94916904D01*
X98747380Y-94297857D01*
X96972380Y-93519285D02*
X96972380Y-94090714D01*
X96972380Y-93805000D02*
X95972380Y-93805000D01*
X96115238Y-93900238D01*
X96210476Y-93995476D01*
X96258095Y-94090714D01*
X95972380Y-100888333D02*
X95972380Y-100269285D01*
X96353333Y-100602619D01*
X96353333Y-100459761D01*
X96400952Y-100364523D01*
X96448571Y-100316904D01*
X96543809Y-100269285D01*
X96781904Y-100269285D01*
X96877142Y-100316904D01*
X96924761Y-100364523D01*
X96972380Y-100459761D01*
X96972380Y-100745476D01*
X96924761Y-100840714D01*
X96877142Y-100888333D01*
X71633380Y-70373523D02*
X72347666Y-70373523D01*
X72490523Y-70421142D01*
X72585761Y-70516380D01*
X72633380Y-70659238D01*
X72633380Y-70754476D01*
X72728619Y-70135428D02*
X72728619Y-69373523D01*
X71633380Y-68849714D02*
X72347666Y-68849714D01*
X72490523Y-68897333D01*
X72585761Y-68992571D01*
X72633380Y-69135428D01*
X72633380Y-69230666D01*
X72585761Y-68421142D02*
X72633380Y-68278285D01*
X72633380Y-68040190D01*
X72585761Y-67944952D01*
X72538142Y-67897333D01*
X72442904Y-67849714D01*
X72347666Y-67849714D01*
X72252428Y-67897333D01*
X72204809Y-67944952D01*
X72157190Y-68040190D01*
X72109571Y-68230666D01*
X72061952Y-68325904D01*
X72014333Y-68373523D01*
X71919095Y-68421142D01*
X71823857Y-68421142D01*
X71728619Y-68373523D01*
X71681000Y-68325904D01*
X71633380Y-68230666D01*
X71633380Y-67992571D01*
X71681000Y-67849714D01*
X71633380Y-67564000D02*
X71633380Y-66992571D01*
X72633380Y-67278285D02*
X71633380Y-67278285D01*
X71633380Y-66754476D02*
X71633380Y-66135428D01*
X72014333Y-66468761D01*
X72014333Y-66325904D01*
X72061952Y-66230666D01*
X72109571Y-66183047D01*
X72204809Y-66135428D01*
X72442904Y-66135428D01*
X72538142Y-66183047D01*
X72585761Y-66230666D01*
X72633380Y-66325904D01*
X72633380Y-66611619D01*
X72585761Y-66706857D01*
X72538142Y-66754476D01*
X72728619Y-65944952D02*
X72728619Y-65183047D01*
X72633380Y-64421142D02*
X72633380Y-64992571D01*
X72633380Y-64706857D02*
X71633380Y-64706857D01*
X71776238Y-64802095D01*
X71871476Y-64897333D01*
X71919095Y-64992571D01*
X72183380Y-55133523D02*
X72897666Y-55133523D01*
X73040523Y-55181142D01*
X73135761Y-55276380D01*
X73183380Y-55419238D01*
X73183380Y-55514476D01*
X73278619Y-54895428D02*
X73278619Y-54133523D01*
X72183380Y-53609714D02*
X72897666Y-53609714D01*
X73040523Y-53657333D01*
X73135761Y-53752571D01*
X73183380Y-53895428D01*
X73183380Y-53990666D01*
X73135761Y-53181142D02*
X73183380Y-53038285D01*
X73183380Y-52800190D01*
X73135761Y-52704952D01*
X73088142Y-52657333D01*
X72992904Y-52609714D01*
X72897666Y-52609714D01*
X72802428Y-52657333D01*
X72754809Y-52704952D01*
X72707190Y-52800190D01*
X72659571Y-52990666D01*
X72611952Y-53085904D01*
X72564333Y-53133523D01*
X72469095Y-53181142D01*
X72373857Y-53181142D01*
X72278619Y-53133523D01*
X72231000Y-53085904D01*
X72183380Y-52990666D01*
X72183380Y-52752571D01*
X72231000Y-52609714D01*
X72183380Y-52324000D02*
X72183380Y-51752571D01*
X73183380Y-52038285D02*
X72183380Y-52038285D01*
X72278619Y-51466857D02*
X72231000Y-51419238D01*
X72183380Y-51324000D01*
X72183380Y-51085904D01*
X72231000Y-50990666D01*
X72278619Y-50943047D01*
X72373857Y-50895428D01*
X72469095Y-50895428D01*
X72611952Y-50943047D01*
X73183380Y-51514476D01*
X73183380Y-50895428D01*
X73278619Y-50704952D02*
X73278619Y-49943047D01*
X72183380Y-49800190D02*
X72183380Y-49181142D01*
X72564333Y-49514476D01*
X72564333Y-49371619D01*
X72611952Y-49276380D01*
X72659571Y-49228761D01*
X72754809Y-49181142D01*
X72992904Y-49181142D01*
X73088142Y-49228761D01*
X73135761Y-49276380D01*
X73183380Y-49371619D01*
X73183380Y-49657333D01*
X73135761Y-49752571D01*
X73088142Y-49800190D01*
X104504333Y-79846904D02*
X104504333Y-80418333D01*
X104466238Y-80532619D01*
X104390047Y-80608809D01*
X104275761Y-80646904D01*
X104199571Y-80646904D01*
X104694809Y-80723095D02*
X105304333Y-80723095D01*
X105723380Y-79846904D02*
X105723380Y-80418333D01*
X105685285Y-80532619D01*
X105609095Y-80608809D01*
X105494809Y-80646904D01*
X105418619Y-80646904D01*
X106066238Y-80608809D02*
X106180523Y-80646904D01*
X106371000Y-80646904D01*
X106447190Y-80608809D01*
X106485285Y-80570714D01*
X106523380Y-80494523D01*
X106523380Y-80418333D01*
X106485285Y-80342142D01*
X106447190Y-80304047D01*
X106371000Y-80265952D01*
X106218619Y-80227857D01*
X106142428Y-80189761D01*
X106104333Y-80151666D01*
X106066238Y-80075476D01*
X106066238Y-79999285D01*
X106104333Y-79923095D01*
X106142428Y-79885000D01*
X106218619Y-79846904D01*
X106409095Y-79846904D01*
X106523380Y-79885000D01*
X106751952Y-79846904D02*
X107209095Y-79846904D01*
X106980523Y-80646904D02*
X106980523Y-79846904D01*
X107285285Y-80723095D02*
X107894809Y-80723095D01*
X108504333Y-80646904D02*
X108047190Y-80646904D01*
X108275761Y-80646904D02*
X108275761Y-79846904D01*
X108199571Y-79961190D01*
X108123380Y-80037380D01*
X108047190Y-80075476D01*
D11*
X111441000Y-40450250D02*
X112771000Y-40450250D01*
X110171000Y-40450250D02*
X89791000Y-40450250D01*
X89791000Y-40450250D02*
X89791000Y-45650250D01*
X112771000Y-43050250D02*
X112771000Y-45650250D01*
X112771000Y-45650250D02*
X89791000Y-45650250D01*
X112771000Y-40450250D02*
X112771000Y-41780250D01*
X110171000Y-40450250D02*
X110171000Y-43050250D01*
X110171000Y-43050250D02*
X112771000Y-43050250D01*
D12*
X65405000Y-77172000D02*
G75*
G03*
X67945000Y-77172000I1270000J0D01*
G01*
X67945000Y-81832000D02*
G75*
G03*
X65405000Y-81832000I-1270000J0D01*
G01*
X70445000Y-98980000D02*
G75*
G03*
X65445000Y-98980000I-2500000J0D01*
G01*
X65445000Y-88980000D02*
G75*
G03*
X70445000Y-88980000I2500000J0D01*
G01*
D11*
X87822000Y-92384792D02*
X79818000Y-92384792D01*
X87745000Y-92704792D02*
X84860000Y-92704792D01*
X86376000Y-94784792D02*
X81264000Y-94784792D01*
X87524000Y-93304792D02*
X84860000Y-93304792D01*
X82780000Y-92704792D02*
X79895000Y-92704792D01*
X82780000Y-93544792D02*
X80236000Y-93544792D01*
X87625000Y-93064792D02*
X84860000Y-93064792D01*
X85922000Y-95104792D02*
X81718000Y-95104792D01*
X87426000Y-93504792D02*
X84860000Y-93504792D01*
X85166000Y-95464792D02*
X82474000Y-95464792D01*
X85854000Y-95144792D02*
X81786000Y-95144792D01*
X86803000Y-94384792D02*
X84860000Y-94384792D01*
X86048000Y-95024792D02*
X81592000Y-95024792D01*
X87722000Y-92784792D02*
X84860000Y-92784792D01*
X85372000Y-95384792D02*
X82268000Y-95384792D01*
X87899000Y-91703792D02*
X79741000Y-91703792D01*
X87862000Y-92143792D02*
X79778000Y-92143792D01*
X82780000Y-92864792D02*
X79943000Y-92864792D01*
X86165000Y-94944792D02*
X81475000Y-94944792D01*
X82780000Y-93064792D02*
X80015000Y-93064792D01*
X87900000Y-91663792D02*
X79740000Y-91663792D01*
X85465000Y-95344792D02*
X82175000Y-95344792D01*
X87610000Y-93104792D02*
X84860000Y-93104792D01*
X86535000Y-87574094D02*
X85735000Y-87574094D01*
X87009000Y-94144792D02*
X84860000Y-94144792D01*
X82780000Y-92464792D02*
X79835000Y-92464792D01*
X87360000Y-93624792D02*
X84860000Y-93624792D01*
X87894000Y-91823792D02*
X79746000Y-91823792D01*
X86839000Y-94344792D02*
X84860000Y-94344792D01*
X87767000Y-92624792D02*
X84860000Y-92624792D01*
X87900000Y-91583792D02*
X79740000Y-91583792D01*
X82780000Y-93464792D02*
X80193000Y-93464792D01*
X82780000Y-94184792D02*
X80664000Y-94184792D01*
X87888000Y-91903792D02*
X79752000Y-91903792D01*
X84768000Y-95584792D02*
X82872000Y-95584792D01*
X87850000Y-92223792D02*
X79790000Y-92223792D01*
X82780000Y-94504792D02*
X80953000Y-94504792D01*
X84353000Y-95664792D02*
X83287000Y-95664792D01*
X82780000Y-93864792D02*
X80428000Y-93864792D01*
X82780000Y-92544792D02*
X79853000Y-92544792D01*
X82780000Y-93224792D02*
X80080000Y-93224792D01*
X82780000Y-93184792D02*
X80063000Y-93184792D01*
X87577000Y-93184792D02*
X84860000Y-93184792D01*
X87857000Y-92183792D02*
X79783000Y-92183792D01*
X87881000Y-91983792D02*
X79759000Y-91983792D01*
X82780000Y-92824792D02*
X79931000Y-92824792D01*
X87697000Y-92864792D02*
X84860000Y-92864792D01*
X87100000Y-94024792D02*
X84860000Y-94024792D01*
X87129000Y-93984792D02*
X84860000Y-93984792D01*
X82780000Y-93984792D02*
X80511000Y-93984792D01*
X82780000Y-94064792D02*
X80570000Y-94064792D01*
X87896000Y-91783792D02*
X79744000Y-91783792D01*
X86471000Y-94704792D02*
X81169000Y-94704792D01*
X86646000Y-94544792D02*
X80994000Y-94544792D01*
X82780000Y-94224792D02*
X80696000Y-94224792D01*
X87486000Y-93384792D02*
X84860000Y-93384792D01*
X82780000Y-94024792D02*
X80540000Y-94024792D01*
X87830000Y-92344792D02*
X79810000Y-92344792D01*
X87641000Y-93024792D02*
X84860000Y-93024792D01*
X87655000Y-92984792D02*
X84860000Y-92984792D01*
X82780000Y-93664792D02*
X80303000Y-93664792D01*
X82780000Y-94344792D02*
X80801000Y-94344792D01*
X86910000Y-94264792D02*
X84860000Y-94264792D01*
X86135000Y-87174094D02*
X86135000Y-87974094D01*
X87734000Y-92744792D02*
X84860000Y-92744792D01*
X85986000Y-95064792D02*
X81654000Y-95064792D01*
X82780000Y-94424792D02*
X80875000Y-94424792D01*
X82780000Y-94304792D02*
X80765000Y-94304792D01*
X82780000Y-94264792D02*
X80730000Y-94264792D01*
X87185000Y-93904792D02*
X84860000Y-93904792D01*
X82780000Y-93584792D02*
X80258000Y-93584792D01*
X87560000Y-93224792D02*
X84860000Y-93224792D01*
X82780000Y-93624792D02*
X80280000Y-93624792D01*
X82780000Y-94104792D02*
X80600000Y-94104792D01*
X87238000Y-93824792D02*
X84860000Y-93824792D01*
X82780000Y-92904792D02*
X79957000Y-92904792D01*
X86976000Y-94184792D02*
X84860000Y-94184792D01*
X86325000Y-94824792D02*
X81315000Y-94824792D01*
X87683000Y-92904792D02*
X84860000Y-92904792D01*
X87542000Y-93264792D02*
X84860000Y-93264792D01*
X82780000Y-93384792D02*
X80154000Y-93384792D01*
X87709000Y-92824792D02*
X84860000Y-92824792D01*
X86944000Y-94224792D02*
X84860000Y-94224792D01*
X82780000Y-93024792D02*
X79999000Y-93024792D01*
X87447000Y-93464792D02*
X84860000Y-93464792D01*
X87796000Y-92504792D02*
X84860000Y-92504792D01*
X82780000Y-92504792D02*
X79844000Y-92504792D01*
X87897000Y-91743792D02*
X79743000Y-91743792D01*
X82780000Y-93344792D02*
X80134000Y-93344792D01*
X82780000Y-92744792D02*
X79906000Y-92744792D01*
X87313000Y-93704792D02*
X84860000Y-93704792D01*
X86424000Y-94744792D02*
X81216000Y-94744792D01*
X87594000Y-93144792D02*
X84860000Y-93144792D01*
X86875000Y-94304792D02*
X84860000Y-94304792D01*
X87777000Y-92584792D02*
X84860000Y-92584792D01*
X87040000Y-94104792D02*
X84860000Y-94104792D01*
X82780000Y-93424792D02*
X80173000Y-93424792D01*
X82780000Y-92664792D02*
X79884000Y-92664792D01*
X87868000Y-92103792D02*
X79772000Y-92103792D01*
X87670000Y-92944792D02*
X84860000Y-92944792D01*
X87070000Y-94064792D02*
X84860000Y-94064792D01*
X82780000Y-92984792D02*
X79985000Y-92984792D01*
X82780000Y-94384792D02*
X80837000Y-94384792D01*
X86107000Y-94984792D02*
X81533000Y-94984792D01*
X82780000Y-93264792D02*
X80098000Y-93264792D01*
X87337000Y-93664792D02*
X84860000Y-93664792D01*
X82780000Y-94144792D02*
X80631000Y-94144792D01*
X82780000Y-94464792D02*
X80913000Y-94464792D01*
X87382000Y-93584792D02*
X84860000Y-93584792D01*
X82780000Y-93944792D02*
X80482000Y-93944792D01*
X87900000Y-91623792D02*
X79740000Y-91623792D01*
X86274000Y-94864792D02*
X81366000Y-94864792D01*
X85551000Y-95304792D02*
X82089000Y-95304792D01*
X82780000Y-93784792D02*
X80376000Y-93784792D01*
X82780000Y-92624792D02*
X79873000Y-92624792D01*
X85273000Y-95424792D02*
X82367000Y-95424792D01*
X86561000Y-94624792D02*
X81079000Y-94624792D01*
X87877000Y-92023792D02*
X79763000Y-92023792D01*
X87264000Y-93784792D02*
X84860000Y-93784792D01*
X87212000Y-93864792D02*
X84860000Y-93864792D01*
X87805000Y-92464792D02*
X84860000Y-92464792D01*
X84918000Y-95544792D02*
X82722000Y-95544792D01*
X87837000Y-92304792D02*
X79803000Y-92304792D01*
X87467000Y-93424792D02*
X84860000Y-93424792D01*
X87872000Y-92063792D02*
X79768000Y-92063792D01*
X87844000Y-92263792D02*
X79796000Y-92263792D01*
X84588000Y-95624792D02*
X83052000Y-95624792D01*
X82780000Y-92944792D02*
X79970000Y-92944792D01*
X82780000Y-93504792D02*
X80214000Y-93504792D01*
X87158000Y-93944792D02*
X84860000Y-93944792D01*
X87814000Y-92424792D02*
X79826000Y-92424792D01*
X86687000Y-94504792D02*
X84860000Y-94504792D01*
X87787000Y-92544792D02*
X84860000Y-92544792D01*
X82780000Y-92584792D02*
X79863000Y-92584792D01*
X87756000Y-92664792D02*
X84860000Y-92664792D01*
X87506000Y-93344792D02*
X84860000Y-93344792D01*
X82780000Y-93104792D02*
X80030000Y-93104792D01*
X87891000Y-91863792D02*
X79749000Y-91863792D01*
X87885000Y-91943792D02*
X79755000Y-91943792D01*
X82780000Y-93144792D02*
X80046000Y-93144792D01*
X82780000Y-93304792D02*
X80116000Y-93304792D01*
X86727000Y-94464792D02*
X84860000Y-94464792D01*
X85710000Y-95224792D02*
X81930000Y-95224792D01*
X82780000Y-93744792D02*
X80351000Y-93744792D01*
X86220000Y-94904792D02*
X81420000Y-94904792D01*
X82780000Y-93904792D02*
X80455000Y-93904792D01*
X85784000Y-95184792D02*
X81856000Y-95184792D01*
X87404000Y-93544792D02*
X84860000Y-93544792D01*
X82780000Y-92784792D02*
X79918000Y-92784792D01*
X85633000Y-95264792D02*
X82007000Y-95264792D01*
X86765000Y-94424792D02*
X84860000Y-94424792D01*
X82780000Y-93824792D02*
X80402000Y-93824792D01*
X87289000Y-93744792D02*
X84860000Y-93744792D01*
X86517000Y-94664792D02*
X81123000Y-94664792D01*
X86604000Y-94584792D02*
X81036000Y-94584792D01*
X85049000Y-95504792D02*
X82591000Y-95504792D01*
X82780000Y-93704792D02*
X80327000Y-93704792D01*
X87940000Y-91583792D02*
G75*
G03*
X87940000Y-91583792I-4120000J0D01*
G01*
D12*
X65445000Y-106125000D02*
G75*
G03*
X70445000Y-106125000I2500000J0D01*
G01*
X70445000Y-116125000D02*
G75*
G03*
X65445000Y-116125000I-2500000J0D01*
G01*
D11*
X94301000Y-65555250D02*
X94301000Y-64555250D01*
X95081000Y-47315250D02*
X94301000Y-47315250D01*
X95081000Y-65555250D02*
X94301000Y-65555250D01*
X113626000Y-47315250D02*
X113626000Y-46935250D01*
X120041000Y-47315250D02*
X113626000Y-47315250D01*
X120041000Y-65555250D02*
X113626000Y-65555250D01*
X94301000Y-47315250D02*
X94301000Y-48315250D01*
X120041000Y-47315250D02*
X120041000Y-65555250D01*
X81950240Y-108812064D02*
X81950240Y-108357936D01*
X83420240Y-108812064D02*
X83420240Y-108357936D01*
D12*
X86400000Y-88980000D02*
G75*
G03*
X91400000Y-88980000I2500000J0D01*
G01*
X91400000Y-98980000D02*
G75*
G03*
X86400000Y-98980000I-2500000J0D01*
G01*
X65405000Y-40088000D02*
G75*
G03*
X67945000Y-40088000I1270000J0D01*
G01*
X67945000Y-44748000D02*
G75*
G03*
X65405000Y-44748000I-1270000J0D01*
G01*
D11*
X64830000Y-59750000D02*
X63500000Y-59750000D01*
X64830000Y-57150000D02*
X64830000Y-36770000D01*
X62230000Y-57150000D02*
X62230000Y-59750000D01*
X62230000Y-59750000D02*
X59630000Y-59750000D01*
X64830000Y-58420000D02*
X64830000Y-59750000D01*
X64830000Y-57150000D02*
X62230000Y-57150000D01*
X64830000Y-36770000D02*
X59630000Y-36770000D01*
X59630000Y-59750000D02*
X59630000Y-36770000D01*
X54590000Y-114465000D02*
X54590000Y-123885000D01*
X44560000Y-113775000D02*
X44260000Y-113175000D01*
X42150000Y-120575000D02*
X54590000Y-120575000D01*
X45610000Y-114465000D02*
X47320000Y-114465000D01*
X59390000Y-114465000D02*
X53230000Y-114465000D01*
X49420000Y-114465000D02*
X51130000Y-114465000D01*
X42150000Y-114465000D02*
X42150000Y-123885000D01*
X44260000Y-113175000D02*
X44860000Y-113175000D01*
X59390000Y-123885000D02*
X59390000Y-114465000D01*
X37350000Y-114465000D02*
X37350000Y-123885000D01*
X37350000Y-123885000D02*
X59390000Y-123885000D01*
X44860000Y-113175000D02*
X44560000Y-113775000D01*
X37350000Y-114465000D02*
X43510000Y-114465000D01*
D13*
X37160000Y-66238372D02*
X40310000Y-66238372D01*
X57760000Y-75138372D02*
X56210000Y-75138372D01*
X56210000Y-67038372D02*
X57760000Y-67038372D01*
X53710000Y-63138372D02*
X54340000Y-63138372D01*
X54340000Y-79038372D02*
X53110000Y-79038372D01*
X43410000Y-79038372D02*
X42190000Y-79038372D01*
X53710000Y-56838372D02*
X53710000Y-63138372D01*
X56210000Y-75138372D02*
X56210000Y-76258372D01*
X57760000Y-67038372D02*
X57760000Y-75138372D01*
X53110000Y-79038372D02*
X53110000Y-82238372D01*
X42810000Y-63138372D02*
X42810000Y-56838372D01*
X42190000Y-63138372D02*
X42810000Y-63138372D01*
X42810000Y-56838372D02*
X53710000Y-56838372D01*
X43410000Y-82238372D02*
X43410000Y-79038372D01*
X40310000Y-76038372D02*
X37160000Y-76038372D01*
X37160000Y-76038372D02*
X37160000Y-66238372D01*
X40310000Y-76308372D02*
X40310000Y-76038372D01*
D14*
X42310000Y-57788372D02*
G75*
G03*
X42310000Y-57788372I-100000J0D01*
G01*
X91725000Y-88165000D02*
X100045000Y-88165000D01*
X91725000Y-93445000D02*
X91725000Y-88165000D01*
X100045000Y-93445000D02*
X91725000Y-93445000D01*
X100045000Y-88165000D02*
X100045000Y-93445000D01*
X99655000Y-88805000D02*
G75*
G03*
X99655000Y-88805000I-100000J0D01*
G01*
D11*
X83645240Y-105775000D02*
X83645240Y-103090000D01*
X83645240Y-103090000D02*
X81725240Y-103090000D01*
X81725240Y-103090000D02*
X81725240Y-105775000D01*
D12*
X65405000Y-67520000D02*
G75*
G03*
X67945000Y-67520000I1270000J0D01*
G01*
X67945000Y-72180000D02*
G75*
G03*
X65405000Y-72180000I-1270000J0D01*
G01*
D11*
X79402000Y-67706000D02*
X79402000Y-69064000D01*
X79642000Y-71144000D02*
X79642000Y-72394000D01*
X79362000Y-71144000D02*
X79362000Y-72518000D01*
X80522000Y-71144000D02*
X80522000Y-71658000D01*
X79282000Y-67662000D02*
X79282000Y-69064000D01*
X78721000Y-67539000D02*
X78721000Y-69064000D01*
X79682000Y-67836000D02*
X79682000Y-69064000D01*
X78721000Y-71144000D02*
X78721000Y-72669000D01*
X80922000Y-69299000D02*
X80922000Y-70909000D01*
X79442000Y-71144000D02*
X79442000Y-72486000D01*
X79322000Y-67676000D02*
X79322000Y-69064000D01*
X78601000Y-67528000D02*
X78601000Y-72680000D01*
X79081000Y-71144000D02*
X79081000Y-72605000D01*
X79642000Y-67814000D02*
X79642000Y-69064000D01*
X79001000Y-67584000D02*
X79001000Y-69064000D01*
X79442000Y-67722000D02*
X79442000Y-69064000D01*
X80602000Y-71144000D02*
X80602000Y-71547000D01*
X80322000Y-68319000D02*
X80322000Y-69064000D01*
X79482000Y-71144000D02*
X79482000Y-72469000D01*
X78801000Y-67548000D02*
X78801000Y-69064000D01*
X79041000Y-67593000D02*
X79041000Y-69064000D01*
X80722000Y-71144000D02*
X80722000Y-71355000D01*
X79522000Y-67756000D02*
X79522000Y-69064000D01*
X80402000Y-68405000D02*
X80402000Y-69064000D01*
X79602000Y-71144000D02*
X79602000Y-72414000D01*
X79842000Y-67929000D02*
X79842000Y-69064000D01*
X80362000Y-71144000D02*
X80362000Y-71847000D01*
X78441000Y-67524000D02*
X78441000Y-72684000D01*
X79882000Y-67955000D02*
X79882000Y-69064000D01*
X78801000Y-71144000D02*
X78801000Y-72660000D01*
X78761000Y-71144000D02*
X78761000Y-72665000D01*
X78921000Y-67568000D02*
X78921000Y-69064000D01*
X79402000Y-71144000D02*
X79402000Y-72502000D01*
X80962000Y-69427000D02*
X80962000Y-70781000D01*
X80002000Y-71144000D02*
X80002000Y-72169000D01*
X80642000Y-71144000D02*
X80642000Y-71487000D01*
X79962000Y-68009000D02*
X79962000Y-69064000D01*
X79041000Y-71144000D02*
X79041000Y-72615000D01*
X80042000Y-68069000D02*
X80042000Y-69064000D01*
X79202000Y-67636000D02*
X79202000Y-69064000D01*
X80642000Y-68721000D02*
X80642000Y-69064000D01*
X80202000Y-71144000D02*
X80202000Y-72005000D01*
X78961000Y-71144000D02*
X78961000Y-72632000D01*
X80402000Y-71144000D02*
X80402000Y-71803000D01*
X78921000Y-71144000D02*
X78921000Y-72640000D01*
X80122000Y-68133000D02*
X80122000Y-69064000D01*
X79522000Y-71144000D02*
X79522000Y-72452000D01*
X78681000Y-67535000D02*
X78681000Y-69064000D01*
X80442000Y-68451000D02*
X80442000Y-69064000D01*
X79482000Y-67739000D02*
X79482000Y-69064000D01*
X79162000Y-71144000D02*
X79162000Y-72584000D01*
X80482000Y-68499000D02*
X80482000Y-69064000D01*
X80442000Y-71144000D02*
X80442000Y-71757000D01*
X78641000Y-67531000D02*
X78641000Y-72677000D01*
X75636225Y-68629000D02*
X76136225Y-68629000D01*
X79081000Y-67603000D02*
X79081000Y-69064000D01*
X79562000Y-67775000D02*
X79562000Y-69064000D01*
X80082000Y-71144000D02*
X80082000Y-72108000D01*
X79722000Y-67857000D02*
X79722000Y-69064000D01*
X80162000Y-71144000D02*
X80162000Y-72041000D01*
X79242000Y-71144000D02*
X79242000Y-72559000D01*
X79802000Y-67904000D02*
X79802000Y-69064000D01*
X80562000Y-71144000D02*
X80562000Y-71604000D01*
X79962000Y-71144000D02*
X79962000Y-72199000D01*
X80122000Y-71144000D02*
X80122000Y-72075000D01*
X80562000Y-68604000D02*
X80562000Y-69064000D01*
X78961000Y-67576000D02*
X78961000Y-69064000D01*
X80722000Y-68853000D02*
X80722000Y-69064000D01*
X75886225Y-68379000D02*
X75886225Y-68879000D01*
X80162000Y-68167000D02*
X80162000Y-69064000D01*
X78881000Y-67561000D02*
X78881000Y-69064000D01*
X79162000Y-67624000D02*
X79162000Y-69064000D01*
X80522000Y-68550000D02*
X80522000Y-69064000D01*
X78481000Y-67524000D02*
X78481000Y-72684000D01*
X79922000Y-67982000D02*
X79922000Y-69064000D01*
X80602000Y-68661000D02*
X80602000Y-69064000D01*
X80202000Y-68203000D02*
X80202000Y-69064000D01*
X79322000Y-71144000D02*
X79322000Y-72532000D01*
X80482000Y-71144000D02*
X80482000Y-71709000D01*
X79001000Y-71144000D02*
X79001000Y-72624000D01*
X78841000Y-71144000D02*
X78841000Y-72654000D01*
X80242000Y-68240000D02*
X80242000Y-69064000D01*
X79562000Y-71144000D02*
X79562000Y-72433000D01*
X79762000Y-67880000D02*
X79762000Y-69064000D01*
X80882000Y-69189000D02*
X80882000Y-71019000D01*
X79121000Y-71144000D02*
X79121000Y-72595000D01*
X79802000Y-71144000D02*
X79802000Y-72304000D01*
X78761000Y-67543000D02*
X78761000Y-69064000D01*
X80282000Y-68278000D02*
X80282000Y-69064000D01*
X80242000Y-71144000D02*
X80242000Y-71968000D01*
X80362000Y-68361000D02*
X80362000Y-69064000D01*
X81002000Y-69586000D02*
X81002000Y-70622000D01*
X78841000Y-67554000D02*
X78841000Y-69064000D01*
X80682000Y-71144000D02*
X80682000Y-71423000D01*
X80842000Y-69093000D02*
X80842000Y-71115000D01*
X80042000Y-71144000D02*
X80042000Y-72139000D01*
X78881000Y-71144000D02*
X78881000Y-72647000D01*
X78521000Y-67525000D02*
X78521000Y-72683000D01*
X79882000Y-71144000D02*
X79882000Y-72253000D01*
X79922000Y-71144000D02*
X79922000Y-72226000D01*
X80282000Y-71144000D02*
X80282000Y-71930000D01*
X79282000Y-71144000D02*
X79282000Y-72546000D01*
X79121000Y-67613000D02*
X79121000Y-69064000D01*
X78681000Y-71144000D02*
X78681000Y-72673000D01*
X79682000Y-71144000D02*
X79682000Y-72372000D01*
X79762000Y-71144000D02*
X79762000Y-72328000D01*
X80002000Y-68039000D02*
X80002000Y-69064000D01*
X80322000Y-71144000D02*
X80322000Y-71889000D01*
X79362000Y-67690000D02*
X79362000Y-69064000D01*
X80762000Y-68926000D02*
X80762000Y-71282000D01*
X79602000Y-67794000D02*
X79602000Y-69064000D01*
X80082000Y-68100000D02*
X80082000Y-69064000D01*
X81042000Y-69820000D02*
X81042000Y-70388000D01*
X79242000Y-67649000D02*
X79242000Y-69064000D01*
X79202000Y-71144000D02*
X79202000Y-72572000D01*
X78561000Y-67526000D02*
X78561000Y-72682000D01*
X79842000Y-71144000D02*
X79842000Y-72279000D01*
X80802000Y-69006000D02*
X80802000Y-71202000D01*
X79722000Y-71144000D02*
X79722000Y-72351000D01*
X80682000Y-68785000D02*
X80682000Y-69064000D01*
X81061000Y-70104000D02*
G75*
G03*
X81061000Y-70104000I-2620000J0D01*
G01*
D13*
X35260000Y-112060000D02*
X35260000Y-86060000D01*
X61260000Y-112060000D02*
X55260000Y-112060000D01*
X61260000Y-86060000D02*
X61260000Y-112060000D01*
X41260000Y-110060000D02*
X41260000Y-112060000D01*
X55260000Y-112060000D02*
X55260000Y-110060000D01*
X55260000Y-110060000D02*
X41260000Y-110060000D01*
X41260000Y-112060000D02*
X35260000Y-112060000D01*
X35260000Y-86060000D02*
X61260000Y-86060000D01*
D14*
X44360000Y-85560000D02*
G75*
G03*
X44360000Y-85560000I-100000J0D01*
G01*
D12*
X103933000Y-83098000D02*
G75*
G03*
X103933000Y-88098000I0J-2500000D01*
G01*
X93933000Y-88098000D02*
G75*
G03*
X93933000Y-83098000I0J2500000D01*
G01*
D11*
X90586000Y-64148564D02*
X90586000Y-63694436D01*
X89116000Y-64148564D02*
X89116000Y-63694436D01*
D14*
X79090000Y-93445000D02*
X70770000Y-93445000D01*
X70770000Y-88165000D02*
X79090000Y-88165000D01*
X70770000Y-93445000D02*
X70770000Y-88165000D01*
X79090000Y-88165000D02*
X79090000Y-93445000D01*
X78700000Y-88805000D02*
G75*
G03*
X78700000Y-88805000I-100000J0D01*
G01*
D11*
X79866000Y-40459000D02*
X79866000Y-41209000D01*
X76566000Y-42709000D02*
X77316000Y-42709000D01*
X77316000Y-45659000D02*
X82866000Y-45659000D01*
X88416000Y-42709000D02*
X88416000Y-45659000D01*
X76556000Y-46419000D02*
X89176000Y-46419000D01*
X77516000Y-40159000D02*
X76266000Y-40159000D01*
X78366000Y-40459000D02*
X76566000Y-40459000D01*
X85866000Y-41209000D02*
X85866000Y-40459000D01*
X76566000Y-40459000D02*
X76566000Y-41209000D01*
X87366000Y-40459000D02*
X87366000Y-41209000D01*
X88416000Y-45659000D02*
X82866000Y-45659000D01*
X76566000Y-41209000D02*
X78366000Y-41209000D01*
X87366000Y-41209000D02*
X89166000Y-41209000D01*
X89166000Y-41209000D02*
X89166000Y-40459000D01*
X89166000Y-40459000D02*
X87366000Y-40459000D01*
X77316000Y-42709000D02*
X77316000Y-45659000D01*
X89176000Y-40449000D02*
X76556000Y-40449000D01*
X85866000Y-40459000D02*
X79866000Y-40459000D01*
X76266000Y-40159000D02*
X76266000Y-41409000D01*
X89176000Y-46419000D02*
X89176000Y-40449000D01*
X78366000Y-41209000D02*
X78366000Y-40459000D01*
X76556000Y-40449000D02*
X76556000Y-46419000D01*
X79866000Y-41209000D02*
X85866000Y-41209000D01*
X89166000Y-42709000D02*
X88416000Y-42709000D01*
D10*
X101905000Y-103805000D02*
X101905000Y-102205000D01*
X102480000Y-109555000D02*
X101830000Y-109555000D01*
X91830000Y-109555000D02*
X92480000Y-109555000D01*
X102480000Y-103805000D02*
X102480000Y-109555000D01*
X91830000Y-103805000D02*
X91830000Y-109555000D01*
X91830000Y-103805000D02*
X92480000Y-103805000D01*
X102480000Y-103805000D02*
X101905000Y-103805000D01*
D11*
X77696000Y-64994000D02*
X77696000Y-64244000D01*
X76196000Y-58194000D02*
X75446000Y-58194000D01*
X77696000Y-64244000D02*
X80646000Y-64244000D01*
X76196000Y-64994000D02*
X76196000Y-63194000D01*
X75436000Y-65004000D02*
X81406000Y-65004000D01*
X75446000Y-63194000D02*
X75446000Y-64994000D01*
X80646000Y-64244000D02*
X80646000Y-59944000D01*
X76196000Y-56694000D02*
X76196000Y-54894000D01*
X76196000Y-61694000D02*
X76196000Y-58194000D01*
X75446000Y-58194000D02*
X75446000Y-61694000D01*
X81406000Y-54884000D02*
X75436000Y-54884000D01*
X77696000Y-55644000D02*
X80646000Y-55644000D01*
X75146000Y-64044000D02*
X75146000Y-65294000D01*
X75446000Y-64994000D02*
X76196000Y-64994000D01*
X76196000Y-63194000D02*
X75446000Y-63194000D01*
X80646000Y-55644000D02*
X80646000Y-59944000D01*
X75446000Y-61694000D02*
X76196000Y-61694000D01*
X75146000Y-65294000D02*
X76396000Y-65294000D01*
X75436000Y-54884000D02*
X75436000Y-65004000D01*
X81406000Y-65004000D02*
X81406000Y-54884000D01*
X76196000Y-54894000D02*
X75446000Y-54894000D01*
X77696000Y-54894000D02*
X77696000Y-55644000D01*
X75446000Y-56694000D02*
X76196000Y-56694000D01*
X75446000Y-54894000D02*
X75446000Y-56694000D01*
X78740000Y-47049000D02*
X75140000Y-47049000D01*
X78740000Y-52519000D02*
X80940000Y-52519000D01*
X78740000Y-52519000D02*
X76540000Y-52519000D01*
X78740000Y-47049000D02*
X80940000Y-47049000D01*
X104600240Y-103090000D02*
X102680240Y-103090000D01*
X102680240Y-103090000D02*
X102680240Y-105775000D01*
X104600240Y-105775000D02*
X104600240Y-103090000D01*
X73471436Y-58574000D02*
X73925564Y-58574000D01*
X73471436Y-60044000D02*
X73925564Y-60044000D01*
X108777000Y-92504792D02*
X100773000Y-92504792D01*
X108700000Y-92824792D02*
X105815000Y-92824792D01*
X107331000Y-94904792D02*
X102219000Y-94904792D01*
X108479000Y-93424792D02*
X105815000Y-93424792D01*
X103735000Y-92824792D02*
X100850000Y-92824792D01*
X103735000Y-93664792D02*
X101191000Y-93664792D01*
X108580000Y-93184792D02*
X105815000Y-93184792D01*
X106877000Y-95224792D02*
X102673000Y-95224792D01*
X108381000Y-93624792D02*
X105815000Y-93624792D01*
X106121000Y-95584792D02*
X103429000Y-95584792D01*
X106809000Y-95264792D02*
X102741000Y-95264792D01*
X107758000Y-94504792D02*
X105815000Y-94504792D01*
X107003000Y-95144792D02*
X102547000Y-95144792D01*
X108677000Y-92904792D02*
X105815000Y-92904792D01*
X106327000Y-95504792D02*
X103223000Y-95504792D01*
X108854000Y-91823792D02*
X100696000Y-91823792D01*
X108817000Y-92263792D02*
X100733000Y-92263792D01*
X103735000Y-92984792D02*
X100898000Y-92984792D01*
X107120000Y-95064792D02*
X102430000Y-95064792D01*
X103735000Y-93184792D02*
X100970000Y-93184792D01*
X108855000Y-91783792D02*
X100695000Y-91783792D01*
X106420000Y-95464792D02*
X103130000Y-95464792D01*
X108565000Y-93224792D02*
X105815000Y-93224792D01*
X107490000Y-87694094D02*
X106690000Y-87694094D01*
X107964000Y-94264792D02*
X105815000Y-94264792D01*
X103735000Y-92584792D02*
X100790000Y-92584792D01*
X108315000Y-93744792D02*
X105815000Y-93744792D01*
X108849000Y-91943792D02*
X100701000Y-91943792D01*
X107794000Y-94464792D02*
X105815000Y-94464792D01*
X108722000Y-92744792D02*
X105815000Y-92744792D01*
X108855000Y-91703792D02*
X100695000Y-91703792D01*
X103735000Y-93584792D02*
X101148000Y-93584792D01*
X103735000Y-94304792D02*
X101619000Y-94304792D01*
X108843000Y-92023792D02*
X100707000Y-92023792D01*
X105723000Y-95704792D02*
X103827000Y-95704792D01*
X108805000Y-92343792D02*
X100745000Y-92343792D01*
X103735000Y-94624792D02*
X101908000Y-94624792D01*
X105308000Y-95784792D02*
X104242000Y-95784792D01*
X103735000Y-93984792D02*
X101383000Y-93984792D01*
X103735000Y-92664792D02*
X100808000Y-92664792D01*
X103735000Y-93344792D02*
X101035000Y-93344792D01*
X103735000Y-93304792D02*
X101018000Y-93304792D01*
X108532000Y-93304792D02*
X105815000Y-93304792D01*
X108812000Y-92303792D02*
X100738000Y-92303792D01*
X108836000Y-92103792D02*
X100714000Y-92103792D01*
X103735000Y-92944792D02*
X100886000Y-92944792D01*
X108652000Y-92984792D02*
X105815000Y-92984792D01*
X108055000Y-94144792D02*
X105815000Y-94144792D01*
X108084000Y-94104792D02*
X105815000Y-94104792D01*
X103735000Y-94104792D02*
X101466000Y-94104792D01*
X103735000Y-94184792D02*
X101525000Y-94184792D01*
X108851000Y-91903792D02*
X100699000Y-91903792D01*
X107426000Y-94824792D02*
X102124000Y-94824792D01*
X107601000Y-94664792D02*
X101949000Y-94664792D01*
X103735000Y-94344792D02*
X101651000Y-94344792D01*
X108441000Y-93504792D02*
X105815000Y-93504792D01*
X103735000Y-94144792D02*
X101495000Y-94144792D01*
X108785000Y-92464792D02*
X100765000Y-92464792D01*
X108596000Y-93144792D02*
X105815000Y-93144792D01*
X108610000Y-93104792D02*
X105815000Y-93104792D01*
X103735000Y-93784792D02*
X101258000Y-93784792D01*
X103735000Y-94464792D02*
X101756000Y-94464792D01*
X107865000Y-94384792D02*
X105815000Y-94384792D01*
X107090000Y-87294094D02*
X107090000Y-88094094D01*
X108689000Y-92864792D02*
X105815000Y-92864792D01*
X106941000Y-95184792D02*
X102609000Y-95184792D01*
X103735000Y-94544792D02*
X101830000Y-94544792D01*
X103735000Y-94424792D02*
X101720000Y-94424792D01*
X103735000Y-94384792D02*
X101685000Y-94384792D01*
X108140000Y-94024792D02*
X105815000Y-94024792D01*
X103735000Y-93704792D02*
X101213000Y-93704792D01*
X108515000Y-93344792D02*
X105815000Y-93344792D01*
X103735000Y-93744792D02*
X101235000Y-93744792D01*
X103735000Y-94224792D02*
X101555000Y-94224792D01*
X108193000Y-93944792D02*
X105815000Y-93944792D01*
X103735000Y-93024792D02*
X100912000Y-93024792D01*
X107931000Y-94304792D02*
X105815000Y-94304792D01*
X107280000Y-94944792D02*
X102270000Y-94944792D01*
X108638000Y-93024792D02*
X105815000Y-93024792D01*
X108497000Y-93384792D02*
X105815000Y-93384792D01*
X103735000Y-93504792D02*
X101109000Y-93504792D01*
X108664000Y-92944792D02*
X105815000Y-92944792D01*
X107899000Y-94344792D02*
X105815000Y-94344792D01*
X103735000Y-93144792D02*
X100954000Y-93144792D01*
X108402000Y-93584792D02*
X105815000Y-93584792D01*
X108751000Y-92624792D02*
X105815000Y-92624792D01*
X103735000Y-92624792D02*
X100799000Y-92624792D01*
X108852000Y-91863792D02*
X100698000Y-91863792D01*
X103735000Y-93464792D02*
X101089000Y-93464792D01*
X103735000Y-92864792D02*
X100861000Y-92864792D01*
X108268000Y-93824792D02*
X105815000Y-93824792D01*
X107379000Y-94864792D02*
X102171000Y-94864792D01*
X108549000Y-93264792D02*
X105815000Y-93264792D01*
X107830000Y-94424792D02*
X105815000Y-94424792D01*
X108732000Y-92704792D02*
X105815000Y-92704792D01*
X107995000Y-94224792D02*
X105815000Y-94224792D01*
X103735000Y-93544792D02*
X101128000Y-93544792D01*
X103735000Y-92784792D02*
X100839000Y-92784792D01*
X108823000Y-92223792D02*
X100727000Y-92223792D01*
X108625000Y-93064792D02*
X105815000Y-93064792D01*
X108025000Y-94184792D02*
X105815000Y-94184792D01*
X103735000Y-93104792D02*
X100940000Y-93104792D01*
X103735000Y-94504792D02*
X101792000Y-94504792D01*
X107062000Y-95104792D02*
X102488000Y-95104792D01*
X103735000Y-93384792D02*
X101053000Y-93384792D01*
X108292000Y-93784792D02*
X105815000Y-93784792D01*
X103735000Y-94264792D02*
X101586000Y-94264792D01*
X103735000Y-94584792D02*
X101868000Y-94584792D01*
X108337000Y-93704792D02*
X105815000Y-93704792D01*
X103735000Y-94064792D02*
X101437000Y-94064792D01*
X108855000Y-91743792D02*
X100695000Y-91743792D01*
X107229000Y-94984792D02*
X102321000Y-94984792D01*
X106506000Y-95424792D02*
X103044000Y-95424792D01*
X103735000Y-93904792D02*
X101331000Y-93904792D01*
X103735000Y-92744792D02*
X100828000Y-92744792D01*
X106228000Y-95544792D02*
X103322000Y-95544792D01*
X107516000Y-94744792D02*
X102034000Y-94744792D01*
X108832000Y-92143792D02*
X100718000Y-92143792D01*
X108219000Y-93904792D02*
X105815000Y-93904792D01*
X108167000Y-93984792D02*
X105815000Y-93984792D01*
X108760000Y-92584792D02*
X105815000Y-92584792D01*
X105873000Y-95664792D02*
X103677000Y-95664792D01*
X108792000Y-92424792D02*
X100758000Y-92424792D01*
X108422000Y-93544792D02*
X105815000Y-93544792D01*
X108827000Y-92183792D02*
X100723000Y-92183792D01*
X108799000Y-92383792D02*
X100751000Y-92383792D01*
X105543000Y-95744792D02*
X104007000Y-95744792D01*
X103735000Y-93064792D02*
X100925000Y-93064792D01*
X103735000Y-93624792D02*
X101169000Y-93624792D01*
X108113000Y-94064792D02*
X105815000Y-94064792D01*
X108769000Y-92544792D02*
X100781000Y-92544792D01*
X107642000Y-94624792D02*
X105815000Y-94624792D01*
X108742000Y-92664792D02*
X105815000Y-92664792D01*
X103735000Y-92704792D02*
X100818000Y-92704792D01*
X108711000Y-92784792D02*
X105815000Y-92784792D01*
X108461000Y-93464792D02*
X105815000Y-93464792D01*
X103735000Y-93224792D02*
X100985000Y-93224792D01*
X108846000Y-91983792D02*
X100704000Y-91983792D01*
X108840000Y-92063792D02*
X100710000Y-92063792D01*
X103735000Y-93264792D02*
X101001000Y-93264792D01*
X103735000Y-93424792D02*
X101071000Y-93424792D01*
X107682000Y-94584792D02*
X105815000Y-94584792D01*
X106665000Y-95344792D02*
X102885000Y-95344792D01*
X103735000Y-93864792D02*
X101306000Y-93864792D01*
X107175000Y-95024792D02*
X102375000Y-95024792D01*
X103735000Y-94024792D02*
X101410000Y-94024792D01*
X106739000Y-95304792D02*
X102811000Y-95304792D01*
X108359000Y-93664792D02*
X105815000Y-93664792D01*
X103735000Y-92904792D02*
X100873000Y-92904792D01*
X106588000Y-95384792D02*
X102962000Y-95384792D01*
X107720000Y-94544792D02*
X105815000Y-94544792D01*
X103735000Y-93944792D02*
X101357000Y-93944792D01*
X108244000Y-93864792D02*
X105815000Y-93864792D01*
X107472000Y-94784792D02*
X102078000Y-94784792D01*
X107559000Y-94704792D02*
X101991000Y-94704792D01*
X106004000Y-95624792D02*
X103546000Y-95624792D01*
X103735000Y-93824792D02*
X101282000Y-93824792D01*
X108895000Y-91703792D02*
G75*
G03*
X108895000Y-91703792I-4120000J0D01*
G01*
D13*
X92135000Y-115009250D02*
X92885000Y-115009250D01*
X92135000Y-120009250D02*
X92135000Y-118384250D01*
X99635000Y-120009250D02*
X92135000Y-120009250D01*
X99635000Y-118384250D02*
X99635000Y-120009250D01*
X92135000Y-115509250D02*
X92135000Y-115009250D01*
X99635000Y-115009250D02*
X99635000Y-115509250D01*
X98885000Y-115009250D02*
X99635000Y-115009250D01*
X94735000Y-113609250D02*
G75*
G03*
X94735000Y-113609250I-150000J0D01*
G01*
D11*
X82766000Y-63694436D02*
X82766000Y-64148564D01*
X84236000Y-63694436D02*
X84236000Y-64148564D01*
X79475000Y-96781252D02*
X79475000Y-96258748D01*
X78005000Y-96781252D02*
X78005000Y-96258748D01*
X76312936Y-54329000D02*
X76767064Y-54329000D01*
X76312936Y-52859000D02*
X76767064Y-52859000D01*
X106057000Y-119353500D02*
X101693000Y-119353500D01*
X107025000Y-117673500D02*
X104915000Y-117673500D01*
X106922000Y-118033500D02*
X104915000Y-118033500D01*
X106012000Y-119393500D02*
X101738000Y-119393500D01*
X107090000Y-117272500D02*
X104915000Y-117272500D01*
X107076000Y-117392500D02*
X104915000Y-117392500D01*
X106771000Y-118393500D02*
X104915000Y-118393500D01*
X106291000Y-119113500D02*
X104915000Y-119113500D01*
X102835000Y-119113500D02*
X101459000Y-119113500D01*
X102835000Y-118553500D02*
X101063000Y-118553500D01*
X105525000Y-119753500D02*
X102225000Y-119753500D01*
X106099000Y-119313500D02*
X101651000Y-119313500D01*
X102835000Y-117192500D02*
X100653000Y-117192500D01*
X102835000Y-118313500D02*
X100941000Y-118313500D01*
X105307000Y-119873500D02*
X102443000Y-119873500D01*
X102835000Y-118353500D02*
X100959000Y-118353500D01*
X107105000Y-117032500D02*
X100645000Y-117032500D01*
X107086000Y-117312500D02*
X104915000Y-117312500D01*
X107103000Y-117072500D02*
X100647000Y-117072500D01*
X106140000Y-119273500D02*
X101610000Y-119273500D01*
X102835000Y-118393500D02*
X100979000Y-118393500D01*
X102835000Y-118153500D02*
X100873000Y-118153500D01*
X106893000Y-118113500D02*
X104915000Y-118113500D01*
X102835000Y-117312500D02*
X100664000Y-117312500D01*
X102835000Y-117512500D02*
X100693000Y-117512500D01*
X106687000Y-118553500D02*
X104915000Y-118553500D01*
X102835000Y-117632500D02*
X100716000Y-117632500D01*
X104677000Y-120113500D02*
X103073000Y-120113500D01*
X107093000Y-117232500D02*
X104915000Y-117232500D01*
X107016000Y-117713500D02*
X104915000Y-117713500D01*
X102835000Y-118433500D02*
X100999000Y-118433500D01*
X104508000Y-120153500D02*
X103242000Y-120153500D01*
X106029000Y-113767259D02*
X105399000Y-113767259D01*
X106423000Y-118953500D02*
X104915000Y-118953500D01*
X107105000Y-116992500D02*
X100645000Y-116992500D01*
X102835000Y-117953500D02*
X100801000Y-117953500D01*
X106936000Y-117993500D02*
X104915000Y-117993500D01*
X105967000Y-119433500D02*
X101783000Y-119433500D01*
X102835000Y-118833500D02*
X101239000Y-118833500D01*
X105137000Y-119953500D02*
X102613000Y-119953500D01*
X102835000Y-117472500D02*
X100686000Y-117472500D01*
X106751000Y-118433500D02*
X104915000Y-118433500D01*
X105651000Y-119673500D02*
X102099000Y-119673500D01*
X102835000Y-117392500D02*
X100674000Y-117392500D01*
X107042000Y-117592500D02*
X104915000Y-117592500D01*
X106845000Y-118233500D02*
X104915000Y-118233500D01*
X102835000Y-118673500D02*
X101133000Y-118673500D01*
X102835000Y-118113500D02*
X100857000Y-118113500D01*
X102835000Y-119033500D02*
X101391000Y-119033500D01*
X106985000Y-117833500D02*
X104915000Y-117833500D01*
X105765000Y-119593500D02*
X101985000Y-119593500D01*
X106565000Y-118753500D02*
X104915000Y-118753500D01*
X106827000Y-118273500D02*
X104915000Y-118273500D01*
X102835000Y-118913500D02*
X101297000Y-118913500D01*
X105819000Y-119553500D02*
X101931000Y-119553500D01*
X102835000Y-117592500D02*
X100708000Y-117592500D01*
X102835000Y-118713500D02*
X101159000Y-118713500D01*
X102835000Y-118873500D02*
X101268000Y-118873500D01*
X102835000Y-117272500D02*
X100660000Y-117272500D01*
X106709000Y-118513500D02*
X104915000Y-118513500D01*
X102835000Y-118993500D02*
X101359000Y-118993500D01*
X102835000Y-118793500D02*
X101211000Y-118793500D01*
X102835000Y-118073500D02*
X100842000Y-118073500D01*
X107034000Y-117632500D02*
X104915000Y-117632500D01*
X106665000Y-118593500D02*
X104915000Y-118593500D01*
X105040000Y-119993500D02*
X102710000Y-119993500D01*
X104277000Y-120193500D02*
X103473000Y-120193500D01*
X105870000Y-119513500D02*
X101880000Y-119513500D01*
X107099000Y-117152500D02*
X100651000Y-117152500D01*
X106359000Y-119033500D02*
X104915000Y-119033500D01*
X102835000Y-118953500D02*
X101327000Y-118953500D01*
X106617000Y-118673500D02*
X104915000Y-118673500D01*
X106391000Y-118993500D02*
X104915000Y-118993500D01*
X106877000Y-118153500D02*
X104915000Y-118153500D01*
X106325000Y-119073500D02*
X104915000Y-119073500D01*
X102835000Y-118233500D02*
X100905000Y-118233500D01*
X106861000Y-118193500D02*
X104915000Y-118193500D01*
X105709000Y-119633500D02*
X102041000Y-119633500D01*
X102835000Y-118753500D02*
X101185000Y-118753500D01*
X104934000Y-120033500D02*
X102816000Y-120033500D01*
X106591000Y-118713500D02*
X104915000Y-118713500D01*
X107064000Y-117472500D02*
X104915000Y-117472500D01*
X102835000Y-119153500D02*
X101495000Y-119153500D01*
X102835000Y-117352500D02*
X100669000Y-117352500D01*
X102835000Y-118273500D02*
X100923000Y-118273500D01*
X102835000Y-119233500D02*
X101570000Y-119233500D01*
X107070000Y-117432500D02*
X104915000Y-117432500D01*
X106809000Y-118313500D02*
X104915000Y-118313500D01*
X105384000Y-119833500D02*
X102366000Y-119833500D01*
X104815000Y-120073500D02*
X102935000Y-120073500D01*
X102835000Y-117873500D02*
X100777000Y-117873500D01*
X106180000Y-119233500D02*
X104915000Y-119233500D01*
X105225000Y-119913500D02*
X102525000Y-119913500D01*
X106218000Y-119193500D02*
X104915000Y-119193500D01*
X102835000Y-117793500D02*
X100754000Y-117793500D01*
X106482000Y-118873500D02*
X104915000Y-118873500D01*
X106973000Y-117873500D02*
X104915000Y-117873500D01*
X105919000Y-119473500D02*
X101831000Y-119473500D01*
X105456000Y-119793500D02*
X102294000Y-119793500D01*
X107102000Y-117112500D02*
X100648000Y-117112500D01*
X107050000Y-117552500D02*
X104915000Y-117552500D01*
X102835000Y-118593500D02*
X101085000Y-118593500D01*
X102835000Y-119193500D02*
X101532000Y-119193500D01*
X106731000Y-118473500D02*
X104915000Y-118473500D01*
X102835000Y-117232500D02*
X100657000Y-117232500D01*
X106791000Y-118353500D02*
X104915000Y-118353500D01*
X107097000Y-117192500D02*
X104915000Y-117192500D01*
X106255000Y-119153500D02*
X104915000Y-119153500D01*
X106961000Y-117913500D02*
X104915000Y-117913500D01*
X105714000Y-113452259D02*
X105714000Y-114082259D01*
X106511000Y-118833500D02*
X104915000Y-118833500D01*
X107081000Y-117352500D02*
X104915000Y-117352500D01*
X106641000Y-118633500D02*
X104915000Y-118633500D01*
X102835000Y-117713500D02*
X100734000Y-117713500D01*
X102835000Y-118473500D02*
X101019000Y-118473500D01*
X102835000Y-117753500D02*
X100744000Y-117753500D01*
X102835000Y-117432500D02*
X100680000Y-117432500D01*
X106949000Y-117953500D02*
X104915000Y-117953500D01*
X102835000Y-118193500D02*
X100889000Y-118193500D01*
X102835000Y-118033500D02*
X100828000Y-118033500D01*
X102835000Y-117833500D02*
X100765000Y-117833500D01*
X102835000Y-118513500D02*
X101041000Y-118513500D01*
X102835000Y-117993500D02*
X100814000Y-117993500D01*
X102835000Y-117913500D02*
X100789000Y-117913500D01*
X107006000Y-117753500D02*
X104915000Y-117753500D01*
X106453000Y-118913500D02*
X104915000Y-118913500D01*
X102835000Y-117673500D02*
X100725000Y-117673500D01*
X107057000Y-117512500D02*
X104915000Y-117512500D01*
X102835000Y-118633500D02*
X101109000Y-118633500D01*
X106539000Y-118793500D02*
X104915000Y-118793500D01*
X106996000Y-117793500D02*
X104915000Y-117793500D01*
X102835000Y-119073500D02*
X101425000Y-119073500D01*
X102835000Y-117552500D02*
X100700000Y-117552500D01*
X105589000Y-119713500D02*
X102161000Y-119713500D01*
X106908000Y-118073500D02*
X104915000Y-118073500D01*
X107105000Y-116952500D02*
X100645000Y-116952500D01*
X107145000Y-116952500D02*
G75*
G03*
X107145000Y-116952500I-3270000J0D01*
G01*
X79744748Y-54329000D02*
X80267252Y-54329000D01*
X79744748Y-52859000D02*
X80267252Y-52859000D01*
X83806000Y-55289000D02*
X82556000Y-55289000D01*
X87156000Y-55589000D02*
X86156000Y-55589000D01*
X82846000Y-55579000D02*
X82846000Y-61549000D01*
X90466000Y-61549000D02*
X90466000Y-55579000D01*
X82556000Y-55289000D02*
X82556000Y-56539000D01*
X88656000Y-55589000D02*
X88656000Y-56339000D01*
X90466000Y-55579000D02*
X82846000Y-55579000D01*
X82856000Y-55589000D02*
X82856000Y-56339000D01*
X86156000Y-56339000D02*
X87156000Y-56339000D01*
X82856000Y-57839000D02*
X83606000Y-57839000D01*
X82846000Y-61549000D02*
X90466000Y-61549000D01*
X90456000Y-55589000D02*
X88656000Y-55589000D01*
X89706000Y-57839000D02*
X89706000Y-60789000D01*
X84656000Y-55589000D02*
X82856000Y-55589000D01*
X87156000Y-56339000D02*
X87156000Y-55589000D01*
X82856000Y-56339000D02*
X84656000Y-56339000D01*
X90456000Y-56339000D02*
X90456000Y-55589000D01*
X83606000Y-60789000D02*
X86656000Y-60789000D01*
X88656000Y-56339000D02*
X90456000Y-56339000D01*
X83606000Y-57839000D02*
X83606000Y-60789000D01*
X86156000Y-55589000D02*
X86156000Y-56339000D01*
X89706000Y-60789000D02*
X86656000Y-60789000D01*
X90456000Y-57839000D02*
X89706000Y-57839000D01*
X84656000Y-56339000D02*
X84656000Y-55589000D01*
X86596000Y-65481500D02*
X87246000Y-65481500D01*
X86596000Y-62361500D02*
X84921000Y-62361500D01*
X86596000Y-65481500D02*
X85946000Y-65481500D01*
X86596000Y-62361500D02*
X87246000Y-62361500D01*
X85102000Y-119353500D02*
X80738000Y-119353500D01*
X81880000Y-117993500D02*
X79859000Y-117993500D01*
X81880000Y-117232500D02*
X79702000Y-117232500D01*
X86147000Y-117112500D02*
X79693000Y-117112500D01*
X84915000Y-119513500D02*
X80925000Y-119513500D01*
X86079000Y-117632500D02*
X83960000Y-117632500D01*
X81880000Y-117632500D02*
X79761000Y-117632500D01*
X85994000Y-117953500D02*
X83960000Y-117953500D01*
X85732000Y-118553500D02*
X83960000Y-118553500D01*
X86095000Y-117552500D02*
X83960000Y-117552500D01*
X84696000Y-119673500D02*
X81144000Y-119673500D01*
X81880000Y-117432500D02*
X79725000Y-117432500D01*
X81880000Y-118873500D02*
X80313000Y-118873500D01*
X81880000Y-117913500D02*
X79834000Y-117913500D01*
X86135000Y-117272500D02*
X83960000Y-117272500D01*
X85754000Y-118513500D02*
X83960000Y-118513500D01*
X81880000Y-118353500D02*
X80004000Y-118353500D01*
X85710000Y-118593500D02*
X83960000Y-118593500D01*
X85938000Y-118113500D02*
X83960000Y-118113500D01*
X86051000Y-117753500D02*
X83960000Y-117753500D01*
X85527000Y-118873500D02*
X83960000Y-118873500D01*
X85300000Y-119153500D02*
X83960000Y-119153500D01*
X86115000Y-117432500D02*
X83960000Y-117432500D01*
X84182000Y-119953500D02*
X81658000Y-119953500D01*
X86087000Y-117592500D02*
X83960000Y-117592500D01*
X85816000Y-118393500D02*
X83960000Y-118393500D01*
X81880000Y-118313500D02*
X79986000Y-118313500D01*
X85404000Y-119033500D02*
X83960000Y-119033500D01*
X86142000Y-117192500D02*
X83960000Y-117192500D01*
X81880000Y-118953500D02*
X80372000Y-118953500D01*
X81880000Y-117272500D02*
X79705000Y-117272500D01*
X85057000Y-119393500D02*
X80783000Y-119393500D01*
X81880000Y-118233500D02*
X79950000Y-118233500D01*
X84754000Y-119633500D02*
X81086000Y-119633500D01*
X86030000Y-117833500D02*
X83960000Y-117833500D01*
X85796000Y-118433500D02*
X83960000Y-118433500D01*
X81880000Y-117512500D02*
X79738000Y-117512500D01*
X85225000Y-119233500D02*
X83960000Y-119233500D01*
X81880000Y-118913500D02*
X80342000Y-118913500D01*
X81880000Y-118833500D02*
X80284000Y-118833500D01*
X81880000Y-118433500D02*
X80044000Y-118433500D01*
X86018000Y-117873500D02*
X83960000Y-117873500D01*
X85890000Y-118233500D02*
X83960000Y-118233500D01*
X86121000Y-117392500D02*
X83960000Y-117392500D01*
X81880000Y-117192500D02*
X79698000Y-117192500D01*
X81880000Y-118993500D02*
X80404000Y-118993500D01*
X81880000Y-117833500D02*
X79810000Y-117833500D01*
X81880000Y-117592500D02*
X79753000Y-117592500D01*
X85922000Y-118153500D02*
X83960000Y-118153500D01*
X85498000Y-118913500D02*
X83960000Y-118913500D01*
X81880000Y-117753500D02*
X79789000Y-117753500D01*
X84570000Y-119753500D02*
X81270000Y-119753500D01*
X83553000Y-120153500D02*
X82287000Y-120153500D01*
X81880000Y-118673500D02*
X80178000Y-118673500D01*
X86006000Y-117913500D02*
X83960000Y-117913500D01*
X86144000Y-117152500D02*
X79696000Y-117152500D01*
X81880000Y-118473500D02*
X80064000Y-118473500D01*
X85584000Y-118793500D02*
X83960000Y-118793500D01*
X85185000Y-119273500D02*
X80655000Y-119273500D01*
X85012000Y-119433500D02*
X80828000Y-119433500D01*
X83722000Y-120113500D02*
X82118000Y-120113500D01*
X84352000Y-119873500D02*
X81488000Y-119873500D01*
X86126000Y-117352500D02*
X83960000Y-117352500D01*
X86070000Y-117673500D02*
X83960000Y-117673500D01*
X85967000Y-118033500D02*
X83960000Y-118033500D01*
X81880000Y-119153500D02*
X80540000Y-119153500D01*
X81880000Y-117472500D02*
X79731000Y-117472500D01*
X84634000Y-119713500D02*
X81206000Y-119713500D01*
X81880000Y-118193500D02*
X79934000Y-118193500D01*
X84864000Y-119553500D02*
X80976000Y-119553500D01*
X85953000Y-118073500D02*
X83960000Y-118073500D01*
X85556000Y-118833500D02*
X83960000Y-118833500D01*
X81880000Y-117673500D02*
X79770000Y-117673500D01*
X85336000Y-119113500D02*
X83960000Y-119113500D01*
X84964000Y-119473500D02*
X80876000Y-119473500D01*
X85836000Y-118353500D02*
X83960000Y-118353500D01*
X85436000Y-118993500D02*
X83960000Y-118993500D01*
X81880000Y-117552500D02*
X79745000Y-117552500D01*
X84759000Y-113452259D02*
X84759000Y-114082259D01*
X85776000Y-118473500D02*
X83960000Y-118473500D01*
X86138000Y-117232500D02*
X83960000Y-117232500D01*
X81880000Y-118713500D02*
X80204000Y-118713500D01*
X81880000Y-118033500D02*
X79873000Y-118033500D01*
X81880000Y-119193500D02*
X80577000Y-119193500D01*
X86150000Y-116992500D02*
X79690000Y-116992500D01*
X81880000Y-118553500D02*
X80108000Y-118553500D01*
X81880000Y-119233500D02*
X80615000Y-119233500D01*
X83979000Y-120033500D02*
X81861000Y-120033500D01*
X85686000Y-118633500D02*
X83960000Y-118633500D01*
X81880000Y-118793500D02*
X80256000Y-118793500D01*
X81880000Y-118633500D02*
X80154000Y-118633500D01*
X86102000Y-117512500D02*
X83960000Y-117512500D01*
X81880000Y-118073500D02*
X79887000Y-118073500D01*
X81880000Y-118753500D02*
X80230000Y-118753500D01*
X84085000Y-119993500D02*
X81755000Y-119993500D01*
X81880000Y-118593500D02*
X80130000Y-118593500D01*
X81880000Y-117713500D02*
X79779000Y-117713500D01*
X85610000Y-118753500D02*
X83960000Y-118753500D01*
X81880000Y-118393500D02*
X80024000Y-118393500D01*
X81880000Y-117312500D02*
X79709000Y-117312500D01*
X81880000Y-117392500D02*
X79719000Y-117392500D01*
X86148000Y-117072500D02*
X79692000Y-117072500D01*
X85074000Y-113767259D02*
X84444000Y-113767259D01*
X84429000Y-119833500D02*
X81411000Y-119833500D01*
X81880000Y-119113500D02*
X80504000Y-119113500D01*
X81880000Y-119033500D02*
X80436000Y-119033500D01*
X85906000Y-118193500D02*
X83960000Y-118193500D01*
X86150000Y-116952500D02*
X79690000Y-116952500D01*
X83860000Y-120073500D02*
X81980000Y-120073500D01*
X81880000Y-119073500D02*
X80470000Y-119073500D01*
X86150000Y-117032500D02*
X79690000Y-117032500D01*
X81880000Y-118513500D02*
X80086000Y-118513500D01*
X81880000Y-117352500D02*
X79714000Y-117352500D01*
X81880000Y-117873500D02*
X79822000Y-117873500D01*
X85872000Y-118273500D02*
X83960000Y-118273500D01*
X86109000Y-117472500D02*
X83960000Y-117472500D01*
X81880000Y-118113500D02*
X79902000Y-118113500D01*
X81880000Y-117953500D02*
X79846000Y-117953500D01*
X81880000Y-118153500D02*
X79918000Y-118153500D01*
X84810000Y-119593500D02*
X81030000Y-119593500D01*
X85981000Y-117993500D02*
X83960000Y-117993500D01*
X86061000Y-117713500D02*
X83960000Y-117713500D01*
X85468000Y-118953500D02*
X83960000Y-118953500D01*
X85144000Y-119313500D02*
X80696000Y-119313500D01*
X86041000Y-117793500D02*
X83960000Y-117793500D01*
X85662000Y-118673500D02*
X83960000Y-118673500D01*
X83322000Y-120193500D02*
X82518000Y-120193500D01*
X85854000Y-118313500D02*
X83960000Y-118313500D01*
X85263000Y-119193500D02*
X83960000Y-119193500D01*
X85370000Y-119073500D02*
X83960000Y-119073500D01*
X86131000Y-117312500D02*
X83960000Y-117312500D01*
X85636000Y-118713500D02*
X83960000Y-118713500D01*
X81880000Y-118273500D02*
X79968000Y-118273500D01*
X84270000Y-119913500D02*
X81570000Y-119913500D01*
X81880000Y-117793500D02*
X79799000Y-117793500D01*
X84501000Y-119793500D02*
X81339000Y-119793500D01*
X86190000Y-116952500D02*
G75*
G03*
X86190000Y-116952500I-3270000J0D01*
G01*
X68461000Y-47869000D02*
X69211000Y-47869000D01*
X70711000Y-47869000D02*
X70711000Y-47119000D01*
X74421000Y-47879000D02*
X74421000Y-40259000D01*
X70711000Y-40269000D02*
X70711000Y-41019000D01*
X68461000Y-46069000D02*
X68461000Y-47869000D01*
X68461000Y-44569000D02*
X69211000Y-44569000D01*
X70711000Y-41019000D02*
X73661000Y-41019000D01*
X68451000Y-47879000D02*
X74421000Y-47879000D01*
X68461000Y-40269000D02*
X68461000Y-42069000D01*
X68451000Y-40259000D02*
X68451000Y-47879000D01*
X68461000Y-43569000D02*
X68461000Y-44569000D01*
X69211000Y-47869000D02*
X69211000Y-46069000D01*
X74421000Y-40259000D02*
X68451000Y-40259000D01*
X70711000Y-47119000D02*
X73661000Y-47119000D01*
X69211000Y-40269000D02*
X68461000Y-40269000D01*
X68461000Y-42069000D02*
X69211000Y-42069000D01*
X69211000Y-42069000D02*
X69211000Y-40269000D01*
X73661000Y-47119000D02*
X73661000Y-44069000D01*
X68161000Y-48169000D02*
X69411000Y-48169000D01*
X69211000Y-44569000D02*
X69211000Y-43569000D01*
X69211000Y-43569000D02*
X68461000Y-43569000D01*
X73661000Y-41019000D02*
X73661000Y-44069000D01*
X69211000Y-46069000D02*
X68461000Y-46069000D01*
X68161000Y-46919000D02*
X68161000Y-48169000D01*
X86581000Y-67584000D02*
X86581000Y-69064000D01*
X87062000Y-71144000D02*
X87062000Y-72469000D01*
X86541000Y-71144000D02*
X86541000Y-72632000D01*
X83216225Y-68629000D02*
X83716225Y-68629000D01*
X87382000Y-67904000D02*
X87382000Y-69064000D01*
X87502000Y-71144000D02*
X87502000Y-72226000D01*
X86621000Y-67593000D02*
X86621000Y-69064000D01*
X86862000Y-71144000D02*
X86862000Y-72546000D01*
X86742000Y-71144000D02*
X86742000Y-72584000D01*
X87102000Y-67756000D02*
X87102000Y-69064000D01*
X86942000Y-67690000D02*
X86942000Y-69064000D01*
X87782000Y-71144000D02*
X87782000Y-72005000D01*
X87542000Y-68009000D02*
X87542000Y-69064000D01*
X86181000Y-67528000D02*
X86181000Y-72680000D01*
X86701000Y-67613000D02*
X86701000Y-69064000D01*
X87062000Y-67739000D02*
X87062000Y-69064000D01*
X87982000Y-71144000D02*
X87982000Y-71803000D01*
X87822000Y-68240000D02*
X87822000Y-69064000D01*
X87262000Y-67836000D02*
X87262000Y-69064000D01*
X86902000Y-67676000D02*
X86902000Y-69064000D01*
X86822000Y-71144000D02*
X86822000Y-72559000D01*
X87942000Y-68361000D02*
X87942000Y-69064000D01*
X87502000Y-67982000D02*
X87502000Y-69064000D01*
X86381000Y-67548000D02*
X86381000Y-69064000D01*
X86141000Y-67526000D02*
X86141000Y-72682000D01*
X88302000Y-71144000D02*
X88302000Y-71355000D01*
X88022000Y-71144000D02*
X88022000Y-71757000D01*
X87462000Y-71144000D02*
X87462000Y-72253000D01*
X87262000Y-71144000D02*
X87262000Y-72372000D01*
X86461000Y-71144000D02*
X86461000Y-72647000D01*
X86301000Y-67539000D02*
X86301000Y-69064000D01*
X87222000Y-71144000D02*
X87222000Y-72394000D01*
X87182000Y-71144000D02*
X87182000Y-72414000D01*
X86581000Y-71144000D02*
X86581000Y-72624000D01*
X88502000Y-69299000D02*
X88502000Y-70909000D01*
X87902000Y-71144000D02*
X87902000Y-71889000D01*
X86261000Y-71144000D02*
X86261000Y-72673000D01*
X88582000Y-69586000D02*
X88582000Y-70622000D01*
X87182000Y-67794000D02*
X87182000Y-69064000D01*
X87542000Y-71144000D02*
X87542000Y-72199000D01*
X88262000Y-68785000D02*
X88262000Y-69064000D01*
X87862000Y-68278000D02*
X87862000Y-69064000D01*
X88342000Y-68926000D02*
X88342000Y-71282000D01*
X88622000Y-69820000D02*
X88622000Y-70388000D01*
X86661000Y-71144000D02*
X86661000Y-72605000D01*
X88182000Y-71144000D02*
X88182000Y-71547000D01*
X88022000Y-68451000D02*
X88022000Y-69064000D01*
X86381000Y-71144000D02*
X86381000Y-72660000D01*
X87582000Y-71144000D02*
X87582000Y-72169000D01*
X87982000Y-68405000D02*
X87982000Y-69064000D01*
X88062000Y-71144000D02*
X88062000Y-71709000D01*
X86021000Y-67524000D02*
X86021000Y-72684000D01*
X86661000Y-67603000D02*
X86661000Y-69064000D01*
X87702000Y-68133000D02*
X87702000Y-69064000D01*
X87862000Y-71144000D02*
X87862000Y-71930000D01*
X88382000Y-69006000D02*
X88382000Y-71202000D01*
X87342000Y-71144000D02*
X87342000Y-72328000D01*
X87422000Y-67929000D02*
X87422000Y-69064000D01*
X88142000Y-68604000D02*
X88142000Y-69064000D01*
X88462000Y-69189000D02*
X88462000Y-71019000D01*
X86621000Y-71144000D02*
X86621000Y-72615000D01*
X87302000Y-71144000D02*
X87302000Y-72351000D01*
X86701000Y-71144000D02*
X86701000Y-72595000D01*
X88302000Y-68853000D02*
X88302000Y-69064000D01*
X87302000Y-67857000D02*
X87302000Y-69064000D01*
X86341000Y-67543000D02*
X86341000Y-69064000D01*
X88062000Y-68499000D02*
X88062000Y-69064000D01*
X88222000Y-71144000D02*
X88222000Y-71487000D01*
X86982000Y-67706000D02*
X86982000Y-69064000D01*
X87662000Y-71144000D02*
X87662000Y-72108000D01*
X86541000Y-67576000D02*
X86541000Y-69064000D01*
X88102000Y-71144000D02*
X88102000Y-71658000D01*
X87142000Y-71144000D02*
X87142000Y-72433000D01*
X87742000Y-71144000D02*
X87742000Y-72041000D01*
X88262000Y-71144000D02*
X88262000Y-71423000D01*
X87622000Y-71144000D02*
X87622000Y-72139000D01*
X87942000Y-71144000D02*
X87942000Y-71847000D01*
X87142000Y-67775000D02*
X87142000Y-69064000D01*
X87462000Y-67955000D02*
X87462000Y-69064000D01*
X88222000Y-68721000D02*
X88222000Y-69064000D01*
X86782000Y-71144000D02*
X86782000Y-72572000D01*
X86341000Y-71144000D02*
X86341000Y-72665000D01*
X86982000Y-71144000D02*
X86982000Y-72502000D01*
X83466225Y-68379000D02*
X83466225Y-68879000D01*
X86221000Y-67531000D02*
X86221000Y-72677000D01*
X86461000Y-67561000D02*
X86461000Y-69064000D01*
X87022000Y-67722000D02*
X87022000Y-69064000D01*
X87222000Y-67814000D02*
X87222000Y-69064000D01*
X87622000Y-68069000D02*
X87622000Y-69064000D01*
X86301000Y-71144000D02*
X86301000Y-72669000D01*
X87662000Y-68100000D02*
X87662000Y-69064000D01*
X87702000Y-71144000D02*
X87702000Y-72075000D01*
X87782000Y-68203000D02*
X87782000Y-69064000D01*
X86061000Y-67524000D02*
X86061000Y-72684000D01*
X86101000Y-67525000D02*
X86101000Y-72683000D01*
X86421000Y-71144000D02*
X86421000Y-72654000D01*
X88182000Y-68661000D02*
X88182000Y-69064000D01*
X87382000Y-71144000D02*
X87382000Y-72304000D01*
X87582000Y-68039000D02*
X87582000Y-69064000D01*
X88542000Y-69427000D02*
X88542000Y-70781000D01*
X86742000Y-67624000D02*
X86742000Y-69064000D01*
X87342000Y-67880000D02*
X87342000Y-69064000D01*
X88422000Y-69093000D02*
X88422000Y-71115000D01*
X86261000Y-67535000D02*
X86261000Y-69064000D01*
X88142000Y-71144000D02*
X88142000Y-71604000D01*
X86822000Y-67649000D02*
X86822000Y-69064000D01*
X86421000Y-67554000D02*
X86421000Y-69064000D01*
X86501000Y-71144000D02*
X86501000Y-72640000D01*
X86942000Y-71144000D02*
X86942000Y-72518000D01*
X87822000Y-71144000D02*
X87822000Y-71968000D01*
X86862000Y-67662000D02*
X86862000Y-69064000D01*
X86902000Y-71144000D02*
X86902000Y-72532000D01*
X87102000Y-71144000D02*
X87102000Y-72452000D01*
X87902000Y-68319000D02*
X87902000Y-69064000D01*
X86501000Y-67568000D02*
X86501000Y-69064000D01*
X88102000Y-68550000D02*
X88102000Y-69064000D01*
X87022000Y-71144000D02*
X87022000Y-72486000D01*
X87742000Y-68167000D02*
X87742000Y-69064000D01*
X86782000Y-67636000D02*
X86782000Y-69064000D01*
X87422000Y-71144000D02*
X87422000Y-72279000D01*
X88641000Y-70104000D02*
G75*
G03*
X88641000Y-70104000I-2620000J0D01*
G01*
X93531000Y-73874000D02*
X93531000Y-83294000D01*
X80741000Y-73874000D02*
X82451000Y-73874000D01*
X88361000Y-73874000D02*
X90071000Y-73874000D01*
X73471000Y-73874000D02*
X73471000Y-83294000D01*
X75581000Y-72584000D02*
X76181000Y-72584000D01*
X98331000Y-83294000D02*
X98331000Y-73874000D01*
X98331000Y-73874000D02*
X92171000Y-73874000D01*
X76931000Y-73874000D02*
X78641000Y-73874000D01*
X68671000Y-73874000D02*
X74831000Y-73874000D01*
X68671000Y-83294000D02*
X98331000Y-83294000D01*
X76181000Y-72584000D02*
X75881000Y-73184000D01*
X84551000Y-73874000D02*
X86261000Y-73874000D01*
X68671000Y-73874000D02*
X68671000Y-83294000D01*
X75881000Y-73184000D02*
X75581000Y-72584000D01*
X73471000Y-79984000D02*
X93531000Y-79984000D01*
X92451000Y-69725250D02*
X89851000Y-69725250D01*
X112831000Y-72325250D02*
X112831000Y-67125250D01*
X89851000Y-67125250D02*
X112831000Y-67125250D01*
X89851000Y-69725250D02*
X89851000Y-67125250D01*
X92451000Y-72325250D02*
X92451000Y-69725250D01*
X91181000Y-72325250D02*
X89851000Y-72325250D01*
X92451000Y-72325250D02*
X112831000Y-72325250D01*
X89851000Y-72325250D02*
X89851000Y-70995250D01*
X74615000Y-94405000D02*
X76565000Y-94405000D01*
X76565000Y-99905000D02*
X74615000Y-99905000D01*
X74615000Y-99905000D02*
X74615000Y-94405000D01*
X76565000Y-94405000D02*
X76565000Y-99905000D01*
X72075000Y-94405000D02*
X74025000Y-94405000D01*
X74025000Y-94405000D02*
X74025000Y-99905000D01*
X74025000Y-99905000D02*
X72075000Y-99905000D01*
X72075000Y-99905000D02*
X72075000Y-94405000D01*
X84236000Y-50472748D02*
X84236000Y-50995252D01*
X82766000Y-50472748D02*
X82766000Y-50995252D01*
X104375240Y-108812064D02*
X104375240Y-108357936D01*
X102905240Y-108812064D02*
X102905240Y-108357936D01*
X39140000Y-54820000D02*
X39140000Y-55600000D01*
X39140000Y-29860000D02*
X39140000Y-36275000D01*
X57380000Y-54820000D02*
X57380000Y-55600000D01*
X57380000Y-29860000D02*
X57380000Y-36275000D01*
X39140000Y-29860000D02*
X57380000Y-29860000D01*
X39140000Y-36275000D02*
X38760000Y-36275000D01*
X39140000Y-55600000D02*
X40140000Y-55600000D01*
X57380000Y-55600000D02*
X56380000Y-55600000D01*
X70026436Y-60044000D02*
X70480564Y-60044000D01*
X70026436Y-58574000D02*
X70480564Y-58574000D01*
X93030000Y-99905000D02*
X93030000Y-94405000D01*
X94980000Y-94405000D02*
X94980000Y-99905000D01*
X93030000Y-94405000D02*
X94980000Y-94405000D01*
X94980000Y-99905000D02*
X93030000Y-99905000D01*
X31690000Y-39370000D02*
X31690000Y-59750000D01*
X34290000Y-39370000D02*
X34290000Y-36770000D01*
X31690000Y-59750000D02*
X36890000Y-59750000D01*
X31690000Y-36770000D02*
X33020000Y-36770000D01*
X34290000Y-36770000D02*
X36890000Y-36770000D01*
X31690000Y-39370000D02*
X34290000Y-39370000D01*
X36890000Y-36770000D02*
X36890000Y-59750000D01*
X31690000Y-38100000D02*
X31690000Y-36770000D01*
D12*
X86400000Y-106125000D02*
G75*
G03*
X91400000Y-106125000I2500000J0D01*
G01*
X91400000Y-116125000D02*
G75*
G03*
X86400000Y-116125000I-2500000J0D01*
G01*
D10*
X80950000Y-103805000D02*
X80950000Y-102205000D01*
X81525000Y-103805000D02*
X81525000Y-109555000D01*
X81525000Y-103805000D02*
X80950000Y-103805000D01*
X70875000Y-109555000D02*
X71525000Y-109555000D01*
X81525000Y-109555000D02*
X80875000Y-109555000D01*
X70875000Y-103805000D02*
X71525000Y-103805000D01*
X70875000Y-103805000D02*
X70875000Y-109555000D01*
D13*
X71180000Y-115509250D02*
X71180000Y-115009250D01*
X77930000Y-115009250D02*
X78680000Y-115009250D01*
X71180000Y-120009250D02*
X71180000Y-118384250D01*
X78680000Y-120009250D02*
X71180000Y-120009250D01*
X71180000Y-115009250D02*
X71930000Y-115009250D01*
X78680000Y-115009250D02*
X78680000Y-115509250D01*
X78680000Y-118384250D02*
X78680000Y-120009250D01*
X73780000Y-113609250D02*
G75*
G03*
X73780000Y-113609250I-150000J0D01*
G01*
D11*
X100430000Y-96781252D02*
X100430000Y-96258748D01*
X98960000Y-96781252D02*
X98960000Y-96258748D01*
X97520000Y-99905000D02*
X95570000Y-99905000D01*
X97520000Y-94405000D02*
X97520000Y-99905000D01*
X95570000Y-94405000D02*
X97520000Y-94405000D01*
X95570000Y-99905000D02*
X95570000Y-94405000D01*
X70711000Y-63264000D02*
X73661000Y-63264000D01*
X69211000Y-64314000D02*
X69211000Y-62514000D01*
X68461000Y-70814000D02*
X68461000Y-72614000D01*
X68161000Y-71664000D02*
X68161000Y-72914000D01*
X69211000Y-72614000D02*
X69211000Y-70814000D01*
X68461000Y-65814000D02*
X68461000Y-69314000D01*
X68461000Y-72614000D02*
X69211000Y-72614000D01*
X74421000Y-72624000D02*
X74421000Y-62504000D01*
X70711000Y-72614000D02*
X70711000Y-71864000D01*
X69211000Y-62514000D02*
X68461000Y-62514000D01*
X73661000Y-63264000D02*
X73661000Y-67564000D01*
X68451000Y-62504000D02*
X68451000Y-72624000D01*
X74421000Y-62504000D02*
X68451000Y-62504000D01*
X68461000Y-69314000D02*
X69211000Y-69314000D01*
X68461000Y-64314000D02*
X69211000Y-64314000D01*
X69211000Y-70814000D02*
X68461000Y-70814000D01*
X70711000Y-62514000D02*
X70711000Y-63264000D01*
X68161000Y-72914000D02*
X69411000Y-72914000D01*
X69211000Y-65814000D02*
X68461000Y-65814000D01*
X70711000Y-71864000D02*
X73661000Y-71864000D01*
X69211000Y-69314000D02*
X69211000Y-65814000D01*
X68451000Y-72624000D02*
X74421000Y-72624000D01*
X73661000Y-71864000D02*
X73661000Y-67564000D01*
X68461000Y-62514000D02*
X68461000Y-64314000D01*
D12*
X83105000Y-83098000D02*
G75*
G03*
X83105000Y-88098000I0J-2500000D01*
G01*
X73105000Y-88098000D02*
G75*
G03*
X73105000Y-83098000I0J2500000D01*
G01*
D11*
X68161000Y-55174000D02*
X68161000Y-56424000D01*
X74421000Y-48514000D02*
X68451000Y-48514000D01*
X68461000Y-50324000D02*
X69211000Y-50324000D01*
X70711000Y-49274000D02*
X73661000Y-49274000D01*
X69211000Y-50324000D02*
X69211000Y-48524000D01*
X68461000Y-56124000D02*
X69211000Y-56124000D01*
X68451000Y-48514000D02*
X68451000Y-56134000D01*
X68461000Y-54324000D02*
X68461000Y-56124000D01*
X73661000Y-49274000D02*
X73661000Y-52324000D01*
X69211000Y-48524000D02*
X68461000Y-48524000D01*
X69211000Y-54324000D02*
X68461000Y-54324000D01*
X68461000Y-52824000D02*
X69211000Y-52824000D01*
X69211000Y-56124000D02*
X69211000Y-54324000D01*
X74421000Y-56134000D02*
X74421000Y-48514000D01*
X70711000Y-56124000D02*
X70711000Y-55374000D01*
X68461000Y-48524000D02*
X68461000Y-50324000D01*
X68461000Y-51824000D02*
X68461000Y-52824000D01*
X70711000Y-55374000D02*
X73661000Y-55374000D01*
X69211000Y-52824000D02*
X69211000Y-51824000D01*
X68451000Y-56134000D02*
X74421000Y-56134000D01*
X73661000Y-55374000D02*
X73661000Y-52324000D01*
X68161000Y-56424000D02*
X69411000Y-56424000D01*
X70711000Y-48524000D02*
X70711000Y-49274000D01*
X69211000Y-51824000D02*
X68461000Y-51824000D01*
D12*
X65405000Y-57995000D02*
G75*
G03*
X67945000Y-57995000I1270000J0D01*
G01*
X67945000Y-62655000D02*
G75*
G03*
X65405000Y-62655000I-1270000J0D01*
G01*
X65405000Y-48724000D02*
G75*
G03*
X67945000Y-48724000I1270000J0D01*
G01*
X67945000Y-53384000D02*
G75*
G03*
X65405000Y-53384000I-1270000J0D01*
G01*
D14*
X114101000Y-73199000D02*
X98621000Y-73199000D01*
X114101000Y-82249000D02*
X114101000Y-73199000D01*
X98621000Y-73199000D02*
X98621000Y-82249000D01*
X106691000Y-82249000D02*
X111211000Y-82249000D01*
X111851000Y-82249000D02*
X114101000Y-82249000D01*
X100891000Y-82249000D02*
X98621000Y-82249000D01*
X101531000Y-82249000D02*
X106051000Y-82249000D01*
X106051000Y-82249000D02*
G75*
G03*
X106691000Y-82249000I320000J125001D01*
G01*
X111211000Y-82249000D02*
G75*
G03*
X111851000Y-82249000I320000J125001D01*
G01*
X100891000Y-82249000D02*
G75*
G03*
X101531000Y-82249000I320000J125001D01*
G01*
X110361000Y-75854000D02*
G75*
G03*
X110361000Y-75854000I-100000J0D01*
G01*
G36*
X108611000Y-74549000D02*
G01*
X104111000Y-74549000D01*
X104111000Y-73299000D01*
X108611000Y-73299000D01*
X108611000Y-74549000D01*
G37*
D15*
X108611000Y-74549000D02*
X104111000Y-74549000D01*
X104111000Y-73299000D01*
X108611000Y-73299000D01*
X108611000Y-74549000D01*
%LPC*%
D16*
X111441000Y-41780250D03*
D17*
X111441000Y-44320250D03*
X108901000Y-41780250D03*
X108901000Y-44320250D03*
X106361000Y-41780250D03*
X106361000Y-44320250D03*
X103821000Y-41780250D03*
X103821000Y-44320250D03*
X101281000Y-41780250D03*
X101281000Y-44320250D03*
X98741000Y-41780250D03*
X98741000Y-44320250D03*
X96201000Y-41780250D03*
X96201000Y-44320250D03*
X93661000Y-41780250D03*
X93661000Y-44320250D03*
X91121000Y-41780250D03*
X91121000Y-44320250D03*
D18*
X65575000Y-79502000D03*
X65575000Y-78702000D03*
X67775000Y-78702000D03*
X67775000Y-80302000D03*
X67775000Y-79502000D03*
X65575000Y-80302000D03*
X65445000Y-96980000D03*
X70445000Y-93230000D03*
X70445000Y-91730000D03*
X65445000Y-90230000D03*
X70445000Y-93980000D03*
X65445000Y-96230000D03*
X65445000Y-94730000D03*
X70445000Y-90230000D03*
X70445000Y-94730000D03*
X70445000Y-96980000D03*
X70445000Y-96980000D03*
X70445000Y-92480000D03*
X65445000Y-90980000D03*
X65445000Y-93980000D03*
X70445000Y-97730000D03*
X65445000Y-96980000D03*
X70445000Y-90980000D03*
X65445000Y-97730000D03*
X65445000Y-91730000D03*
X70445000Y-96230000D03*
X65445000Y-95480000D03*
X70445000Y-95480000D03*
X65445000Y-92480000D03*
X65445000Y-93230000D03*
D19*
X83820000Y-89683792D03*
D20*
X83820000Y-93483792D03*
D18*
X65445000Y-114875000D03*
X65445000Y-114125000D03*
X65445000Y-107375000D03*
X65445000Y-114125000D03*
X65445000Y-111875000D03*
X65445000Y-113375000D03*
X65445000Y-108125000D03*
X70445000Y-111125000D03*
X70445000Y-107375000D03*
X70445000Y-110375000D03*
X70445000Y-108125000D03*
X70445000Y-114125000D03*
X65445000Y-112625000D03*
X70445000Y-111875000D03*
X70445000Y-109625000D03*
X65445000Y-108875000D03*
X70445000Y-114875000D03*
X65445000Y-110375000D03*
X70445000Y-113375000D03*
X65445000Y-111125000D03*
X65445000Y-109625000D03*
X70445000Y-108875000D03*
X70445000Y-114125000D03*
X70445000Y-112625000D03*
D21*
X112431000Y-47685250D03*
X111161000Y-47685250D03*
X109891000Y-47685250D03*
X108621000Y-47685250D03*
X107351000Y-47685250D03*
X106081000Y-47685250D03*
X104811000Y-47685250D03*
X103541000Y-47685250D03*
X102271000Y-47685250D03*
X101001000Y-47685250D03*
X99731000Y-47685250D03*
X98461000Y-47685250D03*
X97191000Y-47685250D03*
X95921000Y-47685250D03*
D22*
X94671000Y-50725250D03*
X94671000Y-51995250D03*
X94671000Y-53265250D03*
X94671000Y-54535250D03*
X94671000Y-55805250D03*
X94671000Y-57075250D03*
X94671000Y-58345250D03*
X94671000Y-59615250D03*
X94671000Y-60885250D03*
X94671000Y-62155250D03*
D21*
X95921000Y-65185250D03*
X97191000Y-65185250D03*
X98461000Y-65185250D03*
X99731000Y-65185250D03*
X101001000Y-65185250D03*
X102271000Y-65185250D03*
X103541000Y-65185250D03*
X104811000Y-65185250D03*
X106081000Y-65185250D03*
X107351000Y-65185250D03*
X108621000Y-65185250D03*
X109891000Y-65185250D03*
X111161000Y-65185250D03*
X112431000Y-65185250D03*
D23*
X105091000Y-56517750D03*
X103566000Y-54992750D03*
X104328500Y-55755250D03*
X105853500Y-54230250D03*
X105853500Y-55755250D03*
X105853500Y-57280250D03*
X104328500Y-54230250D03*
X105091000Y-54992750D03*
X103566000Y-56517750D03*
X106616000Y-56517750D03*
X106616000Y-54992750D03*
D24*
X105091000Y-55755250D03*
D23*
X104328500Y-57280250D03*
D25*
X82685240Y-109497500D03*
X82685240Y-107672500D03*
D18*
X91400000Y-96980000D03*
X91400000Y-94730000D03*
X86400000Y-95480000D03*
X86400000Y-92480000D03*
X86400000Y-93980000D03*
X91400000Y-90980000D03*
X86400000Y-90980000D03*
X91400000Y-96230000D03*
X86400000Y-96230000D03*
X86400000Y-94730000D03*
X91400000Y-93230000D03*
X86400000Y-90230000D03*
X91400000Y-97730000D03*
X91400000Y-93980000D03*
X86400000Y-96980000D03*
X91400000Y-95480000D03*
X91400000Y-96980000D03*
X86400000Y-93230000D03*
X91400000Y-92480000D03*
X91400000Y-91730000D03*
X86400000Y-96980000D03*
X91400000Y-90230000D03*
X86400000Y-97730000D03*
X86400000Y-91730000D03*
X65575000Y-42418000D03*
X65575000Y-41618000D03*
X67775000Y-41618000D03*
X67775000Y-43218000D03*
X67775000Y-42418000D03*
X65575000Y-43218000D03*
D16*
X63500000Y-58420000D03*
D17*
X60960000Y-58420000D03*
X63500000Y-55880000D03*
X60960000Y-55880000D03*
X63500000Y-53340000D03*
X60960000Y-53340000D03*
X63500000Y-50800000D03*
X60960000Y-50800000D03*
X63500000Y-48260000D03*
X60960000Y-48260000D03*
X63500000Y-45720000D03*
X60960000Y-45720000D03*
X63500000Y-43180000D03*
X60960000Y-43180000D03*
X63500000Y-40640000D03*
X60960000Y-40640000D03*
X63500000Y-38100000D03*
X60960000Y-38100000D03*
D26*
X44560000Y-115775000D03*
D27*
X48370000Y-115775000D03*
X52180000Y-115775000D03*
D28*
X45085000Y-58438372D03*
X51435000Y-58438372D03*
X45085000Y-63518372D03*
X51435000Y-63518372D03*
X45720000Y-81298372D03*
X48260000Y-81298372D03*
X50800000Y-81298372D03*
D29*
X40640000Y-64470872D03*
X40640000Y-77805872D03*
X55880000Y-77805872D03*
X55880000Y-64470872D03*
D28*
X38100000Y-68598372D03*
X38100000Y-71138372D03*
X38100000Y-73678372D03*
D30*
X98425000Y-89535000D03*
X98425000Y-92075000D03*
X95885000Y-89535000D03*
X95885000Y-92075000D03*
X93345000Y-89535000D03*
X93345000Y-92075000D03*
D31*
X82685240Y-103837500D03*
X82685240Y-105712500D03*
D18*
X65575000Y-69850000D03*
X65575000Y-69050000D03*
X67775000Y-69050000D03*
X67775000Y-70650000D03*
X67775000Y-69850000D03*
X65575000Y-70650000D03*
D19*
X77191000Y-70104000D03*
D20*
X79691000Y-70104000D03*
D32*
X44450000Y-87560000D03*
D33*
X46990000Y-87560000D03*
X49530000Y-87560000D03*
X52070000Y-87560000D03*
D34*
X37260000Y-88060000D03*
X59260000Y-88060000D03*
X59260000Y-110060000D03*
X37260000Y-110060000D03*
D18*
X101933000Y-83098000D03*
X102683000Y-88098000D03*
X95933000Y-88098000D03*
X97433000Y-88098000D03*
X100433000Y-83098000D03*
X101933000Y-88098000D03*
X101183000Y-88098000D03*
X95933000Y-83098000D03*
X95183000Y-83098000D03*
X95183000Y-88098000D03*
X96683000Y-83098000D03*
X101933000Y-83098000D03*
X99683000Y-88098000D03*
X97433000Y-83098000D03*
X96683000Y-88098000D03*
X98183000Y-83098000D03*
X98183000Y-88098000D03*
X101933000Y-88098000D03*
X99683000Y-83098000D03*
X100433000Y-88098000D03*
X101183000Y-83098000D03*
X98933000Y-83098000D03*
X98933000Y-88098000D03*
X102683000Y-83098000D03*
D25*
X89851000Y-64834000D03*
X89851000Y-63009000D03*
D30*
X77470000Y-89535000D03*
X77470000Y-92075000D03*
X74930000Y-89535000D03*
X74930000Y-92075000D03*
X72390000Y-89535000D03*
X72390000Y-92075000D03*
D35*
X79116000Y-42909000D03*
D36*
X81616000Y-42909000D03*
X84116000Y-42909000D03*
X86616000Y-42909000D03*
D37*
X101380000Y-103080000D03*
X100730000Y-103080000D03*
X100080000Y-103080000D03*
X99430000Y-103080000D03*
X98780000Y-103080000D03*
X98130000Y-103080000D03*
X97480000Y-103080000D03*
X96830000Y-103080000D03*
X96180000Y-103080000D03*
X95530000Y-103080000D03*
X94880000Y-103080000D03*
X94230000Y-103080000D03*
X93580000Y-103080000D03*
X92930000Y-103080000D03*
X92930000Y-110280000D03*
X93580000Y-110280000D03*
X94230000Y-110280000D03*
X94880000Y-110280000D03*
X95530000Y-110280000D03*
X96180000Y-110280000D03*
X96830000Y-110280000D03*
X97480000Y-110280000D03*
X98130000Y-110280000D03*
X98780000Y-110280000D03*
X99430000Y-110280000D03*
X100080000Y-110280000D03*
X100730000Y-110280000D03*
X101380000Y-110280000D03*
D38*
X77896000Y-62444000D03*
D39*
X77896000Y-59944000D03*
X77896000Y-57444000D03*
D40*
X75877500Y-47509000D03*
X75877500Y-48159000D03*
X75877500Y-48809000D03*
X75877500Y-49459000D03*
X75877500Y-50109000D03*
X75877500Y-50759000D03*
X75877500Y-51409000D03*
X75877500Y-52059000D03*
X81602500Y-52059000D03*
X81602500Y-51409000D03*
X81602500Y-50759000D03*
X81602500Y-50109000D03*
X81602500Y-49459000D03*
X81602500Y-48809000D03*
X81602500Y-48159000D03*
X81602500Y-47509000D03*
D31*
X103640240Y-103837500D03*
X103640240Y-105712500D03*
D41*
X72786000Y-59309000D03*
X74611000Y-59309000D03*
D19*
X104775000Y-89803792D03*
D20*
X104775000Y-93603792D03*
D42*
X94585000Y-115409250D03*
X95235000Y-115409250D03*
X95885000Y-115409250D03*
X96535000Y-115409250D03*
X97185000Y-115409250D03*
D43*
X92385000Y-116959250D03*
D44*
X93660000Y-114859250D03*
D45*
X95885000Y-116959250D03*
D43*
X99385000Y-116959250D03*
D44*
X98110000Y-114859250D03*
D46*
X83501000Y-63009000D03*
X83501000Y-64834000D03*
D47*
X78740000Y-97470000D03*
X78740000Y-95570000D03*
D41*
X75627500Y-53594000D03*
X77452500Y-53594000D03*
D19*
X103875000Y-115702500D03*
D20*
X103875000Y-118202500D03*
D48*
X79056000Y-53594000D03*
X80956000Y-53594000D03*
D49*
X85406000Y-58039000D03*
D50*
X87906000Y-58039000D03*
D51*
X85658500Y-62971500D03*
X85658500Y-64871500D03*
X87533500Y-63921500D03*
D19*
X82920000Y-115702500D03*
D20*
X82920000Y-118202500D03*
D52*
X70911000Y-45319000D03*
D53*
X70911000Y-42819000D03*
D19*
X84771000Y-70104000D03*
D20*
X87271000Y-70104000D03*
D26*
X75881000Y-75184000D03*
D27*
X79691000Y-75184000D03*
X83501000Y-75184000D03*
X87311000Y-75184000D03*
X91121000Y-75184000D03*
D16*
X91181000Y-70995250D03*
D17*
X91181000Y-68455250D03*
X93721000Y-70995250D03*
X93721000Y-68455250D03*
X96261000Y-70995250D03*
X96261000Y-68455250D03*
X98801000Y-70995250D03*
X98801000Y-68455250D03*
X101341000Y-70995250D03*
X101341000Y-68455250D03*
X103881000Y-70995250D03*
X103881000Y-68455250D03*
X106421000Y-70995250D03*
X106421000Y-68455250D03*
X108961000Y-70995250D03*
X108961000Y-68455250D03*
X111501000Y-70995250D03*
X111501000Y-68455250D03*
D54*
X75565000Y-98355000D03*
X75565000Y-95955000D03*
D55*
X75565000Y-95155000D03*
D56*
X75565000Y-99155000D03*
D54*
X73025000Y-95955000D03*
X73025000Y-98355000D03*
D55*
X73025000Y-95155000D03*
D56*
X73025000Y-99155000D03*
D57*
X83501000Y-49784000D03*
X83501000Y-51684000D03*
D25*
X103640240Y-109497500D03*
X103640240Y-107672500D03*
D22*
X39510000Y-37470000D03*
X39510000Y-38740000D03*
X39510000Y-40010000D03*
X39510000Y-41280000D03*
X39510000Y-42550000D03*
X39510000Y-43820000D03*
X39510000Y-45090000D03*
X39510000Y-46360000D03*
X39510000Y-47630000D03*
X39510000Y-48900000D03*
X39510000Y-50170000D03*
X39510000Y-51440000D03*
X39510000Y-52710000D03*
X39510000Y-53980000D03*
D21*
X42550000Y-55230000D03*
X43820000Y-55230000D03*
X45090000Y-55230000D03*
X46360000Y-55230000D03*
X47630000Y-55230000D03*
X48900000Y-55230000D03*
X50170000Y-55230000D03*
X51440000Y-55230000D03*
X52710000Y-55230000D03*
X53980000Y-55230000D03*
D22*
X57010000Y-53980000D03*
X57010000Y-52710000D03*
X57010000Y-51440000D03*
X57010000Y-50170000D03*
X57010000Y-48900000D03*
X57010000Y-47630000D03*
X57010000Y-46360000D03*
X57010000Y-45090000D03*
X57010000Y-43820000D03*
X57010000Y-42550000D03*
X57010000Y-41280000D03*
X57010000Y-40010000D03*
X57010000Y-38740000D03*
X57010000Y-37470000D03*
D23*
X48342500Y-44810000D03*
X46817500Y-46335000D03*
X46055000Y-45572500D03*
X46055000Y-44047500D03*
X48342500Y-46335000D03*
X47580000Y-45572500D03*
X49105000Y-44047500D03*
X49105000Y-45572500D03*
X47580000Y-44047500D03*
X48342500Y-43285000D03*
X46817500Y-44810000D03*
D24*
X47580000Y-44810000D03*
D23*
X46817500Y-43285000D03*
D41*
X69341000Y-59309000D03*
X71166000Y-59309000D03*
D54*
X93980000Y-98355000D03*
X93980000Y-95955000D03*
D55*
X93980000Y-95155000D03*
D56*
X93980000Y-99155000D03*
D16*
X33020000Y-38100000D03*
D17*
X35560000Y-38100000D03*
X33020000Y-40640000D03*
X35560000Y-40640000D03*
X33020000Y-43180000D03*
X35560000Y-43180000D03*
X33020000Y-45720000D03*
X35560000Y-45720000D03*
X33020000Y-48260000D03*
X35560000Y-48260000D03*
X33020000Y-50800000D03*
X35560000Y-50800000D03*
X33020000Y-53340000D03*
X35560000Y-53340000D03*
X33020000Y-55880000D03*
X35560000Y-55880000D03*
X33020000Y-58420000D03*
X35560000Y-58420000D03*
D18*
X91400000Y-110375000D03*
X86400000Y-111125000D03*
X91400000Y-114125000D03*
X91400000Y-113375000D03*
X91400000Y-107375000D03*
X91400000Y-112625000D03*
X91400000Y-111875000D03*
X91400000Y-111125000D03*
X86400000Y-111875000D03*
X86400000Y-114875000D03*
X91400000Y-114125000D03*
X86400000Y-112625000D03*
X91400000Y-108875000D03*
X86400000Y-114125000D03*
X86400000Y-114125000D03*
X86400000Y-113375000D03*
X91400000Y-108125000D03*
X86400000Y-110375000D03*
X91400000Y-114875000D03*
X86400000Y-109625000D03*
X86400000Y-107375000D03*
X86400000Y-108125000D03*
X91400000Y-109625000D03*
X86400000Y-108875000D03*
D37*
X80425000Y-103080000D03*
X79775000Y-103080000D03*
X79125000Y-103080000D03*
X78475000Y-103080000D03*
X77825000Y-103080000D03*
X77175000Y-103080000D03*
X76525000Y-103080000D03*
X75875000Y-103080000D03*
X75225000Y-103080000D03*
X74575000Y-103080000D03*
X73925000Y-103080000D03*
X73275000Y-103080000D03*
X72625000Y-103080000D03*
X71975000Y-103080000D03*
X71975000Y-110280000D03*
X72625000Y-110280000D03*
X73275000Y-110280000D03*
X73925000Y-110280000D03*
X74575000Y-110280000D03*
X75225000Y-110280000D03*
X75875000Y-110280000D03*
X76525000Y-110280000D03*
X77175000Y-110280000D03*
X77825000Y-110280000D03*
X78475000Y-110280000D03*
X79125000Y-110280000D03*
X79775000Y-110280000D03*
X80425000Y-110280000D03*
D42*
X73630000Y-115409250D03*
X74280000Y-115409250D03*
X74930000Y-115409250D03*
X75580000Y-115409250D03*
X76230000Y-115409250D03*
D43*
X71430000Y-116959250D03*
D44*
X72705000Y-114859250D03*
D45*
X74930000Y-116959250D03*
D43*
X78430000Y-116959250D03*
D44*
X77155000Y-114859250D03*
D47*
X99695000Y-97470000D03*
X99695000Y-95570000D03*
D54*
X96520000Y-98355000D03*
X96520000Y-95955000D03*
D55*
X96520000Y-95155000D03*
D56*
X96520000Y-99155000D03*
D38*
X70911000Y-70064000D03*
D39*
X70911000Y-67564000D03*
X70911000Y-65064000D03*
D18*
X75855000Y-88098000D03*
X79605000Y-83098000D03*
X78855000Y-88098000D03*
X80355000Y-88098000D03*
X81105000Y-88098000D03*
X81855000Y-83098000D03*
X75855000Y-83098000D03*
X81105000Y-83098000D03*
X80355000Y-83098000D03*
X75105000Y-88098000D03*
X78855000Y-83098000D03*
X77355000Y-88098000D03*
X76605000Y-88098000D03*
X75105000Y-83098000D03*
X81105000Y-83098000D03*
X77355000Y-83098000D03*
X74355000Y-88098000D03*
X74355000Y-83098000D03*
X78105000Y-88098000D03*
X79605000Y-88098000D03*
X78105000Y-83098000D03*
X81105000Y-88098000D03*
X81855000Y-88098000D03*
X76605000Y-83098000D03*
D52*
X70911000Y-53574000D03*
D53*
X70911000Y-51074000D03*
D18*
X65575000Y-60325000D03*
X65575000Y-59525000D03*
X67775000Y-59525000D03*
X67775000Y-61125000D03*
X67775000Y-60325000D03*
X65575000Y-61125000D03*
X65575000Y-51054000D03*
X65575000Y-50254000D03*
X67775000Y-50254000D03*
X67775000Y-51854000D03*
X67775000Y-51054000D03*
X65575000Y-51854000D03*
D58*
X108901000Y-76454000D03*
X108901000Y-78994000D03*
X106361000Y-76454000D03*
X106361000Y-78994000D03*
X103821000Y-76454000D03*
X103821000Y-78994000D03*
X45720000Y-97790000D03*
X45720000Y-100330000D03*
X48260000Y-97790000D03*
X48260000Y-100330000D03*
X50800000Y-97790000D03*
X50800000Y-100330000D03*
M02*
