M48
; DRILL file {KiCad 6.0.11+dfsg-1} date Tue 22 Oct 2024 12:29:05 PM CEST
; FORMAT={-:-/ absolute / metric / decimal}
; #@! TF.CreationDate,2024-10-22T12:29:05+02:00
; #@! TF.GenerationSoftware,Kicad,Pcbnew,6.0.11+dfsg-1
; #@! TF.FileFunction,NonPlated,1,2,NPTH
FMAT,2
METRIC
; #@! TA.AperFunction,NonPlated,NPTH,ComponentDrill
T1C0.500
%
G90
G05
T1
X65.445Y-90.23
X65.445Y-90.98
X65.445Y-91.73
X65.445Y-92.48
X65.445Y-93.23
X65.445Y-93.98
X65.445Y-94.73
X65.445Y-95.48
X65.445Y-96.23
X65.445Y-96.98
X65.445Y-96.98
X65.445Y-97.73
X65.445Y-107.375
X65.445Y-108.125
X65.445Y-108.875
X65.445Y-109.625
X65.445Y-110.375
X65.445Y-111.125
X65.445Y-111.875
X65.445Y-112.625
X65.445Y-113.375
X65.445Y-114.125
X65.445Y-114.125
X65.445Y-114.875
X65.575Y-41.618
X65.575Y-42.418
X65.575Y-43.218
X65.575Y-50.254
X65.575Y-51.054
X65.575Y-51.854
X65.575Y-59.525
X65.575Y-60.325
X65.575Y-61.125
X65.575Y-69.05
X65.575Y-69.85
X65.575Y-70.65
X65.575Y-78.702
X65.575Y-79.502
X65.575Y-80.302
X67.775Y-41.618
X67.775Y-42.418
X67.775Y-43.218
X67.775Y-50.254
X67.775Y-51.054
X67.775Y-51.854
X67.775Y-59.525
X67.775Y-60.325
X67.775Y-61.125
X67.775Y-69.05
X67.775Y-69.85
X67.775Y-70.65
X67.775Y-78.702
X67.775Y-79.502
X67.775Y-80.302
X70.445Y-90.23
X70.445Y-90.98
X70.445Y-91.73
X70.445Y-92.48
X70.445Y-93.23
X70.445Y-93.98
X70.445Y-94.73
X70.445Y-95.48
X70.445Y-96.23
X70.445Y-96.98
X70.445Y-96.98
X70.445Y-97.73
X70.445Y-107.375
X70.445Y-108.125
X70.445Y-108.875
X70.445Y-109.625
X70.445Y-110.375
X70.445Y-111.125
X70.445Y-111.875
X70.445Y-112.625
X70.445Y-113.375
X70.445Y-114.125
X70.445Y-114.125
X70.445Y-114.875
X74.355Y-83.098
X74.355Y-88.098
X75.105Y-83.098
X75.105Y-88.098
X75.855Y-83.098
X75.855Y-88.098
X76.605Y-83.098
X76.605Y-88.098
X77.355Y-83.098
X77.355Y-88.098
X78.105Y-83.098
X78.105Y-88.098
X78.855Y-83.098
X78.855Y-88.098
X79.605Y-83.098
X79.605Y-88.098
X80.355Y-83.098
X80.355Y-88.098
X81.105Y-83.098
X81.105Y-83.098
X81.105Y-88.098
X81.105Y-88.098
X81.855Y-83.098
X81.855Y-88.098
X86.4Y-90.23
X86.4Y-90.98
X86.4Y-91.73
X86.4Y-92.48
X86.4Y-93.23
X86.4Y-93.98
X86.4Y-94.73
X86.4Y-95.48
X86.4Y-96.23
X86.4Y-96.98
X86.4Y-96.98
X86.4Y-97.73
X86.4Y-107.375
X86.4Y-108.125
X86.4Y-108.875
X86.4Y-109.625
X86.4Y-110.375
X86.4Y-111.125
X86.4Y-111.875
X86.4Y-112.625
X86.4Y-113.375
X86.4Y-114.125
X86.4Y-114.125
X86.4Y-114.875
X91.4Y-90.23
X91.4Y-90.98
X91.4Y-91.73
X91.4Y-92.48
X91.4Y-93.23
X91.4Y-93.98
X91.4Y-94.73
X91.4Y-95.48
X91.4Y-96.23
X91.4Y-96.98
X91.4Y-96.98
X91.4Y-97.73
X91.4Y-107.375
X91.4Y-108.125
X91.4Y-108.875
X91.4Y-109.625
X91.4Y-110.375
X91.4Y-111.125
X91.4Y-111.875
X91.4Y-112.625
X91.4Y-113.375
X91.4Y-114.125
X91.4Y-114.125
X91.4Y-114.875
X95.183Y-83.098
X95.183Y-88.098
X95.933Y-83.098
X95.933Y-88.098
X96.683Y-83.098
X96.683Y-88.098
X97.433Y-83.098
X97.433Y-88.098
X98.183Y-83.098
X98.183Y-88.098
X98.933Y-83.098
X98.933Y-88.098
X99.683Y-83.098
X99.683Y-88.098
X100.433Y-83.098
X100.433Y-88.098
X101.183Y-83.098
X101.183Y-88.098
X101.933Y-83.098
X101.933Y-83.098
X101.933Y-88.098
X101.933Y-88.098
X102.683Y-83.098
X102.683Y-88.098
T0
M30
