G04 #@! TF.GenerationSoftware,KiCad,Pcbnew,6.0.11+dfsg-1*
G04 #@! TF.CreationDate,2024-10-22T12:29:11+02:00*
G04 #@! TF.ProjectId,kaarten_shieter,6b616172-7465-46e5-9f73-686965746572,rev?*
G04 #@! TF.SameCoordinates,Original*
G04 #@! TF.FileFunction,Paste,Top*
G04 #@! TF.FilePolarity,Positive*
%FSLAX46Y46*%
G04 Gerber Fmt 4.6, Leading zero omitted, Abs format (unit mm)*
G04 Created by KiCad (PCBNEW 6.0.11+dfsg-1) date 2024-10-22 12:29:11*
%MOMM*%
%LPD*%
G01*
G04 APERTURE LIST*
G04 Aperture macros list*
%AMRoundRect*
0 Rectangle with rounded corners*
0 $1 Rounding radius*
0 $2 $3 $4 $5 $6 $7 $8 $9 X,Y pos of 4 corners*
0 Add a 4 corners polygon primitive as box body*
4,1,4,$2,$3,$4,$5,$6,$7,$8,$9,$2,$3,0*
0 Add four circle primitives for the rounded corners*
1,1,$1+$1,$2,$3*
1,1,$1+$1,$4,$5*
1,1,$1+$1,$6,$7*
1,1,$1+$1,$8,$9*
0 Add four rect primitives between the rounded corners*
20,1,$1+$1,$2,$3,$4,$5,0*
20,1,$1+$1,$4,$5,$6,$7,0*
20,1,$1+$1,$6,$7,$8,$9,0*
20,1,$1+$1,$8,$9,$2,$3,0*%
G04 Aperture macros list end*
%ADD10R,0.900000X1.500000*%
%ADD11R,1.500000X0.900000*%
%ADD12R,1.050000X1.050000*%
%ADD13RoundRect,0.250000X0.450000X-0.262500X0.450000X0.262500X-0.450000X0.262500X-0.450000X-0.262500X0*%
%ADD14RoundRect,0.243750X-0.456250X0.243750X-0.456250X-0.243750X0.456250X-0.243750X0.456250X0.243750X0*%
%ADD15R,0.450000X1.750000*%
%ADD16RoundRect,0.100000X-0.637500X-0.100000X0.637500X-0.100000X0.637500X0.100000X-0.637500X0.100000X0*%
%ADD17RoundRect,0.250000X-0.262500X-0.450000X0.262500X-0.450000X0.262500X0.450000X-0.262500X0.450000X0*%
%ADD18R,0.400000X1.200000*%
%ADD19R,3.000000X0.900000*%
%ADD20RoundRect,0.250000X-0.450000X0.262500X-0.450000X-0.262500X0.450000X-0.262500X0.450000X0.262500X0*%
%ADD21RoundRect,0.250000X0.475000X-0.250000X0.475000X0.250000X-0.475000X0.250000X-0.475000X-0.250000X0*%
%ADD22RoundRect,0.250000X-0.250000X-0.475000X0.250000X-0.475000X0.250000X0.475000X-0.250000X0.475000X0*%
%ADD23RoundRect,0.150000X-0.587500X-0.150000X0.587500X-0.150000X0.587500X0.150000X-0.587500X0.150000X0*%
%ADD24RoundRect,0.250000X-0.475000X0.250000X-0.475000X-0.250000X0.475000X-0.250000X0.475000X0.250000X0*%
G04 APERTURE END LIST*
D10*
X112431000Y-47685250D03*
X111161000Y-47685250D03*
X109891000Y-47685250D03*
X108621000Y-47685250D03*
X107351000Y-47685250D03*
X106081000Y-47685250D03*
X104811000Y-47685250D03*
X103541000Y-47685250D03*
X102271000Y-47685250D03*
X101001000Y-47685250D03*
X99731000Y-47685250D03*
X98461000Y-47685250D03*
X97191000Y-47685250D03*
X95921000Y-47685250D03*
D11*
X94671000Y-50725250D03*
X94671000Y-51995250D03*
X94671000Y-53265250D03*
X94671000Y-54535250D03*
X94671000Y-55805250D03*
X94671000Y-57075250D03*
X94671000Y-58345250D03*
X94671000Y-59615250D03*
X94671000Y-60885250D03*
X94671000Y-62155250D03*
D10*
X95921000Y-65185250D03*
X97191000Y-65185250D03*
X98461000Y-65185250D03*
X99731000Y-65185250D03*
X101001000Y-65185250D03*
X102271000Y-65185250D03*
X103541000Y-65185250D03*
X104811000Y-65185250D03*
X106081000Y-65185250D03*
X107351000Y-65185250D03*
X108621000Y-65185250D03*
X109891000Y-65185250D03*
X111161000Y-65185250D03*
X112431000Y-65185250D03*
D12*
X105091000Y-55755250D03*
X103566000Y-57280250D03*
X105091000Y-57280250D03*
X103566000Y-54230250D03*
X106616000Y-57280250D03*
X106616000Y-54230250D03*
X105091000Y-54230250D03*
X103566000Y-55755250D03*
X106616000Y-55755250D03*
D13*
X82685240Y-109497500D03*
X82685240Y-107672500D03*
D14*
X82685240Y-103837500D03*
X82685240Y-105712500D03*
D13*
X89851000Y-64834000D03*
X89851000Y-63009000D03*
D15*
X101380000Y-103080000D03*
X100730000Y-103080000D03*
X100080000Y-103080000D03*
X99430000Y-103080000D03*
X98780000Y-103080000D03*
X98130000Y-103080000D03*
X97480000Y-103080000D03*
X96830000Y-103080000D03*
X96180000Y-103080000D03*
X95530000Y-103080000D03*
X94880000Y-103080000D03*
X94230000Y-103080000D03*
X93580000Y-103080000D03*
X92930000Y-103080000D03*
X92930000Y-110280000D03*
X93580000Y-110280000D03*
X94230000Y-110280000D03*
X94880000Y-110280000D03*
X95530000Y-110280000D03*
X96180000Y-110280000D03*
X96830000Y-110280000D03*
X97480000Y-110280000D03*
X98130000Y-110280000D03*
X98780000Y-110280000D03*
X99430000Y-110280000D03*
X100080000Y-110280000D03*
X100730000Y-110280000D03*
X101380000Y-110280000D03*
D16*
X75877500Y-47509000D03*
X75877500Y-48159000D03*
X75877500Y-48809000D03*
X75877500Y-49459000D03*
X75877500Y-50109000D03*
X75877500Y-50759000D03*
X75877500Y-51409000D03*
X75877500Y-52059000D03*
X81602500Y-52059000D03*
X81602500Y-51409000D03*
X81602500Y-50759000D03*
X81602500Y-50109000D03*
X81602500Y-49459000D03*
X81602500Y-48809000D03*
X81602500Y-48159000D03*
X81602500Y-47509000D03*
D14*
X103640240Y-103837500D03*
X103640240Y-105712500D03*
D17*
X72786000Y-59309000D03*
X74611000Y-59309000D03*
D18*
X94585000Y-115409250D03*
X95235000Y-115409250D03*
X95885000Y-115409250D03*
X96535000Y-115409250D03*
X97185000Y-115409250D03*
D19*
X95885000Y-116959250D03*
D20*
X83501000Y-63009000D03*
X83501000Y-64834000D03*
D21*
X78740000Y-97470000D03*
X78740000Y-95570000D03*
D17*
X75627500Y-53594000D03*
X77452500Y-53594000D03*
D22*
X79056000Y-53594000D03*
X80956000Y-53594000D03*
D23*
X85658500Y-62971500D03*
X85658500Y-64871500D03*
X87533500Y-63921500D03*
D24*
X83501000Y-49784000D03*
X83501000Y-51684000D03*
D13*
X103640240Y-109497500D03*
X103640240Y-107672500D03*
D11*
X39510000Y-37470000D03*
X39510000Y-38740000D03*
X39510000Y-40010000D03*
X39510000Y-41280000D03*
X39510000Y-42550000D03*
X39510000Y-43820000D03*
X39510000Y-45090000D03*
X39510000Y-46360000D03*
X39510000Y-47630000D03*
X39510000Y-48900000D03*
X39510000Y-50170000D03*
X39510000Y-51440000D03*
X39510000Y-52710000D03*
X39510000Y-53980000D03*
D10*
X42550000Y-55230000D03*
X43820000Y-55230000D03*
X45090000Y-55230000D03*
X46360000Y-55230000D03*
X47630000Y-55230000D03*
X48900000Y-55230000D03*
X50170000Y-55230000D03*
X51440000Y-55230000D03*
X52710000Y-55230000D03*
X53980000Y-55230000D03*
D11*
X57010000Y-53980000D03*
X57010000Y-52710000D03*
X57010000Y-51440000D03*
X57010000Y-50170000D03*
X57010000Y-48900000D03*
X57010000Y-47630000D03*
X57010000Y-46360000D03*
X57010000Y-45090000D03*
X57010000Y-43820000D03*
X57010000Y-42550000D03*
X57010000Y-41280000D03*
X57010000Y-40010000D03*
X57010000Y-38740000D03*
X57010000Y-37470000D03*
D12*
X47580000Y-43285000D03*
X47580000Y-44810000D03*
X46055000Y-43285000D03*
X49105000Y-43285000D03*
X47580000Y-46335000D03*
X46055000Y-44810000D03*
X49105000Y-46335000D03*
X46055000Y-46335000D03*
X49105000Y-44810000D03*
D17*
X69341000Y-59309000D03*
X71166000Y-59309000D03*
D15*
X80425000Y-103080000D03*
X79775000Y-103080000D03*
X79125000Y-103080000D03*
X78475000Y-103080000D03*
X77825000Y-103080000D03*
X77175000Y-103080000D03*
X76525000Y-103080000D03*
X75875000Y-103080000D03*
X75225000Y-103080000D03*
X74575000Y-103080000D03*
X73925000Y-103080000D03*
X73275000Y-103080000D03*
X72625000Y-103080000D03*
X71975000Y-103080000D03*
X71975000Y-110280000D03*
X72625000Y-110280000D03*
X73275000Y-110280000D03*
X73925000Y-110280000D03*
X74575000Y-110280000D03*
X75225000Y-110280000D03*
X75875000Y-110280000D03*
X76525000Y-110280000D03*
X77175000Y-110280000D03*
X77825000Y-110280000D03*
X78475000Y-110280000D03*
X79125000Y-110280000D03*
X79775000Y-110280000D03*
X80425000Y-110280000D03*
D18*
X73630000Y-115409250D03*
X74280000Y-115409250D03*
X74930000Y-115409250D03*
X75580000Y-115409250D03*
X76230000Y-115409250D03*
D19*
X74930000Y-116959250D03*
D21*
X99695000Y-97470000D03*
X99695000Y-95570000D03*
M02*
