G04 #@! TF.GenerationSoftware,KiCad,Pcbnew,6.0.11+dfsg-1*
G04 #@! TF.CreationDate,2024-10-22T12:29:11+02:00*
G04 #@! TF.ProjectId,kaarten_shieter,6b616172-7465-46e5-9f73-686965746572,rev?*
G04 #@! TF.SameCoordinates,Original*
G04 #@! TF.FileFunction,Soldermask,Bot*
G04 #@! TF.FilePolarity,Negative*
%FSLAX46Y46*%
G04 Gerber Fmt 4.6, Leading zero omitted, Abs format (unit mm)*
G04 Created by KiCad (PCBNEW 6.0.11+dfsg-1) date 2024-10-22 12:29:11*
%MOMM*%
%LPD*%
G01*
G04 APERTURE LIST*
G04 Aperture macros list*
%AMRoundRect*
0 Rectangle with rounded corners*
0 $1 Rounding radius*
0 $2 $3 $4 $5 $6 $7 $8 $9 X,Y pos of 4 corners*
0 Add a 4 corners polygon primitive as box body*
4,1,4,$2,$3,$4,$5,$6,$7,$8,$9,$2,$3,0*
0 Add four circle primitives for the rounded corners*
1,1,$1+$1,$2,$3*
1,1,$1+$1,$4,$5*
1,1,$1+$1,$6,$7*
1,1,$1+$1,$8,$9*
0 Add four rect primitives between the rounded corners*
20,1,$1+$1,$2,$3,$4,$5,0*
20,1,$1+$1,$4,$5,$6,$7,0*
20,1,$1+$1,$6,$7,$8,$9,0*
20,1,$1+$1,$8,$9,$2,$3,0*%
G04 Aperture macros list end*
%ADD10R,1.700000X1.700000*%
%ADD11O,1.700000X1.700000*%
%ADD12C,0.500000*%
%ADD13R,1.600000X1.600000*%
%ADD14C,1.600000*%
%ADD15RoundRect,0.250000X-0.650000X-1.550000X0.650000X-1.550000X0.650000X1.550000X-0.650000X1.550000X0*%
%ADD16O,1.800000X3.600000*%
%ADD17C,1.982000*%
%ADD18C,2.490000*%
%ADD19C,1.734000*%
%ADD20RoundRect,0.102000X-0.754000X-0.754000X0.754000X-0.754000X0.754000X0.754000X-0.754000X0.754000X0*%
%ADD21C,1.712000*%
%ADD22C,3.204000*%
%ADD23RoundRect,0.250000X-0.600000X-0.725000X0.600000X-0.725000X0.600000X0.725000X-0.600000X0.725000X0*%
%ADD24O,1.700000X1.950000*%
%ADD25RoundRect,0.250000X0.725000X-0.600000X0.725000X0.600000X-0.725000X0.600000X-0.725000X-0.600000X0*%
%ADD26O,1.950000X1.700000*%
%ADD27O,1.404000X2.604000*%
%ADD28O,1.254000X2.304000*%
%ADD29RoundRect,0.250000X-0.600000X-0.750000X0.600000X-0.750000X0.600000X0.750000X-0.600000X0.750000X0*%
%ADD30O,1.700000X2.000000*%
%ADD31RoundRect,0.250000X0.750000X-0.600000X0.750000X0.600000X-0.750000X0.600000X-0.750000X-0.600000X0*%
%ADD32O,2.000000X1.700000*%
%ADD33C,1.854000*%
%ADD34RoundRect,0.250000X0.250000X0.475000X-0.250000X0.475000X-0.250000X-0.475000X0.250000X-0.475000X0*%
%ADD35RoundRect,0.243750X-0.243750X-0.456250X0.243750X-0.456250X0.243750X0.456250X-0.243750X0.456250X0*%
%ADD36RoundRect,0.250000X0.262500X0.450000X-0.262500X0.450000X-0.262500X-0.450000X0.262500X-0.450000X0*%
%ADD37RoundRect,0.250000X-0.250000X-0.475000X0.250000X-0.475000X0.250000X0.475000X-0.250000X0.475000X0*%
%ADD38RoundRect,0.250000X0.475000X-0.250000X0.475000X0.250000X-0.475000X0.250000X-0.475000X-0.250000X0*%
%ADD39R,1.600000X1.400000*%
%ADD40RoundRect,0.250000X-0.450000X0.262500X-0.450000X-0.262500X0.450000X-0.262500X0.450000X0.262500X0*%
%ADD41RoundRect,0.250000X-0.262500X-0.450000X0.262500X-0.450000X0.262500X0.450000X-0.262500X0.450000X0*%
%ADD42R,0.600000X1.050000*%
%ADD43RoundRect,0.250000X-0.475000X0.250000X-0.475000X-0.250000X0.475000X-0.250000X0.475000X0.250000X0*%
%ADD44RoundRect,0.100000X-0.100000X0.637500X-0.100000X-0.637500X0.100000X-0.637500X0.100000X0.637500X0*%
%ADD45RoundRect,0.243750X-0.456250X0.243750X-0.456250X-0.243750X0.456250X-0.243750X0.456250X0.243750X0*%
G04 APERTURE END LIST*
D10*
X111441000Y-41780250D03*
D11*
X111441000Y-44320250D03*
X108901000Y-41780250D03*
X108901000Y-44320250D03*
X106361000Y-41780250D03*
X106361000Y-44320250D03*
X103821000Y-41780250D03*
X103821000Y-44320250D03*
X101281000Y-41780250D03*
X101281000Y-44320250D03*
X98741000Y-41780250D03*
X98741000Y-44320250D03*
X96201000Y-41780250D03*
X96201000Y-44320250D03*
X93661000Y-41780250D03*
X93661000Y-44320250D03*
X91121000Y-41780250D03*
X91121000Y-44320250D03*
D12*
X65575000Y-79502000D03*
X65575000Y-78702000D03*
X67775000Y-78702000D03*
X67775000Y-80302000D03*
X67775000Y-79502000D03*
X65575000Y-80302000D03*
X65445000Y-96980000D03*
X70445000Y-93230000D03*
X70445000Y-91730000D03*
X65445000Y-90230000D03*
X70445000Y-93980000D03*
X65445000Y-96230000D03*
X65445000Y-94730000D03*
X70445000Y-90230000D03*
X70445000Y-94730000D03*
X70445000Y-96980000D03*
X70445000Y-96980000D03*
X70445000Y-92480000D03*
X65445000Y-90980000D03*
X65445000Y-93980000D03*
X70445000Y-97730000D03*
X65445000Y-96980000D03*
X70445000Y-90980000D03*
X65445000Y-97730000D03*
X65445000Y-91730000D03*
X70445000Y-96230000D03*
X65445000Y-95480000D03*
X70445000Y-95480000D03*
X65445000Y-92480000D03*
X65445000Y-93230000D03*
D13*
X83820000Y-89683792D03*
D14*
X83820000Y-93483792D03*
D12*
X65445000Y-114875000D03*
X65445000Y-114125000D03*
X65445000Y-107375000D03*
X65445000Y-114125000D03*
X65445000Y-111875000D03*
X65445000Y-113375000D03*
X65445000Y-108125000D03*
X70445000Y-111125000D03*
X70445000Y-107375000D03*
X70445000Y-110375000D03*
X70445000Y-108125000D03*
X70445000Y-114125000D03*
X65445000Y-112625000D03*
X70445000Y-111875000D03*
X70445000Y-109625000D03*
X65445000Y-108875000D03*
X70445000Y-114875000D03*
X65445000Y-110375000D03*
X70445000Y-113375000D03*
X65445000Y-111125000D03*
X65445000Y-109625000D03*
X70445000Y-108875000D03*
X70445000Y-114125000D03*
X70445000Y-112625000D03*
X91400000Y-96980000D03*
X91400000Y-94730000D03*
X86400000Y-95480000D03*
X86400000Y-92480000D03*
X86400000Y-93980000D03*
X91400000Y-90980000D03*
X86400000Y-90980000D03*
X91400000Y-96230000D03*
X86400000Y-96230000D03*
X86400000Y-94730000D03*
X91400000Y-93230000D03*
X86400000Y-90230000D03*
X91400000Y-97730000D03*
X91400000Y-93980000D03*
X86400000Y-96980000D03*
X91400000Y-95480000D03*
X91400000Y-96980000D03*
X86400000Y-93230000D03*
X91400000Y-92480000D03*
X91400000Y-91730000D03*
X86400000Y-96980000D03*
X91400000Y-90230000D03*
X86400000Y-97730000D03*
X86400000Y-91730000D03*
X65575000Y-42418000D03*
X65575000Y-41618000D03*
X67775000Y-41618000D03*
X67775000Y-43218000D03*
X67775000Y-42418000D03*
X65575000Y-43218000D03*
D10*
X63500000Y-58420000D03*
D11*
X60960000Y-58420000D03*
X63500000Y-55880000D03*
X60960000Y-55880000D03*
X63500000Y-53340000D03*
X60960000Y-53340000D03*
X63500000Y-50800000D03*
X60960000Y-50800000D03*
X63500000Y-48260000D03*
X60960000Y-48260000D03*
X63500000Y-45720000D03*
X60960000Y-45720000D03*
X63500000Y-43180000D03*
X60960000Y-43180000D03*
X63500000Y-40640000D03*
X60960000Y-40640000D03*
X63500000Y-38100000D03*
X60960000Y-38100000D03*
D15*
X44560000Y-115775000D03*
D16*
X48370000Y-115775000D03*
X52180000Y-115775000D03*
D17*
X45085000Y-58438372D03*
X51435000Y-58438372D03*
X45085000Y-63518372D03*
X51435000Y-63518372D03*
X45720000Y-81298372D03*
X48260000Y-81298372D03*
X50800000Y-81298372D03*
D18*
X40640000Y-64470872D03*
X40640000Y-77805872D03*
X55880000Y-77805872D03*
X55880000Y-64470872D03*
D17*
X38100000Y-68598372D03*
X38100000Y-71138372D03*
X38100000Y-73678372D03*
D19*
X98425000Y-89535000D03*
X98425000Y-92075000D03*
X95885000Y-89535000D03*
X95885000Y-92075000D03*
X93345000Y-89535000D03*
X93345000Y-92075000D03*
D12*
X65575000Y-69850000D03*
X65575000Y-69050000D03*
X67775000Y-69050000D03*
X67775000Y-70650000D03*
X67775000Y-69850000D03*
X65575000Y-70650000D03*
D13*
X77191000Y-70104000D03*
D14*
X79691000Y-70104000D03*
D20*
X44450000Y-87560000D03*
D21*
X46990000Y-87560000D03*
X49530000Y-87560000D03*
X52070000Y-87560000D03*
D22*
X37260000Y-88060000D03*
X59260000Y-88060000D03*
X59260000Y-110060000D03*
X37260000Y-110060000D03*
D12*
X101933000Y-83098000D03*
X102683000Y-88098000D03*
X95933000Y-88098000D03*
X97433000Y-88098000D03*
X100433000Y-83098000D03*
X101933000Y-88098000D03*
X101183000Y-88098000D03*
X95933000Y-83098000D03*
X95183000Y-83098000D03*
X95183000Y-88098000D03*
X96683000Y-83098000D03*
X101933000Y-83098000D03*
X99683000Y-88098000D03*
X97433000Y-83098000D03*
X96683000Y-88098000D03*
X98183000Y-83098000D03*
X98183000Y-88098000D03*
X101933000Y-88098000D03*
X99683000Y-83098000D03*
X100433000Y-88098000D03*
X101183000Y-83098000D03*
X98933000Y-83098000D03*
X98933000Y-88098000D03*
X102683000Y-83098000D03*
D19*
X77470000Y-89535000D03*
X77470000Y-92075000D03*
X74930000Y-89535000D03*
X74930000Y-92075000D03*
X72390000Y-89535000D03*
X72390000Y-92075000D03*
D23*
X79116000Y-42909000D03*
D24*
X81616000Y-42909000D03*
X84116000Y-42909000D03*
X86616000Y-42909000D03*
D25*
X77896000Y-62444000D03*
D26*
X77896000Y-59944000D03*
X77896000Y-57444000D03*
D13*
X104775000Y-89803792D03*
D14*
X104775000Y-93603792D03*
D27*
X92385000Y-116959250D03*
D28*
X93660000Y-114859250D03*
D27*
X99385000Y-116959250D03*
D28*
X98110000Y-114859250D03*
D13*
X103875000Y-115702500D03*
D14*
X103875000Y-118202500D03*
D29*
X85406000Y-58039000D03*
D30*
X87906000Y-58039000D03*
D13*
X82920000Y-115702500D03*
D14*
X82920000Y-118202500D03*
D31*
X70911000Y-45319000D03*
D32*
X70911000Y-42819000D03*
D13*
X84771000Y-70104000D03*
D14*
X87271000Y-70104000D03*
D15*
X75881000Y-75184000D03*
D16*
X79691000Y-75184000D03*
X83501000Y-75184000D03*
X87311000Y-75184000D03*
X91121000Y-75184000D03*
D10*
X91181000Y-70995250D03*
D11*
X91181000Y-68455250D03*
X93721000Y-70995250D03*
X93721000Y-68455250D03*
X96261000Y-70995250D03*
X96261000Y-68455250D03*
X98801000Y-70995250D03*
X98801000Y-68455250D03*
X101341000Y-70995250D03*
X101341000Y-68455250D03*
X103881000Y-70995250D03*
X103881000Y-68455250D03*
X106421000Y-70995250D03*
X106421000Y-68455250D03*
X108961000Y-70995250D03*
X108961000Y-68455250D03*
X111501000Y-70995250D03*
X111501000Y-68455250D03*
D10*
X33020000Y-38100000D03*
D11*
X35560000Y-38100000D03*
X33020000Y-40640000D03*
X35560000Y-40640000D03*
X33020000Y-43180000D03*
X35560000Y-43180000D03*
X33020000Y-45720000D03*
X35560000Y-45720000D03*
X33020000Y-48260000D03*
X35560000Y-48260000D03*
X33020000Y-50800000D03*
X35560000Y-50800000D03*
X33020000Y-53340000D03*
X35560000Y-53340000D03*
X33020000Y-55880000D03*
X35560000Y-55880000D03*
X33020000Y-58420000D03*
X35560000Y-58420000D03*
D12*
X91400000Y-110375000D03*
X86400000Y-111125000D03*
X91400000Y-114125000D03*
X91400000Y-113375000D03*
X91400000Y-107375000D03*
X91400000Y-112625000D03*
X91400000Y-111875000D03*
X91400000Y-111125000D03*
X86400000Y-111875000D03*
X86400000Y-114875000D03*
X91400000Y-114125000D03*
X86400000Y-112625000D03*
X91400000Y-108875000D03*
X86400000Y-114125000D03*
X86400000Y-114125000D03*
X86400000Y-113375000D03*
X91400000Y-108125000D03*
X86400000Y-110375000D03*
X91400000Y-114875000D03*
X86400000Y-109625000D03*
X86400000Y-107375000D03*
X86400000Y-108125000D03*
X91400000Y-109625000D03*
X86400000Y-108875000D03*
D27*
X71430000Y-116959250D03*
D28*
X72705000Y-114859250D03*
D27*
X78430000Y-116959250D03*
D28*
X77155000Y-114859250D03*
D25*
X70911000Y-70064000D03*
D26*
X70911000Y-67564000D03*
X70911000Y-65064000D03*
D12*
X75855000Y-88098000D03*
X79605000Y-83098000D03*
X78855000Y-88098000D03*
X80355000Y-88098000D03*
X81105000Y-88098000D03*
X81855000Y-83098000D03*
X75855000Y-83098000D03*
X81105000Y-83098000D03*
X80355000Y-83098000D03*
X75105000Y-88098000D03*
X78855000Y-83098000D03*
X77355000Y-88098000D03*
X76605000Y-88098000D03*
X75105000Y-83098000D03*
X81105000Y-83098000D03*
X77355000Y-83098000D03*
X74355000Y-88098000D03*
X74355000Y-83098000D03*
X78105000Y-88098000D03*
X79605000Y-88098000D03*
X78105000Y-83098000D03*
X81105000Y-88098000D03*
X81855000Y-88098000D03*
X76605000Y-83098000D03*
D31*
X70911000Y-53574000D03*
D32*
X70911000Y-51074000D03*
D12*
X65575000Y-60325000D03*
X65575000Y-59525000D03*
X67775000Y-59525000D03*
X67775000Y-61125000D03*
X67775000Y-60325000D03*
X65575000Y-61125000D03*
X65575000Y-51054000D03*
X65575000Y-50254000D03*
X67775000Y-50254000D03*
X67775000Y-51854000D03*
X67775000Y-51054000D03*
X65575000Y-51854000D03*
D33*
X108901000Y-76454000D03*
X108901000Y-78994000D03*
X106361000Y-76454000D03*
X106361000Y-78994000D03*
X103821000Y-76454000D03*
X103821000Y-78994000D03*
D34*
X99691000Y-49784000D03*
X97791000Y-49784000D03*
X109851000Y-61214000D03*
X107951000Y-61214000D03*
D33*
X45720000Y-97790000D03*
X45720000Y-100330000D03*
X48260000Y-97790000D03*
X48260000Y-100330000D03*
X50800000Y-97790000D03*
X50800000Y-100330000D03*
D35*
X110503500Y-57035250D03*
X112378500Y-57035250D03*
D36*
X102258500Y-97459800D03*
X100433500Y-97459800D03*
D37*
X110491000Y-52324000D03*
X112391000Y-52324000D03*
D38*
X39390000Y-39050000D03*
X39390000Y-37150000D03*
D39*
X47180000Y-51090000D03*
X39180000Y-51090000D03*
X47180000Y-55590000D03*
X39180000Y-55590000D03*
D40*
X75881000Y-78146500D03*
X75881000Y-79971500D03*
D41*
X69341000Y-61214000D03*
X71166000Y-61214000D03*
D39*
X57340000Y-55590000D03*
X49340000Y-55590000D03*
X57340000Y-51090000D03*
X49340000Y-51090000D03*
D40*
X45720000Y-39727500D03*
X45720000Y-41552500D03*
D34*
X49210000Y-53340000D03*
X47310000Y-53340000D03*
D37*
X110491000Y-47244000D03*
X112391000Y-47244000D03*
D42*
X98740000Y-97620000D03*
X96840000Y-97620000D03*
X97790000Y-95420000D03*
D41*
X79478500Y-95554800D03*
X81303500Y-95554800D03*
X110528500Y-54864000D03*
X112353500Y-54864000D03*
D43*
X84919760Y-116169638D03*
X84919760Y-118069638D03*
X39390000Y-42230000D03*
X39390000Y-44130000D03*
D44*
X85036000Y-48191500D03*
X85686000Y-48191500D03*
X86336000Y-48191500D03*
X86986000Y-48191500D03*
X87636000Y-48191500D03*
X88286000Y-48191500D03*
X88936000Y-48191500D03*
X89586000Y-48191500D03*
X89586000Y-53916500D03*
X88936000Y-53916500D03*
X88286000Y-53916500D03*
X87636000Y-53916500D03*
X86986000Y-53916500D03*
X86336000Y-53916500D03*
X85686000Y-53916500D03*
X85036000Y-53916500D03*
D43*
X91121000Y-51374000D03*
X91121000Y-53274000D03*
X106006000Y-116242500D03*
X106006000Y-118142500D03*
D40*
X83501000Y-78146500D03*
X83501000Y-79971500D03*
D38*
X42555000Y-39050000D03*
X42555000Y-37150000D03*
D36*
X81303500Y-97459800D03*
X79478500Y-97459800D03*
D45*
X48260000Y-39702500D03*
X48260000Y-41577500D03*
X79691000Y-78056500D03*
X79691000Y-79931500D03*
D39*
X99821000Y-52034000D03*
X107821000Y-52034000D03*
X99821000Y-47534000D03*
X107821000Y-47534000D03*
D42*
X105770000Y-97620000D03*
X103870000Y-97620000D03*
X104820000Y-95420000D03*
D41*
X100433500Y-95554800D03*
X102258500Y-95554800D03*
D39*
X107821000Y-63234000D03*
X99821000Y-63234000D03*
X99821000Y-58734000D03*
X107821000Y-58734000D03*
D40*
X91121000Y-47941500D03*
X91121000Y-49766500D03*
D36*
X109813500Y-49784000D03*
X107988500Y-49784000D03*
D43*
X80879760Y-116169637D03*
X80879760Y-118069637D03*
D45*
X87311000Y-78121500D03*
X87311000Y-79996500D03*
D38*
X83501000Y-53274000D03*
X83501000Y-51374000D03*
D42*
X84815000Y-97620000D03*
X82915000Y-97620000D03*
X83865000Y-95420000D03*
D41*
X72786000Y-61214000D03*
X74611000Y-61214000D03*
D42*
X77785000Y-97620000D03*
X75885000Y-97620000D03*
X76835000Y-95420000D03*
D40*
X42555000Y-42267500D03*
X42555000Y-44092500D03*
D43*
X101834760Y-116169637D03*
X101834760Y-118069637D03*
M02*
