M48
; DRILL file {KiCad 6.0.11+dfsg-1} date Tue 22 Oct 2024 12:29:05 PM CEST
; FORMAT={-:-/ absolute / metric / decimal}
; #@! TF.CreationDate,2024-10-22T12:29:05+02:00
; #@! TF.GenerationSoftware,Kicad,Pcbnew,6.0.11+dfsg-1
; #@! TF.FileFunction,Plated,1,2,PTH
FMAT,2
METRIC
; #@! TA.AperFunction,Plated,PTH,ComponentDrill
T1C0.200
; #@! TA.AperFunction,Plated,PTH,ViaDrill
T2C0.400
; #@! TA.AperFunction,Plated,PTH,ComponentDrill
T3C0.600
; #@! TA.AperFunction,Plated,PTH,ComponentDrill
T4C0.650
; #@! TA.AperFunction,Plated,PTH,ComponentDrill
T5C0.800
; #@! TA.AperFunction,Plated,PTH,ComponentDrill
T6C0.889
; #@! TA.AperFunction,Plated,PTH,ComponentDrill
T7C0.900
; #@! TA.AperFunction,Plated,PTH,ComponentDrill
T8C0.950
; #@! TA.AperFunction,Plated,PTH,ComponentDrill
T9C1.000
; #@! TA.AperFunction,Plated,PTH,ComponentDrill
T10C1.020
; #@! TA.AperFunction,Plated,PTH,ComponentDrill
T11C1.100
; #@! TA.AperFunction,Plated,PTH,ComponentDrill
T12C1.200
; #@! TA.AperFunction,Plated,PTH,ComponentDrill
T13C1.397
; #@! TA.AperFunction,Plated,PTH,ComponentDrill
T14C2.000
%
G90
G05
T1
X46.055Y-44.047
X46.055Y-45.572
X46.817Y-43.285
X46.817Y-44.81
X46.817Y-46.335
X47.58Y-44.047
X47.58Y-45.572
X48.343Y-43.285
X48.343Y-44.81
X48.343Y-46.335
X49.105Y-44.047
X49.105Y-45.572
X103.566Y-54.993
X103.566Y-56.518
X104.328Y-54.23
X104.328Y-55.755
X104.328Y-57.28
X105.091Y-54.993
X105.091Y-56.518
X105.853Y-54.23
X105.853Y-55.755
X105.853Y-57.28
X106.616Y-54.993
X106.616Y-56.518
T2
X42.55Y-55.23
X44.45Y-52.705
X46.863Y-94.488
X49.21Y-53.34
X49.53Y-93.345
X54.102Y-91.44
X70.485Y-80.645
X70.968Y-48.26
X71.867Y-110.28
X72.39Y-74.93
X73.025Y-99.155
X73.12Y-95.155
X73.66Y-113.665
X74.196Y-111.859
X74.611Y-49.149
X74.611Y-50.419
X74.863Y-48.093
X74.891Y-51.409
X75.228Y-111.517
X75.875Y-109.143
X76.525Y-104.217
X76.89Y-50.759
X77.47Y-101.6
X78.472Y-100.965
X78.74Y-48.26
X79.772Y-99.695
X80.211Y-51.419
X80.645Y-103.08
X80.961Y-52.27
X82.614Y-50.042
X82.915Y-97.62
X85.658Y-62.971
X85.71Y-47.266
X86.803Y-47.08
X86.995Y-60.96
X87.442Y-55.24
X87.636Y-52.994
X87.81Y-47.087
X88.247Y-49.188
X88.936Y-47.258
X89.144Y-55.108
X90.17Y-57.785
X90.339Y-46.897
X91.121Y-49.767
X91.756Y-46.609
X91.756Y-55.499
X92.822Y-110.28
X93.345Y-55.245
X93.98Y-99.155
X94.075Y-95.155
X94.615Y-113.665
X94.671Y-55.805
X94.671Y-57.075
X94.671Y-58.345
X94.671Y-59.615
X95.151Y-111.859
X96.183Y-111.517
X96.83Y-109.143
X97.191Y-65.185
X97.48Y-104.217
X98.425Y-101.6
X99.427Y-100.965
X99.821Y-63.234
X100.727Y-99.695
X101.6Y-103.08
X103.87Y-97.62
X104.14Y-73.66
X111.125Y-73.66
X112.445Y-59.055
T4
X72.705Y-114.859
X77.155Y-114.859
X93.66Y-114.859
X98.11Y-114.859
T5
X77.191Y-70.104
X79.691Y-70.104
X82.92Y-115.703
X82.92Y-118.203
X83.82Y-89.684
X83.82Y-93.484
X84.771Y-70.104
X87.271Y-70.104
X103.875Y-115.703
X103.875Y-118.203
X104.775Y-89.804
X104.775Y-93.604
T6
X38.1Y-68.598
X38.1Y-71.138
X38.1Y-73.678
X45.72Y-81.298
X48.26Y-81.298
X50.8Y-81.298
T7
X45.085Y-58.438
X45.085Y-63.518
X51.435Y-58.438
X51.435Y-63.518
T8
X70.911Y-65.064
X70.911Y-67.564
X70.911Y-70.064
X77.896Y-57.444
X77.896Y-59.944
X77.896Y-62.444
X79.116Y-42.909
X81.616Y-42.909
X84.116Y-42.909
X86.616Y-42.909
T9
X33.02Y-38.1
X33.02Y-40.64
X33.02Y-43.18
X33.02Y-45.72
X33.02Y-48.26
X33.02Y-50.8
X33.02Y-53.34
X33.02Y-55.88
X33.02Y-58.42
X35.56Y-38.1
X35.56Y-40.64
X35.56Y-43.18
X35.56Y-45.72
X35.56Y-48.26
X35.56Y-50.8
X35.56Y-53.34
X35.56Y-55.88
X35.56Y-58.42
X44.45Y-87.56
X46.99Y-87.56
X49.53Y-87.56
X52.07Y-87.56
X60.96Y-38.1
X60.96Y-40.64
X60.96Y-43.18
X60.96Y-45.72
X60.96Y-48.26
X60.96Y-50.8
X60.96Y-53.34
X60.96Y-55.88
X60.96Y-58.42
X63.5Y-38.1
X63.5Y-40.64
X63.5Y-43.18
X63.5Y-45.72
X63.5Y-48.26
X63.5Y-50.8
X63.5Y-53.34
X63.5Y-55.88
X63.5Y-58.42
X70.911Y-42.819
X70.911Y-45.319
X70.911Y-51.074
X70.911Y-53.574
X85.406Y-58.039
X87.906Y-58.039
X91.121Y-41.78
X91.121Y-44.32
X91.181Y-68.455
X91.181Y-70.995
X93.661Y-41.78
X93.661Y-44.32
X93.721Y-68.455
X93.721Y-70.995
X96.201Y-41.78
X96.201Y-44.32
X96.261Y-68.455
X96.261Y-70.995
X98.741Y-41.78
X98.741Y-44.32
X98.801Y-68.455
X98.801Y-70.995
X101.281Y-41.78
X101.281Y-44.32
X101.341Y-68.455
X101.341Y-70.995
X103.821Y-41.78
X103.821Y-44.32
X103.881Y-68.455
X103.881Y-70.995
X106.361Y-41.78
X106.361Y-44.32
X106.421Y-68.455
X106.421Y-70.995
X108.901Y-41.78
X108.901Y-44.32
X108.961Y-68.455
X108.961Y-70.995
X111.441Y-41.78
X111.441Y-44.32
X111.501Y-68.455
X111.501Y-70.995
T10
X72.39Y-89.535
X72.39Y-92.075
X74.93Y-89.535
X74.93Y-92.075
X77.47Y-89.535
X77.47Y-92.075
X93.345Y-89.535
X93.345Y-92.075
X95.885Y-89.535
X95.885Y-92.075
X98.425Y-89.535
X98.425Y-92.075
T11
X45.72Y-97.79
X45.72Y-100.33
X48.26Y-97.79
X48.26Y-100.33
X50.8Y-97.79
X50.8Y-100.33
X103.821Y-76.454
X103.821Y-78.994
X106.361Y-76.454
X106.361Y-78.994
X108.901Y-76.454
X108.901Y-78.994
T12
X44.56Y-115.775
X48.37Y-115.775
X52.18Y-115.775
X75.881Y-75.184
X79.691Y-75.184
X83.501Y-75.184
X87.311Y-75.184
X91.121Y-75.184
T13
X40.64Y-64.471
X40.64Y-77.806
X55.88Y-64.471
X55.88Y-77.806
T14
X37.26Y-88.06
X37.26Y-110.06
X59.26Y-88.06
X59.26Y-110.06
T3
G00X71.43Y-117.359
M15
G01X71.43Y-116.559
M16
G05
G00X78.43Y-117.359
M15
G01X78.43Y-116.559
M16
G05
G00X92.385Y-117.359
M15
G01X92.385Y-116.559
M16
G05
G00X99.385Y-117.359
M15
G01X99.385Y-116.559
M16
G05
T0
M30
