  0
SECTION
  2
BLOCKS
  0
ENDSEC
  0
SECTION
  2
ENTITIES
  0
LINE
  8
0
 10
50
 20
50
 11
-50
 21
50
  0
LINE
  8
0
 10
-50
 20
50
 11
-50
 21
-50
  0
LINE
  8
0
 10
-50
 20
-50
 11
50
 21
-50
  0
LINE
  8
0
 10
50
 20
-50
 11
50
 21
50
  0
LINE
  8
0
 10
-0.292206
 20
-2.33176
 11
-0.522919
 21
-2.29108
  0
LINE
  8
0
 10
-0.522919
 20
-2.29108
 11
-0.748444
 21
-2.22762
  0
LINE
  8
0
 10
-0.748444
 20
-2.22762
 11
-0.966522
 21
-2.14203
  0
LINE
  8
0
 10
-0.966522
 20
-2.14203
 11
-1.17499
 21
-2.03516
  0
LINE
  8
0
 10
-1.17499
 20
-2.03516
 11
-1.3718
 21
-1.90805
  0
LINE
  8
0
 10
-1.3718
 20
-1.90805
 11
-1.55495
 21
-1.76198
  0
LINE
  8
0
 10
-1.55495
 20
-1.76198
 11
-1.72267
 21
-1.5984
  0
LINE
  8
0
 10
-1.72267
 20
-1.5984
 11
-1.87326
 21
-1.41893
  0
LINE
  8
0
 10
-1.87326
 20
-1.41893
 11
-2.00522
 21
-1.22537
  0
LINE
  8
0
 10
-2.00522
 20
-1.22537
 11
-2.11726
 21
-1.01962
  0
LINE
  8
0
 10
-2.11726
 20
-1.01962
 11
-2.20827
 21
-0.803741
  0
LINE
  8
0
 10
-2.20827
 20
-0.803741
 11
-2.27733
 21
-0.57988
  0
LINE
  8
0
 10
-2.27733
 20
-0.57988
 11
-2.32375
 21
-0.350235
  0
LINE
  8
0
 10
-2.32375
 20
-0.350235
 11
-2.34708
 21
-0.117126
  0
LINE
  8
0
 10
-2.34708
 20
-0.117126
 11
-2.34708
 21
0.117126
  0
LINE
  8
0
 10
-2.34708
 20
0.117126
 11
-2.32375
 21
0.350235
  0
LINE
  8
0
 10
-2.32375
 20
0.350235
 11
-2.27733
 21
0.57988
  0
LINE
  8
0
 10
-2.27733
 20
0.57988
 11
-2.20827
 21
0.803741
  0
LINE
  8
0
 10
-2.20827
 20
0.803741
 11
-2.11726
 21
1.01962
  0
LINE
  8
0
 10
-2.11726
 20
1.01962
 11
-2.00522
 21
1.22537
  0
LINE
  8
0
 10
-2.00522
 20
1.22537
 11
-1.87326
 21
1.41893
  0
LINE
  8
0
 10
-1.87326
 20
1.41893
 11
-1.72267
 21
1.5984
  0
LINE
  8
0
 10
-1.72267
 20
1.5984
 11
-1.55495
 21
1.76198
  0
LINE
  8
0
 10
-1.55495
 20
1.76198
 11
-1.3718
 21
1.90805
  0
LINE
  8
0
 10
-1.3718
 20
1.90805
 11
-1.17499
 21
2.03516
  0
LINE
  8
0
 10
-1.17499
 20
2.03516
 11
-0.966522
 21
2.14203
  0
LINE
  8
0
 10
-0.966522
 20
2.14203
 11
-0.748444
 21
2.22762
  0
LINE
  8
0
 10
-0.748444
 20
2.22762
 11
-0.522919
 21
2.29108
  0
LINE
  8
0
 10
-0.522919
 20
2.29108
 11
-0.292206
 21
2.33176
  0
LINE
  8
0
 10
-0.292206
 20
2.33176
 11
-0.0585785
 21
2.34926
  0
LINE
  8
0
 10
-0.0585785
 20
2.34926
 11
0.175613
 21
2.34341
  0
LINE
  8
0
 10
0.175613
 20
2.34341
 11
0.408066
 21
2.31429
  0
LINE
  8
0
 10
0.408066
 20
2.31429
 11
0.636475
 21
2.26216
  0
LINE
  8
0
 10
0.636475
 20
2.26216
 11
0.858551
 21
2.18755
  0
LINE
  8
0
 10
0.858551
 20
2.18755
 11
1.07208
 21
2.09119
  0
LINE
  8
0
 10
1.07208
 20
2.09119
 11
1.27498
 21
1.97406
  0
LINE
  8
0
 10
1.27498
 20
1.97406
 11
1.46519
 21
1.8373
  0
LINE
  8
0
 10
1.46519
 20
1.8373
 11
1.64085
 21
1.68228
  0
LINE
  8
0
 10
1.64085
 20
1.68228
 11
1.75
 21
1.56465
  0
LINE
  8
0
 10
1.75
 20
1.56465
 11
1.75
 21
-1.56465
  0
LINE
  8
0
 10
1.75
 20
-1.56465
 11
1.64085
 21
-1.68228
  0
LINE
  8
0
 10
1.64085
 20
-1.68228
 11
1.46519
 21
-1.8373
  0
LINE
  8
0
 10
1.46519
 20
-1.8373
 11
1.27498
 21
-1.97406
  0
LINE
  8
0
 10
1.27498
 20
-1.97406
 11
1.07208
 21
-2.09119
  0
LINE
  8
0
 10
1.07208
 20
-2.09119
 11
0.858551
 21
-2.18755
  0
LINE
  8
0
 10
0.858551
 20
-2.18755
 11
0.636475
 21
-2.26216
  0
LINE
  8
0
 10
0.636475
 20
-2.26216
 11
0.408066
 21
-2.31429
  0
LINE
  8
0
 10
0.408066
 20
-2.31429
 11
0.175613
 21
-2.34341
  0
LINE
  8
0
 10
0.175613
 20
-2.34341
 11
-0.0585785
 21
-2.34926
  0
LINE
  8
0
 10
-0.0585785
 20
-2.34926
 11
-0.292206
 21
-2.33176
  0
ENDSEC
  0
SECTION
  2
OBJECTS
  0
DICTIONARY
  0
ENDSEC
  0
EOF
